<?xml version="1.0" encoding="utf-8"?>
<!-- Generator: Adobe Illustrator 25.1.0, SVG Export Plug-In . SVG Version: 6.00 Build 0)  -->
<svg version="1.1" id="Layer_1" xmlns="http://www.w3.org/2000/svg" xmlns:xlink="http://www.w3.org/1999/xlink" x="0px" y="0px"
	 viewBox="0 0 3710 3710" style="enable-background:new 0 0 3710 3710;" xml:space="preserve">
<style type="text/css">
	.st0{fill:#FFFFFF;}
	.st1{fill:#6366F1;}
	.st2{fill:url(#SVGID_1_);}
	.st3{fill:url(#SVGID_2_);}
	.st4{fill:url(#SVGID_3_);}
	.st5{fill:#DE8BDF;}
	.st6{opacity:0.64;fill:#FFFFFF;enable-background:new    ;}
	.st7{opacity:0.64;}
	.st8{fill:url(#SVGID_4_);}
	.st9{fill:url(#SVGID_5_);}
	.st10{fill:url(#SVGID_6_);}
	.st11{fill:url(#SVGID_7_);}
	.st12{fill:url(#SVGID_8_);}
	.st13{fill:url(#SVGID_9_);}
	.st14{fill:url(#SVGID_10_);}
	.st15{fill:url(#SVGID_11_);}
	.st16{fill:url(#SVGID_12_);}
	.st17{fill:url(#SVGID_13_);}
	.st18{fill:url(#SVGID_14_);}
	.st19{fill:url(#SVGID_15_);}
	.st20{fill:url(#SVGID_16_);}
	.st21{fill:url(#SVGID_17_);}
	.st22{opacity:0.3;fill:url(#SVGID_18_);enable-background:new    ;}
	.st23{fill:url(#SVGID_19_);}
	.st24{fill:url(#SVGID_20_);}
	.st25{fill:url(#SVGID_21_);}
	.st26{fill:url(#SVGID_22_);}
	.st27{opacity:0.3;fill:url(#SVGID_23_);enable-background:new    ;}
	.st28{fill:url(#SVGID_24_);}
	.st29{fill:url(#SVGID_25_);}
	.st30{fill:#26264F;}
	.st31{fill:url(#SVGID_26_);}
	.st32{fill:#FBBC04;}
	.st33{fill:#4285F4;}
	.st34{fill:#34A853;}
	.st35{fill:url(#SVGID_27_);}
	.st36{fill:url(#SVGID_28_);}
	.st37{fill:url(#SVGID_29_);}
</style>
<g>
	<g id="Background">
		<rect x="-2.3" y="3" class="st0" width="3710" height="3710"/>
	</g>
	<g id="Illustration">
		<path class="st1" d="M3328.6,2458.7c-222.2,252.2-593.2,227.3-592.4,346.2c0.9,131.3,453.1,153.4,461.6,277
			c11.4,167.4-794.1,489.4-1635,357.6c-289.7-45.4-564-89.3-800.6-303.1C113.7,2550.5,588.6,1310.3,666,1105
			c153-405.7,342.4-536.5,401-577.3c305-212.2,656-177.3,969.3-146.2c237.3,23.6,592.7,63.7,917.1,331.1
			c55.3,45.6,177.3,154,287.3,326C3507.9,1456.5,3626,2121.1,3328.6,2458.7z"/>
		
			<linearGradient id="SVGID_1_" gradientUnits="userSpaceOnUse" x1="2633.3835" y1="917.6638" x2="1345.5236" y2="2016.2737" gradientTransform="matrix(1 0 0 -1 0 3710)">
			<stop  offset="0" style="stop-color:#444B8C"/>
			<stop  offset="1" style="stop-color:#26264F"/>
		</linearGradient>
		<path class="st2" d="M2342.2,497.9v2670.4c0,39.9-34.1,49.8-72.9,52.5l-1353,120.8l-20.9,1.5c-42.9,3-78-29-78-71.1V453
			c0-42.1,35.2-75.5,78-74.1l28.3,0.9l1357.6,103.6C2320.1,484.6,2342.2,458,2342.2,497.9z"/>
		
			<linearGradient id="SVGID_2_" gradientUnits="userSpaceOnUse" x1="1943.298" y1="750.7425" x2="6741.5586" y2="572.2525" gradientTransform="matrix(6.123234e-17 -1 -1 -6.123234e-17 2320.97 5144.3198)">
			<stop  offset="0" style="stop-color:#444B8C"/>
			<stop  offset="1" style="stop-color:#26264F"/>
		</linearGradient>
		<path class="st3" d="M2383.6,497.9v2668.9c0,39.9-31.6,74.8-70.3,77.5l-1374.9,97.1c-42.8,3-77.9-29-77.9-71.1V453
			c0-42.1,35.1-75.5,77.9-74.1L2313.2,423C2352,424.3,2383.6,458,2383.6,497.9z"/>
		
			<linearGradient id="SVGID_3_" gradientUnits="userSpaceOnUse" x1="2021.899" y1="2379.4785" x2="407.5091" y2="208.8186" gradientTransform="matrix(1 0 0 -1 0 3710)">
			<stop  offset="0" style="stop-color:#FFC444"/>
			<stop  offset="1" style="stop-color:#F36F56"/>
		</linearGradient>
		<path class="st4" d="M2339.9,644.8v2473.9c0,37.3-29.6,69.8-65.8,72.3l-1292.8,88.6c-39.8,2.7-72.5-27.1-72.5-66.4V610.3
			c0-39.2,32.7-70.5,72.5-69.4l1292.8,34.3C2310.3,576.2,2339.9,607.5,2339.9,644.8z"/>
		<path class="st5" d="M1668.1,485c0.1,13.7-10.8,24.9-24.5,25c-0.3,0-0.7,0-1,0c-14.2-0.5-25.5-12.2-25.6-26.5
			c-0.1-13.7,10.8-24.9,24.5-25c0.4,0,0.7,0,1.1,0C1656.8,459.1,1668.1,470.8,1668.1,485z"/>
		<polygon class="st6" points="2236.4,3158.7 1021.7,3181.7 1021.7,2674.1 2236.4,2659.9 		"/>
		<polygon class="st6" points="1919,2460.7 1375.2,2493.3 1375.2,1996.1 1919,1972.1 		"/>
		<g class="st7">
			<path class="st0" d="M1388.9,1714.3c0,97.2-81.5,177.7-182.5,179.8c-101.7,2.1-184.6-75.9-184.6-174.2s82.9-178.8,184.6-179.8
				C1307.4,1539.1,1388.9,1617.1,1388.9,1714.3z"/>
			<path class="st0" d="M1818.3,1707.8c0,95.9-79.3,175.3-177.7,177.3c-99,2.1-179.7-74.9-179.7-171.9s80.7-176.4,179.7-177.4
				C1739,1534.9,1818.3,1611.9,1818.3,1707.8z"/>
			<path class="st0" d="M2236.4,1701.5c0,94.7-77.2,173-173,174.9c-96.4,2-174.9-74-174.9-169.7s78.6-174,174.9-175
				C2159.2,1530.8,2236.4,1606.8,2236.4,1701.5z"/>
		</g>
		<path class="st6" d="M1045.1,691.3v722.2c0,24,18.6,43,41.5,42.5l1297.4-28c19.2-0.4,34.6-18.5,34.6-40.3V729.3L1045.1,691.3z"/>
		
			<linearGradient id="SVGID_4_" gradientUnits="userSpaceOnUse" x1="1838.3519" y1="3192.459" x2="1260.822" y2="2248.3289" gradientTransform="matrix(1 0 0 -1 0 3710)">
			<stop  offset="0" style="stop-color:#FF9085"/>
			<stop  offset="1" style="stop-color:#FB6FBB"/>
		</linearGradient>
		<path class="st8" d="M2383.9,644.6L1086.6,601c-22.9-0.8-41.5,18-41.5,42v74l1373.5,35.7v-67.4
			C2418.6,663.5,2403.1,645.2,2383.9,644.6z"/>
		<path class="st0" d="M1140.1,660.4c0,10.6-8.2,19-18.3,18.7s-18.3-9.1-18.3-19.8s8.2-19,18.3-18.7S1140.1,649.8,1140.1,660.4z"/>
		<polygon class="st0" points="1328.7,1357.6 1225.5,1359.2 1225.5,823.5 1328.7,825.5 		"/>
		
			<linearGradient id="SVGID_5_" gradientUnits="userSpaceOnUse" x1="1334.7982" y1="2658.7385" x2="1197.5482" y2="2230.4385" gradientTransform="matrix(1 0 0 -1 0 3710)">
			<stop  offset="0" style="stop-color:#FF9085"/>
			<stop  offset="1" style="stop-color:#FB6FBB"/>
		</linearGradient>
		<polygon class="st9" points="1328.7,1357.6 1225.5,1359.2 1225.5,1104.9 1328.7,1105 		"/>
		<polygon class="st0" points="1469.9,1355.5 1368.7,1357 1368.7,826.3 1469.9,828.2 		"/>
		
			<linearGradient id="SVGID_6_" gradientUnits="userSpaceOnUse" x1="1451.2634" y1="2516.53" x2="1375.2235" y2="2279.25" gradientTransform="matrix(1 0 0 -1 0 3710)">
			<stop  offset="0" style="stop-color:#FF9085"/>
			<stop  offset="1" style="stop-color:#FB6FBB"/>
		</linearGradient>
		<polygon class="st10" points="1469.9,1355.5 1368.7,1357 1368.7,1231 1469.9,1230.3 		"/>
		<polygon class="st0" points="1608.5,1353.3 1509.2,1354.9 1509.2,829 1608.5,830.9 		"/>
		
			<linearGradient id="SVGID_7_" gradientUnits="userSpaceOnUse" x1="1578.6515" y1="2450.4675" x2="1531.6016" y2="2303.6375" gradientTransform="matrix(1 0 0 -1 0 3710)">
			<stop  offset="0" style="stop-color:#FF9085"/>
			<stop  offset="1" style="stop-color:#FB6FBB"/>
		</linearGradient>
		<polygon class="st11" points="1608.5,1353.3 1509.2,1354.9 1509.2,1289.3 1608.5,1288.2 		"/>
		<polygon class="st0" points="1744.7,1351.2 1647.1,1352.7 1647.1,831.7 1744.7,833.6 		"/>
		
			<linearGradient id="SVGID_8_" gradientUnits="userSpaceOnUse" x1="1783.8571" y1="2836.7087" x2="1574.4871" y2="2183.3289" gradientTransform="matrix(1 0 0 -1 0 3710)">
			<stop  offset="0" style="stop-color:#FF9085"/>
			<stop  offset="1" style="stop-color:#FB6FBB"/>
		</linearGradient>
		<polygon class="st12" points="1744.7,1351.2 1647.1,1352.7 1647.1,944.5 1744.7,945.7 		"/>
		<polygon class="st0" points="1878.3,1349.1 1782.5,1350.6 1782.5,834.3 1878.3,836.2 		"/>
		
			<linearGradient id="SVGID_9_" gradientUnits="userSpaceOnUse" x1="1908.3899" y1="2782.718" x2="1722.86" y2="2203.738" gradientTransform="matrix(1 0 0 -1 0 3710)">
			<stop  offset="0" style="stop-color:#FF9085"/>
			<stop  offset="1" style="stop-color:#FB6FBB"/>
		</linearGradient>
		<polygon class="st13" points="1878.3,1349.1 1782.5,1350.6 1782.5,992.1 1878.3,992.9 		"/>
		<polygon class="st0" points="2009.6,1347.1 1915.5,1348.6 1915.5,836.9 2009.6,838.7 		"/>
		
			<linearGradient id="SVGID_10_" gradientUnits="userSpaceOnUse" x1="2056.1216" y1="2872.8274" x2="1833.4618" y2="2177.9973" gradientTransform="matrix(1 0 0 -1 0 3710)">
			<stop  offset="0" style="stop-color:#FF9085"/>
			<stop  offset="1" style="stop-color:#FB6FBB"/>
		</linearGradient>
		<polygon class="st14" points="2009.6,1347.1 1915.5,1348.6 1915.5,911.3 2009.6,912.6 		"/>
		<polygon class="st0" points="2138.6,1345.1 2046.1,1346.5 2046.1,839.4 2138.6,841.2 		"/>
		
			<linearGradient id="SVGID_11_" gradientUnits="userSpaceOnUse" x1="2160.707" y1="2733.3389" x2="1998.0168" y2="2225.6289" gradientTransform="matrix(1 0 0 -1 0 3710)">
			<stop  offset="0" style="stop-color:#FF9085"/>
			<stop  offset="1" style="stop-color:#FB6FBB"/>
		</linearGradient>
		<polygon class="st15" points="2138.6,1345.1 2046.1,1346.5 2046.1,1035 2138.6,1035.6 		"/>
		<polygon class="st0" points="2265.2,1343.1 2174.4,1344.5 2174.4,841.9 2265.2,843.7 		"/>
		
			<linearGradient id="SVGID_12_" gradientUnits="userSpaceOnUse" x1="2260.782" y1="2581.2373" x2="2163.3718" y2="2277.2373" gradientTransform="matrix(1 0 0 -1 0 3710)">
			<stop  offset="0" style="stop-color:#FF9085"/>
			<stop  offset="1" style="stop-color:#FB6FBB"/>
		</linearGradient>
		<polygon class="st16" points="2265.2,1343.1 2174.4,1344.5 2174.4,1170 2265.2,1169.7 		"/>
		
			<linearGradient id="SVGID_13_" gradientUnits="userSpaceOnUse" x1="744.7883" y1="1457.816" x2="841.0402" y2="1457.816" gradientTransform="matrix(-1 0 0 -1 2975.3701 3710)">
			<stop  offset="0" style="stop-color:#40447E"/>
			<stop  offset="1" style="stop-color:#3C3B6B"/>
		</linearGradient>
		<path class="st17" d="M2217.5,2232.7c11.2,11.3,15.7,23.4,11.6,30.5c-2.8,4.9-9,6.2-15.8,7.5c-10.7,2.1-21.9,1.5-44.9-5
			c-21.5-6.1-34.1-9.6-34.1-14.8c0-4.8,11-8.6,20.7-11.9c11-3.7,22.4-5.8,34-6.3L2217.5,2232.7z"/>
		
			<linearGradient id="SVGID_14_" gradientUnits="userSpaceOnUse" x1="1078.0496" y1="1623.2889" x2="1141.6362" y2="1623.2889" gradientTransform="matrix(-1 0 0 -1 2975.3701 3710)">
			<stop  offset="0" style="stop-color:#40447E"/>
			<stop  offset="1" style="stop-color:#3C3B6B"/>
		</linearGradient>
		<path class="st18" d="M1883.7,2049.9c5,2.2,11.5,6,13.2,12.3c2.7,10-8,20.3-25,36.4c-12.8,12.1-30.1,28.4-36.2,24.3
			c-3.7-2.5-1.5-11.6,0.5-20c2.4-10.1,7.8-25.9,21.2-43.1L1883.7,2049.9z"/>
		
			<linearGradient id="SVGID_15_" gradientUnits="userSpaceOnUse" x1="791.818" y1="1462.5011" x2="826.7379" y2="1390.161" gradientTransform="matrix(-1 0 0 -1 2975.3701 3710)">
			<stop  offset="0" style="stop-color:#311944"/>
			<stop  offset="1" style="stop-color:#A03976"/>
		</linearGradient>
		<path class="st19" d="M2193,2207.8l24,26.7c1.8,2.1,1.7,5.2-0.4,7.1c-0.6,0.5-1.2,0.9-1.9,1.1c-5.3,1.5-12.6,2.7-19.3,0.8
			c-1.5-0.5-2.8-1.3-3.9-2.4l-24-23.4L2193,2207.8z"/>
		
			<linearGradient id="SVGID_16_" gradientUnits="userSpaceOnUse" x1="1127.9133" y1="1748.8339" x2="1074.5034" y2="1510.9338" gradientTransform="matrix(-1 0 0 -1 2975.3701 3710)">
			<stop  offset="0" style="stop-color:#311944"/>
			<stop  offset="1" style="stop-color:#A03976"/>
		</linearGradient>
		<path class="st20" d="M1870.4,2033.8l13,18.7c1.7,2.5,1.1,5.8-1.4,7.5c-0.2,0.1-0.3,0.2-0.5,0.3c-2.1,1.2-4.2,2.2-6.4,3
			c-3.8,1.4-8,0.3-10.7-2.6l-14.1-15.8L1870.4,2033.8z"/>
		
			<linearGradient id="SVGID_17_" gradientUnits="userSpaceOnUse" x1="1114.2064" y1="1566.8345" x2="867.4865" y2="1813.5543" gradientTransform="matrix(-1 0 0 -1 2975.3701 3710)">
			<stop  offset="0" style="stop-color:#AB316D"/>
			<stop  offset="1" style="stop-color:#792D3D"/>
		</linearGradient>
		<path class="st21" d="M2103.2,1642.6c-16.7,34.8-28.8,71.5-36.2,109.4c-3.8,19.6-21.5,118,16.6,236.6
			c35.5,110.4,100.8,180.7,135.6,213.2c-6.2,5.3-13.1,9.7-20.6,13.2c-11.1,5.1-23.1,8-35.3,8.5c-106.1-75.8-157.6-161.6-181-208.3
			c-78.8-157.6-59.1-312.4-24.6-377.8c11.3-21.5,24.1-33.1,38.6-38.3C2042.7,1582.4,2096.6,1635.9,2103.2,1642.6z"/>
		
			<linearGradient id="SVGID_18_" gradientUnits="userSpaceOnUse" x1="1114.1815" y1="1566.8096" x2="867.4615" y2="1813.5294" gradientTransform="matrix(-1 0 0 -1 2975.3701 3710)">
			<stop  offset="0" style="stop-color:#AB316D"/>
			<stop  offset="1" style="stop-color:#792D3D"/>
		</linearGradient>
		<path class="st22" d="M1957.7,1637.3c11.3-21.5,24.1-33.1,38.6-38.3c46.5-16.6,100.3,36.9,106.9,43.6
			c-16.4,34.2-28.4,70.3-35.8,107.5c-32.5,7.6-77.8,25.7-99.9,68.5c-35.8,69.2,15.7,152.2,26.3,169.4c23.5,37.9,37.7,34.3,72.4,88.8
			c26.2,41.1,28.2,59.1,51,79c26.8,23.4,60.3,30.2,87.3,31.7c5.3,5.4,10.2,10.2,14.7,14.3c-6.2,5.3-13.1,9.7-20.6,13.2
			c-11.1,5.1-23.1,8-35.3,8.5c-106.1-75.8-157.6-161.6-181-208.3C1903.4,1857.5,1923.2,1702.7,1957.7,1637.3z"/>
		
			<linearGradient id="SVGID_19_" gradientUnits="userSpaceOnUse" x1="1277.5808" y1="1730.2186" x2="1030.8708" y2="1976.9386" gradientTransform="matrix(-1 0 0 -1 2975.3701 3710)">
			<stop  offset="0" style="stop-color:#AB316D"/>
			<stop  offset="1" style="stop-color:#792D3D"/>
		</linearGradient>
		<path class="st23" d="M2043.1,1636.8c-8.3,16.9-19.1,32.4-32.1,46.1c-41.7,43.4-80.6,39.3-124.8,75.1c-5.4,4.4-44.5,36.8-59,84.1
			c-27.8,91,53,180.8,61.9,190.5c-13.7,12.7-30.8,21.2-49.2,24.4c-115.8-105.8-172.4-234-133.8-317.3c21-45.4,70.8-78.5,107.5-102.9
			c47.2-31.3,99.6-53.9,154.8-66.9L2043.1,1636.8z"/>
		
			<linearGradient id="SVGID_20_" gradientUnits="userSpaceOnUse" x1="953.8752" y1="2502.3796" x2="817.3652" y2="2081.3196" gradientTransform="matrix(-1 0 0 -1 2975.3701 3710)">
			<stop  offset="0" style="stop-color:#AA80F9"/>
			<stop  offset="1" style="stop-color:#6165D7"/>
		</linearGradient>
		<path class="st24" d="M1974,1395.3c-1.7,51.2,10.1,77.8-6.5,119.5c-11.9,30-31.7,50.7-46.8,63.5c15.7,30.2,38.9,55.9,67.3,74.7
			c47,30.9,93.7,33,112,32.8c38.9-20,97.8-57.7,145.1-124.8c32.1-45.5,67.3-95.4,58-159.1c-11.8-80.9-86.8-124.1-108-136.3
			c-14-8.1-110.6-63.8-169.6-22.8C1978.1,1275.8,1975.4,1357,1974,1395.3z"/>
		
			<linearGradient id="SVGID_21_" gradientUnits="userSpaceOnUse" x1="1399.3708" y1="2220.5088" x2="1357.0809" y2="2262.7988" gradientTransform="matrix(-1 0 0 -1 2975.3701 3710)">
			<stop  offset="0" style="stop-color:#311944"/>
			<stop  offset="1" style="stop-color:#A03976"/>
		</linearGradient>
		<path class="st25" d="M1651.3,1453.4c-1.6-8.3-7.5-14.3-10.8-17.7c-3.9-4-4.7-3.3-7.3-6.6c-6.4-8.2-4.9-16.6-7.4-16.9
			c-2.2-0.2-5.9,5.8-5.7,12.1c0.3,7,5.4,9.1,4.4,13c-1.4,5.5-13.5,9.4-24.3,7.4c-12.5-2.4-18.6-12.4-23.4-9.9
			c-3.5,1.8-3.3,8.5-3.3,9c0.5,12.4,17.1,25.4,33.3,27.1c9.3,1,12.8-2.4,23.8,0.4c7.3,1.9,9.9,4.4,13.6,2.9
			C1650.3,1471.9,1652.7,1461.3,1651.3,1453.4z"/>
		
			<linearGradient id="SVGID_22_" gradientUnits="userSpaceOnUse" x1="1134.2175" y1="2443.9087" x2="997.6974" y2="2022.8488" gradientTransform="matrix(-1 0 0 -1 2975.3701 3710)">
			<stop  offset="0" style="stop-color:#AA80F9"/>
			<stop  offset="1" style="stop-color:#6165D7"/>
		</linearGradient>
		<path class="st26" d="M1649.5,1449c99.7,6.9,159.3-19,195.2-43.9c81.4-56.3,97.4-145.9,191.9-170c17.2-4.4,47.2-12,63.6,3.3
			c34,31.9-6.1,148.6-76.8,220.4c-15.6,15.8-71.8,71.3-164.6,83.8c-118.9,16-204.2-51.1-218.9-63.1c-4.6-5.2-6-12.5-3.7-19
			C1639.6,1451.5,1648.7,1449.2,1649.5,1449z"/>
		
			<linearGradient id="SVGID_23_" gradientUnits="userSpaceOnUse" x1="947.812" y1="2504.344" x2="811.2919" y2="2083.2839" gradientTransform="matrix(-1 0 0 -1 2975.3701 3710)">
			<stop  offset="0" style="stop-color:#AA80F9"/>
			<stop  offset="1" style="stop-color:#6165D7"/>
		</linearGradient>
		<path class="st27" d="M2142.9,1605.8c28.1-26.6,14.8-43.1,49.3-96.5c35.2-54.4,60.5-55.4,76.8-92.1c8.4-19,13.6-46.2,4.3-85.4
			c14.2,19.2,25.8,42.4,29.9,70.2c9.3,63.7-25.9,113.6-58,159.1c-47.3,67.1-106.2,104.8-145.1,124.8c-18.3,0.2-65-1.9-112-32.8
			c-15.5-10.2-29.4-22.5-41.5-36.6c15.8,8.8,32.8,15.2,50.4,19C2006.4,1637.4,2091.5,1654.6,2142.9,1605.8z"/>
		
			<linearGradient id="SVGID_24_" gradientUnits="userSpaceOnUse" x1="775.455" y1="2396.207" x2="885.1152" y2="2577.127" gradientTransform="matrix(-1 0 0 -1 2975.3701 3710)">
			<stop  offset="0" style="stop-color:#311944"/>
			<stop  offset="1" style="stop-color:#A03976"/>
		</linearGradient>
		<path class="st28" d="M2168.7,1210.3l8.1,27.4c2.6,8.8,7.9,16.5,15.1,22.2l21.6,16.9c0,0-65.7-11-97.2-41.7l19.2-6.1
			c2-0.6,3.4-2.5,3.4-4.6v-20.2L2168.7,1210.3z"/>
		
			<linearGradient id="SVGID_25_" gradientUnits="userSpaceOnUse" x1="767.7191" y1="2400.8923" x2="877.3693" y2="2581.8223" gradientTransform="matrix(-1 0 0 -1 2975.3701 3710)">
			<stop  offset="0" style="stop-color:#311944"/>
			<stop  offset="1" style="stop-color:#A03976"/>
		</linearGradient>
		<path class="st29" d="M2145,1224.2c-3.1-0.7-25.8,3-32.3-7.9c-8.8-14.8,0-38.5,0.8-42.1c3.7-15.3,5-17.6,7.9-20.9l4-4.2l0.5-0.4
			c2.8-1.9,13.2-5,15.5-5.2c7.2-0.4,21.8,25.4,30.2,65.2c0.7,1.4,1.4,2.8,2,4.3C2175.5,1216.8,2145.2,1225.6,2145,1224.2z"/>
		<path class="st30" d="M2108.4,1141.7c3.3,12.1,12.4,23.6,15.9,24.9c2.1,0.9,4,2.1,5.7,3.6c0.4,0.4,0.8,0.8,1.1,1.2
			c4.7,6.9-5.1,19.2-1.8,22c2.4,2,9.8-3.5,11.3-1.6s-4.3,7.8-2.6,9.9c1.3,1.6,5.1-1.2,8.5,0.9c1.7,1,1.6,2.2,4.1,6.1
			c1.3,2.1,2.8,4,4.5,5.8c6.1,6,18.7,5.4,20.2,2c0.4-1-0.3-1.5-0.4-4.3c0-2,0.3-4.1,0.9-6c1.4-4.7,6.5-9.2,11.4-15.2
			c9-10.9,10.2-18.6,10.4-21.1c0.1-0.9,0.1-1.6,0.2-2.1c0.5-9.7-3-22.9-9.2-29.9c-10.4-11.7-23.8-1.3-39.9-11.4
			c-18.5-11.7-15.6-35.1-24-35.3C2115.6,1091,2102.4,1119.2,2108.4,1141.7z"/>
		
			<linearGradient id="SVGID_26_" gradientUnits="userSpaceOnUse" x1="769.6987" y1="2399.6926" x2="879.3488" y2="2580.6128" gradientTransform="matrix(-1 0 0 -1 2975.3701 3710)">
			<stop  offset="0" style="stop-color:#311944"/>
			<stop  offset="1" style="stop-color:#A03976"/>
		</linearGradient>
		<path class="st31" d="M2132.9,1189.4c1.9-4.9,8.1-2.4,9.6,2.8s-2.2,12.2-7.5,12.4S2130.4,1196,2132.9,1189.4z"/>
	</g>
</g>
<g>
	<path class="st32" d="M1488.2,2277l113.9-194.9c14.5,8.5,87.4,48.9,99.2,56.6l-113.9,195C1574.9,2350,1472.4,2302,1488.2,2277
		L1488.2,2277z"/>
	<path class="st33" d="M1815.4,2277l-113.9-194.9c-15.9-26.5-50.2-36.1-78.4-20.5c-28.2,15.6-36.7,49.4-20.8,77l113.9,195
		c15.9,26.5,50.2,36.1,78.4,20.5C1821.5,2338.4,1831.3,2303.5,1815.4,2277L1815.4,2277z"/>
	<ellipse class="st34" cx="1537.5" cy="2305.9" rx="57.2" ry="55.7"/>
</g>
<g>
	<g>
		<path class="st1" d="M1422.1,2716L1485,3139h-112.4l-5.9-76h-39.4l-6.6,76H1207l56.1-423.1H1422.1z M1363.8,2988
			c-5.6-47.9-11.2-107.1-16.8-177.7c-11.2,81-18.2,140.2-21.1,177.7H1363.8z"/>
		<path class="st1" d="M1503.7,2716h82.3c53.1,0,89.1,2.4,107.8,7.3c18.7,4.9,33,12.9,42.7,24c9.8,11.1,15.8,23.6,18.3,37.2
			c2.4,13.7,3.7,40.5,3.7,80.6v148.2c0,38-1.8,63.4-5.4,76.2c-3.6,12.8-9.8,22.8-18.7,30c-8.9,7.2-19.9,12.3-32.9,15.2
			c-13.1,2.9-32.8,4.3-59.1,4.3h-138.8V2716z M1613.7,2788.4v278.3c15.8,0,25.6-3.2,29.3-9.5c3.7-6.4,5.5-23.6,5.5-51.9v-164.4
			c0-19.2-0.6-31.4-1.8-36.8c-1.2-5.4-4-9.4-8.4-11.9C1633.9,2789.6,1625.8,2788.4,1613.7,2788.4z"/>
		<path class="st1" d="M2032.6,2844h-102.2v-31.4c0-14.6-1.3-23.9-3.9-28c-2.6-4-7-6-13.1-6c-6.6,0-11.6,2.7-15,8.1
			c-3.4,5.4-5.1,13.6-5.1,24.6c0,14.1,1.9,24.8,5.7,31.9c3.6,7.1,14,15.8,31.1,25.9c49,29.1,79.8,52.9,92.5,71.6
			c12.7,18.6,19.1,48.7,19.1,90.1c0,30.1-3.5,52.3-10.6,66.6c-7.1,14.3-20.7,26.3-40.9,35.9c-20.2,9.7-43.7,14.5-70.6,14.5
			c-29.4,0-54.6-5.6-75.4-16.7c-20.8-11.1-34.5-25.3-40.9-42.6c-6.4-17.2-9.7-41.7-9.7-73.4v-27.7h102.2v51.5
			c0,15.8,1.4,26,4.3,30.6c2.9,4.5,8,6.8,15.3,6.8c7.3,0,12.8-2.9,16.3-8.6c3.6-5.7,5.4-14.3,5.4-25.6c0-24.9-3.4-41.2-10.2-48.9
			c-7-7.7-24.1-20.5-51.5-38.4c-27.4-18.1-45.5-31.3-54.4-39.5c-8.9-8.2-16.2-19.5-22.1-34c-5.8-14.5-8.8-32.9-8.8-55.4
			c0-32.4,4.1-56.1,12.4-71.1c8.3-15,21.6-26.7,40.1-35.1c18.5-8.4,40.8-12.7,66.9-12.7c28.6,0,52.9,4.6,73,13.9
			c20.1,9.2,33.4,20.9,40,34.9c6.5,14,9.8,37.8,9.8,71.5V2844z"/>
	</g>
	<g>
		<linearGradient id="SVGID_27_" gradientUnits="userSpaceOnUse" x1="1294.4062" y1="2936.3857" x2="1572.4364" y2="2936.3857">
			<stop  offset="0" style="stop-color:#FF9085"/>
			<stop  offset="1" style="stop-color:#FB6FBB"/>
		</linearGradient>
		<path class="st35" d="M1509.5,2724.9l62.9,423.1H1460l-5.9-76h-39.4l-6.6,76h-113.7l56.1-423.1H1509.5z M1451.2,2996.9
			c-5.6-47.9-11.2-107.1-16.8-177.7c-11.2,81-18.2,140.2-21.1,177.7H1451.2z"/>
		<linearGradient id="SVGID_28_" gradientUnits="userSpaceOnUse" x1="1591.1187" y1="2936.3857" x2="1845.8926" y2="2936.3857">
			<stop  offset="0" style="stop-color:#FF9085"/>
			<stop  offset="1" style="stop-color:#FB6FBB"/>
		</linearGradient>
		<path class="st36" d="M1591.1,2724.9h82.3c53.1,0,89.1,2.4,107.8,7.3c18.7,4.9,33,12.9,42.7,24c9.8,11.1,15.8,23.6,18.3,37.2
			c2.4,13.7,3.7,40.5,3.7,80.6v148.2c0,38-1.8,63.4-5.4,76.2c-3.6,12.8-9.8,22.8-18.7,30c-8.9,7.2-19.9,12.3-32.9,15.2
			c-13.1,2.9-32.8,4.3-59.1,4.3h-138.8V2724.9z M1701.1,2797.2v278.3c15.8,0,25.6-3.2,29.3-9.5c3.7-6.4,5.5-23.6,5.5-51.9v-164.4
			c0-19.2-0.6-31.4-1.8-36.8c-1.2-5.4-4-9.4-8.4-11.9C1721.3,2798.5,1713.1,2797.2,1701.1,2797.2z"/>
		<linearGradient id="SVGID_29_" gradientUnits="userSpaceOnUse" x1="1877.772" y1="2936.3835" x2="2129.1489" y2="2936.3835">
			<stop  offset="0" style="stop-color:#FF9085"/>
			<stop  offset="1" style="stop-color:#FB6FBB"/>
		</linearGradient>
		<path class="st37" d="M2120,2852.9h-102.2v-31.4c0-14.6-1.3-23.9-3.9-28c-2.6-4-7-6-13.1-6c-6.6,0-11.6,2.7-15,8.1
			c-3.4,5.4-5.1,13.6-5.1,24.6c0,14.1,1.9,24.8,5.7,31.9c3.6,7.1,14,15.8,31.1,25.9c49,29.1,79.8,52.9,92.5,71.6
			c12.7,18.6,19.1,48.7,19.1,90.1c0,30.1-3.5,52.3-10.6,66.6c-7.1,14.3-20.7,26.3-40.9,35.9c-20.2,9.7-43.7,14.5-70.6,14.5
			c-29.4,0-54.6-5.6-75.4-16.7c-20.8-11.1-34.5-25.3-40.9-42.6c-6.4-17.2-9.7-41.7-9.7-73.4v-27.7h102.2v51.5
			c0,15.8,1.4,26,4.3,30.6c2.9,4.5,8,6.8,15.3,6.8c7.3,0,12.8-2.9,16.3-8.6c3.6-5.7,5.4-14.3,5.4-25.6c0-24.9-3.4-41.2-10.2-48.9
			c-7-7.7-24.1-20.5-51.5-38.4c-27.4-18.1-45.5-31.3-54.4-39.5c-8.9-8.2-16.2-19.5-22.1-34c-5.8-14.5-8.8-32.9-8.8-55.4
			c0-32.4,4.1-56.1,12.4-71.1c8.3-15,21.6-26.7,40.1-35.1c18.5-8.4,40.8-12.7,66.9-12.7c28.6,0,52.9,4.6,73,13.9
			c20.1,9.2,33.4,20.9,40,34.9c6.5,14,9.8,37.8,9.8,71.5V2852.9z"/>
	</g>
</g>
</svg>
