<?xml version="1.0" encoding="utf-8"?>
<!-- Generator: Adobe Illustrator 25.1.0, SVG Export Plug-In . SVG Version: 6.00 Build 0)  -->
<svg  x="0px" y="0px" viewBox="0 0 3710 3710" enable-background="new 0 0 3710 3710" xml:space="preserve">
<g>
	<g>
		<path fill-rule="evenodd" clip-rule="evenodd" fill="#E2E8F5" d="M766.748,2319.308H503.705h-7.097
			c-150.776,0-274.134,123.363-274.134,274.134l0,0c0,150.776,123.358,274.14,274.134,274.14h1095.45h137.834h1430.669
			c244.144,0,443.9-199.762,443.9-443.906l0,0c0-244.149-199.756-443.9-443.9-443.9l0,0c-103.233,0-187.689-84.467-187.689-187.695
			l0,0c0-103.228,84.456-187.692,187.689-187.692h225.886c107.334,0,195.142-87.808,195.142-195.142l0,0
			c0-107.328-87.808-195.139-195.142-195.139h-285.639c-41.782,0-75.969-34.184-75.969-75.966l0,0
			c0-41.782,34.187-75.972,75.969-75.972h50.354c28.834,0,52.428-23.591,52.428-52.429v-0.005c0-28.837-23.599-52.429-52.428-52.429
			h-188.719c0,0-72.107,0-141.69,0c-69.588,0-77.338,82.202-253.108,82.202c-271.715,0-234.733,0-506.449,0
			c-37.623,0-68.416,30.797-68.416,68.418l0,0c0,37.624,30.792,68.421,68.416,68.421h65.705c54.523,0,99.133,44.61,99.133,99.125
			v0.005c0,54.513-44.61,99.13-99.133,99.13h-98.873c-267.016,0-304.727,69.778-351.493,208.562
			c-46.766,138.789-289.644,149.978-289.644,149.978h-657.25c-82.164,0-149.389,67.228-149.389,149.387v0.005
			c0,82.159,67.225,149.387,149.389,149.387h37.107c79.03,0,143.692,64.665,143.692,143.69l0,0
			C910.44,2254.654,845.778,2319.308,766.748,2319.308L766.748,2319.308z M3298.294,1062.171c-28.957,0-52.434-23.472-52.434-52.429
			c0-28.962,23.477-52.433,52.434-52.433c28.956,0,52.434,23.472,52.434,52.433
			C3350.728,1038.699,3327.25,1062.171,3298.294,1062.171z"/>
		<g>
			<path fill-rule="evenodd" clip-rule="evenodd" fill="#BFCCE8" d="M258.105,1623.273c-7.445-7.442-16.359-13.449-26.288-17.565
				c-9.548-3.952-19.995-6.137-30.93-6.137c-10.938,0-21.385,2.185-30.933,6.142c-9.924,4.111-18.844,10.118-26.283,17.56
				c-7.442,7.445-13.455,16.359-17.565,26.289c-3.952,9.542-6.137,19.99-6.137,30.927c0,10.935,2.185,21.387,6.137,30.93
				c4.111,9.93,10.124,18.844,17.565,26.288c7.439,7.437,16.35,13.449,26.272,17.555c9.545,3.962,20,6.143,30.943,6.143
				c10.934,0,21.387-2.18,30.93-6.137c9.924-4.111,18.844-10.124,26.288-17.56c7.442-7.445,13.449-16.364,17.561-26.288
				c3.957-9.543,6.137-19.995,6.137-30.93c0-10.937-2.18-21.384-6.137-30.927C271.555,1639.632,265.548,1630.718,258.105,1623.273
				L258.105,1623.273z M228.979,1612.617c8.957,3.713,17.038,9.171,23.822,15.955c6.784,6.79,12.242,14.874,15.955,23.827
				c3.578,8.636,5.551,18.125,5.551,28.089c0,9.967-1.973,19.457-5.551,28.092c-3.713,8.953-9.171,17.043-15.955,23.822
				c-6.779,6.785-14.865,12.248-23.822,15.956c-8.635,3.578-18.125,5.551-28.091,5.551c-9.959,0-19.443-1.973-28.074-5.551
				c-8.97-3.708-17.059-9.171-23.843-15.956c-6.779-6.779-12.243-14.868-15.951-23.822c-3.575-8.635-5.551-18.125-5.551-28.092
				c0-9.964,1.976-19.453,5.551-28.089c3.708-8.953,9.166-17.037,15.951-23.827c6.784-6.784,14.873-12.242,23.827-15.955
				c8.635-3.575,18.119-5.546,28.089-5.546C210.854,1607.071,220.344,1609.042,228.979,1612.617L228.979,1612.617z
				 M237.925,1553.075c5.063,1.461,10.041,3.247,14.91,5.318c4.941,2.1,9.726,4.501,14.319,7.153
				c4.676,2.706,9.179,5.694,13.494,8.941c4.337,3.273,8.453,6.787,12.325,10.521c1.376,1.324,3.087,2.098,4.843,2.31
				c1.795,0.22,3.657-0.148,5.278-1.087c11.879-6.853,24.376-13.643,36.016-20.793c0.557-0.294,1.156-0.475,1.745-0.538
				c0.674-0.074,1.348-0.027,1.986,0.154c0.663,0.175,1.286,0.475,1.82,0.883c0.52,0.395,0.968,0.899,1.313,1.496
				c8.667,13.107,17.356,30.038,25.379,43.938c0.344,0.594,0.554,1.234,0.633,1.867c0.085,0.668,0.029,1.365-0.148,2.044
				c-0.18,0.658-0.48,1.281-0.889,1.817c-0.395,0.517-0.899,0.971-1.496,1.316c-10.693,7.071-24.458,14.139-35.791,20.684
				c-1.663,0.952-2.88,2.379-3.572,4.007c-0.239,0.568-0.419,1.156-0.533,1.766l-0.74,0.244l0.827,3.337
				c0.65,2.628,1.218,5.254,1.703,7.869c0.464,2.544,0.867,5.206,1.207,7.98c0.329,2.706,0.578,5.395,0.734,8.05
				c0.159,2.594,0.239,5.312,0.239,8.137c0,2.827-0.08,5.54-0.239,8.132c-0.156,2.652-0.406,5.342-0.734,8.057
				c-0.339,2.774-0.742,5.432-1.212,7.977c-0.48,2.613-1.047,5.244-1.7,7.872c-0.48,1.947-0.242,3.901,0.538,5.583
				c0.777,1.682,2.109,3.092,3.83,3.975l31.701,18.295l-0.016,0.016l3.758,2.169c0.597,0.345,1.101,0.793,1.496,1.313
				c0.408,0.533,0.708,1.156,0.889,1.82c0.178,0.679,0.234,1.376,0.148,2.045c-0.079,0.634-0.289,1.273-0.633,1.867l-23.467,40.661
				l-0.01-0.005l-1.902,3.283c-0.345,0.596-0.793,1.1-1.313,1.496c-0.533,0.403-1.156,0.708-1.82,0.883
				c-0.674,0.18-1.368,0.233-2.037,0.148c-0.628-0.079-1.262-0.289-1.854-0.628c-11.357-7.134-24.161-13.943-35.876-20.703
				c-1.671-0.952-3.503-1.284-5.238-1.08c-1.801,0.22-3.509,1.008-4.851,2.292l-0.013,0.016c-3.872,3.734-7.994,7.254-12.33,10.521
				c-4.31,3.247-8.813,6.236-13.484,8.936c-4.625,2.673-9.444,5.084-14.422,7.193c-4.886,2.077-9.954,3.877-15.179,5.378
				c-1.84,0.525-3.365,1.621-4.44,3.045c-1.087,1.435-1.71,3.236-1.71,5.113l-0.016,41.363c0,0.695-0.133,1.358-0.382,1.947
				c-0.255,0.61-0.645,1.183-1.13,1.665c-0.467,0.483-1.042,0.87-1.671,1.13c-0.594,0.245-1.247,0.382-1.944,0.382h-50.757
				c-0.695,0-1.352-0.138-1.947-0.382c-0.623-0.265-1.199-0.647-1.671-1.119c-0.48-0.493-0.87-1.066-1.122-1.676
				c-0.251-0.589-0.385-1.252-0.385-1.947v-41.363c0-1.971-0.689-3.793-1.84-5.249c-1.17-1.488-2.814-2.57-4.692-3.013
				c-5.063-1.459-10.041-3.238-14.905-5.31c-4.944-2.106-9.729-4.501-14.33-7.158c-4.668-2.7-9.174-5.689-13.484-8.941
				c-4.342-3.262-8.458-6.782-12.333-10.521c-1.432-1.38-3.243-2.151-5.1-2.321c-1.886-0.175-3.817,0.284-5.443,1.361l-35.412,20.44
				c-0.583,0.339-1.228,0.549-1.87,0.628c-0.669,0.085-1.369,0.032-2.048-0.148c-0.658-0.176-1.281-0.48-1.82-0.883
				c-0.514-0.396-0.962-0.9-1.307-1.496c-8.415-14.675-16.958-29.278-25.378-43.949c-0.345-0.589-0.549-1.228-0.634-1.865
				c-0.085-0.666-0.029-1.363,0.148-2.037c0.18-0.669,0.48-1.292,0.883-1.824c0.39-0.531,0.883-0.973,1.467-1.308l35.826-20.684
				c1.663-0.952,2.875-2.374,3.568-4.007c0.191-0.437,0.339-0.891,0.451-1.361l0.936-0.185l-0.941-3.801
				c-0.645-2.626-1.217-5.254-1.697-7.864c-0.464-2.549-0.872-5.212-1.207-7.986c-0.329-2.71-0.578-5.405-0.737-8.057
				c-0.156-2.591-0.236-5.305-0.236-8.132c0-2.824,0.08-5.535,0.236-8.129c0.159-2.652,0.408-5.342,0.732-8.047
				c0.344-2.809,0.747-5.482,1.212-8.007c0.486-2.61,1.048-5.233,1.697-7.853c0.483-1.955,0.244-3.915-0.533-5.596
				c-0.791-1.674-2.117-3.085-3.814-3.957l-35.475-20.485c-0.589-0.329-1.083-0.777-1.483-1.307
				c-0.403-0.517-0.703-1.146-0.883-1.825c-0.178-0.673-0.234-1.371-0.148-2.037c0.085-0.636,0.289-1.281,0.634-1.87
				c8.659-12.887,17.337-30.094,25.378-43.944c0.345-0.597,0.793-1.101,1.307-1.496c0.539-0.403,1.162-0.708,1.82-0.883
				c0.679-0.183,1.379-0.239,2.042-0.154c0.623,0.079,1.262,0.289,1.87,0.644l35.847,20.687c1.684,0.989,3.581,1.313,5.374,1.069
				c1.801-0.244,3.517-1.074,4.843-2.39c3.896-3.753,7.999-7.248,12.274-10.468c4.259-3.206,8.749-6.18,13.444-8.895
				c4.625-2.668,9.444-5.079,14.417-7.193c4.885-2.077,9.954-3.878,15.173-5.374c1.841-0.525,3.368-1.62,4.445-3.047
				c1.087-1.438,1.71-3.233,1.71-5.111l0.016-41.364c0-0.697,0.133-1.355,0.38-1.944c0.257-0.615,0.647-1.182,1.132-1.668
				c0.467-0.483,1.042-0.872,1.665-1.132c0.594-0.249,1.252-0.382,1.947-0.382h50.757c0.697,0,1.35,0.133,1.944,0.382
				c0.629,0.26,1.204,0.65,1.676,1.124c0.928,0.936,1.507,2.22,1.507,3.62v41.364c0,1.976,0.684,3.803,1.822,5.249
				C234.403,1551.553,236.047,1552.64,237.925,1553.075L237.925,1553.075z M255.764,1551.513c5.214,2.22,10.275,4.75,15.139,7.564
				c4.962,2.872,9.728,6.026,14.258,9.442c4.54,3.429,8.885,7.134,12.996,11.102c0.159,0.149,0.355,0.239,0.568,0.26
				c0.22,0.029,0.44-0.011,0.626-0.117c12.046-6.954,24.116-13.887,36.149-20.878c1.432-0.772,2.968-1.247,4.525-1.421
				c1.602-0.186,3.217-0.055,4.755,0.355c1.581,0.422,3.092,1.156,4.424,2.175c1.284,0.976,2.395,2.214,3.244,3.692
				c8.731,14.144,17.027,29.468,25.379,43.936c0.848,1.472,1.366,3.061,1.572,4.676c0.21,1.666,0.093,3.342-0.331,4.92
				c-0.419,1.581-1.156,3.087-2.175,4.419c-0.976,1.289-2.215,2.395-3.692,3.249c-11.524,7.119-24.026,13.874-35.82,20.679
				c-0.186,0.109-0.324,0.279-0.404,0.47c-0.085,0.199-0.111,0.424-0.061,0.628l0.828,3.342l-0.048,0.021
				c0.358,1.621,0.692,3.273,1.002,4.949c0.523,2.861,0.958,5.686,1.292,8.449c0.335,2.745,0.594,5.578,0.769,8.487
				c0.173,2.923,0.263,5.787,0.263,8.577c0,2.787-0.09,5.647-0.263,8.564c-0.175,2.92-0.435,5.753-0.769,8.503
				c-0.334,2.758-0.774,5.583-1.297,8.445c-0.525,2.851-1.122,5.623-1.788,8.307c-0.053,0.225-0.024,0.456,0.071,0.655
				c0.098,0.22,0.255,0.39,0.443,0.483c13.16,7.031,26.527,15.298,39.539,22.814l-0.464,0.586l0.398,0.493
				c1.018,1.331,1.755,2.843,2.175,4.424c0.424,1.578,0.541,3.249,0.331,4.919c-0.207,1.613-0.724,3.204-1.578,4.671l-27.27,47.23
				l-0.504-0.3c-0.273,0.244-0.555,0.486-0.844,0.698c-1.331,1.018-2.843,1.759-4.424,2.18c-1.573,0.419-3.244,0.541-4.909,0.327
				c-1.568-0.202-3.114-0.695-4.551-1.499c-11.927-6.331-24.212-13.977-35.99-20.777c-0.175-0.096-0.385-0.13-0.6-0.106
				c-0.217,0.026-0.427,0.119-0.589,0.271c-4.105,3.96-8.449,7.667-12.99,11.089c-4.525,3.413-9.285,6.566-14.242,9.437
				c-4.902,2.832-9.994,5.376-15.242,7.606c-5.214,2.214-10.577,4.121-16.053,5.691c-0.221,0.066-0.401,0.191-0.52,0.35
				c-0.141,0.191-0.221,0.406-0.204,0.61v41.363c0,1.692-0.345,3.32-0.968,4.811c-0.644,1.56-1.586,2.949-2.753,4.1
				c-1.165,1.162-2.551,2.1-4.087,2.742c-1.493,0.626-3.124,0.965-4.814,0.965h-50.757c-1.687,0-3.318-0.339-4.816-0.965
				c-1.531-0.642-2.923-1.581-4.1-2.742c-1.151-1.151-2.09-2.54-2.74-4.1c-0.618-1.49-0.962-3.119-0.962-4.811v-41.363
				c0-0.249-0.074-0.47-0.204-0.624c-0.125-0.167-0.324-0.294-0.557-0.345l-0.167-0.061c-5.506-1.586-10.829-3.488-15.945-5.662
				c-5.217-2.22-10.277-4.75-15.144-7.566c-4.96-2.87-9.72-6.023-14.25-9.437c-4.543-3.427-8.89-7.137-13.006-11.105
				c-0.17-0.169-0.38-0.26-0.589-0.278c-0.221-0.021-0.449,0.034-0.642,0.164l-35.817,20.674c-1.475,0.854-3.058,1.365-4.655,1.568
				c-1.665,0.214-3.336,0.092-4.915-0.327c-1.586-0.422-3.098-1.156-4.424-2.18c-1.252-0.947-2.345-2.154-3.188-3.58
				c-9.41-15.136-18.3-31.709-27.275-47.246l0.48-0.289c-0.09-0.395-0.162-0.798-0.21-1.193c-0.215-1.666-0.096-3.337,0.324-4.909
				c0.424-1.586,1.161-3.098,2.18-4.424c0.979-1.283,2.214-2.4,3.682-3.244l35.83-20.684c0.186-0.103,0.324-0.273,0.404-0.464
				c0.085-0.204,0.111-0.43,0.055-0.647l-0.928-3.787l0.056-0.011c-0.318-1.472-0.624-2.973-0.904-4.495
				c-0.523-2.859-0.963-5.681-1.297-8.45c-0.334-2.745-0.589-5.583-0.761-8.497c-0.175-2.923-0.27-5.782-0.27-8.569
				c0-2.79,0.095-5.649,0.27-8.566c0.172-2.915,0.427-5.753,0.761-8.516c0.334-2.74,0.769-5.559,1.297-8.447
				c0.525-2.843,1.124-5.612,1.788-8.29c0.055-0.215,0.018-0.451-0.069-0.663c-0.096-0.196-0.255-0.366-0.462-0.464l-35.781-20.66
				c-1.475-0.857-2.713-1.965-3.676-3.249c-1.018-1.342-1.756-2.848-2.175-4.413c-0.419-1.573-0.539-3.244-0.324-4.909
				c0.199-1.568,0.697-3.114,1.512-4.565c8.524-15.796,18.303-31.725,27.323-47.352l0.509,0.31c0.276-0.249,0.555-0.49,0.849-0.708
				c1.326-1.018,2.838-1.753,4.424-2.175c1.573-0.419,3.244-0.544,4.909-0.331c1.618,0.207,3.204,0.719,4.655,1.549l2.65,1.519
				l-0.008,0.032l33.229,19.175c0.196,0.117,0.424,0.156,0.634,0.127c0.215-0.027,0.414-0.13,0.57-0.281l0.085-0.09
				c4.071-3.915,8.4-7.607,12.975-11.049c4.546-3.419,9.28-6.562,14.178-9.394c4.902-2.83,9.983-5.374,15.231-7.604
				c5.219-2.214,10.583-4.121,16.057-5.697c0.215-0.061,0.398-0.186,0.517-0.35c0.141-0.186,0.225-0.4,0.21-0.605v-41.364
				c0-1.689,0.344-3.32,0.962-4.814c0.65-1.557,1.589-2.949,2.761-4.1c1.156-1.161,2.549-2.1,4.079-2.745
				c1.499-0.618,3.13-0.963,4.816-0.963h50.757c1.69,0,3.321,0.345,4.814,0.963c1.536,0.644,2.922,1.583,4.1,2.745
				c2.286,2.283,3.708,5.443,3.708,8.914v41.364c0,0.236,0.079,0.456,0.204,0.629c0.13,0.162,0.329,0.292,0.554,0.339l0.165,0.061
				C245.322,1547.437,250.65,1549.333,255.764,1551.513z"/>
			<path fill-rule="evenodd" clip-rule="evenodd" fill="#BFCCE8" d="M677.112,1613.41L677.112,1613.41L677.112,1613.41z
				 M659.258,1545.427c-6.217-6.217-14.799-10.057-24.288-10.057c-9.479,0-18.064,3.841-24.286,10.057
				c-6.212,6.217-10.057,14.807-10.057,24.286c0,9.484,3.846,18.069,10.057,24.286c6.222,6.217,14.804,10.057,24.286,10.057
				c9.489,0,18.072-3.84,24.288-10.057c6.214-6.217,10.063-14.802,10.063-24.286C669.32,1560.234,665.472,1551.643,659.258,1545.427
				L659.258,1545.427z M651.837,1511.386c4.761,1.379,9.275,3.31,13.462,5.734c4.299,2.485,8.262,5.477,11.813,8.9
				c0.69,0.669,1.721,0.761,2.514,0.302l15.961-9.208l0.085-0.056c0.913-0.499,1.955-0.589,2.907-0.334
				c0.984,0.266,1.862,0.9,2.406,1.835l0.069,0.111l11.227,19.446c0.538,0.939,0.647,2.021,0.385,3.01
				c-0.266,0.976-0.899,1.854-1.838,2.398l-0.109,0.066l-15.826,9.139c-0.833,0.477-1.212,1.443-0.997,2.324l0,0
				c0.583,2.355,1.027,4.781,1.331,7.259c0.294,2.416,0.445,4.891,0.445,7.4c0,2.514-0.151,4.984-0.445,7.4
				c-0.305,2.48-0.753,4.899-1.337,7.253c-0.238,0.982,0.244,1.971,1.117,2.395l15.826,9.134l-0.005,0.005
				c0.939,0.544,1.572,1.422,1.838,2.406c0.262,0.981,0.154,2.063-0.385,3.002l-11.291,19.557h-0.005
				c-0.544,0.936-1.422,1.57-2.406,1.835c-0.982,0.26-2.061,0.154-2.992-0.385l-0.122-0.064l-15.849-9.15
				c-0.828-0.475-1.846-0.324-2.504,0.305c-3.551,3.421-7.514,6.416-11.813,8.898c-4.212,2.44-8.757,4.387-13.55,5.758
				c-0.928,0.265-1.533,1.114-1.533,2.031v18.409c0,1.082-0.443,2.071-1.162,2.784c-0.713,0.716-1.703,1.162-2.79,1.162h-22.588
				c-1.083,0-2.066-0.445-2.785-1.162c-0.719-0.713-1.162-1.702-1.162-2.784v-18.409c0-0.997-0.695-1.833-1.623-2.055
				c-4.758-1.374-9.272-3.307-13.46-5.734c-4.299-2.482-8.266-5.477-11.807-8.898c-0.729-0.695-1.822-0.769-2.626-0.241l-15.85,9.15
				c-0.939,0.544-2.016,0.644-3.002,0.385c-0.979-0.266-1.857-0.9-2.4-1.835l-0.069-0.106l-11.232-19.456l0.005-0.005
				c-0.544-0.933-0.647-2.01-0.385-2.991c0.265-0.99,0.894-1.867,1.827-2.406l15.945-9.206c0.833-0.477,1.217-1.435,0.992-2.324
				h0.005c-0.578-2.36-1.029-4.779-1.331-7.259c-0.294-2.416-0.446-4.885-0.446-7.4c0-2.509,0.152-4.984,0.446-7.4
				c0.302-2.477,0.748-4.904,1.331-7.259c0.238-0.976-0.244-1.96-1.114-2.39l-15.828-9.139c-0.933-0.538-1.562-1.416-1.827-2.398
				c-0.262-0.984-0.159-2.066,0.385-3.005l0.066-0.114l11.224-19.448h0.005c0.544-0.936,1.421-1.57,2.4-1.835
				c0.986-0.26,2.063-0.154,3.002,0.379l-0.005,0.011l15.96,9.208c0.852,0.496,1.904,0.327,2.565-0.348
				c3.535-3.402,7.482-6.386,11.762-8.855c4.217-2.435,8.757-4.387,13.545-5.758c0.934-0.265,1.538-1.109,1.538-2.031v-18.404
				c0-1.087,0.443-2.074,1.162-2.788c0.719-0.719,1.702-1.164,2.785-1.164h22.588c1.087,0,2.077,0.445,2.79,1.164
				c0.719,0.714,1.162,1.7,1.162,2.788v18.404C650.217,1510.33,650.911,1511.169,651.837,1511.386z"/>
			<path fill-rule="evenodd" clip-rule="evenodd" fill="#BFCCE8" d="M45.584,2346.063c0-3.252,2.636-5.893,5.893-5.893
				c3.249,0,5.888,2.641,5.888,5.893v13.854h13.85c3.257,0,5.891,2.637,5.891,5.888c0,3.257-2.634,5.894-5.891,5.894h-13.85v13.855
				c0,3.246-2.639,5.883-5.888,5.883c-3.257,0-5.893-2.637-5.893-5.883v-13.855H31.732c-3.254,0-5.888-2.637-5.888-5.894
				c0-3.251,2.634-5.888,5.888-5.888h13.852V2346.063z"/>
			<path fill-rule="evenodd" clip-rule="evenodd" fill="#BFCCE8" d="M875.079,1394.74c0-3.254,2.639-5.893,5.893-5.893
				c3.251,0,5.891,2.639,5.891,5.893v13.85h13.85c3.254,0,5.893,2.639,5.893,5.891c0,3.249-2.639,5.888-5.893,5.888h-13.85v13.855
				c0,3.246-2.639,5.885-5.891,5.885c-3.254,0-5.893-2.639-5.893-5.885v-13.855h-13.85c-3.251,0-5.891-2.639-5.891-5.888
				c0-3.251,2.639-5.891,5.891-5.891h13.85V1394.74z"/>
			<path fill-rule="evenodd" clip-rule="evenodd" fill="#BFCCE8" d="M1250.253,784.456c0-3.252,2.639-5.893,5.893-5.893
				c3.251,0,5.885,2.641,5.885,5.893v13.85h13.854c3.255,0,5.893,2.633,5.893,5.891c0,3.254-2.639,5.887-5.893,5.887h-13.854v13.855
				c0,3.252-2.634,5.891-5.885,5.891c-3.255,0-5.893-2.639-5.893-5.891v-13.855h-13.85c-3.251,0-5.891-2.633-5.891-5.887
				c0-3.257,2.639-5.891,5.891-5.891h13.85V784.456z"/>
			<path fill-rule="evenodd" clip-rule="evenodd" fill="#BFCCE8" d="M2070.633,759.446c0-3.251,2.641-5.891,5.893-5.891
				c3.246,0,5.888,2.639,5.888,5.891v13.85h13.85c3.257,0,5.888,2.634,5.888,5.893c0,3.246-2.631,5.885-5.888,5.885h-13.85v13.855
				c0,3.249-2.642,5.888-5.888,5.888c-3.252,0-5.893-2.639-5.893-5.888v-13.855h-13.85c-3.251,0-5.893-2.639-5.893-5.885
				c0-3.26,2.641-5.893,5.893-5.893h13.85V759.446z"/>
			<path fill-rule="evenodd" clip-rule="evenodd" fill="#BFCCE8" d="M149.745,2850.407c0-3.251,2.639-5.888,5.891-5.888
				c3.254,0,5.888,2.636,5.888,5.888v13.855h13.855c3.251,0,5.89,2.641,5.89,5.893c0,3.252-2.639,5.893-5.89,5.893h-13.855v13.85
				c0,3.251-2.634,5.888-5.888,5.888c-3.251,0-5.891-2.636-5.891-5.888v-13.85h-13.85c-3.254,0-5.893-2.641-5.893-5.893
				c0-3.251,2.639-5.893,5.893-5.893h13.85V2850.407z"/>
			<path fill-rule="evenodd" clip-rule="evenodd" fill="#BFCCE8" d="M2946.042,1189.645c0-3.254,2.631-5.893,5.883-5.893
				c3.257,0,5.893,2.639,5.893,5.893v13.85h13.854c3.247,0,5.888,2.634,5.888,5.891c0,3.254-2.641,5.888-5.888,5.888h-13.854v13.855
				c0,3.251-2.637,5.885-5.893,5.885c-3.251,0-5.883-2.634-5.883-5.885v-13.855h-13.855c-3.257,0-5.893-2.634-5.893-5.888
				c0-3.257,2.636-5.891,5.893-5.891h13.855V1189.645z"/>
			<path fill-rule="evenodd" clip-rule="evenodd" fill="#FFFFFF" d="M3051.089,784.456c0-3.252,2.636-5.893,5.888-5.893
				s5.888,2.641,5.888,5.893v13.85h13.855c3.246,0,5.888,2.633,5.888,5.891c0,3.254-2.642,5.887-5.888,5.887h-13.855v13.855
				c0,3.252-2.636,5.891-5.888,5.891s-5.888-2.639-5.888-5.891v-13.855h-13.85c-3.262,0-5.893-2.633-5.893-5.887
				c0-3.257,2.631-5.891,5.893-5.891h13.85V784.456z"/>
			<path fill-rule="evenodd" clip-rule="evenodd" fill="#FFFFFF" d="M3561.326,1061.359c0-3.249,2.636-5.888,5.888-5.888
				c3.251,0,5.888,2.639,5.888,5.888v13.847h13.855c3.251,0,5.888,2.641,5.888,5.893c0,3.251-2.636,5.893-5.888,5.893h-13.855
				v13.847c0,3.26-2.637,5.893-5.888,5.893c-3.251,0-5.888-2.634-5.888-5.893v-13.847h-13.854c-3.252,0-5.888-2.641-5.888-5.893
				c0-3.252,2.636-5.893,5.888-5.893h13.854V1061.359z"/>
			<path fill-rule="evenodd" clip-rule="evenodd" fill="#FFFFFF" d="M3646.365,2702.124c0-3.262,2.631-5.893,5.888-5.893
				c3.251,0,5.888,2.631,5.888,5.893v13.844h13.85c3.257,0,5.893,2.636,5.893,5.888c0,3.257-2.636,5.893-5.893,5.893h-13.85v13.85
				c0,3.251-2.636,5.893-5.888,5.893c-3.257,0-5.888-2.641-5.888-5.893v-13.85h-13.855c-3.251,0-5.888-2.636-5.888-5.893
				c0-3.251,2.636-5.888,5.888-5.888h13.855V2702.124z"/>
			<path fill-rule="evenodd" clip-rule="evenodd" fill="#FFFFFF" d="M3656.37,2001.795c0-3.251,2.636-5.888,5.888-5.888
				c3.251,0,5.887,2.636,5.887,5.888v13.85H3682c3.247,0,5.888,2.636,5.888,5.893c0,3.246-2.641,5.888-5.888,5.888h-13.855v13.855
				c0,3.251-2.636,5.887-5.887,5.887c-3.252,0-5.888-2.636-5.888-5.887v-13.855h-13.85c-3.257,0-5.893-2.642-5.893-5.888
				c0-3.257,2.636-5.893,5.893-5.893h13.85V2001.795z"/>
		</g>
	</g>
	<path fill-rule="evenodd" clip-rule="evenodd" fill="#01020E" d="M3625.594,2899.207H427.874c-13.316,0-24.206-10.895-24.206-24.22
		l0,0c0-13.314,10.89-24.209,24.206-24.209h3197.72c13.319,0,24.204,10.895,24.204,24.209l0,0
		C3649.797,2888.312,3638.913,2899.207,3625.594,2899.207z"/>
	<g>
		<g>
			<path fill-rule="evenodd" clip-rule="evenodd" fill="#012A33" d="M1207.404,2103.559
				c-83.671-13.595-201.833-47.172-316.779-129.113c-162.881-116.113,179.781-76.574,458.798,17.143l-107.824,95.861
				L1207.404,2103.559z"/>
			<g>
				<path fill-rule="evenodd" clip-rule="evenodd" fill="#077053" d="M925.354,1881.476
					c55.141,52.667,199.348,157.682,339.192,269.524l153.312,60.083l30.174-93.85c-107.182-172.827-250.336-349.884-375.293-440.238
					C853.506,1518.491,731.837,1696.656,925.354,1881.476z"/>
				<path fill-rule="evenodd" clip-rule="evenodd" fill="#012A33" d="M1419.348,2206.437
					c-176.078-282.123-509.196-510.743-510.409-511.581c-2.374-1.647-5.509-0.947-6.986,1.562c-1.475,2.51-0.748,5.878,1.628,7.525
					c1.201,0.833,328.986,225.809,504.288,503.227l9.988,3.915L1419.348,2206.437z"/>
			</g>
			<g>
				<path fill-rule="evenodd" clip-rule="evenodd" fill="#A3C869" d="M1273.531,1522.159
					c26.427,75.282,65.133,251.975,111.405,434.851c-23.408,73.911-71.662,136.826-134.653,179.112
					c-108.888-173.341-203.687-372.244-236.606-528.144C949.255,1302.824,1172.9,1235.567,1273.531,1522.159z"/>
				<path fill-rule="evenodd" clip-rule="evenodd" fill="#5C964D" d="M1316.905,2077.546
					c-152.336-291.93-218.245-643.813-218.526-645.28c-0.629-3.281,1.342-6.501,4.397-7.182c3.048-0.684,6.037,1.422,6.66,4.7
					c0.279,1.456,65.445,349.26,215.378,638.379C1322.231,2071.335,1319.6,2074.47,1316.905,2077.546z"/>
			</g>
			<g>
				<path fill-rule="evenodd" clip-rule="evenodd" fill="#077053" d="M1258.966,1524.658c0.369,76.25,24.864,252.951,41.432,431.255
					l63.164,152.065l88.506-43.427c50.004-197.115,78.09-423.067,56.393-575.735
					C1470.392,1220.975,1257.682,1257.066,1258.966,1524.658z"/>
				<path fill-rule="evenodd" clip-rule="evenodd" fill="#012A33" d="M1367.944,2105.824
					c80.865-322.579,14.202-721.066,13.969-722.522c-0.464-2.854-3.143-4.62-5.973-3.941c-2.832,0.671-4.753,3.54-4.286,6.394
					c0.236,1.443,65.811,393.56-12.208,712.314l4.116,9.909L1367.944,2105.824z"/>
			</g>
		</g>
		<g>
			<g>
				<path fill-rule="evenodd" clip-rule="evenodd" fill="#077053" d="M448.145,2673.729
					c67.341,37.491,234.325,103.329,399.609,177.049h171.771l4.466-78.574c-150.005-142.936-336.55-280.833-482.937-337.893
					C284.243,2334.213,209.942,2541.094,448.145,2673.729z"/>
				<path fill-rule="evenodd" clip-rule="evenodd" fill="#012A33" d="M1000.442,2850.778
					c-246.366-222.995-614.944-356.358-616.326-356.867c-2.764-1.013-5.673,0.478-6.485,3.331c-0.814,2.854,0.766,5.988,3.535,7.007
					c1.352,0.493,359.68,130.147,603.858,346.529H1000.442z"/>
			</g>
			<path fill-rule="evenodd" clip-rule="evenodd" fill="#012A33" d="M522.915,2850.778c31.37-42.456,170.371-60.056,371.432,0
				H522.915z"/>
			<g>
				<path fill-rule="evenodd" clip-rule="evenodd" fill="#498F73" d="M936.792,2850.778
					c-53.377-44.865-108.201-102.804-144.933-172.413c-94.765-179.584-124.225-236.171-170.418-251.331
					c-39.891-13.092,305.07-161.677,631.264,187.116c-11.391,79.969-55.248,165.798-165.95,236.628H936.792z"/>
				<path fill-rule="evenodd" clip-rule="evenodd" fill="#077053" d="M667.034,2398.746
					c187.58,68.681,374.914,212.089,528.146,354.029c-2.678,3.585-5.463,7.16-8.357,10.725
					c-156.998-145.573-349.86-292.567-541.386-357.572C651.665,2403.494,658.897,2401.059,667.034,2398.746z"/>
			</g>
			<g>
				<path fill-rule="evenodd" clip-rule="evenodd" fill="#A3C869" d="M930.819,2042.363
					c55.123,55.255,153.985,179.224,267.109,317.396c0.027,0.037,115.102,184.512,20.921,356.219
					c-206.029-130.731-409.396-295.479-524.903-445.985C465.999,1972.976,673.29,1784.213,930.819,2042.363z"/>
				<path fill-rule="evenodd" clip-rule="evenodd" fill="#5C964D" d="M1253.072,2611.673
					c-310.384-236.771-557.45-574.419-558.503-575.846c-2.379-3.23-1.915-7.728,1.032-10.051c2.949-2.334,7.275-1.597,9.654,1.633
					c1.037,1.406,244.115,333.58,549.515,568.431C1254.33,2601.097,1253.786,2606.364,1253.072,2611.673z"/>
			</g>
			<g>
				<path fill-rule="evenodd" clip-rule="evenodd" fill="#A3C869" d="M1101.747,2840.748
					c-39.183-46.737-90.524-98.985-151.853-141.547c-148.951-103.35-296.954-45.347-311.087,10.582
					c-5.766,22.819-0.645,76.643,25.612,140.996h422.256C1091.844,2847.463,1096.862,2844.126,1101.747,2840.748z"/>
				<path fill-rule="evenodd" clip-rule="evenodd" fill="#5C964D" d="M992.231,2850.778
					c-13.242-33.142-37.099-89.989-56.582-120.775c-1.66-2.631-4.334-3.602-5.97-2.164c-1.637,1.443-1.613,4.747,0.048,7.383
					c18.374,29.036,41.026,82.69,54.205,115.556H992.231L992.231,2850.778z M973.96,2850.778h-34.208
					c-11.087-6.62-22.427-13.128-34.017-19.494c-4.864,3.915-12.77,10.513-22.485,19.494h-16.075
					c11.317-11.049,21.091-19.589,27.92-25.276c-39.918-21.35-82.642-40.933-127.862-57.377
					c-11.839,6.747-36.613,22.861-54.409,48.195c-1.318,1.883-3.947,1.517-5.872-0.833c-1.923-2.34-2.411-5.761-1.093-7.644
					c14.762-21.021,34.155-35.911,47.593-44.605c-28.93-9.993-58.825-18.698-89.651-25.71c-4.639-1.055-8.85-6.704-9.399-12.629
					c-0.555-5.926,2.764-9.882,7.405-8.832c63.284,14.406,122.822,35.751,177.985,61.069
					c-32.616-66.808-63.238-107.477-63.334-107.604c-1.846-2.461-2.169-5.856-0.729-7.591c1.443-1.734,4.103-1.146,5.938,1.321
					c0.103,0.133,34.223,45.448,69.131,118.992C894.875,2803.129,936.044,2826.479,973.96,2850.778z"/>
			</g>
		</g>
	</g>
	<g>
		<path fill-rule="evenodd" clip-rule="evenodd" fill="#FFFFFF" d="M2567.725,1135.05l15.685,12.768c0,0,33.98,91.426,35.475,95.908
			c1.491,4.479-0.748,34.359-8.959,44.814c-8.221,10.458-29.879,8.216-32.123-1.496c-2.239-9.71-50.042-118.751-50.042-118.751
			L2567.725,1135.05z"/>
		<path fill-rule="evenodd" clip-rule="evenodd" fill="#01061B" d="M2269.381,1217.334c0,0-22.04,3.721-37.353-8.227
			c-15.309-11.953-59.748-59.38-150.872-21.289c-10.789,4.511-20.958,8.832-30.532,12.951
			c77.433-32.272,120.754,17.467,144.974,32.51c24.644,15.311,33.63,7.498,33.63,7.498l25.747,10.052c0,0,4.381-0.607,11.415-1.857
			L2269.381,1217.334z"/>
		<path fill-rule="evenodd" clip-rule="evenodd" fill="#F08D1B" d="M2499.426,1073.732l13.335-10.893
			c0,0,27.365,3.798,52.385,45.252c0,0,16.995,29.315,18.677,31.365c1.681,2.055,1.305,6.167,1.305,6.167
			s-24.458,33.237-51.346,32.115C2506.895,1176.617,2499.426,1073.732,2499.426,1073.732z"/>
		<path fill-rule="evenodd" clip-rule="evenodd" fill="#ED9072" d="M1905.996,970.09l1.501-7.464c0,0-0.01-37.348-0.01-41.459
			c0-1.286,0.923-3.795,2.217-6.734c2.806-6.408,7.357-14.858,7.872-17.168c0.743-3.357-4.111-17.546-5.978-21.283
			c-1.862-3.737-71.33-48.177-75.436-49.296c-4.105-1.122-5.601,8.593-1.864,15.685c3.732,7.094,31.736,49.673,33.979,53.407
			c2.238,3.732,6.35,15.309,6.35,26.137c0,10.832,0,48.548,0,48.548L1905.996,970.09z"/>
		<path fill-rule="evenodd" clip-rule="evenodd" fill="#F9C00B" d="M1915.703,912.768c0,0-5.968,5.227-16.613-0.933
			c-10.646-6.161-5.602-20.73-16.809-24.273c-11.203-3.551-19.287-0.024-19.287-0.024s-4.331,1.607-8.254-2.031
			c-3.92-3.641-25.203-43.135-25.951-46.496c-0.748-3.357-0.844-13.91,4.949-16.149c5.782-2.241,92.617,58.629,92.617,58.629
			S1928.593,897.176,1915.703,912.768z"/>
		<path fill-rule="evenodd" clip-rule="evenodd" fill="#FFFFFF" d="M1922.334,885.122c2.43,1.613,5.708,0.949,7.315-1.486
			c1.612-2.434,0.944-5.707-1.486-7.32l-89.272-59.019c-2.43-1.607-5.708-0.942-7.32,1.493c-1.61,2.429-0.947,5.708,1.488,7.312
			L1922.334,885.122z"/>
		<path fill-rule="evenodd" clip-rule="evenodd" fill="#ED9072" d="M1994.393,997.495l2.758-6.675c0,0,6.811-34.744,7.559-38.565
			c0.234-1.201,1.549-3.366,3.289-5.861c3.777-5.448,9.558-12.479,10.455-14.534c1.305-2.986-0.621-17.078-1.676-20.894
			c-1.056-3.811-57.558-57.836-61.181-59.626c-3.617-1.793-6.774,6.97-4.599,14.253c2.18,7.28,20.464,52.001,21.865,55.881
			c1.411,3.885,3.114,15.406,1.141,25.479c-1.984,10.073-8.869,45.164-8.869,45.164L1994.393,997.495z"/>
		<path fill-rule="evenodd" clip-rule="evenodd" fill="#F9C00B" d="M2013.881,945.939c0,0-6.509,3.771-15.282-3.902
			c-8.779-7.678-1.427-20.305-11.203-25.654c-9.776-5.341-17.945-3.535-17.945-3.535s-4.323,0.703-7.304-3.398
			c-2.981-4.108-15.579-44.726-15.654-47.994c-0.085-3.265,1.751-13.091,7.548-14.121c5.792-1.026,75.449,71.448,75.449,71.448
			S2028.718,933.784,2013.881,945.939z"/>
		<path fill-rule="evenodd" clip-rule="evenodd" fill="#FFFFFF" d="M2025.095,921.428c1.968,1.947,5.14,1.926,7.076-0.045
			c1.941-1.971,1.926-5.137-0.042-7.079l-72.283-71.198c-1.963-1.941-5.135-1.92-7.076,0.05c-1.941,1.965-1.915,5.137,0.053,7.079
			L2025.095,921.428z"/>
		<path fill-rule="evenodd" clip-rule="evenodd" fill="#01061B" d="M1957.544,1255.413c6.684-53.147,47.93-241.276,51.548-265.082
			c0,0,2.7-8.243-5.432-9.98c-8.142-1.729-36.621-7.797-36.621-7.797s-9.272,0.156-12.29,8.887
			c-3.013,8.728-62.56,197.338-84.689,273.299L1957.544,1255.413z"/>
		<path fill-rule="evenodd" clip-rule="evenodd" fill="#0E1632" d="M2051.001,1189.194c-71.259,30.683-109.238,50.23-121.093,53.524
			c-13.441,3.732-11.203-231.543-13.447-269.634c0,0,1.119-10.458-8.964-10.458c-10.083,0-36.032,0-36.032,0s-10.646,0-12.33,13.63
			c-1.676,13.635-25.209,335.174-25.209,335.174s-4.111,24.841,33.232,24.841c37.348,0,390.257,0,390.257,0l9.346-98.874
			c-7.033,1.244-11.41,1.857-11.41,1.857l-25.753-10.057c0,0-8.986,7.818-33.629-7.498
			C2171.75,1206.656,2128.429,1156.917,2051.001,1189.194z"/>
		<path fill-rule="evenodd" clip-rule="evenodd" fill="#F9C00B" d="M2529.13,1072.273c0,0,9.882,11.544,14.736,33.202
			c4.854,21.663-5.225,91.124-5.225,100.457c0,9.341-17.923,32.863-23.159,39.215c-5.23,6.349-98.963,70.209-118.377,79.17
			c-19.425,8.964-28.389,11.953-40.334,11.953c-11.951,0-115.587,0-115.587,0s-15.876-1.682-15.876-13.073
			c0-11.389,0-71.142,0-85.705c0-14.568,25.402-11.579,66.479-49.675c41.077-38.091,65.021-129.148,152.389-129.148
			C2444.176,1058.67,2510.47,1051.7,2529.13,1072.273z"/>
		<path fill-rule="evenodd" clip-rule="evenodd" fill="#F5A70E" d="M2510.29,1249.547c-20.899,16.104-96.03,66.851-113.184,74.77
			c-19.425,8.964-28.389,11.953-40.334,11.953c-11.951,0-115.587,0-115.587,0s-15.87-1.682-15.87-13.073v-19.766
			c27.731-0.562,45.262-10.964,45.262-10.964l30.086,23.891l15.043-95.134l11.648-79.663l0,0l47.649,31.874
			c0,0,2.212,9.29,6.195,30.532c3.978,21.238,27.874,45.58,56.2,45.58H2510.29z"/>
		<path fill-rule="evenodd" clip-rule="evenodd" fill="#E8685B" d="M2455.692,1044.804c0,11.569,0,24.36,0,32.518
			c0,18.051,12.481,30.691,29.344,30.691c0.806,0,1.612-0.034,2.419-0.098c0.812,0.064,1.623,0.098,2.429,0.098
			c16.863,0,29.339-12.64,29.339-30.691c0-8.158,0-20.949,0-32.518c-5.612-5.856-18.751-13.839-31.768-17.456
			C2474.448,1030.965,2461.309,1038.948,2455.692,1044.804z"/>
		<path fill-rule="evenodd" clip-rule="evenodd" fill="#F4AD85" d="M2325.003,1165.682l-25.753,18.03
			c0,0-37.354,83.925-41.464,93.632c-4.111,9.71-10.46,58.926,26.888,58.926c37.348,0,260.29,0,260.29,0s-6.72-30.168-35.099-30.168
			c-28.389,0-153.121,0-165.443,0c-12.322,0-17.552,1.49-20.167-7.843c-2.615-9.335,51.537-90.002,51.537-90.002L2325.003,1165.682z
			"/>
		<path fill-rule="evenodd" clip-rule="evenodd" fill="#ED9072" d="M2325.003,1165.682l-25.753,18.03
			c0,0-37.354,83.925-41.464,93.632c-4.111,9.71-10.46,58.926,26.888,58.926c37.348,0,260.29,0,260.29,0s-1.989-8.962-8.402-17.115
			c-46.069,1.268-225.849,5.792-249.374-0.308c-27.01-6.999-0.997-73.028,18.008-98.043c17.302-22.764,32.945-16.518,57.489,7.413
			c7.511-11.619,13.107-19.96,13.107-19.96L2325.003,1165.682z"/>
		<path fill-rule="evenodd" clip-rule="evenodd" fill="#F08D1B" d="M2417.946,1061.688c0,0-36.536,2.146-75.746,46.586
			c0,0-24.649,32.489-41.83,62.368c0,0-2.424,6.349-1.119,13.07c0,0,46.413-4.406,66.58,39.663c0,0,4.853,1.117,6.726,0.369
			c1.857-0.742,53.669-64.493,60.39-73.458C2439.667,1141.325,2468.077,1082.38,2417.946,1061.688z"/>
		<path fill-rule="evenodd" clip-rule="evenodd" fill="#0E1632" d="M2519.254,1336.271h-113.285
			c-5.835,0-10.614-4.777-10.614-10.622l0,0c0-5.837,4.779-10.617,10.614-10.617h113.285c5.845,0,10.619,4.779,10.619,10.617l0,0
			C2529.873,1331.494,2525.099,1336.271,2519.254,1336.271z"/>
		<path fill-rule="evenodd" clip-rule="evenodd" fill="#0E1632" d="M2746.1,1336.271H2497.76c-7.092,0-11.388-5.809-9.542-12.903
			l41.836-160.855c1.846-7.094,9.155-12.9,16.258-12.9h248.334c7.098,0,11.389,5.806,9.548,12.9l-41.836,160.855
			C2760.512,1330.462,2753.197,1336.271,2746.1,1336.271z"/>
		<path fill-rule="evenodd" clip-rule="evenodd" fill="#01020E" d="M2752.735,1336.271h-241.013c-7.098,0-11.384-5.809-9.543-12.903
			l41.836-160.855c1.846-7.094,9.166-12.9,16.253-12.9h241.013c7.092,0,11.389,5.806,9.548,12.9l-41.835,160.855
			C2767.147,1330.462,2759.828,1336.271,2752.735,1336.271z"/>
		<path fill-rule="evenodd" clip-rule="evenodd" fill="#01020E" d="M2397.62,971.761c0,0,17.875,39.499-4.583,71.94
			c-22.453,32.434-31.604,64.459-8.731,104.376c22.873,39.921,17.07,66.442,16.863,71.017c-0.207,4.575,9.564,5.612,14.348-6.029
			c20.385,47.267,101.462,47.779,81.411-30.033c-0.042-0.17-0.202-0.488-0.031-0.539c0.238-0.074,0.445,0.225,0.679,0.329
			c19.843,9.309,25.641-15.415-5.824-44.732c-38.127-35.515-12.885-68.023,1.596-92.054
			C2511.122,1016.537,2506.163,942.072,2397.62,971.761z"/>
		<path fill-rule="evenodd" clip-rule="evenodd" fill="#01020E" d="M2545.277,927.583l43.066,43.832c0,0-9.872,29.906-0.928,52.25
			c8.932,22.342-24.904,42.133-46.928,48.198C2518.464,1077.932,2545.277,927.583,2545.277,927.583z"/>
		<g>
			<path fill-rule="evenodd" clip-rule="evenodd" fill="#E8685B" d="M2425.86,998.224c-0.482,0.064-0.954,0.138-1.432,0.239
				l-0.016,0.005l0.005-0.005c-8.71,1.83-15.324,9.468-15.499,18.743c-0.202,10.781,8.37,19.692,19.149,19.891
				c10.783,0.21,19.69-8.368,19.902-19.149c0.112-6.264-2.731-11.898-7.251-15.555c0.493,5.764-0.424,12.898-7.776,13.617
				l0.207-11.261C2433.238,1000.19,2428.99,998.094,2425.86,998.224z"/>
			<path fill-rule="evenodd" clip-rule="evenodd" fill="#E8685B" d="M2560.813,998.224c0.477,0.064,0.955,0.138,1.427,0.239
				l0.021,0.005l-0.005-0.005c8.71,1.83,15.319,9.468,15.499,18.743c0.207,10.781-8.37,19.692-19.154,19.891
				c-10.779,0.21-19.69-8.368-19.896-19.149c-0.117-6.264,2.732-11.898,7.251-15.555c-0.499,5.764,0.419,12.898,7.771,13.617
				l-0.202-11.261C2553.43,1000.19,2557.684,998.094,2560.813,998.224z"/>
		</g>
		<path fill-rule="evenodd" clip-rule="evenodd" fill="#F4AD85" d="M2496.333,900.685h-0.016c-36.754,0-66.845,30.078-66.845,66.846
			v60.812c0,36.767,30.091,66.851,66.845,66.851h0.016c36.759,0,66.851-30.084,66.851-66.851v-60.812
			C2563.185,930.763,2533.093,900.685,2496.333,900.685z"/>
		<path fill-rule="evenodd" clip-rule="evenodd" fill="#ED9072" d="M2435.996,938.81c-4.18,8.715-6.524,18.459-6.524,28.72v60.812
			c0,36.767,30.091,66.851,66.845,66.851h0.016c3.761,0,7.458-0.318,11.06-0.928c-32.198,2.644-59.696-46.421-59.696-73.431
			c0-27.025,21.297-39.883,28.288-39.883c6.986,0,26.776,0,26.776,0l15.706-7.108c0,0-9.065-27.564-13.595-37.009
			c-4.53-9.439-25.678-2.265-43.05-4.156C2452.928,931.71,2444.627,934.909,2435.996,938.81z"/>
		<path fill-rule="evenodd" clip-rule="evenodd" fill="#02061D" d="M2560.224,1000.248c0,0,0,4.471,0,8.617s-0.223,7.684,2.96,7.684
			v-9.415c0,0,1.347-6.943,9.924-6.943c26.315-30.254,22.841-78.277-5.251-103.173c-28.081-24.901-88.413-26.495-98.953-22.984
			c-10.529,3.512-21.382,21.382-21.382,21.382s-8.938-7.977-17.234-3.833c-8.307,4.154-36.075,56.497-36.075,69.588
			c0,13.085,25.333,39.019,25.333,39.019c8.577,0,9.925,6.943,9.925,6.943v9.415c3.182,0,7.033-4.626,7.033-8.776
			c0-4.151,0-8.617,0-8.617c26.426-11.738,34.796-46.925,34.796-46.925S2517.116,1006.565,2560.224,1000.248z"/>
		<g>
			<path fill-rule="evenodd" clip-rule="evenodd" fill="#01020E" d="M2493.051,1052.896c-0.202,9.139,7.044,16.714,16.183,16.908
				c9.145,0.204,16.709-7.044,16.91-16.179h-0.031c0.037-1.575-1.22-2.888-2.79-2.922l-27.323-0.6
				c-1.575-0.034-2.885,1.223-2.923,2.793H2493.051z"/>
			<path fill-rule="evenodd" clip-rule="evenodd" fill="#D64341" d="M2498.933,1065.913c2.79,2.355,6.37,3.805,10.306,3.891
				c3.204,0.074,6.222-0.777,8.8-2.305c-1.199-3.421-4.859-6.047-9.33-6.309C2504.444,1060.935,2500.652,1062.9,2498.933,1065.913z"
				/>
			<path fill-rule="evenodd" clip-rule="evenodd" fill="#FFFFFF" d="M2523.683,1050.737l-25.678-0.565
				c-0.472,2.835,0.78,5.734,2.684,6.397c2.302,0.807,20.899,0.732,22.247-0.7
				C2523.587,1055.177,2523.72,1052.901,2523.683,1050.737z"/>
		</g>
	</g>
	<path fill-rule="evenodd" clip-rule="evenodd" fill="#5BB9BD" d="M1374.444,1030.156c0.299,2.101,1.347,3.827,3.681,3.827
		c3.177,0,10.956-4.01,14.035-5.352c9.049-3.941,17.701-6.376,27.667-6.376c25.114,0,45.469,20.358,45.469,45.468
		c0.005,25.108-20.355,45.469-45.469,45.469c-9.967,0-18.618-2.434-27.667-6.376c-3.079-1.342-10.858-5.357-14.035-5.357
		c-2.339,0-3.387,1.755-3.681,3.824v97.82c0,3.527,2.909,6.439,6.445,6.439h97.815c2.1-0.294,3.824-1.347,3.824-3.676
		c0-3.183-4.01-10.956-5.352-14.035c-3.946-9.055-6.376-17.701-6.376-27.673c0-25.108,20.356-45.469,45.464-45.469
		c25.116,0,45.474,20.361,45.474,45.469c0,9.972-2.435,18.619-6.381,27.673c-1.342,3.079-5.352,10.852-5.352,14.035
		c0,2.328,1.756,3.387,3.827,3.676h97.812c3.533,0,6.447-2.912,6.447-6.439v-98.184c0-0.199,0.005-0.369,0.024-0.562
		c0.777-8.436,7.14-15.147,15.895-15.147c6.257,0,13.251,3.906,18.929,6.376c7.479,3.257,14.536,5.358,22.779,5.358
		c18.353,0,33.227-14.868,33.227-33.222c0-18.355-14.874-33.226-33.227-33.226c-8.243,0-15.3,2.1-22.779,5.357
		c-5.678,2.475-12.672,6.376-18.929,6.376c-8.755,0-15.117-6.705-15.895-15.141c-0.018-0.199-0.024-0.369-0.024-0.568v-98.178
		c0-3.533-2.915-6.442-6.447-6.442h-98.176c-0.202,0-0.371-0.008-0.565-0.024c-8.436-0.777-15.146-7.14-15.146-15.9
		c0-6.257,3.906-13.25,6.376-18.929c3.257-7.474,5.357-14.537,5.357-22.78c0-18.348-14.871-33.226-33.227-33.226
		c-18.348,0-33.221,14.878-33.221,33.226c0,8.243,2.1,15.306,5.357,22.78c2.472,5.678,6.376,12.672,6.376,18.929
		c0,8.76-6.705,15.117-15.141,15.894c-0.199,0.021-0.369,0.029-0.568,0.029h-98.178c-3.533,0-6.445,2.909-6.445,6.442V1030.156z"/>
	<path fill-rule="evenodd" clip-rule="evenodd" fill="#B6C7E6" d="M361.941,2260.467c2.101-0.292,3.83-1.342,3.83-3.676
		c0-3.182-4.015-10.954-5.357-14.035c-3.947-9.049-6.376-17.701-6.376-27.673c0-25.105,20.361-45.469,45.469-45.469
		c25.111,0,45.469,20.363,45.469,45.469c0,9.972-2.435,18.624-6.376,27.673c-1.342,3.082-5.357,10.853-5.357,14.035
		c0,2.334,1.756,3.385,3.827,3.676h97.818c3.533,0,6.442-2.907,6.442-6.44v-97.812c-0.294-2.1-1.347-3.83-3.679-3.83
		c-3.183,0-10.956,4.016-14.033,5.358c-9.055,3.941-17.706,6.376-27.676,6.376c-25.108,0-45.469-20.363-45.469-45.469
		c0-25.111,20.361-45.469,45.469-45.469c9.97,0,18.621,2.435,27.676,6.376c3.076,1.342,10.85,5.352,14.033,5.352
		c2.337,0,3.39-1.75,3.679-3.824v-97.818c0-3.533-2.909-6.44-6.442-6.44l-98.184-0.005c-0.199,0-0.369-0.005-0.562-0.021
		c-8.436-0.775-15.141-7.14-15.141-15.897c0-6.259,3.901-13.25,6.376-18.931c3.257-7.474,5.352-14.534,5.352-22.777
		c0-18.353-14.871-33.227-33.221-33.227c-18.348,0-33.227,14.874-33.227,33.227c0,8.243,2.1,15.303,5.357,22.777
		c2.475,5.68,6.376,12.672,6.376,18.931c0,8.758-6.705,15.123-15.141,15.892c-0.199,0.021-0.368,0.027-0.568,0.027h-98.178
		c-3.533,0-6.439,2.912-6.439,6.445l-0.005,98.184c0,0.202-0.005,0.371-0.027,0.562c-0.777,8.439-7.137,15.144-15.894,15.144
		c-6.257,0.005-13.251-3.904-18.929-6.376c-7.471-3.257-14.537-5.357-22.779-5.357c-18.354,0-33.227,14.868-33.227,33.227
		c0,18.353,14.873,33.221,33.227,33.221c8.243,0,15.308-2.1,22.779-5.352c5.678-2.477,12.672-6.382,18.929-6.382
		c8.76,0,15.117,6.705,15.894,15.144c0.021,0.201,0.032,0.366,0.032,0.562v98.183c0,3.533,2.906,6.44,6.439,6.44H361.941z"/>
	<g>
		<g>
			<rect x="2125.771" y="2692.242" fill-rule="evenodd" clip-rule="evenodd" fill="#01020E" width="612.786" height="113.805"/>
			<path fill-rule="evenodd" clip-rule="evenodd" fill="#01020E" d="M1419.505,1336.271h2120.004
				c17.075,0,31.036,13.964,31.036,31.036v1346.338c0,17.074-13.961,31.036-31.036,31.036H1419.505
				c-17.072,0-31.036-13.961-31.036-31.036V1367.306C1388.469,1350.234,1402.432,1336.271,1419.505,1336.271z"/>
			<path fill-rule="evenodd" clip-rule="evenodd" fill="#0E1632" d="M1372.158,1336.271h2120.01
				c17.07,0,31.042,13.964,31.042,31.036v1346.338c0,17.074-13.972,31.036-31.042,31.036h-2120.01
				c-17.072,0-31.036-13.961-31.036-31.036V1367.306C1341.122,1350.234,1355.086,1336.271,1372.158,1336.271z"/>
			<path fill-rule="evenodd" clip-rule="evenodd" fill="#383D5D" d="M1406.058,1366.689h2052.215
				c11.096,0,20.215,9.113,20.215,20.22v1194.085c0,6.943-5.66,12.598-12.604,12.598H1398.441c-6.941,0-12.598-5.654-12.598-12.598
				V1386.909C1385.843,1375.807,1394.959,1366.689,1406.058,1366.689z"/>
			<rect x="1430.105" y="1416.613" fill-rule="evenodd" clip-rule="evenodd" fill="#FFFFFF" width="2004.118" height="1127.058"/>
			<path fill-rule="evenodd" clip-rule="evenodd" fill="#01020E" d="M3188.801,2813.886c0-25.392-20.777-46.169-46.169-46.169
				H1721.696c-25.395,0-46.175,20.777-46.175,46.169v20.326c0,9.113,7.453,16.566,16.558,16.566h1480.167
				c9.108,0,16.555-7.458,16.555-16.566V2813.886z"/>
			<path fill-rule="evenodd" clip-rule="evenodd" fill="#0E1632" d="M3101.322,2821.503c0-18.21-14.906-33.115-33.11-33.115
				h-1272.09c-18.21,0-33.118,14.906-33.118,33.115v14.582c0,6.53,5.344,11.876,11.879,11.876h1314.562
				c6.535,0,11.876-5.352,11.876-11.876V2821.503z"/>
			<path fill-rule="evenodd" clip-rule="evenodd" fill="#FFFFFF" d="M1279.448,2720.509c0-3.252-2.639-5.883-5.885-5.883
				c-3.26,0-5.893,2.631-5.893,5.883v13.854h-13.854c-3.252,0-5.885,2.642-5.885,5.893c0,3.251,2.633,5.888,5.885,5.888h13.854V2760
				c0,3.246,2.634,5.888,5.893,5.888c3.247,0,5.885-2.642,5.885-5.888v-13.855h13.85c3.257,0,5.893-2.636,5.893-5.888
				c0-3.251-2.637-5.893-5.893-5.893h-13.85V2720.509z"/>
		</g>
		<g>
			<g>
				<path fill-rule="evenodd" clip-rule="evenodd" fill="#E2E1E7" d="M1539.234,1764.292h416.236
					c16.173,0,29.402,13.232,29.402,29.405v90.787c0,16.167-13.229,29.397-29.402,29.397h-416.236
					c-16.17,0-29.399-13.229-29.399-29.397v-90.787C1509.835,1777.524,1523.064,1764.292,1539.234,1764.292z"/>
				<path fill-rule="evenodd" clip-rule="evenodd" fill="#C9C4D1" d="M1528.512,2060.196h814.584
					c10.27,0,18.677-8.408,18.677-18.677v-57.685c0-10.275-8.407-18.682-18.677-18.682h-814.584
					c-10.272,0-18.677,8.408-18.677,18.682v57.685C1509.835,2051.788,1518.24,2060.196,1528.512,2060.196z"/>
				<path fill-rule="evenodd" clip-rule="evenodd" fill="#B6C7E6" d="M1528.512,2201.515h649.025
					c10.274,0,18.682-8.408,18.682-18.682v-57.685c0-10.269-8.407-18.677-18.682-18.677h-649.025
					c-10.272,0-18.677,8.407-18.677,18.677v57.685C1509.835,2193.107,1518.24,2201.515,1528.512,2201.515z"/>
				<g>
					<path fill-rule="evenodd" clip-rule="evenodd" fill="#C9C4D1" d="M1557.1,2276.539c98.796,0.037,197.447,0.154,296.248,0.164
						c98.786,0.011,197.457,0.096,296.251,0.117c3.49,0,6.45,3.729,6.45,8.168c0,7.925,0.005,15.733,0.011,23.535
						c0,4.562-2.949,8.169-6.44,8.164c-98.788-0.143-197.428-0.059-296.227-0.128c-98.775-0.074-197.436-0.127-296.224-0.175
						c-3.488,0-6.309-3.602-6.32-8.158c-0.016-7.802-0.029-15.605-0.045-23.524
						C1550.798,2280.263,1553.612,2276.539,1557.1,2276.539z"/>
					<path fill-rule="evenodd" clip-rule="evenodd" fill="#B6C7E6" d="M1557.24,2353.84c71.929,0.159,144,0.095,215.807,0.132
						c72.06,0.032,144.268,0.18,216.338,0.196c3.49,0,6.312,3.613,6.312,8.052c0.005,7.919,0.016,15.849,0.021,23.652
						c0,4.439-2.811,8.046-6.296,8.036c-72.065-0.128-144.252-0.117-216.327-0.207c-71.781-0.09-143.86-0.09-215.786-0.133
						c-3.488-0.005-6.315-3.602-6.32-8.042c-0.016-7.802-0.032-15.727-0.04-23.647
						C1550.938,2357.441,1553.747,2353.834,1557.24,2353.84z"/>
					<path fill-rule="evenodd" clip-rule="evenodd" fill="#B6C7E6" d="M1557.373,2431.018c57.974-0.042,116.234,0.175,174.439,0.238
						c57.998,0.059,116.203,0.064,174.439,0.08c3.496,0,6.313,3.607,6.318,8.174c0.011,7.919,0.016,15.605,0.021,23.408
						c0.005,4.445-2.811,8.164-6.296,8.153c-58.234-0.127-116.428-0.01-174.426-0.085c-58.062-0.074-116.458-0.276-174.418-0.239
						c-3.488,0-6.317-3.718-6.322-8.163c-0.014-7.681-0.029-15.483-0.045-23.403
						C1551.076,2434.62,1553.888,2431.023,1557.373,2431.018z"/>
				</g>
				<path fill-rule="evenodd" clip-rule="evenodd" fill="#B6C7E6" d="M2081.167,1676.068h313.026
					c25.71,0,46.747,21.034,46.747,46.747v144.318c0,25.71-21.037,46.748-46.747,46.748h-313.026
					c-25.71,0-46.742-21.037-46.742-46.748v-144.318C2034.425,1697.102,2055.457,1676.068,2081.167,1676.068z"/>
			</g>
			<path fill-rule="evenodd" clip-rule="evenodd" fill="#C9C4D1" d="M2053.187,1458.674h534.462
				c10.317,0,18.756,8.442,18.756,18.764v57.931c0,10.317-8.439,18.759-18.756,18.759h-534.462
				c-10.322,0-18.761-8.442-18.761-18.759v-57.931C2034.425,1467.116,2042.864,1458.674,2053.187,1458.674z"/>
			<g>
				<path fill-rule="evenodd" clip-rule="evenodd" fill="#B6C7E6" d="M2699.93,1535.21c14.996,0,27.217-12.943,27.217-28.808
					c0-15.87-12.221-28.811-27.217-28.811c-14.99,0-27.216,12.94-27.216,28.811C2672.714,1522.268,2684.941,1535.21,2699.93,1535.21
					z"/>
				<path fill-rule="evenodd" clip-rule="evenodd" fill="#B6C7E6" d="M2805.047,1535.21c14.99,0,27.222-12.943,27.222-28.808
					c0-15.87-12.232-28.811-27.222-28.811c-14.99,0-27.222,12.94-27.222,28.811
					C2777.825,1522.268,2790.057,1535.21,2805.047,1535.21z"/>
				<path fill-rule="evenodd" clip-rule="evenodd" fill="#B6C7E6" d="M2910.158,1535.21c14.996,0,27.222-12.943,27.222-28.808
					c0-15.87-12.227-28.811-27.222-28.811c-14.984,0-27.211,12.94-27.211,28.811
					C2882.947,1522.268,2895.174,1535.21,2910.158,1535.21z"/>
			</g>
			<path fill-rule="evenodd" clip-rule="evenodd" fill="#E2E1E7" d="M2521.954,1647.27c122.085,0.016,244.149-0.079,365.704-0.178
				c18.512-0.016,33.91,10.9,33.889,24.175c-0.074,57.215-0.413,114.327-0.493,171.28c-0.011,13.15-15.181,23.986-33.683,23.992
				c-121.751,0.005-243.507,0.053-365.533,0.031c-18.481,0-33.646-10.853-33.64-23.997c0.027-56.95,0.058-114.157,0.079-171.235
				C2488.281,1658.067,2503.458,1647.27,2521.954,1647.27z"/>
		</g>
		<path fill-rule="evenodd" clip-rule="evenodd" fill="#E03C82" d="M3160.025,1475.961c-2.106,0.3-3.83,1.348-3.83,3.682
			c0,3.182,4.016,10.956,5.357,14.035c3.947,9.049,6.376,17.7,6.376,27.667c0,25.113-20.358,45.469-45.469,45.469
			c-25.111,0-45.469-20.356-45.469-45.469c0-9.967,2.435-18.618,6.376-27.667c1.342-3.079,5.357-10.853,5.357-14.035
			c0-2.334-1.755-3.387-3.824-3.682h-97.823c-3.527,0-6.44,2.912-6.445,6.445l0.005,97.815c0.297,2.1,1.342,3.829,3.676,3.829
			c3.188,0,10.959-4.015,14.035-5.357c9.054-3.946,17.701-6.376,27.667-6.376c25.121,0,45.474,20.361,45.474,45.469
			c0,25.11-20.358,45.469-45.474,45.469c-9.967,0-18.613-2.435-27.667-6.376c-3.077-1.342-10.848-5.357-14.035-5.357
			c-2.334,0-3.385,1.756-3.681,3.827l0.005,97.818c0,3.527,2.912,6.442,6.44,6.442h98.183c0.202,0,0.372,0.005,0.563,0.024
			c8.439,0.777,15.149,7.14,15.149,15.895c0,6.257-3.904,13.25-6.381,18.929c-3.251,7.473-5.357,14.536-5.352,22.779
			c0,18.353,14.868,33.227,33.221,33.227s33.221-14.874,33.221-33.227c0-8.243-2.095-15.306-5.352-22.779
			c-2.477-5.679-6.376-12.672-6.376-18.929c0-8.755,6.699-15.117,15.138-15.895c0.202-0.018,0.372-0.024,0.568-0.024h98.178
			c3.533,0,6.445-2.915,6.445-6.442v-98.181c0-0.202,0.011-0.371,0.021-0.565c0.785-8.437,7.14-15.147,15.903-15.147
			c6.253,0,13.25,3.907,18.921,6.376c7.479,3.257,14.544,5.357,22.787,5.357c18.353,0,33.221-14.871,33.221-33.221
			c0-18.353-14.868-33.227-33.221-33.227c-8.243,0-15.309,2.1-22.787,5.357c-5.671,2.475-12.667,6.376-18.921,6.376
			c-8.763,0-15.117-6.704-15.903-15.141c-0.016-0.199-0.021-0.369-0.021-0.568v-98.178c0-3.533-2.912-6.445-6.445-6.445H3160.025z"
			/>
		<path fill-rule="evenodd" clip-rule="evenodd" fill="#0076BD" d="M2559.938,2318.857c-0.297-2.1-1.353-3.83-3.681-3.83
			c-3.183,0-10.953,4.015-14.035,5.352c-9.049,3.947-17.701,6.381-27.668,6.381c-25.111,0-45.474-20.358-45.474-45.469
			c0-25.111,20.363-45.469,45.474-45.469c9.967,0,18.619,2.434,27.668,6.375c3.082,1.342,10.853,5.357,14.035,5.357
			c2.334-0.006,3.389-1.761,3.681-3.824v-97.818c0-3.533-2.912-6.445-6.445-6.445h-97.818c-2.095,0.297-3.824,1.347-3.824,3.681
			c0,3.177,4.015,10.953,5.357,14.03c3.941,9.05,6.376,17.701,6.376,27.678c0,25.106-20.363,45.464-45.468,45.464
			c-25.111,0-45.474-20.358-45.474-45.464c0-9.977,2.44-18.628,6.381-27.683c1.342-3.072,5.357-10.847,5.357-14.025
			c0-2.339-1.756-3.389-3.83-3.681h-97.818c-3.532,0-6.439,2.912-6.439,6.445v98.178c0,0.197-0.011,0.372-0.027,0.562
			c-0.779,8.439-7.139,15.144-15.897,15.144c-6.26,0-13.25-3.899-18.931-6.376c-7.474-3.257-14.529-5.357-22.777-5.357
			c-18.353,0-33.226,14.873-33.226,33.221c0,18.358,14.873,33.227,33.226,33.227c8.249,0,15.303-2.101,22.777-5.358
			c5.681-2.467,12.672-6.37,18.931-6.37c8.758,0,15.117,6.699,15.897,15.144c0.016,0.191,0.027,0.361,0.027,0.562v98.184
			c0,3.527,2.907,6.439,6.439,6.439h98.184c0.202,0,0.372,0.011,0.557,0.027c8.444,0.775,15.149,7.139,15.149,15.892
			c0,6.259-3.904,13.25-6.376,18.931c-3.251,7.474-5.352,14.534-5.352,22.782c0,18.348,14.863,33.221,33.222,33.221
			c18.353,0,33.226-14.874,33.226-33.221c0-8.249-2.106-15.309-5.363-22.782c-2.467-5.681-6.376-12.672-6.376-18.931
			c0-8.753,6.705-15.117,15.144-15.892c0.201-0.016,0.366-0.027,0.562-0.027h98.184c3.533,0,6.445-2.912,6.445-6.439V2318.857z"/>
		<g>
			<g>
				<path fill-rule="evenodd" clip-rule="evenodd" fill="#FFFFFF" d="M2865.755,2160.862c13.325,0,24.183-10.858,24.183-24.177
					c0-13.324-10.858-24.188-24.183-24.188c-13.319,0-24.182,10.863-24.182,24.188
					C2841.573,2150.004,2852.436,2160.862,2865.755,2160.862z"/>
				<path fill-rule="evenodd" clip-rule="evenodd" fill="#FFFFFF" d="M2769.02,2160.862c13.319,0,24.182-10.858,24.182-24.177
					c0-13.324-10.863-24.188-24.182-24.188c-13.32,0-24.183,10.863-24.183,24.188
					C2744.837,2150.004,2755.7,2160.862,2769.02,2160.862z"/>
				<path fill-rule="evenodd" clip-rule="evenodd" fill="#FFFFFF" d="M2672.279,2160.862c13.324,0,24.188-10.858,24.188-24.177
					c0-13.324-10.864-24.188-24.188-24.188c-13.314,0-24.177,10.863-24.177,24.188
					C2648.102,2150.004,2658.965,2160.862,2672.279,2160.862z"/>
			</g>
			<path fill-rule="evenodd" clip-rule="evenodd" fill="#C9C4D1" d="M3349.062,1940.514h-664.545c-23.488,0-42.7,19.212-42.7,42.694
				v478.103c0,23.488,19.212,42.7,42.7,42.7h664.545c23.483,0,42.7-19.212,42.7-42.7v-478.103
				C3391.762,1959.726,3372.544,1940.514,3349.062,1940.514z"/>
			<path fill-rule="evenodd" clip-rule="evenodd" fill="#FFFFFF" d="M3333.441,1928.011h-664.546
				c-23.488,0-42.695,19.218-42.695,42.7v478.097c0,23.488,19.208,42.705,42.695,42.705h664.546c23.488,0,42.7-19.218,42.7-42.705
				v-478.097C3376.141,1947.229,3356.928,1928.011,3333.441,1928.011z"/>
			<path fill-rule="evenodd" clip-rule="evenodd" fill="#008689" d="M3333.441,1928.011h-664.546
				c-23.488,0-42.695,19.218-42.695,42.7v107.286h749.941v-107.286C3376.141,1947.229,3356.928,1928.011,3333.441,1928.011z"/>
			<g>
				<path fill-rule="evenodd" clip-rule="evenodd" fill="#FFFFFF" d="M3299.593,2016.026c7.166,0,13.017-5.85,13.017-13.027
					c0-7.166-5.851-13.017-13.017-13.017c-7.177,0-13.022,5.851-13.022,13.017
					C3286.571,2010.176,3292.417,2016.026,3299.593,2016.026z"/>
				<path fill-rule="evenodd" clip-rule="evenodd" fill="#FFFFFF" d="M3247.51,2016.026c7.172,0,13.017-5.85,13.017-13.027
					c0-7.166-5.845-13.017-13.017-13.017c-7.171,0-13.022,5.851-13.022,13.017
					C3234.488,2010.176,3240.338,2016.026,3247.51,2016.026z"/>
				<path fill-rule="evenodd" clip-rule="evenodd" fill="#FFFFFF" d="M3195.427,2016.026c7.171,0,13.022-5.85,13.022-13.027
					c0-7.166-5.851-13.017-13.022-13.017s-13.022,5.851-13.022,13.017C3182.404,2010.176,3188.255,2016.026,3195.427,2016.026z"/>
			</g>
			<g>
				<path fill-rule="evenodd" clip-rule="evenodd" fill="#C9C4D1" d="M3086.056,2216.303c2.175,0,3.941-1.766,3.941-3.936
					c0-2.175-1.766-3.936-3.941-3.936h-401.014c-2.169,0-3.936,1.761-3.936,3.936c0,2.169,1.766,3.936,3.936,3.936H3086.056z"/>
				<path fill-rule="evenodd" clip-rule="evenodd" fill="#C9C4D1" d="M3086.056,2265.257c2.175,0,3.941-1.766,3.941-3.936
					c0-2.18-1.766-3.941-3.941-3.941h-401.014c-2.169,0-3.936,1.761-3.936,3.941c0,2.169,1.766,3.936,3.936,3.936H3086.056z"/>
				<path fill-rule="evenodd" clip-rule="evenodd" fill="#C9C4D1" d="M3086.056,2314.211c2.175,0,3.941-1.761,3.941-3.936
					s-1.766-3.936-3.941-3.936h-401.014c-2.169,0-3.936,1.761-3.936,3.936s1.766,3.936,3.936,3.936H3086.056z"/>
				<path fill-rule="evenodd" clip-rule="evenodd" fill="#C9C4D1" d="M3086.056,2363.159c2.175,0,3.941-1.761,3.941-3.93
					c0-2.175-1.766-3.936-3.941-3.936h-269.249c-2.175,0-3.936,1.761-3.936,3.936c0,2.169,1.761,3.93,3.936,3.93H3086.056z"/>
				<path fill-rule="evenodd" clip-rule="evenodd" fill="#C9C4D1" d="M3086.056,2167.344c2.175,0,3.941-1.761,3.941-3.936
					c0-2.169-1.766-3.936-3.941-3.936h-401.014c-2.169,0-3.936,1.766-3.936,3.936c0,2.175,1.766,3.936,3.936,3.936H3086.056z"/>
			</g>
			<path fill-rule="evenodd" clip-rule="evenodd" fill="#5BB9BD" d="M3306.887,2133.428h-165.613
				c-8.879,0-16.146,7.272-16.146,16.157v121.109c0,8.879,7.267,16.141,16.146,16.141h165.613c8.879,0,16.146-7.262,16.146-16.141
				v-121.109C3323.033,2140.7,3315.766,2133.428,3306.887,2133.428z"/>
			<path fill-rule="evenodd" clip-rule="evenodd" fill="#5BB9BD" d="M3309.486,2316.004h-170.811
				c-7.448,0-13.547,6.089-13.547,13.542v42.684c0,7.458,6.1,13.553,13.547,13.553h170.811c7.448,0,13.547-6.095,13.547-13.553
				v-42.684C3323.033,2322.093,3316.933,2316.004,3309.486,2316.004z"/>
		</g>
	</g>
	<g>
		<g>
			<path fill-rule="evenodd" clip-rule="evenodd" fill="#01020E" d="M1054.875,1801.829h436.559
				c40.016,0,72.755,32.741,72.755,72.757v903.432c0,40.016-32.739,72.76-72.755,72.76h-436.559
				c-40.016,0-72.757-32.744-72.757-72.76v-903.432C982.118,1834.57,1014.859,1801.829,1054.875,1801.829z"/>
			<path fill-rule="evenodd" clip-rule="evenodd" fill="#01020E" d="M1012.08,1801.829h436.559c40.016,0,72.76,32.741,72.76,72.757
				v903.432c0,40.016-32.744,72.76-72.76,72.76H1012.08c-40.016,0-72.752-32.744-72.752-72.76v-903.432
				C939.328,1834.57,972.064,1801.829,1012.08,1801.829z"/>
			<path fill-rule="evenodd" clip-rule="evenodd" fill="#0E1632" d="M1012.08,1813.395c-33.63,0-61.189,27.556-61.189,61.191
				v903.432c0,33.63,27.559,61.197,61.189,61.197h436.559c33.638,0,61.196-27.567,61.196-61.197v-903.432
				c0-33.635-27.559-61.191-61.196-61.191H1012.08z"/>
			<path fill-rule="evenodd" clip-rule="evenodd" fill="#FFFFFF" d="M978.914,2704.643v-397.7v-388.141
				c0-8.142,6.66-14.809,14.807-14.809H1467c8.145,0,14.812,6.667,14.812,14.809v388.141v397.7c0,8.147-6.667,14.815-14.812,14.815
				H993.721C985.574,2719.458,978.914,2712.791,978.914,2704.643z"/>
			<path fill-rule="evenodd" clip-rule="evenodd" fill="#C9C4D1" d="M1128.189,1868.719L1128.189,1868.719
				c0-4.705,3.846-8.556,8.556-8.556h187.231c4.71,0,8.561,3.851,8.561,8.556l0,0c0,4.71-3.851,8.556-8.561,8.556h-187.231
				C1132.035,1877.275,1128.189,1873.429,1128.189,1868.719z"/>
			<path fill-rule="evenodd" clip-rule="evenodd" fill="#C9C4D1" d="M1000.346,1868.719L1000.346,1868.719
				c0-4.705,3.846-8.556,8.55-8.556h0.82c4.71,0,8.556,3.851,8.556,8.556l0,0c0,4.71-3.846,8.556-8.556,8.556h-0.82
				C1004.192,1877.275,1000.346,1873.429,1000.346,1868.719z"/>
			<path fill-rule="evenodd" clip-rule="evenodd" fill="#C9C4D1" d="M1189.688,2778.782L1189.688,2778.782
				c0-21.356,17.464-38.817,38.823-38.817h3.702c21.353,0,38.826,17.462,38.826,38.817l0,0c0,21.35-17.473,38.822-38.826,38.822
				h-3.702C1207.152,2817.604,1189.688,2800.132,1189.688,2778.782z"/>
			<g>
				<path fill-rule="evenodd" clip-rule="evenodd" fill="#ACABBB" d="M1442.539,2656.872h-32.134c-1.557,0-2.979,0.636-4.008,1.671
					l-0.005,0.005c-1.027,1.029-1.665,2.445-1.665,4.005l0.005,32.85c-0.034,0.939,0.096,1.475,1.162,1.857
					c1.71,0.737,1.755,0.122,2.316-0.923l0.05-0.117c0.488-0.859,2.374-3.978,5.268-6.095c1.538-1.135,3.363-1.973,5.394-1.973
					h2.493v2.106c0,1.294,0.525,2.466,1.374,3.315c0.852,0.843,2.024,1.374,3.313,1.374h17.55c1.398,0,2.665,0.589,3.732,1.374
					c1.971,1.448,3.288,3.522,3.718,4.265l0.085,0.165c0.544,1.071,0.971,1.506,2.368,0.907c1.087-0.462,1.148-0.918,1.109-1.793
					c0.234-7.941,0.005-16.46,0.005-24.411c0-1.283-0.531-2.461-1.379-3.309c-0.852-0.844-2.024-1.374-3.313-1.374h-1.761v-8.217
					c0-1.559-0.637-2.975-1.665-4.005C1445.522,2657.508,1444.098,2656.872,1442.539,2656.872L1442.539,2656.872z
					 M1414.919,2677.246h-1.926c-0.604,0-1.092-0.493-1.092-1.098c0-0.6,0.488-1.093,1.092-1.093h1.926
					c0.604,0,1.093,0.493,1.093,1.093C1416.012,2676.753,1415.523,2677.246,1414.919,2677.246L1414.919,2677.246z
					 M1419.056,2675.055h17.754c0.604,0,1.098,0.493,1.098,1.093c0,0.604-0.493,1.098-1.098,1.098h-17.754
					c-0.605,0-1.092-0.493-1.092-1.098C1417.964,2675.549,1418.452,2675.055,1419.056,2675.055L1419.056,2675.055z
					 M1438.017,2666.622h1.928c0.602,0,1.093,0.493,1.093,1.098c0,0.6-0.49,1.093-1.093,1.093h-1.928
					c-0.608,0-1.09-0.493-1.09-1.093C1436.927,2667.115,1437.409,2666.622,1438.017,2666.622L1438.017,2666.622z M1433.877,2668.812
					h-20.884c-0.604,0-1.092-0.493-1.092-1.093c0-0.604,0.488-1.098,1.092-1.098h20.884c0.604,0,1.092,0.493,1.092,1.098
					C1434.969,2668.319,1434.481,2668.812,1433.877,2668.812L1433.877,2668.812z M1425.055,2688.152h17.483
					c1.559,0,2.984-0.636,4.01-1.665c1.029-1.029,1.665-2.451,1.665-4.01v-8.063h1.761c0.292,0,0.555,0.111,0.74,0.297
					c0.188,0.201,0.305,0.462,0.305,0.742v19.202c-0.456-0.446-0.949-0.875-1.488-1.268c-1.626-1.193-3.602-2.079-5.882-2.079
					h-17.55c-0.281,0-0.544-0.122-0.734-0.313c-0.188-0.191-0.311-0.446-0.311-0.738V2688.152L1425.055,2688.152z
					 M1410.405,2660.516h32.134c0.557,0,1.066,0.234,1.434,0.6c0.372,0.366,0.6,0.881,0.6,1.437v10.042v9.882
					c0,0.557-0.228,1.066-0.6,1.438c-0.368,0.365-0.878,0.594-1.434,0.594h-19.302h-4.315c-2.915,0-5.453,1.146-7.545,2.684
					c-1.141,0.838-2.148,1.798-3.007,2.747v-27.386c0-0.557,0.23-1.071,0.594-1.443
					C1409.336,2660.75,1409.845,2660.516,1410.405,2660.516z"/>
				<path fill-rule="evenodd" clip-rule="evenodd" fill="#ACABBB" d="M1294.486,2640.72c-3.658,0-6.965,1.485-9.36,3.878
					c-2.389,2.392-3.872,5.697-3.872,9.356c0,3.65,1.483,6.965,3.872,9.352l0.109,0.106c2.39,2.334,5.654,3.772,9.251,3.772
					c3.641,0,6.948-1.48,9.344-3.878l0.01-0.01c2.395-2.398,3.872-5.702,3.872-9.342c0-3.649-1.482-6.954-3.878-9.352
					C1301.445,2642.205,1298.138,2640.72,1294.486,2640.72L1294.486,2640.72z M1279.759,2688.136v-0.058v-0.059v-1.156
					c0-4.01,1.621-7.654,4.236-10.317l0.09-0.09c2.668-2.663,6.35-4.323,10.402-4.323c4.044,0,7.728,1.66,10.396,4.323
					c2.668,2.674,4.326,6.354,4.326,10.407v1.156l0.005,0.069v0.048v9.383c0,0.212-0.085,0.408-0.22,0.541l-0.011,0.005
					c-0.135,0.133-0.324,0.218-0.538,0.218h-27.922c-0.21,0-0.406-0.085-0.542-0.223c-0.137-0.137-0.223-0.329-0.223-0.541V2688.136
					L1279.759,2688.136z M1276.117,2688.078l-0.005,0.058v9.383c0,1.21,0.499,2.313,1.297,3.109l0.005,0.005
					c0.798,0.801,1.899,1.294,3.109,1.294h27.922c1.206,0,2.31-0.494,3.108-1.294l0.011-0.005c0.798-0.806,1.292-1.905,1.292-3.109
					v-9.383v-0.069v-0.048v-1.156c0-5.05-2.066-9.648-5.397-12.974c-3.328-3.331-7.919-5.4-12.971-5.4
					c-5.055,0-9.649,2.069-12.977,5.395l-0.104,0.111c-3.27,3.315-5.294,7.866-5.294,12.868v1.156L1276.117,2688.078
					L1276.117,2688.078z M1287.704,2647.176c1.737-1.74,4.132-2.812,6.782-2.812c2.644,0,5.044,1.072,6.773,2.812
					c1.737,1.729,2.809,4.126,2.809,6.779c0,2.647-1.072,5.05-2.798,6.779l-0.011,0.005c-1.726,1.729-4.124,2.801-6.773,2.801
					c-2.61,0-4.976-1.035-6.697-2.716l-0.085-0.09c-1.734-1.735-2.809-4.132-2.809-6.779
					C1284.896,2651.308,1285.97,2648.91,1287.704,2647.176z"/>
				<path fill-rule="evenodd" clip-rule="evenodd" fill="#ACABBB" d="M1152.998,2658.745c-1.156,0.398-2.265,0.907-3.307,1.512
					c-1.058,0.61-2.05,1.32-2.967,2.116l-3.748-2.158l-0.175-0.09c-0.628-0.308-1.321-0.366-1.949-0.197
					c-0.69,0.186-1.307,0.637-1.698,1.305l-3.421,5.93c-0.39,0.668-0.469,1.432-0.284,2.122c0.183,0.695,0.634,1.31,1.302,1.698
					l3.745,2.159c-0.069,0.366-0.13,0.732-0.178,1.114c-0.112,0.854-0.17,1.693-0.17,2.525c0,0.822,0.058,1.666,0.17,2.519
					c0.047,0.377,0.109,0.748,0.178,1.104l-3.737,2.164c-0.676,0.382-1.127,1.008-1.31,1.692c-0.186,0.69-0.106,1.459,0.284,2.122
					l3.421,5.93c0.39,0.674,1.008,1.125,1.698,1.305c0.689,0.191,1.451,0.111,2.124-0.281l3.748-2.158
					c0.912,0.801,1.909,1.506,2.967,2.122c1.042,0.599,2.151,1.108,3.307,1.506v4.323c0,0.769,0.316,1.464,0.82,1.973
					c0.504,0.514,1.207,0.828,1.981,0.828h6.846c0.772,0,1.475-0.313,1.984-0.817l0.151-0.176c0.419-0.488,0.668-1.124,0.668-1.809
					v-4.323c1.156-0.398,2.26-0.907,3.307-1.506c1.058-0.615,2.05-1.321,2.968-2.122l3.742,2.158l0.175,0.09
					c0.629,0.313,1.32,0.361,1.949,0.197c0.689-0.186,1.313-0.637,1.697-1.305l3.421-5.935c0.395-0.663,0.469-1.427,0.284-2.122
					c-0.183-0.679-0.631-1.31-1.297-1.692l-3.75-2.164c0.069-0.356,0.13-0.727,0.178-1.104c0.117-0.854,0.175-1.698,0.175-2.519
					c0-0.833-0.058-1.676-0.175-2.53c-0.048-0.377-0.103-0.743-0.172-1.104l3.745-2.164c0.666-0.387,1.114-1.003,1.297-1.698
					c0.186-0.69,0.111-1.453-0.279-2.122l-3.426-5.92c-0.385-0.679-1.008-1.13-1.697-1.316c-0.682-0.18-1.445-0.1-2.119,0.287
					l-3.747,2.158c-0.918-0.796-1.91-1.506-2.968-2.116c-1.048-0.605-2.151-1.114-3.307-1.512v-4.323
					c0-0.769-0.316-1.464-0.82-1.973c-0.509-0.51-1.212-0.828-1.981-0.828h-6.848c-0.774,0-1.471,0.318-1.981,0.823l-0.154,0.175
					c-0.417,0.488-0.666,1.114-0.666,1.804V2658.745L1152.998,2658.745z M1151.513,2663.402c1.132-0.658,2.361-1.172,3.652-1.528
					c0.843-0.159,1.477-0.902,1.477-1.782v-4.827h5.164v4.827c0,0.806,0.544,1.538,1.355,1.756c1.337,0.35,2.604,0.881,3.772,1.554
					c1.178,0.679,2.254,1.512,3.209,2.467c0.568,0.605,1.49,0.758,2.236,0.329l4.185-2.419l2.589,4.477l-4.082,2.355
					c-0.766,0.382-1.186,1.257-0.952,2.111c0.186,0.679,0.318,1.342,0.403,2c0.085,0.642,0.13,1.326,0.13,2.058
					c0,0.721-0.045,1.406-0.13,2.047c-0.085,0.652-0.223,1.321-0.408,2h0.011c-0.21,0.78,0.114,1.628,0.848,2.047l4.18,2.414
					l-2.589,4.488l-4.185-2.419c-0.695-0.408-1.607-0.313-2.201,0.292c-0.963,0.97-2.055,1.813-3.243,2.498
					c-1.138,0.652-2.363,1.172-3.658,1.522c-0.838,0.159-1.469,0.902-1.469,1.793v4.822h-5.164v-4.822
					c-0.005-0.807-0.544-1.549-1.363-1.761c-1.331-0.35-2.599-0.881-3.766-1.554c-1.178-0.679-2.26-1.517-3.214-2.467
					c-0.562-0.599-1.49-0.753-2.233-0.324l-4.188,2.419l-2.583-4.488l4.042-2.329c0.793-0.372,1.225-1.262,0.992-2.133
					c-0.185-0.679-0.323-1.347-0.408-2c-0.085-0.642-0.13-1.326-0.13-2.047c0-0.732,0.045-1.417,0.13-2.058
					c0.085-0.658,0.223-1.321,0.408-2l-0.01-0.006c0.214-0.774-0.114-1.628-0.844-2.047l-4.18-2.408l2.583-4.482l4.188,2.419
					c0.697,0.404,1.604,0.297,2.198-0.297C1149.227,2664.935,1150.319,2664.086,1151.513,2663.402L1151.513,2663.402z
					 M1159.22,2667.04c2.626,0,5.016,1.045,6.771,2.748l0.114,0.106c1.756,1.761,2.848,4.196,2.848,6.885
					c0,2.674-1.088,5.103-2.848,6.869l-0.01,0.011c-1.761,1.755-4.196,2.848-6.875,2.848c-2.684,0-5.119-1.093-6.874-2.854
					c-1.766-1.766-2.859-4.196-2.859-6.874c0-2.689,1.093-5.124,2.854-6.885C1154.101,2668.133,1156.536,2667.04,1159.22,2667.04
					L1159.22,2667.04z M1154.916,2672.472c1.1-1.109,2.623-1.788,4.304-1.788c1.647,0,3.138,0.647,4.225,1.697l0.079,0.09
					c1.103,1.098,1.787,2.625,1.787,4.307c0,1.681-0.684,3.204-1.777,4.302l-0.011,0.005c-1.095,1.093-2.618,1.777-4.305,1.777
					c-1.681,0-3.203-0.684-4.304-1.782c-1.104-1.098-1.783-2.621-1.783-4.302C1153.133,2675.098,1153.817,2673.57,1154.916,2672.472
					z"/>
				<path fill-rule="evenodd" clip-rule="evenodd" fill="#ACABBB" d="M1010.68,2670.652c-3.148,3.141-4.727,7.267-4.727,11.389
					c0,4.127,1.578,8.259,4.727,11.404l0.109,0.101c3.135,3.076,7.214,4.62,11.29,4.62c3.551,0,7.111-1.167,10.038-3.506
					l6.734,6.736c0.713,0.711,1.867,0.711,2.581,0c0.708-0.711,0.708-1.867,0-2.578l-6.736-6.736
					c2.336-2.928,3.503-6.482,3.503-10.042c0-4.122-1.573-8.248-4.721-11.389c-3.148-3.156-7.272-4.731-11.399-4.731
					c-4.122,0-8.246,1.575-11.394,4.721L1010.68,2670.652L1010.68,2670.652z M1030.939,2690.825l-0.04,0.042l-0.034,0.032
					c-2.43,2.413-5.609,3.623-8.787,3.623c-3.159,0-6.315-1.193-8.742-3.565l-0.085-0.09c-2.434-2.434-3.65-5.628-3.65-8.826
					c0-3.193,1.215-6.391,3.65-8.826c2.432-2.435,5.628-3.649,8.826-3.649c3.193,0,6.387,1.214,8.826,3.654
					c2.434,2.43,3.652,5.628,3.652,8.821C1034.557,2685.219,1033.348,2688.396,1030.939,2690.825z"/>
			</g>
			<path fill-rule="evenodd" clip-rule="evenodd" fill="#E74D91" d="M1405.968,2667.396c5.275,0,9.574-4.296,9.574-9.569
				c0-5.267-4.299-9.569-9.574-9.569c-5.268,0-9.567,4.302-9.567,9.569C1396.401,2663.099,1400.7,2667.396,1405.968,2667.396z"/>
			<path fill-rule="evenodd" clip-rule="evenodd" fill="#FFFFFF" d="M1407.077,2662.394h-1.87v-7.086
				c-0.684,0.642-1.493,1.114-2.421,1.427v-1.708c0.491-0.159,1.018-0.467,1.591-0.913c0.576-0.451,0.968-0.97,1.183-1.565h1.517
				V2662.394z"/>
		</g>
		<g>
			<path fill-rule="evenodd" clip-rule="evenodd" fill="#F9C00B" d="M1162.142,2429.018h161.738c0.782,0,1.557,0.048,2.32,0.138
				c13.229-3.554,13.744-16.024,14.502-34.272c0.363-8.847,0.783-18.926,2.589-30.043c4.506-27.652,33.916-77.094,48.214-99.902
				c0.066-0.111,0.135-0.223,0.209-0.329l0.011-0.016c4.095-6.529,6.904-10.794,7.458-11.632
				c6.909-11.728,12.529-24.299,16.669-37.518c5.357-17.106,8.246-35.311,8.246-54.216c0-50.01-20.271-95.277-53.036-128.052
				c-32.773-32.765-78.043-53.039-128.052-53.039c-50.004,0-95.279,20.273-128.047,53.039
				c-32.773,32.775-53.043,78.043-53.043,128.052c0,18.904,2.891,37.109,8.248,54.216c4.14,13.219,9.763,25.79,16.671,37.518
				c0.549,0.838,3.358,5.103,7.461,11.632l0.008,0.016c0.077,0.106,0.141,0.217,0.204,0.329
				c14.301,22.804,43.711,72.251,48.214,99.902c1.812,11.118,2.225,21.196,2.594,30.043c0.753,18.247,1.267,30.718,14.499,34.272
				C1160.583,2429.066,1161.36,2429.018,1162.142,2429.018z"/>
			<path fill-rule="evenodd" clip-rule="evenodd" fill="#FFFFFF" d="M1219.082,2431.532c0,2.186-1.777,3.957-3.96,3.957
				c-2.191,0-3.962-1.771-3.962-3.957v-118.701c0-1.522-0.034-2.992-0.09-4.424c-2.617-0.615-5.119-1.299-7.492-2.053
				c-9.609-3.029-17.281-7.139-22.604-11.765c-5.819-5.044-8.946-10.8-8.946-16.608c0-1.649,0.255-3.278,0.764-4.896
				c1.565-4.965,5.296-8.497,10.075-10.083c3.35-1.114,7.185-1.241,11.076-0.191c3.748,1.008,7.58,3.108,11.086,6.471
				c6.402,6.132,11.8,16.629,13.497,32.584c7.341,1.332,15.544,2.08,24.485,2.08c8.946,0,17.146-0.748,24.485-2.08
				c1.703-15.956,7.1-26.453,13.494-32.584c3.509-3.363,7.341-5.463,11.086-6.471c3.893-1.05,7.729-0.923,11.081,0.191
				c4.774,1.586,8.506,5.118,10.073,10.083c0.51,1.618,0.764,3.247,0.764,4.896c0,5.808-3.13,11.563-8.946,16.608
				c-5.318,4.626-12.99,8.736-22.604,11.765c-2.376,0.753-4.875,1.438-7.49,2.053c-0.059,1.432-0.088,2.902-0.088,4.424v118.701
				c0,2.186-1.777,3.957-3.962,3.957c-2.191,0-3.965-1.771-3.965-3.957v-118.701c0-0.96,0.013-1.904,0.04-2.833
				c-7.296,1.204-15.316,1.878-23.968,1.878c-8.646,0-16.669-0.674-23.962-1.878c0.024,0.928,0.034,1.872,0.034,2.833V2431.532
				L1219.082,2431.532z M1286.469,2274.979c-4.891,4.689-9.076,12.752-10.781,25.084c1.501-0.393,2.962-0.812,4.376-1.257
				c8.58-2.711,15.301-6.265,19.814-10.19c4.026-3.496,6.193-7.182,6.193-10.635c0-0.849-0.13-1.682-0.396-2.509
				c-0.769-2.445-2.62-4.196-4.999-4.981c-1.899-0.631-4.169-0.679-6.553-0.038
				C1291.582,2271.139,1288.948,2272.603,1286.469,2274.979L1286.469,2274.979z M1210.338,2300.064
				c-1.714-12.333-5.893-20.396-10.787-25.084c-2.474-2.376-5.113-3.84-7.649-4.525c-2.389-0.641-4.654-0.594-6.561,0.038
				c-2.374,0.785-4.23,2.535-4.997,4.981c-0.265,0.827-0.39,1.66-0.39,2.509c0,3.453,2.165,7.139,6.185,10.635
				c4.522,3.925,11.237,7.479,19.822,10.19C1207.368,2299.252,1208.831,2299.671,1210.338,2300.064z"/>
			<path fill-rule="evenodd" clip-rule="evenodd" fill="#0E1632" d="M1280.905,2525.944c0,17.377-16.966,31.466-37.895,31.466
				c-20.928,0-37.892-14.088-37.892-31.466c0-17.382,19.95-18.432,19.95-18.432L1280.905,2525.944z"/>
			<path fill-rule="evenodd" clip-rule="evenodd" fill="#0E1632" d="M1162.668,2427.57h160.69c5.416,0,10.346,2.212,13.913,5.782
				c3.567,3.564,5.782,8.497,5.782,13.913c0,5.421-2.215,10.349-5.782,13.913c-2.575,2.573-5.848,4.44-9.503,5.283
				c2.692,3.374,4.31,7.644,4.31,12.274c0,5.421-2.215,10.349-5.782,13.914c-3.567,3.575-8.492,5.781-13.916,5.781h-2.559
				c2.464,3.289,3.928,7.368,3.928,11.776c0,5.421-2.217,10.349-5.781,13.913c-3.572,3.57-8.498,5.782-13.916,5.782h-102.08
				c-5.421,0-10.346-2.212-13.913-5.782c-3.567-3.564-5.782-8.492-5.782-13.913c0-4.408,1.462-8.481,3.926-11.776h-2.559
				c-5.421,0-10.346-2.207-13.919-5.781c-3.567-3.565-5.781-8.492-5.781-13.914c0-4.63,1.615-8.9,4.315-12.274
				c-3.658-0.844-6.936-2.71-9.503-5.283c-3.572-3.564-5.787-8.492-5.787-13.913c0-5.421,2.215-10.349,5.787-13.913
				C1152.321,2429.782,1157.244,2427.57,1162.668,2427.57z"/>
		</g>
	</g>
	<g>
		<path fill-rule="evenodd" clip-rule="evenodd" fill="#FFFFFF" d="M1898.501,1475.385h-673.117c-16.08,0-29.23,13.152-29.23,29.232
			v187.538c0,16.074,13.155,29.227,29.23,29.227h673.117c16.078,0,29.232-13.152,29.232-29.227v-187.538
			C1927.733,1488.538,1914.579,1475.385,1898.501,1475.385z"/>
		<path fill-rule="evenodd" clip-rule="evenodd" fill="#E03C82" d="M1890.656,1466.829h-673.115
			c-16.08,0-29.229,13.152-29.229,29.227v187.541c0,16.078,13.155,29.229,29.229,29.229h673.115
			c16.072,0,29.238-13.152,29.238-29.229v-187.541C1919.894,1479.982,1906.728,1466.829,1890.656,1466.829z"/>
		<g>
			<path fill-rule="evenodd" clip-rule="evenodd" fill="#FFFFFF" d="M1721.306,1574.338c1.485,0,2.695-1.207,2.695-2.695
				c0-1.485-1.209-2.695-2.695-2.695h-480.94c-1.493,0-2.695,1.209-2.695,2.695c0,1.488,1.202,2.695,2.695,2.695H1721.306z"/>
			<path fill-rule="evenodd" clip-rule="evenodd" fill="#FFFFFF" d="M1721.306,1607.854c1.485,0,2.695-1.207,2.695-2.695
				c0-1.49-1.209-2.697-2.695-2.697h-480.94c-1.493,0-2.695,1.207-2.695,2.697c0,1.488,1.202,2.695,2.695,2.695H1721.306z"/>
			<path fill-rule="evenodd" clip-rule="evenodd" fill="#FFFFFF" d="M1721.306,1641.364c1.485,0,2.695-1.207,2.695-2.695
				c0-1.485-1.209-2.692-2.695-2.692h-480.94c-1.493,0-2.695,1.207-2.695,2.692c0,1.488,1.202,2.695,2.695,2.695H1721.306z"/>
			<path fill-rule="evenodd" clip-rule="evenodd" fill="#FFFFFF" d="M1721.306,1674.879c1.485,0,2.695-1.212,2.695-2.697
				c0-1.488-1.209-2.695-2.695-2.695H1398.39c-1.485,0-2.694,1.207-2.694,2.695c0,1.486,1.209,2.697,2.694,2.697H1721.306z"/>
		</g>
		<path fill-rule="evenodd" clip-rule="evenodd" fill="#F9C00B" d="M1890.656,1464.689h-673.115
			c-16.08,0-29.229,13.152-29.229,29.233v45.638h731.582v-45.638C1919.894,1477.841,1906.728,1464.689,1890.656,1464.689z"/>
		<path fill-rule="evenodd" clip-rule="evenodd" fill="#FFFFFF" d="M1867.486,1509.612c4.906,0,8.912-4.008,8.912-8.917
			c0-4.91-4.005-8.909-8.912-8.909c-4.912,0-8.914,3.999-8.914,8.909C1858.572,1505.604,1862.574,1509.612,1867.486,1509.612z"/>
		<path fill-rule="evenodd" clip-rule="evenodd" fill="#FFFFFF" d="M1831.831,1509.612c4.909,0,8.917-4.008,8.917-8.917
			c0-4.91-4.007-8.909-8.917-8.909c-4.909,0-8.914,3.999-8.914,8.909C1822.917,1505.604,1826.922,1509.612,1831.831,1509.612z"/>
		<path fill-rule="evenodd" clip-rule="evenodd" fill="#FFFFFF" d="M1796.18,1509.612c4.909,0,8.917-4.008,8.917-8.917
			c0-4.91-4.008-8.909-8.917-8.909c-4.909,0-8.914,3.999-8.914,8.909C1787.266,1505.604,1791.271,1509.612,1796.18,1509.612z"/>
		<path fill-rule="evenodd" clip-rule="evenodd" fill="#FFFFFF" d="M1874.186,1571.644H1753.12c-3.965,0-7.203,3.243-7.203,7.203
			v54.041c0,3.967,3.238,7.203,7.203,7.203h121.066c3.968,0,7.203-3.236,7.203-7.203v-54.041
			C1881.389,1574.887,1878.154,1571.644,1874.186,1571.644z"/>
		<path fill-rule="evenodd" clip-rule="evenodd" fill="#FFFFFF" d="M1876.843,1653.129h-126.382c-2.501,0-4.546,2.045-4.546,4.548
			v14.335c0,2.498,2.045,4.548,4.546,4.548h126.382c2.498,0,4.546-2.051,4.546-4.548v-14.335
			C1881.389,1655.174,1879.341,1653.129,1876.843,1653.129z"/>
	</g>
	<g>
		<path fill-rule="evenodd" clip-rule="evenodd" fill="#79798E" d="M1680.492,2698.172l13.081-7.315c0,0,233.27,8.243,306.348,18.75
			c73.088,10.508,84.429,25.801,158.144,35.762c73.715,9.951,215.473,35.455,233.111,37.056c17.642,1.596,13.86,33.884,6.307,42.376
			c-7.564,8.492-254.301-13.303-291.082-20.454c-36.786-7.15-88.212-6.747-122.228-2.864
			c-34.028,3.883-222.412,30.447-271.551,24.236C1663.478,2819.503,1680.492,2698.172,1680.492,2698.172z"/>
		<path fill-rule="evenodd" clip-rule="evenodd" fill="#4A4D67" d="M2403.603,2806.709c-0.149,1.591-0.372,3.167-0.663,4.699
			c-6.158,0.175-12.693,0.376-19.653,0.589c-83.14,2.583-189.89-14.836-256.821-25.753c-29.779-4.858-51.643-8.429-59.743-8.349
			c-26.92,0.26-268.777,1.607-269.472,1.613c-1.3,0-2.358-1.045-2.363-2.345c-0.005-1.299,1.042-2.365,2.344-2.365
			c0.698-0.005,242.518-1.348,269.454-1.607c8.529-0.085,30.553,3.506,60.543,8.397c66.761,10.895,173.251,28.272,255.925,25.705
			C2390.395,2807.065,2397.195,2806.874,2403.603,2806.709z"/>
		<path fill-rule="evenodd" clip-rule="evenodd" fill="#EC7962" d="M1881.83,2368.671l8.285-2.706c0,0,4.499-11.563,9.888-16.496
			c5.389-4.938,14.847-12.911,15.595-24.135c0.747-11.214-41.427-17.277-41.459-14.911c-0.026,2.361-17.687,19.473-16.051,26.57
			c1.636,7.113,7.389,18.719,7.389,18.719L1881.83,2368.671z"/>
		<path fill-rule="evenodd" clip-rule="evenodd" fill="#B92F6D" d="M1736.448,2367.843c0,0,52.864,122.324,63.23,134.927
			c10.376,12.614,55.905-122.658,65.798-147.058c0,0,19.117,0.997,25.254,7.044c0,0-30.731,162.7-44.994,195.349
			c-14.263,32.643-45.673,37.11-74.197,25.037c-28.522-12.078-101.997-141.208-117.399-165.008
			C1638.739,2394.333,1679.156,2311.585,1736.448,2367.843z"/>
		<path fill-rule="evenodd" clip-rule="evenodd" fill="#01020E" d="M1944.118,2189.044c0,0,6.827,1.825,7.012,6.614
			c0.186,4.795-15.473,113.986-17.462,118.298c-1.984,4.313-3.888,11.203-49.654,6.264c0,0-7.973-1.517-9.718-5.649
			c-1.745-4.137,9.24-101.801,9.819-113.179c0.583-11.373,7.702-13.584,14.253-14.162
			C1904.919,2186.651,1944.118,2189.044,1944.118,2189.044z"/>
		<path fill-rule="evenodd" clip-rule="evenodd" fill="#F6CCCF" d="M2030.282,2780.909c0,0,2.238,3.909,1.751,12.81
			c-0.339,6.094-0.902,12.502-0.403,18.056c0.228,2.541,0.684,4.906,1.474,6.986c2.536,6.609,11.177,15.775,40.733,21.865
			c29.556,6.09,63.079,4.816,80.552,3.544c17.468-1.268,7.697-10.285-0.111-14.279c-7.813-4-61.09-24.777-74.956-40.26
			c-13.871-15.483-12.195-17.621-13.393-20.146C2064.729,2766.969,2035.242,2767.797,2030.282,2780.909z"/>
		<path fill-rule="evenodd" clip-rule="evenodd" fill="#ACABBB" d="M1679.604,2847.648c1.326,0.971,2.514,1.57,3.512,1.692
			c3.158,0.393,6.261,0.7,9.32,0.939l0.193,0.026l0.005-0.01c181.542,14.178,196.855-231.647,249.108-266.788
			c8.997-6.047,69.158,197.768,73.879,203.708c4.716,5.941,50.906-0.286,56.041-7.574c5.135-7.288-50.375-254.222-84.515-310.368
			c0,0-27.068-35.566-86.986-1.634c-59.918,33.931-160.067,191.217-172.644,201.883c-12.576,10.667-28.05,28.113-49.755,21.239
			c-0.793-0.249-1.578-0.329-2.35-0.271l-0.005-0.021l-106.678,7.654C1565.406,2807.627,1647.141,2839.373,1679.604,2847.648z"/>
		<path fill-rule="evenodd" clip-rule="evenodd" fill="#79798E" d="M2039.406,2788.881c1.586-0.169,3.188-0.365,4.79-0.588
			c-15.658-44.408-80.223-226.395-89.919-235.89c-0.477-0.467-0.986-0.885-1.512-1.268c-4.705-3.262-10.916-2.445-17.695,1.066
			c-6.238,3.225-13.07,8.795-19.6,15.462c-5.787,5.909-11.351,12.683-16.056,19.462c-2.939,4.233-7.946,12.64-14.47,23.631
			c-28.216,47.464-85.355,143.567-126.151,154.691c-1.026,0.281-2.191,0.573-3.472,0.87c-23.681,5.575-46.641,1.978-65.524-9.871
			c-1.546-0.971-3.069-2-4.565-3.087c1.225-5.029,4.525-20.793-0.061-28.808c-2.962-5.193-6.795-21.955-9.304-34.08
			c-0.154,0-0.305,0.01-0.453,0.021l-0.005-0.021l-4.281,0.313c2.578,12.47,6.671,30.378,9.949,36.112
			c3.307,5.792,1.347,17.462,0.058,23.297c-14.802-12.195-26.365-30.187-32.69-53.399c-0.355-1.305-0.719-2.737-1.093-4.307
			l-4.74,0.339c0.008,0.122,0.029,0.244,0.053,0.366c0.355,1.506,0.769,3.119,1.238,4.837c6.999,25.694,20.215,45.294,37.134,58.088
			c0.069,0.053,0.143,0.117,0.22,0.165c1.96,1.48,3.975,2.859,6.031,4.153c19.966,12.524,44.183,16.348,69.105,10.487
			c1.085-0.255,2.297-0.573,3.633-0.934c42.655-11.622,100.443-108.824,128.981-156.833c6.461-10.864,11.405-19.18,14.285-23.334
			c4.583-6.598,9.972-13.165,15.537-18.852c6.206-6.339,12.63-11.585,18.401-14.576c5.23-2.7,9.776-3.501,12.847-1.374
			c0.307,0.207,0.61,0.461,0.896,0.742C1959.894,2564.497,2023.222,2742.999,2039.406,2788.881z"/>
		<g>
			<path fill-rule="evenodd" clip-rule="evenodd" fill="#D54944" d="M2088.816,2779.779c8.073,9.193,42.546,31.609,67.445,31.789
				c24.909,0.18,16.184,20.645,16.184,20.645s5.049,9.113-0.578,13.255c-5.622,4.143-57.011,12.476-82.308,8.328
				c-25.296-4.153-54.539-10.073-75.646-6.094c-21.1,3.973-18.077-22.719-13.033-28.877c0,0-3.092-27.412,0.669-35.136
				c3.766-7.723,15.037-6.195,21.901,0.286c6.864,6.488,26.58,5.665,33.741,0.907
				C2056.708,2768.327,2078.176,2767.664,2088.816,2779.779z"/>
			<path fill-rule="evenodd" clip-rule="evenodd" fill="#FFFFFF" d="M2000.08,2809.351c-0.271-4.148-0.473-9.108-0.361-13.669
				c11.792-2.477,29.709-3.188,50.741,6.095c37.915,16.74,46.822,11.139,46.822,11.139l16.374,12.173c0,0-23.44,8.031-61.907-8.264
				C2025.652,2805.765,2010.959,2805.463,2000.08,2809.351z"/>
			<path fill-rule="evenodd" clip-rule="evenodd" fill="#FFFFFF" d="M2172.445,2832.213c0,0,5.049,9.113-0.578,13.255
				c-5.622,4.143-57.011,12.476-82.308,8.328c-25.296-4.153-54.539-10.073-75.646-6.094c-21.1,3.973-18.077-22.719-13.033-28.877
				c42.933,0.473,52.03,18.04,104.782,21.494C2158.425,2843.776,2172.445,2832.213,2172.445,2832.213z"/>
		</g>
		<path fill-rule="evenodd" clip-rule="evenodd" fill="#E74D91" d="M1727.518,2669.523c0,0-26.747,35.629-97.539,38
			c0,0-51.596-0.949-60.841,11.171c0,0-7.105-2.382-8.766-7.368c-1.665-4.991-53.86-372.435,72.37-483.296l73.377,33.677
			c0,0,22.446,16.062,28.148,31.263c5.702,15.208,13.775,115.455,14.247,127.331c0.475,11.887-23.283,180.555-18.528,193.859
			c4.755,13.303,13.155,35.459,13.155,35.459L1727.518,2669.523z"/>
		<g>
			<path fill-rule="evenodd" clip-rule="evenodd" fill="#F4AD85" d="M1728.645,2209.704l4.095,15.929
				c-29.304-12.184-28.108,20.013-29.513,36.011c-0.634,7.177-61.819-12.842-70.484-33.614c10.221-13.468,7.055-15.33,24.013-52.03
				c5.211-11.288,16.96-19.839,19.88-30.384c0,0-7.32-42.169-0.934-50.874c6.387-8.715,29.185-2.657,30.362,8.323
				C1707.247,2114.051,1728.645,2209.704,1728.645,2209.704z"/>
			<path fill-rule="evenodd" clip-rule="evenodd" fill="#1B191B" d="M1800.031,1998.421c-0.263-0.398-0.804-0.504-1.202-0.244
				c-0.395,0.271-0.499,0.806-0.236,1.199c0.066,0.106,24.013,35.422,1.891,61.43c-0.302,0.361-0.263,0.896,0.1,1.209
				c0.359,0.308,0.904,0.26,1.207-0.095C1824.768,2034.91,1800.103,1998.522,1800.031,1998.421z"/>
			<path fill-rule="evenodd" clip-rule="evenodd" fill="#1B191B" d="M1658.055,2058.928c0.255,0.403,0.79,0.52,1.188,0.26
				c0.406-0.249,0.52-0.785,0.265-1.188c-0.029-0.048-12.11-18.433-1.716-45.649c0.169-0.441-0.056-0.939-0.499-1.109
				c-0.446-0.17-0.945,0.053-1.109,0.499C1645.478,2039.779,1658.02,2058.869,1658.055,2058.928z"/>
			<path fill-rule="evenodd" clip-rule="evenodd" fill="#1B191B" d="M1749.319,2083.519c-0.39-0.276-0.923-0.186-1.202,0.202
				c-0.281,0.382-0.191,0.918,0.193,1.199c0.09,0.064,30.174,22.072,64.318,7.24c0.441-0.185,0.639-0.689,0.448-1.13
				c-0.183-0.435-0.692-0.637-1.127-0.451C1778.705,2105.017,1749.404,2083.588,1749.319,2083.519z"/>
			<path fill-rule="evenodd" clip-rule="evenodd" fill="#F4AD85" d="M1682.752,2129.03c2.13,20.411,10.208,23.912,10.208,23.912
				s2.893,1.066,1.52,6.243c-1.366,5.182-0.313,12.672,15.266,36.016c1.018,1.522,2.008,2.981,2.965,4.371
				c10.251,14.943,17.112,22.692,19.926,25.652l0.103,0.408c-28.572-11.882-28.147,18.432-29.415,34.792
				c-0.035,0.419-0.063,0.827-0.098,1.22c-0.634,7.177-61.819-12.842-70.484-33.614c0.941-1.241,1.771-2.382,2.514-3.464
				c5.135-7.49,6.066-11.988,11.524-25.599c2.186-5.448,5.1-12.354,9.296-21.499c2.525-0.08,11.375-0.96,16.947-9.124
				c6.551-9.596,7.611-25.519,7.611-25.519s-3.75-18.385,0.369-28.999c1.589-4.079,4.636-6.09,7.835-6.259
				C1688.839,2107.569,1680.622,2108.609,1682.752,2129.03z"/>
		</g>
		<path fill-rule="evenodd" clip-rule="evenodd" fill="#E03C82" d="M1708.425,2313.15c0,0,28.901,148.914,37.354,165.464
			c8.455,16.544,92.11-122.727,109.068-147.44c0,0,21.005,5.776,26.357,13.998c0,0-73.903,173.389-97.735,206.202
			c-23.828,32.807-59.838,30.102-88.599,9.712c-28.766-20.39-78.926-181.897-90.234-212.122
			C1593.32,2318.741,1658.466,2236.618,1708.425,2313.15z"/>
		<path fill-rule="evenodd" clip-rule="evenodd" fill="#F4AD85" d="M1879.257,2350.736c0,0,6.79-6.456,22.252-14.804
			c15.457-8.344,28.612-15.51,30.707-21.063c2.096-5.554,0.557-11.044-2.371-12.831c-2.933-1.793-10.688,0.451-13.934-0.658
			c-3.257-1.103,5.145-5.803,10.577-6.858c5.437-1.061,11.956-1.029,14.296-2.445c2.339-1.416,1.968-4.482,1.48-5.442
			c-0.493-0.966-5.002-1.125-10.927-1.576c-5.93-0.445-9.437-0.917-14.852,0.987c-5.41,1.915-11.107,2.636-11.813,2.44
			c-0.706-0.207-2.058-4.652-0.063-8.285c1.989-3.628,9.749-10.094,12.375-11.967c2.637-1.867,11.362-1.093,15.399-2.557
			c4.037-1.459,3.755-6.323-1.093-7.251c-4.843-0.923-10.327-0.478-17.361-0.212c-7.033,0.276-9.951,4.52-18.952,10.36
			c-9.018,5.835-25.382,16.729-30.102,28.261c-4.718,11.531-5.986,26.596-10.025,34.34
			C1850.799,2338.913,1859.636,2348.153,1879.257,2350.736z"/>
		<g>
			<path fill-rule="evenodd" clip-rule="evenodd" fill="#D54944" d="M2374.853,2753.172c9.007-7.919,30.977-41.692,31.153-66.097
				c0.18-24.406,20.231-15.86,20.231-15.86s8.927-4.949,12.99,0.562c4.058,5.516,12.226,55.876,8.158,80.668
				c-4.063,24.793-9.866,53.452-5.973,74.129c3.899,20.682-22.262,17.716-28.298,12.773c0,0-26.862,3.029-34.431-0.658
				c-7.57-3.681-6.068-14.73,0.281-21.456c6.355-6.726,5.554-26.055,0.891-33.073
				C2363.624,2784.638,2362.982,2763.601,2374.853,2753.172z"/>
			<path fill-rule="evenodd" clip-rule="evenodd" fill="#FFFFFF" d="M2403.831,2840.138c-4.069,0.26-8.928,0.456-13.399,0.35
				c-2.43-11.558-3.124-29.11,5.978-49.733c16.411-37.152,10.911-45.883,10.911-45.883l11.935-16.051c0,0,7.867,22.979-8.1,60.677
				C2400.32,2815.069,2400.017,2829.47,2403.831,2840.138z"/>
			<path fill-rule="evenodd" clip-rule="evenodd" fill="#FFFFFF" d="M2426.237,2671.215c0,0,8.927-4.949,12.99,0.562
				c4.058,5.516,12.226,55.876,8.158,80.668c-4.063,24.793-9.866,53.452-5.973,74.129c3.899,20.682-22.262,17.716-28.298,12.773
				c0.472-42.069,17.679-50.991,21.069-102.693C2437.572,2684.953,2426.237,2671.215,2426.237,2671.215z"/>
		</g>
		<g>
			<path fill-rule="evenodd" clip-rule="evenodd" fill="#F4AD85" d="M1659.434,2164.554c-0.204,0.09,0.613,2.7,0.628,7.893
				l18.274,5.129c0,0-0.697,5.336-2.365,11.919c6.158-1.279,12.37-0.833,17.586,1.591c0,0,34.176,29.959,32.823,35.645
				c0.215,0.085,0.43,0.159,0.647,0.234c36.974,12.699,45.251-3.729,46.593-7.643c1.347-3.92,7.397-24.087,8.665-25.228
				c1.273-1.14,10.044,1.873,11.765-3.14c1.727-5.008,6.302-35.672,7.397-75.582c1.104-39.921-29.145-67.121-29.145-67.121
				c-66.392-9.675-62.825,80.891-74.166,72.086c-11.341-8.8-24.814-2.212-24.341,14.768
				C1673.862,2137.469,1658.559,2162.49,1659.434,2164.554z"/>
			<path fill-rule="evenodd" clip-rule="evenodd" fill="#01020E" d="M1782.285,2194.093c0,0-17.799-5.071-30.815-8.1
				c-13.017-3.023-22.557-4.333-27.973-13.42c-5.419-9.086-9.479-16.39-6.676-30.67c2.804-14.274,12.407-24.644,17.306-27.429
				c4.898-2.785,6.126-8.667,4.315-17.17c-1.806-8.503-0.923-51.293,40.671-41.735c0,0,2.021-3.437-1.493-14.629
				c-3.517-11.187-66.153-27.265-104.172,5.389c-38.022,32.664-33.436,68.018-27.097,92.646c0.695,2.695,1.217,5.257,1.594,7.68
				c0.013,0.059,2.498,9.315,3.941,16.91c1.395,7.378,7.856,14.746,14.592,11.054c7.996-4.742,15.061-12.211,16.268-23.949
				c0,0-7.638-28.23,6.461-31.673c0,0,10.192-5.946,15.589,13.914c0,0,0.305,9.824-2.408,18.093
				c-2.705,8.264-11.999,27.668-7.808,59.064c4.191,31.391,36.24,33.73,46.811,37.364c10.577,3.633,24.416,3.129,28.129-7.681
				c3.71-10.81,12.091-35.2,13.359-38.892C1784.152,2197.165,1783.328,2194.422,1782.285,2194.093z"/>
			<path fill-rule="evenodd" clip-rule="evenodd" fill="#01020E" d="M1722.916,2126.542c0,0,26.408-2.175,24.297-42.504
				c0,0,35.565,15.367,52.524,12.789c16.953-2.578,36.895-53.69,24.647-75.916c-12.242-22.215-14.37,6.042-14.37,6.042
				s-63.944-42.228-92.445-47.347c-28.503-5.119-59.109,38.207-62.994,56.168c0,0-2.785-14.279-12.126-15.669
				c-9.333-1.395,0.34,19.934,0.34,19.934s-17.29,5.697-22.249,17.584c-4.954,11.893,25.758,78.759,31.76,107.663l12.731-8.322
				c0,0,2.49-51.67,3.018-53.686c0.536-2.021,46.583,10.497,46.583,10.497L1722.916,2126.542z"/>
		</g>
	</g>
</g>
</svg>
