<?xml version="1.0" encoding="utf-8"?>
<!-- Generator: Adobe Illustrator 25.1.0, SVG Export Plug-In . SVG Version: 6.00 Build 0)  -->
<svg version="1.1" id="Layer_1" xmlns="http://www.w3.org/2000/svg" xmlns:xlink="http://www.w3.org/1999/xlink" x="0px" y="0px"
	 viewBox="0 0 368.4 319.9" style="enable-background:new 0 0 368.4 319.9;" xml:space="preserve">
<style type="text/css">
	.st0{fill:#231F20;stroke:#000000;stroke-width:0.5;stroke-miterlimit:10;}
	.st1{fill:#010101;}
	.st2{fill:#231F20;}
	.st3{font-family:'ShowcardGothic-Reg';}
	.st4{font-size:34px;}
	.st5{fill:none;stroke:#231F20;stroke-width:2;stroke-miterlimit:10;}
</style>
<path class="st0" d="M184.2,123.1"/>
<path class="st1" d="M289.8,28.9c-0.3-0.5-0.8-1-1.3-1.3c-2-1.8-4-3.6-6.2-5.2c-1.1-0.8-2.2-1.5-3.4-2.2L250.1,2
	c-5.9-3.7-13.7-2-17.5,3.9c-1.3,2.1-2,4.5-2,7c0.2,10.4-4.1,20-11.5,25.1l-15.7,11.9l-27.1-5.3l-1.1-0.1c-6.7,0.2-12.8,3.8-16.1,9.7
	c-3.8,6.7-6.9,15.1-10.4,24.9s-7.5,20.5-13,31.9c-0.1,0.1-0.2,0.3-0.2,0.5c-5.8,12.2-13,23.6-21.4,34.1c-3.1,3.7-6.5,7.3-10,10.6
	l-30.7,23.5c-8.2,5-11.9,14.9-9.3,24.6c2.9,10.7,12.9,17.8,24,17.2l0.7,0c27.7-1.7,53.9-12.9,74.3-31.8C178,176,199,156.3,214,140.1
	c8.5-9.3,18.9-16.8,30.4-21.9l24.2-10.7l1.1-0.4c5.5-2,10.6-4.8,15.3-8.3c10.5-8,17.9-19.3,19.7-31.2
	C306.9,53.9,301.5,40.4,289.8,28.9z M285.4,47.6c0.1,1.4,0.1,2.7,0,4.1c-0.2,2.8,1.8,5.2,4.6,5.4c1.2,0.1,2.4-0.2,3.4-1
	c0.4-0.4,0.8-0.8,1.1-1.2c0.9,3.7,1.1,7.5,0.5,11.2c-2,13.4-13.8,26.4-28.5,31.6l-26.1,11.4c-7.1,3.2-13.9,7.1-20.1,11.9
	c-4.9,3.7-9.5,7.8-13.6,12.4c-14.8,16-35.5,35.5-50.3,49c-18.7,17.3-42.8,27.6-68.2,29.2l-0.7,0c-4.5,0.2-8.8-1.8-11.4-5.3
	c0.1,0,0.1,0,0.2-0.1c2.2-1.7,2.6-4.8,0.9-7c-0.7-0.8-1.6-1.5-2.6-1.7c-0.4-0.1-0.8-0.3-1.2-0.4c0.3-3.8,2.5-7.2,5.7-9.1l30.4-23
	l1.6-1.5c3.8-3.6,7.4-7.5,10.8-11.5c3.5-4.4,6.6-8.7,9.5-13l22.4,3.1c2.7,0.4,5.2-1.5,5.6-4.2c0.4-2.7-1.5-5.2-4.2-5.6l-18-2.5
	c2.1-3.5,4-7,5.7-10.5l27.8,3.8c2.7,0.4,5.2-1.5,5.6-4.2c0.4-2.7-1.5-5.2-4.2-5.6l-24.6-3.4c1.8-4.1,3.5-8.1,5.1-12l34.8,6.2
	c1.4,0.2,2.8-0.1,3.9-0.9c2.2-1.7,2.6-4.8,0.9-7c-0.7-1-1.8-1.6-3-1.8L156,88.2c0.7-1.9,1.4-3.9,2.1-5.7c3.4-9.3,6.4-17.4,9.8-23.4
	c1.5-2.6,4.2-4.4,7.2-4.6l30.8,6L225,46.1c9.8-6.8,15.8-19.7,15.6-33.3c0-1.5,1.2-2.8,2.7-2.8c0.5,0,1,0.1,1.5,0.4l29,18.3
	c0.9,0.5,1.7,1,2.5,1.6c1.9,1.4,3.7,3,5.5,4.6c0,0,0.1,0.1,0.1,0.1c0.5,1.1,1.4,1.9,2.5,2.4c1.6,1.6,3,3.4,4.4,5.2
	C286.6,43.4,285.2,45.4,285.4,47.6z"/>
<path class="st1" d="M142,170.8c-1.2,1-2.5,2-3.8,3c-2,1.9-2,5.1-0.1,7.1c1.6,1.6,4.1,2,6.1,0.8l0,0c1.4-1.1,2.7-2.1,4-3.1
	c2.1-1.7,2.5-4.8,0.8-7C147.2,169.4,144.2,169.1,142,170.8z"/>
<path class="st1" d="M156.4,157.8c-1.2,1.1-2.4,2.3-3.5,3.4c-1.9,2-1.7,5.2,0.3,7.1c1.7,1.6,4.2,1.8,6.1,0.5
	c0.2-0.1,0.3-0.2,0.4-0.4c1.2-1.2,2.4-2.3,3.6-3.5c2.2-1.7,2.6-4.8,0.9-7s-4.8-2.6-7-0.9C156.9,157.2,156.6,157.5,156.4,157.8
	L156.4,157.8z"/>
<path class="st1" d="M91.9,197.4c-1.5,0.3-3,0.5-4.5,0.7c-2.8,0-5,2.2-5,5c0,2.8,2.2,5,5,5c0.4,0,0.7,0,1.1-0.1
	c1.8-0.2,3.6-0.5,5.4-0.9c0.7-0.1,1.4-0.5,2-0.9c2.2-1.7,2.5-4.9,0.8-7C95.5,197.8,93.7,197.1,91.9,197.4L91.9,197.4z"/>
<path class="st1" d="M170.3,143.8l-3.5,3.5c-1.8,2.1-1.6,5.2,0.5,7.1c1.7,1.5,4.2,1.6,6,0.4c0.2-0.1,0.4-0.3,0.5-0.5l3.5-3.6
	c2.1-1.7,2.5-4.9,0.8-7c-1.7-2.1-4.9-2.5-7-0.8C170.9,143.2,170.6,143.5,170.3,143.8L170.3,143.8z"/>
<path class="st1" d="M126.3,182.1c-1.3,0.9-2.7,1.7-4.1,2.5c-2.5,1.2-3.6,4.1-2.4,6.6c1.2,2.5,4.1,3.6,6.6,2.4
	c0.3-0.1,0.6-0.3,0.9-0.5c1.5-0.9,2.9-1.8,4.4-2.7l0.3-0.2c2.1-1.8,2.2-5,0.4-7.1C130.9,181.5,128.4,181.1,126.3,182.1L126.3,182.1z
	"/>
<path class="st1" d="M109.6,191.4c-1.4,0.7-2.9,1.3-4.4,1.9c-2.7,0.8-4.2,3.5-3.4,6.2c0.8,2.7,3.5,4.2,6.2,3.4
	c0.3-0.1,0.7-0.2,1-0.4c1.6-0.7,3.2-1.4,4.8-2.1c0.3-0.1,0.6-0.3,0.9-0.6c2.1-1.8,2.4-4.9,0.6-7
	C113.8,191.2,111.6,190.6,109.6,191.4z"/>
<path class="st1" d="M233.5,93.5c-1.5,0.8-3.1,1.5-4.5,2.2c-2.3,1.5-3,4.6-1.5,6.9c1.3,1.9,3.7,2.8,5.9,2c1.4-0.7,2.9-1.4,4.4-2.1
	c0.3-0.1,0.6-0.3,0.9-0.5c2.1-1.8,2.4-4.9,0.6-7C237.9,93.2,235.5,92.7,233.5,93.5L233.5,93.5z"/>
<path class="st1" d="M268,75.5c-1.3,0.9-2.6,1.7-3.9,2.6c-2.3,1.4-3.1,4.4-1.7,6.7c0,0,0,0.1,0.1,0.1c1.4,2.3,4.5,3.1,6.8,1.6
	c1.5-0.9,3-1.9,4.4-2.9l0.2-0.1c2-1.9,2.2-5,0.3-7.1C272.6,74.8,270,74.4,268,75.5L268,75.5z"/>
<path class="st1" d="M184.5,129.6c-1.2,1.2-2.4,2.3-3.6,3.5c-1.8,2.1-1.6,5.2,0.4,7.1c1.7,1.5,4.2,1.7,6.1,0.4
	c0.2-0.1,0.3-0.3,0.5-0.4c1.1-1.2,2.3-2.3,3.5-3.5c1.7-2.1,1.4-5.3-0.7-7C188.9,128.2,186.3,128.2,184.5,129.6L184.5,129.6z"/>
<path class="st1" d="M251.4,85c-1.5,0.7-2.9,1.5-4.4,2.2c-2.6,0.9-4,3.8-3.1,6.4c0.9,2.6,3.8,4,6.4,3.1c0.4-0.1,0.7-0.3,1-0.5
	c1.5-0.7,3-1.5,4.5-2.2c0.3-0.1,0.5-0.3,0.8-0.5c2.1-1.8,2.4-4.9,0.6-7C255.8,84.7,253.4,84.1,251.4,85L251.4,85z"/>
<path class="st1" d="M281.1,63.2c-0.8,1.2-1.7,2.3-2.7,3.4c-1.7,2.2-1.4,5.3,0.8,7c1.7,1.4,4.1,1.5,6,0.2c0.3-0.2,0.5-0.4,0.7-0.7
	c1.2-1.4,2.4-2.9,3.4-4.4c1.8-2.1,1.6-5.3-0.5-7.1s-5.3-1.6-7.1,0.5C281.5,62.6,281.3,62.9,281.1,63.2z"/>
<path class="st1" d="M199.3,115.9c-1.3,1.1-2.5,2.2-3.8,3.3c-1.9,2-1.8,5.2,0.2,7.1c1.7,1.6,4.2,1.8,6.1,0.6l0.3-0.3
	c1.2-1.1,2.4-2.2,3.7-3.2c1.9-2,1.8-5.2-0.2-7.1C203.8,114.8,201.2,114.6,199.3,115.9L199.3,115.9z"/>
<path class="st1" d="M215.5,103.3l-1.2,0.9c-1,0.7-2,1.4-3,2.2c-2.2,1.6-2.7,4.7-1.1,6.9c0,0,0,0.1,0.1,0.1c1.6,2.2,4.7,2.7,7,1
	c0.9-0.7,1.9-1.4,2.9-2.1l1-0.7l0.3-0.2c2.1-1.8,2.2-5,0.4-7.1C220.1,102.7,217.5,102.2,215.5,103.3L215.5,103.3z"/>
<text transform="matrix(1 0 0 1 93.98 291.16)" class="st2 st3 st4">CORAMARC</text>
<line class="st5" x1="0" y1="236.4" x2="368.4" y2="236.4"/>
</svg>
