<svg xmlns="http://www.w3.org/2000/svg" xmlns:xlink="http://www.w3.org/1999/xlink" viewBox="0 0 3710 3710"><defs><style>.cls-1{isolation:isolate;}.cls-2,.cls-8{fill:#fff;}.cls-18,.cls-3{fill:#6366f1;}.cls-4{fill:url(#linear-gradient);}.cls-5{fill:url(#linear-gradient-2);}.cls-6{fill:url(#linear-gradient-3);}.cls-7{fill:#de8bdf;}.cls-8,.cls-9{opacity:0.64;}.cls-10,.cls-12,.cls-17,.cls-18,.cls-20,.cls-21,.cls-37,.cls-42{opacity:0.3;mix-blend-mode:multiply;}.cls-10{fill:url(#linear-gradient-4);}.cls-11{fill:url(#linear-gradient-5);}.cls-13{fill:url(#linear-gradient-6);}.cls-14{fill:url(#linear-gradient-7);}.cls-15{fill:url(#Orchid);}.cls-16{fill:url(#Orchid-2);}.cls-17{fill:url(#linear-gradient-8);}.cls-19{fill:url(#linear-gradient-9);}.cls-20{fill:url(#linear-gradient-10);}.cls-21{fill:url(#linear-gradient-11);}.cls-22{fill:url(#linear-gradient-12);}.cls-23{fill:url(#linear-gradient-13);}.cls-24{fill:url(#linear-gradient-14);}.cls-25{fill:url(#linear-gradient-15);}.cls-26{fill:url(#linear-gradient-16);}.cls-27{fill:url(#linear-gradient-17);}.cls-28{fill:url(#linear-gradient-18);}.cls-29{fill:url(#linear-gradient-19);}.cls-30{fill:url(#linear-gradient-20);}.cls-31{fill:url(#linear-gradient-21);}.cls-32{fill:url(#linear-gradient-22);}.cls-33{fill:url(#linear-gradient-23);}.cls-34{fill:url(#linear-gradient-24);}.cls-35{fill:url(#linear-gradient-25);}.cls-36,.cls-37{fill:url(#linear-gradient-26);}.cls-38{fill:url(#linear-gradient-28);}.cls-39{fill:url(#linear-gradient-29);}.cls-40{fill:url(#linear-gradient-30);}.cls-41{fill:url(#linear-gradient-31);}.cls-42{fill:url(#linear-gradient-32);}.cls-43{fill:url(#linear-gradient-33);}.cls-44{fill:url(#linear-gradient-34);}.cls-45{fill:#26264f;}.cls-46{fill:url(#linear-gradient-35);}</style><linearGradient id="linear-gradient" x1="2635.67" y1="2789.32" x2="1347.81" y2="1690.71" gradientUnits="userSpaceOnUse"><stop offset="0" stop-color="#444b8c"/><stop offset="1" stop-color="#26264f"/></linearGradient><linearGradient id="linear-gradient-2" x1="-1463.67" y1="2961.56" x2="3334.59" y2="3140.05" gradientTransform="translate(-1389.03 1734.32) rotate(-90)" xlink:href="#linear-gradient"/><linearGradient id="linear-gradient-3" x1="2024.2" y1="1327.49" x2="409.81" y2="3498.15" gradientUnits="userSpaceOnUse"><stop offset="0" stop-color="#ffc444"/><stop offset="1" stop-color="#f36f56"/></linearGradient><linearGradient id="linear-gradient-4" x1="948" y1="984.29" x2="4772.43" y2="4517.51" xlink:href="#linear-gradient-3"/><linearGradient id="linear-gradient-5" x1="2934.65" y1="3588.12" x2="2814.84" y2="1711" xlink:href="#linear-gradient-3"/><linearGradient id="linear-gradient-6" x1="124.92" y1="2195.48" x2="4014.03" y2="5788.46" gradientUnits="userSpaceOnUse"><stop offset="0" stop-color="#aa80f9"/><stop offset="1" stop-color="#6165d7"/></linearGradient><linearGradient id="linear-gradient-7" x1="721.8" y1="1749.68" x2="4131" y2="4899.29" xlink:href="#linear-gradient-6"/><linearGradient id="Orchid" x1="262.34" y1="2216.87" x2="4133.71" y2="5793.46" gradientUnits="userSpaceOnUse"><stop offset="0" stop-color="#ff7bac"/><stop offset="1" stop-color="#ff7bac"/></linearGradient><linearGradient id="Orchid-2" x1="818.22" y1="1799.41" x2="4244.66" y2="4964.95" xlink:href="#Orchid"/><linearGradient id="linear-gradient-8" x1="1639.47" y1="2079.73" x2="4655.09" y2="4865.73" xlink:href="#linear-gradient-3"/><linearGradient id="linear-gradient-9" x1="221.75" y1="1584.39" x2="3517.89" y2="4629.55" xlink:href="#linear-gradient-6"/><linearGradient id="linear-gradient-10" x1="602.1" y1="2033.35" x2="4028.54" y2="5198.89" xlink:href="#linear-gradient-6"/><linearGradient id="linear-gradient-11" x1="2137.66" y1="896.57" x2="4172.62" y2="2776.58" gradientUnits="userSpaceOnUse"><stop offset="0" stop-color="#ff9085"/><stop offset="1" stop-color="#fb6fbb"/></linearGradient><linearGradient id="linear-gradient-12" x1="3131.97" y1="1558.66" x2="3269.23" y2="2629.29" xlink:href="#linear-gradient-11"/><linearGradient id="linear-gradient-13" x1="1840.67" y1="514.52" x2="1263.14" y2="1458.65" xlink:href="#linear-gradient-11"/><linearGradient id="linear-gradient-14" x1="1337.1" y1="1048.23" x2="1199.85" y2="1476.53" xlink:href="#linear-gradient-11"/><linearGradient id="linear-gradient-15" x1="1453.57" y1="1190.44" x2="1377.53" y2="1427.72" xlink:href="#linear-gradient-11"/><linearGradient id="linear-gradient-16" x1="1580.95" y1="1256.5" x2="1533.9" y2="1403.33" xlink:href="#linear-gradient-11"/><linearGradient id="linear-gradient-17" x1="1786.16" y1="870.26" x2="1576.79" y2="1523.64" xlink:href="#linear-gradient-11"/><linearGradient id="linear-gradient-18" x1="1910.69" y1="924.25" x2="1725.16" y2="1503.23" xlink:href="#linear-gradient-11"/><linearGradient id="linear-gradient-19" x1="2058.42" y1="834.14" x2="1835.76" y2="1528.97" xlink:href="#linear-gradient-11"/><linearGradient id="linear-gradient-20" x1="2163.01" y1="973.63" x2="2000.32" y2="1481.34" xlink:href="#linear-gradient-11"/><linearGradient id="linear-gradient-21" x1="2263.08" y1="1125.73" x2="2165.67" y2="1429.73" xlink:href="#linear-gradient-11"/><linearGradient id="linear-gradient-22" x1="-2667.52" y1="2249.16" x2="-2571.26" y2="2249.16" gradientTransform="matrix(-1, 0, 0, 1, -434.63, 0)" gradientUnits="userSpaceOnUse"><stop offset="0" stop-color="#40447e"/><stop offset="1" stop-color="#3c3b6b"/></linearGradient><linearGradient id="linear-gradient-23" x1="-2334.26" y1="2083.68" x2="-2270.62" y2="2083.68" xlink:href="#linear-gradient-22"/><linearGradient id="linear-gradient-24" x1="-2620.53" y1="2244.49" x2="-2585.61" y2="2316.83" gradientTransform="matrix(-1, 0, 0, 1, -434.63, 0)" gradientUnits="userSpaceOnUse"><stop offset="0" stop-color="#311944"/><stop offset="1" stop-color="#a03976"/></linearGradient><linearGradient id="linear-gradient-25" x1="-2284.36" y1="1958.14" x2="-2337.77" y2="2196.04" xlink:href="#linear-gradient-24"/><linearGradient id="linear-gradient-26" x1="-2298.1" y1="2140.14" x2="-2544.82" y2="1893.42" gradientTransform="matrix(-1, 0, 0, 1, -434.63, 0)" gradientUnits="userSpaceOnUse"><stop offset="0" stop-color="#ab316d"/><stop offset="1" stop-color="#792d3d"/></linearGradient><linearGradient id="linear-gradient-28" x1="-2134.73" y1="1976.76" x2="-2381.44" y2="1730.04" xlink:href="#linear-gradient-26"/><linearGradient id="linear-gradient-29" x1="-2458.42" y1="1204.59" x2="-2594.93" y2="1625.65" gradientTransform="matrix(-1, 0, 0, 1, -434.63, 0)" xlink:href="#linear-gradient-6"/><linearGradient id="linear-gradient-30" x1="-2012.93" y1="1486.46" x2="-2055.22" y2="1444.17" xlink:href="#linear-gradient-24"/><linearGradient id="linear-gradient-31" x1="-2278.08" y1="1263.06" x2="-2414.6" y2="1684.12" gradientTransform="matrix(-1, 0, 0, 1, -434.63, 0)" xlink:href="#linear-gradient-6"/><linearGradient id="linear-gradient-32" x1="-2464.5" y1="1202.62" x2="-2601.02" y2="1623.68" gradientTransform="matrix(-1, 0, 0, 1, -434.63, 0)" xlink:href="#linear-gradient-6"/><linearGradient id="linear-gradient-33" x1="-2636.83" y1="1310.77" x2="-2527.17" y2="1129.85" xlink:href="#linear-gradient-24"/><linearGradient id="linear-gradient-34" x1="-2644.59" y1="1306.07" x2="-2534.94" y2="1125.14" xlink:href="#linear-gradient-24"/><linearGradient id="linear-gradient-35" x1="-2642.61" y1="1307.27" x2="-2532.96" y2="1126.35" xlink:href="#linear-gradient-24"/></defs><g class="cls-1"><g id="Background"><rect class="cls-2" width="3710" height="3710"/></g><g id="Illustration"><path class="cls-3" d="M3330.85,2455.62c-222.24,252.18-593.19,227.32-592.37,346.19.91,131.27,453.15,153.4,461.59,277,11.43,167.41-794.06,489.4-1635,357.56-289.7-45.42-564-89.3-800.62-303.09-648.46-585.85-173.55-1826-96.15-2031.3,153-405.7,342.41-536.5,401-577.27,305-212.15,656-177.29,969.33-146.17,237.3,23.57,592.67,63.66,917.06,331.15,55.33,45.62,177.34,154,287.31,326C3510.24,1453.43,3628.31,2118.09,3330.85,2455.62Z"/><path class="cls-4" d="M2344.55,494.91V3165.3c0,39.93-34.15,49.81-72.91,52.53l-1353,120.75-20.87,1.47c-42.86,3-78-29-78-71.13V450c0-42.15,35.17-75.51,78-74.14l28.32.91L2283.69,480.37C2322.44,481.59,2344.55,455,2344.55,494.91Z"/><path class="cls-5" d="M2385.86,494.85V3163.77c0,39.92-31.6,74.8-70.32,77.54L940.62,3338.4c-42.81,3-77.93-29-77.93-71.1V450c0-42.13,35.12-75.47,77.93-74.1L2315.54,420C2354.26,421.27,2385.86,454.94,2385.86,494.85Z"/><path class="cls-6" d="M2342.21,641.73V3115.6c0,37.28-29.56,69.81-65.78,72.3L983.62,3276.55c-39.8,2.73-72.46-27.13-72.46-66.35V607.31c0-39.23,32.66-70.46,72.46-69.41l1292.81,34.29C2312.65,573.15,2342.21,604.44,2342.21,641.73Z"/><path class="cls-7" d="M1670.38,482a24.76,24.76,0,0,1-25.51,25,26.56,26.56,0,0,1-25.56-26.48,24.75,24.75,0,0,1,25.56-25A26.55,26.55,0,0,1,1670.38,482Z"/><polygon class="cls-8" points="1590.72 2471.62 1024.01 2494.65 1024.01 1987.01 1590.72 1972.84 1590.72 2471.62"/><polygon class="cls-8" points="2238.72 2445.29 1694.96 2467.39 1694.96 1970.23 2238.72 1956.63 2238.72 2445.29"/><polygon class="cls-8" points="1590.72 3084.7 1024.01 3118.61 1024.01 2610.97 1590.72 2585.91 1590.72 3084.7"/><polygon class="cls-8" points="2238.72 3045.92 1694.96 3078.46 1694.96 2581.3 2238.72 2557.26 2238.72 3045.92"/><g class="cls-9"><path class="cls-2" d="M1391.18,1711.31c0,97.22-81.47,177.71-182.54,179.8-101.71,2.1-184.63-75.89-184.63-174.21s82.92-178.83,184.63-179.82C1309.71,1536.09,1391.18,1614.1,1391.18,1711.31Z"/><path class="cls-2" d="M1820.61,1704.78c0,95.91-79.3,175.31-177.68,177.34-99,2.05-179.69-74.91-179.69-171.9s80.7-176.41,179.69-177.37C1741.31,1531.89,1820.61,1608.87,1820.61,1704.78Z"/><path class="cls-2" d="M2238.71,1698.42c0,94.65-77.22,173-173,174.95-96.38,2-174.94-74-174.94-169.66s78.56-174,174.94-175C2161.49,1527.8,2238.71,1603.77,2238.71,1698.42Z"/></g><path class="cls-10" d="M3201.32,2974.82l20.37-44.87c7.64-16.83,3.11-37-10.14-45.16l-52.75-32.41a580.64,580.64,0,0,0,29.33-127.58l58.88-4.13c15.17-1.06,27.44-16.93,27.44-35.44V2636c0-18.51-12.27-32.81-27.44-31.94l-57.34,3.27a540,540,0,0,0-26.6-126.92l48.48-36a30.86,30.86,0,0,0,4.28-3.88l6.19,16.1,79.64-97.92-104-8.87a25.64,25.64,0,0,0-17.19-10.23,24.32,24.32,0,0,0-17.32,4.78l-47.89,34.8a438.94,438.94,0,0,0-79-94.72l3.61-7.54,73.2,15,9.29-121.19-111.16-18.34c-12.79-4.93-27.24,1.31-34.28,15.82l-27.62,57c-35.51-17.65-6.09-36.24-46.44-41.62l42.21-62.15c0-19.36-123.62-32.27-140.32-32.27H2760c-16.92,0-30.68,15.92-30.68,35.55v66.55a396.5,396.5,0,0,0-119.86,38.91l76.36-56.1s-134.49-25.48-149.79-15.37l-40.93,27c-15.48,10.23-20.79,32.61-11.84,49.93l31,59.9c-33.88,30.17-48.3,47.58-73.95,87.42l-71.9-16.24c-15.89-9.76-36.27-3.14-45.5,14.85l-24.64,48c-9.29,18.1-3.77,40.64,12.3,50.27l58,34.75a581.5,581.5,0,0,0-31.65,141.49l-69.56,4c-18.72,1.07-34,18.69-34,39.34v54.94c0,18.72,12.53,33.31,28.83,34.9v0l79,12.65a526.58,526.58,0,0,0,32.34,116.36l-63,45.79c-16.07,11.68-21.59,34.92-12.3,51.84l24.64,44.85c9.23,16.81,155.73,27,155.73,27l-46.52-65.24a422.28,422.28,0,0,0,87.9,88l-36.72,75.73c-8.95,18.46-3.64,40.17,11.84,48.43l40.93,21.83a26.34,26.34,0,0,0,8.05,2.72l-.17.76,127.68,15.74,12.49-96.35a361.79,361.79,0,0,0,45.24,4.07v82.44c0,14.66,7.68,26.26,18.6,30.3l-.56,2.41,126.5,15.79,2.53-156.29a418.36,418.36,0,0,0,66.77-32.49l33.72,65.25c4.19,8.11,11,12.92,18.55,14.12v0l122.25,16.54-41.87-115.22-16.9,5.19-27.86-54.64a521.65,521.65,0,0,0,77.54-98.65l54.56,32.71C3176.57,2999,3193.64,2991.74,3201.32,2974.82Zm-418.88-42.22c-119.69,10.66-219-94.36-219-234.8s99.26-257.93,219-262.31c116.73-4.27,209.27,101.17,209.27,235.41S2899.17,2922.2,2782.44,2932.6Zm511.15-269.68,82.82-39.2-82.82-10Zm-101.65,334.57,94.74,12.78,13.83-32.3L3222,2930.26Z"/><path class="cls-11" d="M3369.09,2622.27l-57,3.29A540.49,540.49,0,0,0,3285.62,2499l48.21-35.88c13.17-9.8,17.68-30.52,10.08-46.32l-20.25-42.15c-7.64-15.89-24.61-20.95-37.93-11.24l-47.61,34.72a437.55,437.55,0,0,0-78.59-94.42l27.39-57.39c7.86-16.47,3.2-37.31-10.44-46.61L3140,2174.85c-13.79-9.4-31.48-3.63-39.49,12.94l-27.47,56.83a361.27,361.27,0,0,0-113.71-34.92v-65.62c0-19.36-13.41-35-30-35l-44.44,0c-16.83,0-30.51,15.88-30.51,35.46v66.36a393.31,393.31,0,0,0-119.17,38.85l-29.69-58.38c-8.73-17.16-28.11-22.94-43.32-12.85l-40.69,27c-15.39,10.2-20.68,32.52-11.77,49.79l30.77,59.72a511.69,511.69,0,0,0-89.31,105.33l-55.7-34.3c-15.79-9.72-36.05-3.11-45.23,14.83l-24.49,47.86c-9.24,18.05-3.76,40.52,12.22,50.12l57.64,34.63a581.05,581.05,0,0,0-31.47,141.08l-69.16,4c-18.61,1.07-33.75,18.64-33.75,39.24v54.77c0,20.59,15.14,36.22,33.75,34.9l71-5A529.22,529.22,0,0,0,2500.65,2936L2438,2981.64c-16,11.65-21.46,34.82-12.22,51.69l24.49,44.71c9.18,16.76,29.44,20.77,45.23,9l63.35-47.14a420.22,420.22,0,0,0,87.39,87.69l-36.5,75.53c-8.91,18.41-3.62,40,11.77,48.28l40.69,21.75c15.21,8.13,34.59-.14,43.32-18.42l36.19-75.81a358.76,358.76,0,0,0,112.67,21.31v82.2c0,19.58,13.68,33.69,30.51,31.54l44.44-5.69c16.61-2.13,30-19.54,30-38.9V3188.1A406.51,406.51,0,0,0,3067,3142.48l33.53,65.06c8,15.54,25.7,19,39.49,7.86l36.46-29.55c13.64-11.06,18.3-32.5,10.44-48l-32.53-64a521.16,521.16,0,0,0,77.1-98.4l54.24,32.59c13.32,8,30.29.76,37.93-16.12l20.25-44.76c7.6-16.77,3.09-36.91-10.08-45l-52.45-32.29a580.56,580.56,0,0,0,29.16-127.24l58.55-4.14c15.09-1.06,27.28-16.89,27.28-35.35v-49.08C3396.37,2635.65,3384.18,2621.4,3369.09,2622.27Zm-461.93,327.78c-119,10.68-217.69-94-217.69-234s98.69-257.23,217.69-261.65c116.07-4.31,208.08,100.79,208.08,234.65S3023.23,2939.64,2907.16,2950.05Z"/><g class="cls-12"><path class="cls-13" d="M1091.42,3134.88q0-67.55-48.69-99.88c-32.71-21.7-92.06-42.91-178.93-63.78-88.23-21.18-159.08-43.55-211.84-67-146.32-65.31-220.88-162.33-220.88-289.81q0-99.39,60.06-178.72c39.69-52.42,96.23-93.52,169.11-123.28q108-44.05,238.79-45.14,129.5-1.18,227.82,42.66,97.37,43.2,150.06,122.63c35,52.61-51.08,141.63-51.08,209.69l-133.61-19.17q0-79.45-51.13-122c-34.36-28.58-83-42.11-146.24-40.44-61.74,1.63-110.19,15.58-145,41.93q-52.54,39.8-52.63,102.41,0,58.46,61.65,95c40.72,24.18,100.15,45.58,177.69,64.14,140,33.33,239.86,77.8,301.56,133.56,61,55.14,91.27,126.54,91.27,214.66,0,98-37,178.67-111.76,242.76-75.81,65-179.53,105.48-312.73,121.08q-141.57,16.59-261.68-20.2c-81.09-25-143.71-65.17-187.23-120.53q-65.81-83.65-65.91-203L659,3110.23l135.95,19.34s-29.29,169,110,155.09q88.92-8.89,137.83-48.51Q1091.49,3196.81,1091.42,3134.88Z"/><path class="cls-14" d="M2230.85,2715.9l-526,178v292.67l465.29-45.75,127.32,18.36-683.24,250.12-130.11-40.41V2277.2l684.71-7.29,126.26,18.34L1704.89,2457.2v260.4l399.1-21.24Z"/></g><path class="cls-15" d="M1224.11,3152.33q0-67.34-48.4-99.56c-32.51-21.63-91.52-42.75-177.87-63.52-87.7-21.08-158.12-43.36-210.56-66.73-145.44-65.05-219.56-161.75-219.56-288.85q0-99.08,59.7-178.2c39.46-52.28,95.66-93.29,168.1-123q107.29-44,237.36-45.12,128.71-1.24,226.46,42.43,96.78,43,149.17,122.2,52.23,78.66,52.15,180.08l-235.75,10q0-79.22-50.83-121.62c-34.15-28.48-82.48-41.95-145.36-40.25-61.37,1.65-109.53,15.57-144.14,41.87q-52.24,39.67-52.32,102.12,0,58.28,61.28,94.73c40.48,24.09,99.56,45.4,176.63,63.87,139.19,33.17,238.43,77.46,299.76,133,60.66,54.95,90.73,126.13,90.73,214,0,97.68-36.78,178.16-111.09,242.08-75.36,64.83-178.46,105.24-310.87,120.84q-140.73,16.59-260.11-20c-80.6-24.91-142.84-64.92-186.11-120.1q-65.4-83.37-65.51-202.37l267.25-22.26c0,132.3,82.68,190.12,244.48,173.82q88.4-8.91,137-48.42Q1224.18,3214.07,1224.11,3152.33Z"/><path class="cls-16" d="M2230.72,2883.78,1834,2911.87v291.8l462.57-45.79v172.26l-682,79.4V2297l680.7-7.58v173.71L1834,2476.4V2736l396.77-21.34Z"/><path class="cls-17" d="M2627.55,2909.15c-46.49-1.21-89.63,4.85-130.42,15,1.41,3.7,2.81,7.41,4.29,11.06l-61.69,45c-15.74,11.47-21.14,34.29-12,50.9l24.12,44c9,16.5,29,20.44,44.55,8.87l62.39-46.43a413.29,413.29,0,0,0,86.06,86.36l-35.95,74.38c-8.77,18.13-3.57,39.44,11.59,47.55l40.07,21.42c15,8,34.07-.14,42.66-18.14l35.65-74.66a353,353,0,0,0,111,21v80.95c0,19.28,13.47,33.18,30,31.06l43.77-5.61c16.35-2.09,29.56-19.24,29.56-38.3v-80a400.62,400.62,0,0,0,106-44.93l33,64.06c7.88,15.28,25.25,18.73,38.82,7.8C2928.61,2972.36,2756.47,2912.52,2627.55,2909.15Z"/><path class="cls-18" d="M795.52,2332.49c-72.44,29.69-128.64,70.7-168.1,123q-59.61,79-59.7,178.2c0,127.1,74.12,223.8,219.56,288.85,52.44,23.37,122.86,45.65,210.56,66.73,86.35,20.77,145.36,41.89,177.87,63.52q48.46,32.27,48.4,99.56,0,61.8-48.4,101-48.76,39.48-137,48.42c-161.8,16.3-244.48-41.52-244.48-173.82L527,3150.18q0,118.83,65.51,202.37c43.27,55.18,105.51,95.19,186.11,120.1q119.19,36.82,260.11,20c132.41-15.6,235.51-56,310.87-120.84,74.31-63.92,111.09-144.4,111.09-242.08,0-87.85-30.07-159-90.73-214-61.33-55.58-160.57-99.87-299.76-133C993.1,2764.28,934,2743,893.54,2718.88q-61.17-36.4-61.28-94.73,0-62.37,52.32-102.12A170.31,170.31,0,0,1,915,2503.75c-36.3-39.12-69.77-96.29-89.76-182.43Q810.17,2326.51,795.52,2332.49Z"/><path class="cls-19" d="M1220.65,2599.44a204,204,0,0,1,4.26,42.59l235.75-10q0-18.15-1.68-35.54C1377.26,2588.88,1296.87,2596.83,1220.65,2599.44Z"/><path class="cls-20" d="M1696.45,2681.08a463.4,463.4,0,0,0-81.94-46.09v774.55l682-79.4V3157.88L1834,3203.67v-291.8l39.9-2.83C1829.32,2843,1807.87,2759.3,1696.45,2681.08Z"/><path class="cls-21" d="M3336.64,1955.72l10.84-23.88c4.06-8.95,1.65-19.69-5.4-24L3314,1890.57a309.11,309.11,0,0,0,15.6-67.88l31.33-2.2c8.07-.57,14.6-9,14.6-18.86v-26.19c0-9.85-6.53-17.46-14.6-17l-30.51,1.75a287.55,287.55,0,0,0-14.16-67.54l25.8-19.13a15.44,15.44,0,0,0,2.27-2.08l3.31,8.58,42.37-52.11-55.32-4.71a13.65,13.65,0,0,0-9.15-5.45,13,13,0,0,0-9.21,2.55l-25.49,18.52a233.78,233.78,0,0,0-42.05-50.41l1.92-4,38.94,7.95,4.95-64.48-59.15-9.76c-6.8-2.62-14.49.7-18.24,8.42l-14.7,30.31c-18.89-9.39-3.23-19.28-24.71-22.14l22.46-33.07c0-10.3-65.78-17.17-74.66-17.17h-23.79c-9,0-16.32,8.47-16.32,18.91v35.42a210.74,210.74,0,0,0-63.78,20.7l40.63-29.85s-71.56-13.56-79.71-8.18l-21.77,14.39c-8.24,5.44-11.07,17.35-6.3,26.57l16.47,31.87c-18,16.06-25.7,25.32-39.35,46.51l-38.26-8.63c-8.45-5.2-19.29-1.67-24.21,7.89l-13.1,25.54c-5,9.63-2,21.62,6.54,26.75l30.85,18.49a308.93,308.93,0,0,0-16.85,75.28l-37,2.12c-10,.57-18.06,9.94-18.06,20.93v29.23c0,10,6.67,17.73,15.34,18.58h0l42.06,6.73a280.31,280.31,0,0,0,17.2,61.91L2862.67,1950c-8.55,6.21-11.49,18.58-6.54,27.58l13.1,23.87c4.92,8.94,82.87,14.38,82.87,14.38l-24.75-34.71a224.36,224.36,0,0,0,46.77,46.81l-19.54,40.3c-4.77,9.82-1.94,21.37,6.3,25.77l21.77,11.61a14.23,14.23,0,0,0,4.29,1.45l-.09.41,67.94,8.37,6.64-51.28a191.86,191.86,0,0,0,24.08,2.18v43.86c0,7.8,4.08,14,9.89,16.13l-.29,1.28,67.3,8.4,1.35-83.16a222.46,222.46,0,0,0,35.53-17.29l17.94,34.72a13.52,13.52,0,0,0,9.87,7.51v0l65.05,8.8-22.28-61.31-9,2.76-14.82-29.07a277.71,277.71,0,0,0,41.26-52.49l29,17.4C3323.47,1968.58,3332.55,1964.72,3336.64,1955.72Zm-222.89-22.47c-63.68,5.68-116.5-50.2-116.5-124.93s52.82-137.25,116.5-139.58c62.12-2.27,111.36,53.84,111.36,125.26S3175.87,1927.72,3113.75,1933.25Zm272-143.49,44.06-20.86-44.06-5.35Zm-54.09,178,50.41,6.8,7.36-17.19L3347.66,1932Z"/><path class="cls-22" d="M3425.91,1768.13l-30.34,1.75a287.45,287.45,0,0,0-14.08-67.34l25.66-19.09c7-5.21,9.4-16.24,5.36-24.64l-10.78-22.43c-4.06-8.46-13.09-11.15-20.17-6l-25.34,18.47a232.9,232.9,0,0,0-41.82-50.24l14.58-30.54c4.18-8.76,1.7-19.85-5.56-24.8l-19.4-13.23c-7.34-5-16.75-1.93-21,6.88l-14.62,30.24a192.35,192.35,0,0,0-60.5-18.58v-34.92c0-10.3-7.14-18.64-16-18.64h-23.65c-9,0-16.23,8.45-16.23,18.87v35.31a209.32,209.32,0,0,0-63.41,20.67l-15.8-31.06c-4.64-9.13-15-12.21-23.05-6.84l-21.65,14.36c-8.19,5.43-11,17.3-6.26,26.49l16.37,31.78a272.45,272.45,0,0,0-47.52,56l-29.63-18.25c-8.41-5.17-19.19-1.65-24.07,7.89l-13,25.47c-4.91,9.61-2,21.56,6.51,26.67l30.67,18.42a309.22,309.22,0,0,0-16.75,75.07l-36.79,2.13c-9.91.57-18,9.92-18,20.88v29.14c0,11,8.06,19.28,18,18.58l37.77-2.68a281.77,281.77,0,0,0,18.43,71l-33.33,24.31c-8.5,6.2-11.42,18.53-6.51,27.5l13,23.8c4.88,8.91,15.66,11,24.07,4.79l33.7-25.09a223.65,223.65,0,0,0,46.5,46.67l-19.42,40.18c-4.74,9.8-1.93,21.31,6.26,25.69l21.65,11.58c8.1,4.32,18.41-.08,23.05-9.8l19.26-40.34a191.05,191.05,0,0,0,60,11.34v43.73c0,10.42,7.28,17.93,16.23,16.79l23.65-3c8.84-1.13,16-10.4,16-20.7v-43.25a216.59,216.59,0,0,0,57.28-24.28l17.84,34.62c4.26,8.27,13.67,10.13,21,4.18l19.4-15.72c7.26-5.88,9.74-17.3,5.56-25.52l-17.31-34a277.13,277.13,0,0,0,41-52.36l28.87,17.34c7.08,4.26,16.11.41,20.17-8.58l10.78-23.81c4-8.92,1.65-19.64-5.36-24l-27.91-17.19a309.14,309.14,0,0,0,15.52-67.7l31.15-2.2c8-.57,14.51-9,14.51-18.81v-26.12C3440.42,1775.25,3433.94,1767.67,3425.91,1768.13Zm-245.79,174.41c-63.32,5.68-115.84-50-115.84-124.53s52.52-136.87,115.84-139.22c61.76-2.29,110.71,53.63,110.71,124.86S3241.88,1937,3180.12,1942.54Z"/><path class="cls-8" d="M1047.4,688.31v722.18c0,24,18.6,43,41.47,42.52l1297.38-28c19.16-.41,34.64-18.46,34.64-40.32V726.31Z"/><path class="cls-23" d="M2386.25,641.57,1088.87,598c-22.87-.77-41.47,18.05-41.47,42v74l1373.49,35.72V682.31C2420.89,660.45,2405.41,642.21,2386.25,641.57Z"/><path class="cls-2" d="M1142.36,657.36c0,10.6-8.18,18.95-18.28,18.66s-18.33-9.13-18.33-19.75,8.21-19,18.33-18.66S1142.36,646.77,1142.36,657.36Z"/><polygon class="cls-2" points="1330.99 1354.61 1227.84 1356.21 1227.84 820.48 1330.99 822.48 1330.99 1354.61"/><polygon class="cls-24" points="1330.99 1354.61 1227.84 1356.21 1227.84 1101.86 1330.99 1101.97 1330.99 1354.61"/><polygon class="cls-2" points="1472.21 1352.42 1370.97 1353.99 1370.97 823.25 1472.21 825.21 1472.21 1352.42"/><polygon class="cls-25" points="1472.21 1352.42 1370.97 1353.99 1370.97 1228 1472.21 1227.27 1472.21 1352.42"/><polygon class="cls-2" points="1610.85 1350.28 1511.46 1351.82 1511.46 825.98 1610.85 827.9 1610.85 1350.28"/><polygon class="cls-26" points="1610.85 1350.28 1511.46 1351.82 1511.46 1286.28 1610.85 1285.17 1610.85 1350.28"/><polygon class="cls-2" points="1746.96 1348.17 1649.38 1349.68 1649.38 828.65 1746.96 830.54 1746.96 1348.17"/><polygon class="cls-27" points="1746.96 1348.17 1649.38 1349.68 1649.38 941.51 1746.96 942.67 1746.96 1348.17"/><polygon class="cls-2" points="1880.63 1346.09 1784.8 1347.58 1784.8 831.27 1880.63 833.13 1880.63 1346.09"/><polygon class="cls-28" points="1880.63 1346.09 1784.8 1347.58 1784.8 989.08 1880.63 989.91 1880.63 1346.09"/><polygon class="cls-2" points="2011.9 1344.06 1917.79 1345.52 1917.79 833.85 2011.9 835.67 2011.9 1344.06"/><polygon class="cls-29" points="2011.9 1344.06 1917.79 1345.52 1917.79 908.25 2011.9 909.6 2011.9 1344.06"/><polygon class="cls-2" points="2140.85 1342.06 2048.4 1343.49 2048.4 836.38 2140.85 838.17 2140.85 1342.06"/><polygon class="cls-30" points="2140.85 1342.06 2048.4 1343.49 2048.4 1032 2140.85 1032.55 2140.85 1342.06"/><polygon class="cls-2" points="2267.54 1340.1 2176.71 1341.5 2176.71 838.87 2267.54 840.63 2267.54 1340.1"/><polygon class="cls-31" points="2267.54 1340.1 2176.71 1341.5 2176.71 1167 2267.54 1166.69 2267.54 1340.1"/><path class="cls-32" d="M2219.78,2229.65c11.17,11.27,15.69,23.37,11.64,30.47-2.81,4.9-9,6.17-15.8,7.48-10.73,2.06-21.91,1.5-44.9-5-21.47-6.06-34.08-9.62-34.09-14.78,0-4.83,11-8.57,20.71-11.87a121.43,121.43,0,0,1,34-6.31Z"/><path class="cls-33" d="M1886,2046.84c5,2.17,11.48,6,13.2,12.34,2.72,10-8,20.32-25,36.41-12.83,12.08-30.14,28.39-36.17,24.28-3.69-2.52-1.51-11.59.52-20,2.45-10.15,7.85-25.86,21.23-43.09Z"/><path class="cls-34" d="M2195.27,2204.81l24,26.66a5,5,0,0,1-2.32,8.13c-5.26,1.47-12.61,2.66-19.34.75a9.25,9.25,0,0,1-3.89-2.38l-24-23.43Z"/><path class="cls-35" d="M1872.68,2030.74l13,18.68a5.41,5.41,0,0,1-1.86,7.83,45.49,45.49,0,0,1-6.41,3,9.75,9.75,0,0,1-10.65-2.65l-14.06-15.82Z"/><path class="cls-36" d="M2105.47,1639.52a453.42,453.42,0,0,0-36.19,109.38c-3.79,19.55-21.52,118,16.59,236.59,35.47,110.4,100.8,180.67,135.55,213.25a91.17,91.17,0,0,1-20.56,13.16,92.48,92.48,0,0,1-35.29,8.51c-106.15-75.78-157.63-161.63-181-208.35-78.84-157.63-59.06-312.37-24.6-377.82,11.32-21.49,24.1-33.13,38.58-38.31C2045,1579.32,2098.9,1632.84,2105.47,1639.52Z"/><path class="cls-37" d="M1960,1634.24c11.32-21.49,24.1-33.13,38.58-38.31,46.46-16.61,100.34,36.91,106.91,43.59A454.23,454.23,0,0,0,2069.69,1747c-32.46,7.63-77.82,25.73-99.92,68.52-35.75,69.23,15.65,152.2,26.32,169.41,23.48,37.89,37.7,34.34,72.37,88.82,26.19,41.15,28.19,59.06,51,79,26.8,23.38,60.27,30.24,87.3,31.72,5.3,5.39,10.24,10.18,14.67,14.33a91.17,91.17,0,0,1-20.56,13.16,92.48,92.48,0,0,1-35.29,8.51c-106.15-75.78-157.63-161.63-181-208.35C1905.74,1854.43,1925.52,1699.69,1960,1634.24Z"/><path class="cls-38" d="M2045.43,1633.76a183.48,183.48,0,0,1-32.07,46.06c-41.66,43.44-80.62,39.33-124.76,75.12-5.44,4.41-44.54,36.83-59,84.13-27.79,91,53,180.84,61.92,190.5A97,97,0,0,1,1842.3,2054c-115.8-105.81-172.38-234-133.85-317.34,21-45.45,70.78-78.49,107.54-102.9a479.64,479.64,0,0,1,154.78-66.87Z"/><path class="cls-39" d="M1976.35,1392.26c-1.74,51.2,10.13,77.75-6.5,119.54-11.94,30-31.74,50.66-46.76,63.49a200.85,200.85,0,0,0,67.34,74.73c47,30.9,93.68,33,112,32.81,38.86-20,97.79-57.67,145.1-124.77,32.06-45.48,67.27-95.42,58-159.08-11.84-80.87-86.78-124.07-108-136.32-14-8.07-110.56-63.75-169.59-22.82C1980.42,1272.75,1977.66,1354,1976.35,1392.26Z"/><path class="cls-40" d="M1653.57,1450.37c-1.55-8.27-7.47-14.27-10.85-17.69-3.92-4-4.72-3.33-7.28-6.57-6.45-8.15-4.89-16.58-7.37-16.86-2.15-.24-5.94,5.82-5.68,12.1.29,7,5.41,9.1,4.45,13-1.36,5.47-13.51,9.44-24.26,7.41-12.47-2.37-18.56-12.42-23.44-9.87-3.54,1.85-3.32,8.47-3.29,9,.54,12.42,17.13,25.44,33.31,27.14,9.31,1,12.8-2.39,23.85.41,7.32,1.86,9.89,4.39,13.57,2.88C1652.6,1468.87,1655,1458.28,1653.57,1450.37Z"/><path class="cls-41" d="M1651.78,1446c99.72,6.91,159.28-19,195.18-43.86,81.45-56.32,97.43-145.87,191.89-170,17.23-4.39,47.23-12,63.6,3.29,34,31.86-6.09,148.63-76.75,220.4-15.61,15.85-71.83,71.29-164.61,83.81-118.92,16-204.23-51.07-218.94-63.05a18.77,18.77,0,0,1-3.66-19C1641.89,1448.49,1651,1446.16,1651.78,1446Z"/><path class="cls-42" d="M2145.22,1602.79c28.08-26.6,14.78-43.08,49.34-96.5,35.2-54.41,60.54-55.42,76.76-92.1,8.39-19,13.56-46.24,4.31-85.39,14.23,19.17,25.81,42.4,29.88,70.18,9.31,63.66-25.9,113.6-58,159.08-47.31,67.1-106.24,104.78-145.1,124.77-18.34.16-65-1.91-112-32.81a198.2,198.2,0,0,1-41.5-36.6,185.12,185.12,0,0,0,50.45,19C2008.75,1634.41,2093.76,1651.53,2145.22,1602.79Z"/><path class="cls-43" d="M2171,1207.27l8.12,27.45a44,44,0,0,0,15.08,22.17l21.56,16.88s-65.74-11-97.19-41.67l19.2-6.06a4.85,4.85,0,0,0,3.39-4.62v-20.18Z"/><path class="cls-44" d="M2147.34,1221.14c-3.13-.7-25.83,3-32.28-7.89-8.76-14.81,0-38.47.84-42.13,3.68-15.3,5-17.62,7.89-20.86l4-4.25.51-.37c2.79-1.92,13.22-5,15.47-5.15,7.2-.36,21.83,25.43,30.21,65.17.68,1.42,1.36,2.85,2,4.3C2177.76,1213.73,2147.54,1222.58,2147.34,1221.14Z"/><path class="cls-45" d="M2110.74,1138.64c3.27,12.13,12.45,23.57,15.92,24.88a21.06,21.06,0,0,1,5.68,3.63,6.6,6.6,0,0,1,1.07,1.25c4.7,6.94-5.06,19.19-1.8,22,2.37,2,9.75-3.5,11.3-1.61s-4.29,7.79-2.59,9.92c1.28,1.62,5.06-1.18,8.48.91,1.7,1,1.6,2.24,4.14,6.13a40.25,40.25,0,0,0,4.51,5.77c6.1,6,18.68,5.45,20.21,2,.42-1-.3-1.48-.36-4.32a22,22,0,0,1,.9-6c1.37-4.74,6.52-9.24,11.36-15.15,9-10.94,10.16-18.55,10.45-21.09.1-.9.14-1.58.17-2.06.49-9.72-3-22.87-9.18-29.88-10.35-11.74-23.84-1.26-39.86-11.36-18.48-11.65-15.57-35.09-24-35.35C2117.87,1088,2104.68,1116.21,2110.74,1138.64Z"/><path class="cls-46" d="M2135.21,1186.37c1.89-4.88,8.14-2.43,9.58,2.85s-2.21,12.15-7.47,12.43S2132.68,1193,2135.21,1186.37Z"/></g></g></svg>