<svg xmlns="http://www.w3.org/2000/svg" viewBox="0 0 507.54 367.44"><defs><style>.cls-1{isolation:isolate;}.cls-2{fill:#eff2f9;}.cls-10,.cls-3{fill:none;}.cls-3{stroke:#fff;stroke-linecap:round;stroke-linejoin:round;stroke-width:3px;stroke-dasharray:0.25 7.98;}.cls-4{fill:#e0c1a2;mix-blend-mode:multiply;}.cls-5{fill:#2c295b;}.cls-6{fill:#00b1de;}.cls-7{fill:#abdff9;}.cls-8{opacity:0.3;}.cls-9{fill:#2d419a;}.cls-10{stroke:#2d419a;stroke-miterlimit:10;}.cls-11{fill:#fff;}.cls-12{fill:#ffd145;}.cls-13{fill:#f5825e;}.cls-14{fill:#0086cb;}</style></defs><g class="cls-1"><g id="Capa_1" data-name="Capa 1"><rect class="cls-2" width="507.54" height="367.44"/><ellipse class="cls-3" cx="253.77" cy="175.69" rx="130.98" ry="120.24"/><path class="cls-4" d="M462.55,307.15c0,13.5-90.16,24.46-201.38,24.46s-201.38-11-201.38-24.46S150,282.68,261.17,282.68,462.55,293.64,462.55,307.15Z"/><rect class="cls-5" x="140.68" y="146.1" width="226.17" height="165.91" rx="6.06"/><rect class="cls-6" x="145.77" y="155.69" width="215.99" height="143.38"/><path class="cls-7" d="M272.69,305.63a1.52,1.52,0,0,1-1.52,1.52H236.36a1.51,1.51,0,0,1-1.51-1.52h0a1.51,1.51,0,0,1,1.51-1.51h34.81a1.52,1.52,0,0,1,1.52,1.51Z"/><path class="cls-7" d="M265.38,151.31a1.42,1.42,0,0,1-1.43,1.43H243.59a1.42,1.42,0,0,1-1.43-1.43h0a1.42,1.42,0,0,1,1.43-1.42H264a1.42,1.42,0,0,1,1.43,1.42Z"/><g class="cls-8"><polygon class="cls-7" points="359.73 155.69 333.54 155.69 179.67 299.07 208.67 299.07 359.73 155.69"/><path class="cls-7" d="M322.71,155.69H287.05S145.9,282.4,145.77,282.4v16.67h20.39Z"/></g><path class="cls-9" d="M118.13,306.88a1.06,1.06,0,0,1-1.07,1.06H75.34a1.05,1.05,0,0,1-1.06-1.06l-2.13-50.49a1.06,1.06,0,0,1,1.06-1.06h46a1.05,1.05,0,0,1,1.06,1.06Z"/><path class="cls-7" d="M69.11,212s-4.33,4.77-13-5.09c0,0,11.33-2.24,13.3,4.43Z"/><path class="cls-7" d="M69.59,211.28s6.45.07,5.14-13c0,0-9.34,6.79-5.8,12.76Z"/><path class="cls-6" d="M95.64,180.39s-5.92,2.56-9.79-10c0,0,11.25,2.63,10.29,9.51Z"/><path class="cls-6" d="M96.73,179.57s5.85,2.72,10-9.74c0,0-11.31,2.32-10.54,9.23Z"/><path class="cls-6" d="M95.48,191s-6.29,2.73-10.41-10.64c0,0,12,2.8,11,10.11Z"/><path class="cls-6" d="M96.64,190.11s6.22,2.89,10.69-10.36c0,0-12,2.48-11.21,9.82Z"/><path class="cls-6" d="M95.28,203s-7,3-11.51-11.77c0,0,13.23,3.1,12.1,11.19Z"/><path class="cls-6" d="M96.57,202.06s6.87,3.2,11.82-11.46c0,0-13.31,2.74-12.4,10.86Z"/><path class="cls-6" d="M95.28,215.7s-7,3-11.54-11.79c0,0,13.26,3.1,12.13,11.21Z"/><path class="cls-6" d="M96.57,214.74s6.89,3.2,11.84-11.48c0,0-13.33,2.74-12.42,10.88Z"/><path class="cls-6" d="M94.18,225.16s-5,2.17-8.28-8.47c0,0,9.52,2.23,8.71,8.05Z"/><path class="cls-6" d="M95.15,224.78s4.6,2.94,9.53-7c0,0-9.75.68-9.88,6.56Z"/><path class="cls-6" d="M94.52,232.91s3.78,2.42,7.83-5.79c0,0-8,.56-8.12,5.39Z"/><path class="cls-6" d="M94.37,232.91s-3.78,2.42-7.83-5.79c0,0,8,.56,8.12,5.39Z"/><path class="cls-7" d="M73.63,222.06s-5,5.49-15-5.84c0,0,13-2.57,15.28,5.08Z"/><path class="cls-7" d="M74.18,221.28s7.41.08,5.91-14.95c0,0-10.74,7.79-6.67,14.65Z"/><path class="cls-7" d="M77.62,232.94s-5.56,6.13-16.75-6.53c0,0,14.56-2.88,17.08,5.68Z"/><path class="cls-7" d="M78.24,232.07s8.28.09,6.6-16.73c0,0-12,8.72-7.45,16.39Z"/><path class="cls-7" d="M81.14,245.53s-6,5.67-16.19-7.84c0,0,14.74-1.71,16.58,7Z"/><path class="cls-7" d="M81.82,244.71s8.25.75,7.91-16.15c0,0-12.66,7.74-8.73,15.75Z"/><path class="cls-5" d="M119.29,214.32s4.53,4.59,12.81-5.62c0,0-11.41-1.76-13.1,5Z"/><path class="cls-5" d="M118.78,213.67s-6.44.34-5.68-12.79c0,0,9.62,6.38,6.33,12.5Z"/><path class="cls-5" d="M115.2,224.61s5.21,5.27,14.73-6.46c0,0-13.12-2-15.06,5.71Z"/><path class="cls-5" d="M114.62,223.85s-7.4.4-6.53-14.69c0,0,11,7.34,7.27,14.36Z"/><path class="cls-5" d="M111.67,235.64s5.82,5.9,16.46-7.22c0,0-14.66-2.27-16.83,6.39Z"/><path class="cls-5" d="M111,234.8s-8.28.44-7.31-16.43c0,0,12.37,8.2,8.14,16.06Z"/><path class="cls-5" d="M108.68,248.37s6.27,5.42,15.85-8.51c0,0-14.8-1.09-16.28,7.71Z"/><path class="cls-5" d="M108,247.58s-8.21,1.09-8.58-15.8c0,0,13,7.2,9.38,15.37Z"/><path class="cls-10" d="M104.5,266.54s2.32-24.87,17.85-60.7"/><path class="cls-5" d="M121.58,206.14s-4.21-4.88,6.63-12.32c0,0,.84,11.52-6,12.66Z"/><path class="cls-10" d="M91.89,264.63s6.32-72.46,3.66-93.19"/><path class="cls-6" d="M95.66,171.94S101.39,169,94.11,158c0,0-5.08,10.37.85,14Z"/><path class="cls-10" d="M86.08,263.51s-3.36-24.76-20.39-59.9"/><path class="cls-9" d="M433.46,311.45a1.06,1.06,0,0,1-1.06,1.06H390.67a1.06,1.06,0,0,1-1.06-1.06L387.49,261a1.06,1.06,0,0,1,1.06-1.07h46a1.07,1.07,0,0,1,1.07,1.07Z"/><path class="cls-7" d="M384.44,216.52s-4.33,4.78-13-5.08c0,0,11.33-2.24,13.3,4.43Z"/><path class="cls-7" d="M384.92,215.85s6.45.07,5.15-13c0,0-9.35,6.78-5.81,12.76Z"/><path class="cls-6" d="M411,185s-5.92,2.57-9.79-10c0,0,11.25,2.63,10.3,9.51Z"/><path class="cls-6" d="M412.06,184.14s5.85,2.72,10.06-9.74c0,0-11.32,2.32-10.55,9.23Z"/><path class="cls-6" d="M410.81,195.55s-6.29,2.73-10.41-10.64c0,0,12,2.8,11,10.11Z"/><path class="cls-6" d="M412,194.68s6.22,2.89,10.7-10.36c0,0-12,2.48-11.22,9.82Z"/><path class="cls-6" d="M410.61,207.59s-7,3-11.51-11.77c0,0,13.23,3.1,12.11,11.19Z"/><path class="cls-6" d="M411.9,206.63s6.87,3.2,11.82-11.46c0,0-13.3,2.74-12.4,10.86Z"/><path class="cls-6" d="M410.61,220.27s-7,3-11.53-11.79c0,0,13.25,3.1,12.13,11.21Z"/><path class="cls-6" d="M411.9,219.31s6.89,3.2,11.85-11.48c0,0-13.34,2.74-12.43,10.88Z"/><path class="cls-6" d="M409.52,229.73s-5,2.17-8.29-8.47c0,0,9.52,2.23,8.72,8.05Z"/><path class="cls-6" d="M410.49,229.35s4.6,2.94,9.53-7c0,0-9.76.68-9.89,6.56Z"/><path class="cls-6" d="M409.86,237.48s3.78,2.42,7.83-5.79c0,0-8,.56-8.12,5.39Z"/><path class="cls-6" d="M409.7,237.48s-3.78,2.42-7.83-5.79c0,0,8,.56,8.13,5.39Z"/><path class="cls-7" d="M389,226.63s-5,5.49-15-5.84c0,0,13-2.57,15.28,5.08Z"/><path class="cls-7" d="M389.51,225.85s7.41.08,5.91-14.95c0,0-10.74,7.79-6.67,14.65Z"/><path class="cls-7" d="M393,237.5s-5.57,6.14-16.76-6.52c0,0,14.56-2.88,17.09,5.68Z"/><path class="cls-7" d="M393.57,236.64s8.28.09,6.61-16.73c0,0-12,8.72-7.46,16.39Z"/><path class="cls-7" d="M396.47,250.1s-6,5.67-16.18-7.84c0,0,14.73-1.71,16.58,7Z"/><path class="cls-7" d="M397.15,249.28s8.25.74,7.91-16.15c0,0-12.66,7.74-8.73,15.75Z"/><path class="cls-5" d="M434.62,218.89s4.53,4.59,12.82-5.62c0,0-11.42-1.76-13.1,5Z"/><path class="cls-5" d="M434.12,218.24s-6.44.34-5.69-12.79c0,0,9.62,6.38,6.33,12.5Z"/><path class="cls-5" d="M430.53,229.18s5.21,5.27,14.73-6.47c0,0-13.12-2-15.05,5.72Z"/><path class="cls-5" d="M430,228.42s-7.4.4-6.53-14.69c0,0,11.06,7.34,7.28,14.36Z"/><path class="cls-5" d="M427,240.21s5.82,5.9,16.46-7.23c0,0-14.66-2.26-16.83,6.4Z"/><path class="cls-5" d="M426.35,239.37s-8.27.44-7.31-16.43c0,0,12.37,8.2,8.14,16.06Z"/><path class="cls-5" d="M424,252.94s6.27,5.42,15.84-8.51c0,0-14.8-1.09-16.27,7.71Z"/><path class="cls-5" d="M423.3,252.15s-8.21,1.09-8.58-15.8c0,0,13,7.2,9.38,15.37Z"/><path class="cls-10" d="M419.83,271.11s2.32-24.87,17.85-60.7"/><path class="cls-5" d="M436.91,210.71s-4.21-4.88,6.64-12.32c0,0,.83,11.52-6,12.66Z"/><path class="cls-10" d="M407.22,269.2s6.32-72.46,3.66-93.19"/><path class="cls-6" d="M411,176.51s5.73-2.95-1.56-13.91c0,0-5.08,10.37.85,14Z"/><path class="cls-10" d="M401.42,268.08s-3.37-24.76-20.39-59.9"/><path class="cls-11" d="M189.86,94.18A29.91,29.91,0,1,1,160,64.27,29.91,29.91,0,0,1,189.86,94.18Z"/><rect class="cls-9" x="172.57" y="79.72" width="5.06" height="32.23"/><rect class="cls-12" x="147.08" y="93.1" width="5.06" height="18.85"/><rect class="cls-6" x="164.08" y="84.08" width="5.06" height="27.88"/><rect class="cls-13" x="155.58" y="88.05" width="5.06" height="23.9"/><rect class="cls-7" x="138.58" y="96.7" width="5.06" height="15.25"/><path class="cls-9" d="M139.53,92.52a.68.68,0,0,1-.6-.35.67.67,0,0,1,.27-.91l30.36-16.75a.68.68,0,0,1,.92.26.68.68,0,0,1-.27.92L139.85,92.44A.61.61,0,0,1,139.53,92.52Z"/><polygon class="cls-9" points="169.3 79.49 171.38 74.07 165.61 73.48 169.3 79.49"/><path class="cls-11" d="M162.26,169.89a30.46,30.46,0,1,1-30.46-30.46A30.46,30.46,0,0,1,162.26,169.89Z"/><rect class="cls-13" x="118.12" y="176.43" width="4.33" height="12.36"/><rect class="cls-6" x="116.98" y="173.73" width="6.61" height="3.92"/><path class="cls-5" d="M146,158.8v15.14a7.57,7.57,0,0,0,0-15.14Z"/><path class="cls-5" d="M115.77,160.74v11.34a5.67,5.67,0,0,1,0-11.34Z"/><path class="cls-6" d="M143.17,152.57c-12.77,5.79-19.41,5.42-19.41,5.42V174.5s10.53-.25,19.41,5.53Z"/><rect class="cls-5" x="113.61" y="157.8" width="11.61" height="17"/><rect class="cls-13" x="142.11" y="150.99" width="5.4" height="29.73"/><path class="cls-11" d="M406.2,174.69a30.47,30.47,0,1,1-30.46-30.47A30.46,30.46,0,0,1,406.2,174.69Z"/><path class="cls-7" d="M375.74,174.68c0,.39-14.17-12.89-14.17-12.89a19.09,19.09,0,0,1,14.17-6.27Z"/><path class="cls-13" d="M394.89,174.68H375.74V155.52A19.15,19.15,0,0,1,394.89,174.68Z"/><path class="cls-6" d="M356.58,174.7h19.16v19.15A19.16,19.16,0,0,1,356.58,174.7Z"/><path class="cls-9" d="M375.74,174.68H356.58a19.06,19.06,0,0,1,5-12.89Z"/><path class="cls-12" d="M375.74,174.7c0-.4,14.17,12.89,14.17,12.89a19.13,19.13,0,0,1-14.17,6.27Z"/><path class="cls-14" d="M375.74,174.7h19.15a19.12,19.12,0,0,1-5,12.89Z"/><path class="cls-11" d="M282,69.18a33.35,33.35,0,1,1-33.35-33.35A33.34,33.34,0,0,1,282,69.18Z"/><path class="cls-6" d="M270.08,63.17H262.5l5.19-5.52-8.76-8.23L254.62,54v-6.3h-12v7.58l-5.53-5.19-8.22,8.76,4.59,4.31h-6.3v12h7.58l-5.19,5.52,8.75,8.23,4.32-4.59v6.3h12V83.07l5.53,5.19,8.22-8.76-4.59-4.31h6.3ZM248.61,77.83a8.65,8.65,0,1,1,8.66-8.65A8.65,8.65,0,0,1,248.61,77.83Z"/><path class="cls-11" d="M370.71,94.18A29.91,29.91,0,1,1,340.8,64.27,29.91,29.91,0,0,1,370.71,94.18Z"/><polygon class="cls-5" points="348.14 111.77 321.13 94.44 348.15 77.2 349.8 79.78 326.82 94.45 349.8 109.19 348.14 111.77"/><path class="cls-13" d="M342.33,77.88A6.65,6.65,0,1,0,349,71.23,6.64,6.64,0,0,0,342.33,77.88Z"/><path class="cls-13" d="M317.57,93.87a7.77,7.77,0,1,0,7.77-7.77A7.77,7.77,0,0,0,317.57,93.87Z"/><circle class="cls-13" cx="348.97" cy="110.48" r="6.65"/><path class="cls-12" d="M332.87,238.08a27,27,0,0,1-1,2.65,28.48,28.48,0,0,1-6.14,9.05,29.1,29.1,0,0,1-9,6.05,27.76,27.76,0,0,1-21.66,0,29,29,0,0,1-9-6.05,27.63,27.63,0,0,1-2-2.21c-2.16,1.7-4.52,3.12-6.67,4.85l-.41.34a34.45,34.45,0,0,0,2.69,3,36.87,36.87,0,0,0,11.76,7.73,38.51,38.51,0,0,0,28.88,0,36.87,36.87,0,0,0,11.76-7.73,36.14,36.14,0,0,0,7.92-11.68,32.87,32.87,0,0,0,1.27-3.48C338.51,239.7,335.74,238.71,332.87,238.08Z"/><path class="cls-7" d="M340,215.14a38.32,38.32,0,0,0-8-11.72,37.53,37.53,0,0,0-11.77-7.92,36.9,36.9,0,0,0-28.68,0l-.19.09,3.46,7.41a35.52,35.52,0,0,1,11.07-2.15,27.65,27.65,0,0,1,26.16,17.57,29.73,29.73,0,0,1,2.06,11,48.53,48.53,0,0,1-1.56,9.52l8.42,2.58a37.25,37.25,0,0,0,1.95-12.1A35.07,35.07,0,0,0,340,215.14Z"/><path class="cls-5" d="M278.3,254.24q3.39-2.79,7-5.31a28.46,28.46,0,0,1-5.32-8.2,28.1,28.1,0,0,1-2.25-11.29,29.73,29.73,0,0,1,2.06-11,27.65,27.65,0,0,1,5.82-9.09,28,28,0,0,1,9-6.19l.8-.32c-1.17-2.47-2.21-5-3.21-7.54l-.54.22a37.42,37.42,0,0,0-11.77,7.92,38.32,38.32,0,0,0-8,11.72,35.07,35.07,0,0,0-3,14.3,36.57,36.57,0,0,0,9.4,24.8Z"/><polygon class="cls-12" points="233.76 242.9 224.95 242.9 224.95 263.39 262.92 263.39 262.92 255.33 233.76 255.33 233.76 242.9"/><polygon class="cls-7" points="233.76 212.46 224.95 212.46 224.95 243.64 233.76 243.64 233.76 228.61 262.07 228.61 262.07 220.55 233.76 220.55 233.76 212.46"/><polygon class="cls-5" points="224.95 192.71 224.95 213.21 233.76 213.21 233.76 200.77 262.92 200.77 262.92 192.71 224.95 192.71"/><path class="cls-12" d="M197.79,253.94h0a12,12,0,0,1-5.2,1.12,14.54,14.54,0,0,1-5.34-1,13.37,13.37,0,0,1-4.41-2.77,12.33,12.33,0,0,1-2.91-4.26,14.06,14.06,0,0,1-1-5.39l-8.9,1.87a23.82,23.82,0,0,0,2.44,7.88,22,22,0,0,0,4.73,6.28,21.53,21.53,0,0,0,14.67,5.62,24.12,24.12,0,0,0,8.56-1.51A58.85,58.85,0,0,0,197.79,253.94Z"/><path class="cls-5" d="M177.8,219.31a21.55,21.55,0,0,0,4.92,3.65q2.81,1.56,5.81,2.86l4.87,2.07c1.13.47,2.24,1,3.35,1.55,1.37-2.56,2.95-5,4.32-7.56-1.35-.66-2.74-1.28-4.2-1.87l-5.06-2a35.12,35.12,0,0,1-3.42-1.54,16.12,16.12,0,0,1-3.14-2.11,11.18,11.18,0,0,1-2.35-2.82,7.1,7.1,0,0,1-.93-3.65,8.29,8.29,0,0,1,1-4.17,10.35,10.35,0,0,1,2.72-3.14,12.55,12.55,0,0,1,3.79-2,13.4,13.4,0,0,1,4.27-.7,12.36,12.36,0,0,1,6.7,1.68,14.7,14.7,0,0,1,4.64,5l7-4.22a20.83,20.83,0,0,0-7.59-7.92A20.48,20.48,0,0,0,194,189.64a24.25,24.25,0,0,0-7.78,1.26,21.63,21.63,0,0,0-6.66,3.61,17.55,17.55,0,0,0-4.64,5.72,16.53,16.53,0,0,0-1.74,7.69,15.72,15.72,0,0,0,1.27,6.47A16.4,16.4,0,0,0,177.8,219.31Z"/><path class="cls-7" d="M213.09,233.56a18.51,18.51,0,0,0-3.65-5.86,23.11,23.11,0,0,0-5.58-4.36,57.35,57.35,0,0,0-5.72-2.8c-1.42,2.53-2.85,5.05-4.07,7.64,1.27.55,2.54,1.15,3.79,1.82a19.67,19.67,0,0,1,3.93,2.71,11.85,11.85,0,0,1,2.77,3.66,11.07,11.07,0,0,1,1,4.92,14.38,14.38,0,0,1-1,5.3,14,14,0,0,1-2.72,4.36,13.22,13.22,0,0,1-4.13,3c-.19.09-.38.15-.58.23a80.3,80.3,0,0,0,1.78,8.11c.6-.18,1.18-.38,1.76-.61a22.13,22.13,0,0,0,7.17-4.54,20.85,20.85,0,0,0,4.78-7,22.33,22.33,0,0,0,1.73-8.86A20.9,20.9,0,0,0,213.09,233.56Z"/><rect class="cls-7" x="302.95" y="256.85" width="6.38" height="19.81"/><path class="cls-13" d="M336,230.47A29.51,29.51,0,1,1,306.44,201,29.51,29.51,0,0,1,336,230.47Z"/><path class="cls-13" d="M300,266.75v45.38a5.7,5.7,0,0,0,5.7,5.7h.81a5.7,5.7,0,0,0,5.7-5.7V266.75Z"/><path class="cls-11" d="M329.43,230.47a23,23,0,1,1-23-23A23,23,0,0,1,329.43,230.47Z"/></g></g></svg>