<?xml version="1.0" encoding="utf-8"?>
<!-- Generator: Adobe Illustrator 25.1.0, SVG Export Plug-In . SVG Version: 6.00 Build 0)  -->
<svg version="1.1" id="Layer_1" xmlns="http://www.w3.org/2000/svg" xmlns:xlink="http://www.w3.org/1999/xlink" x="0px" y="0px"
	 viewBox="0 0 865.8 682.9" style="enable-background:new 0 0 865.8 682.9;" xml:space="preserve">
<style type="text/css">
	.st0{fill:#FFFFFF;}
	.st1{fill:#2F2E41;}
	.st2{fill:#263238;}
	.st3{fill:#4E46E5;}
	.st4{fill:#E0E0E0;}
	.st5{opacity:0.2;}
	.st6{opacity:0.1;}
	.st7{fill:#E6E6E6;}
	.st8{fill:#F9B499;}
	.st9{fill:#F7A48B;}
	.st10{fill:none;stroke:#0071F2;stroke-miterlimit:10;}
	.st11{opacity:0.2;enable-background:new    ;}
	.st12{fill:#F4F4F4;}
	.st13{fill:#C2C4C6;}
	.st14{fill:none;stroke:#C2C4C6;stroke-width:0.5;stroke-miterlimit:10;}
	.st15{fill:none;stroke:#F7A48B;stroke-miterlimit:10;}
	.st16{fill:#3F4347;}
	.st17{fill:#5D6166;}
	.st18{fill:none;stroke:#9EA0A3;stroke-miterlimit:10;}
	.st19{fill:none;stroke:#FFFFFF;stroke-linecap:round;stroke-linejoin:round;}
</style>
<rect x="232.5" y="68" class="st0" width="423.6" height="329.6"/>
<path class="st1" d="M656.6,398.1H232V67.5h424.6L656.6,398.1z M233,397.1h422.6V68.5H233L233,397.1z"/>
<rect x="284" y="168.4" class="st1" width="1" height="201.6"/>
<rect x="348.5" y="209.3" class="st1" width="1" height="160.5"/>
<rect x="411.2" y="166.3" class="st1" width="1" height="160.5"/>
<rect x="466.5" y="133.6" class="st1" width="1" height="160.5"/>
<rect x="532.3" y="211.3" class="st1" width="1" height="160.5"/>
<rect x="604.5" y="165.3" class="st1" width="1" height="160.5"/>
<path class="st1" d="M350.5,209.9c0,0.8-0.7,1.5-1.5,1.5s-1.5-0.7-1.5-1.5s0.7-1.5,1.5-1.5l0,0C349.8,208.4,350.5,209.1,350.5,209.9
	z"/>
<circle class="st1" cx="411.7" cy="165.4" r="1.5"/>
<path class="st1" d="M411.7,170.6c-2.9,0-5.3-2.3-5.3-5.3c0-2.9,2.3-5.3,5.3-5.3c2.9,0,5.3,2.3,5.3,5.3c0,0,0,0,0,0
	C417,168.3,414.6,170.6,411.7,170.6z M411.7,160.4c-2.7,0-4.9,2.2-4.9,4.9s2.2,4.9,4.9,4.9c2.7,0,4.9-2.2,4.9-4.9
	S414.5,160.4,411.7,160.4L411.7,160.4z"/>
<circle class="st1" cx="466.8" cy="133.7" r="1.5"/>
<circle class="st1" cx="532.8" cy="211.4" r="1.5"/>
<circle class="st2" cx="605" cy="165.4" r="1.5"/>
<path class="st1" d="M286,166.9c0,0.8-0.7,1.5-1.5,1.5c-0.8,0-1.5-0.7-1.5-1.5c0-0.8,0.7-1.5,1.5-1.5l0,0
	C285.3,165.4,286,166,286,166.9L286,166.9z"/>
<path class="st3" d="M619.2,237.8c-0.4,0.2-0.8,0.3-1.2,0.4c-1.2,0.3-2.3,0.7-3.4,1.2c-4.2,2-7.9,4.8-10.9,8.3
	c-4.1,4.4-8.2,10.6-13.3,17.6c-2.7,3.7-5.8,7.3-9.1,10.5c-1.8,1.8-3.8,3.4-5.9,4.9c-2.2,1.5-4.6,2.8-7.1,3.9
	c-5.4,2.2-11.2,3.2-17,2.9c-3.1-0.1-6.1-0.4-9.1-1.1c-3.2-0.7-6.2-2-8.8-3.9c-2.7-2-5-4.4-6.9-7.2c-1.9-2.8-3.6-5.7-5.3-8.6
	c-3.3-6-6.7-12-10.6-18s-7.4-12.5-11.3-18.9c-3.9-6.5-8.5-12.5-13.9-17.9c-2.8-2.7-5.9-4.9-9.3-6.7c-3.4-1.8-7.2-2.9-11-3.2
	c-8-0.8-16,0.9-23,4.9c-6.9,4.2-12.8,9.7-17.5,16.3c-4.6,6.4-8.7,13.1-12.4,20.1c-3.6,6.8-7.7,13.3-12.1,19.6
	c-4.2,6.1-9.1,11.7-14.6,16.7c-1.4,1.2-2.8,2.3-4.2,3.4c-1.4,1.1-3,2-4.5,2.9c-3.1,1.8-6.3,3.1-9.8,4c-1.7,0.4-3.4,0.8-5.1,1
	c-0.9,0.1-1.7,0.2-2.6,0.1h-2.5c-3.3-0.2-6.6-0.8-9.8-1.8c-5.9-2.1-11.5-5-16.5-8.6c-4.9-3.4-9.4-6.9-13.8-10
	c-4.1-3.1-8.4-5.8-13.1-7.9c-4.1-1.9-8.5-3.2-13-3.7c-3.9-0.5-7.9-0.2-11.7,0.8c-0.9,0.2-1.7,0.5-2.5,0.8c-0.8,0.2-1.6,0.6-2.4,0.9
	c-1.4,0.7-2.8,1.4-4.1,2.3c-2.2,1.5-4.3,3.2-6.2,5l-2.2,2.4c-0.6,0.6-1.2,1.3-1.7,2l-2.2,2.9c-0.2,0.3-0.5,0.7-0.8,1
	c0.2-0.4,0.4-0.7,0.6-1.1l2-3c0.5-0.7,1.1-1.4,1.7-2.1l2.1-2.5c1.9-1.9,4-3.7,6.2-5.2c1.3-0.9,2.7-1.7,4.1-2.4
	c0.8-0.4,1.6-0.7,2.4-1c0.8-0.4,1.7-0.7,2.6-0.9c3.9-1.1,8-1.4,12.1-1c4.6,0.5,9.2,1.7,13.5,3.6c4.7,2.2,9.2,4.8,13.4,7.9
	c4.4,3.1,9,6.6,13.8,9.9c5,3.5,10.4,6.3,16.1,8.3c3,1,6.1,1.5,9.3,1.7h2.4c0.8,0,1.6,0,2.4-0.1c1.6-0.2,3.2-0.5,4.8-0.9
	c6.6-1.9,12.7-5.3,17.8-9.9c5.4-4.9,10.2-10.4,14.3-16.4c4.3-6.3,8.3-12.8,11.9-19.5c3.7-7,8-13.8,12.6-20.3
	c4.8-6.8,11-12.6,18.1-16.9c3.7-2.1,7.7-3.6,11.8-4.5c4.1-0.9,8.3-1.1,12.4-0.7c4.1,0.4,8.1,1.6,11.8,3.5c3.6,1.8,6.9,4.2,9.8,7
	c5.5,5.5,10.2,11.7,14.2,18.3c4,6.4,7.5,12.9,11.3,18.9s7.3,12.2,10.6,18.1s6.5,11.8,11.6,15.3c2.5,1.8,5.3,3,8.3,3.7
	c2.9,0.7,5.8,1.1,8.8,1.2c5.6,0.3,11.2-0.6,16.3-2.6c2.4-1,4.7-2.2,6.9-3.7c2-1.4,4-3,5.8-4.7c3.3-3.2,6.3-6.6,9-10.3
	c5.2-6.9,9.4-13,13.7-17.4c3.2-3.5,7.1-6.3,11.4-8c1.1-0.4,2.3-0.8,3.5-1C618.4,237.9,618.8,237.8,619.2,237.8z"/>
<rect x="283" y="105" class="st1" width="73.9" height="4.1"/>
<rect x="283" y="114.6" class="st1" width="36.5" height="4.1"/>
<path class="st1" d="M238.2,41.1h411.7c3.4,0,6.2,2.8,6.2,6.2c0,0,0,0,0,0l0,0V68H232V47.4C232,43.9,234.8,41.1,238.2,41.1
	C238.2,41.1,238.2,41.1,238.2,41.1z"/>
<path class="st0" d="M254,55.1c0,1.6-1.3,2.9-2.9,2.9c-1.6,0-2.9-1.3-2.9-2.9c0-1.6,1.3-2.9,2.9-2.9c0,0,0,0,0,0
	C252.7,52.2,254,53.5,254,55.1z"/>
<path class="st0" d="M266.6,55.1c0,1.6-1.3,2.9-2.9,2.9s-2.9-1.3-2.9-2.9s1.3-2.9,2.9-2.9c0,0,0,0,0,0
	C265.3,52.2,266.6,53.5,266.6,55.1C266.6,55.1,266.6,55.1,266.6,55.1z"/>
<path class="st0" d="M279.2,55.1c0,1.6-1.3,2.9-2.9,2.9c-1.6,0-2.9-1.3-2.9-2.9c0-1.6,1.3-2.9,2.9-2.9c0,0,0,0,0,0
	C277.9,52.2,279.2,53.5,279.2,55.1C279.2,55.1,279.2,55.1,279.2,55.1z"/>
<path class="st4" d="M152.7,130.2H317c2,0,3.6,1.6,3.6,3.6v64c0,2-1.6,3.6-3.6,3.6H152.7c-2,0-3.6-1.6-3.6-3.6v-64
	C149.1,131.8,150.7,130.2,152.7,130.2z"/>
<path class="st3" d="M184.8,152.7c0,4.4-3.6,8-8,8s-8-3.6-8-8s3.6-8,8-8S184.8,148.3,184.8,152.7z"/>
<rect x="192.8" y="147.1" class="st3" width="55.7" height="3.1"/>
<rect x="192.8" y="154.2" class="st0" width="108.4" height="3.1"/>
<path class="st3" d="M184.8,177.2c0,4.4-3.6,8-8,8s-8-3.6-8-8s3.6-8,8-8S184.8,172.8,184.8,177.2z"/>
<rect x="192.8" y="171.7" class="st3" width="28.4" height="3.1"/>
<rect x="192.8" y="178.8" class="st0" width="108.4" height="3.1"/>
<path class="st4" d="M114.2,346.1h210.3c3,0,5.5,2.4,5.5,5.5v83.1c0,3-2.4,5.5-5.5,5.5H114.2c-3,0-5.5-2.4-5.5-5.5v-83.1
	C108.8,348.5,111.2,346.1,114.2,346.1z"/>
<path class="st3" d="M149.3,391.5l-0.1-19.1c-5.8,0.1-11.4,2.3-15.8,6.1c-5.6,4.9-8.5,12.3-7.6,19.7c0.1,0.9,0.2,1.8,0.4,2.8
	c0,0,0,0,0,0.1l0,0l23-5.2L149.3,391.5z"/>
<path class="st3" d="M173,385.6c-3.4-7.3-10.5-12.3-18.6-13l-0.7-0.1h-2l0.1,19.1v4.5l23,4.9l0,0c0.4-1.6,0.5-3.3,0.5-5
	C175.3,392.5,174.5,388.9,173,385.6z"/>
<g class="st5">
	<path d="M173,385.6c-3.4-7.3-10.5-12.3-18.6-13l-0.7-0.1h-2l0.1,19.1v4.5l23,4.9l0,0c0.4-1.6,0.5-3.3,0.5-5
		C175.3,392.5,174.5,388.9,173,385.6z"/>
</g>
<path class="st3" d="M150.5,398.3l-23,5.2c2.9,12.7,15.5,20.7,28.2,17.8c8.9-2,15.9-9,17.8-18L150.5,398.3"/>
<g class="st6">
	<path d="M150.5,398.3l-23,5.2c2.9,12.7,15.5,20.7,28.2,17.8c8.9-2,15.9-9,17.8-18L150.5,398.3"/>
</g>
<rect x="190.8" y="378.1" class="st0" width="116.8" height="5.3"/>
<rect x="190.8" y="392.1" class="st0" width="116.8" height="5.3"/>
<rect x="190.8" y="407.5" class="st0" width="63.1" height="5.3"/>
<path class="st7" d="M420.2,265.1h207.5c6.4,0,11.6,5.2,11.6,11.6v198.9c0,6.4-5.2,11.6-11.6,11.6H420.2c-6.4,0-11.6-5.2-11.6-11.6
	V276.7C408.6,270.3,413.8,265.1,420.2,265.1z"/>
<rect x="424.7" y="417.2" class="st1" width="7.6" height="2.2"/>
<rect x="441.9" y="428.9" class="st1" width="9.7" height="2.2"/>
<rect x="475.6" y="428.9" class="st1" width="9.7" height="2.2"/>
<rect x="509.3" y="428.9" class="st1" width="9.7" height="2.2"/>
<rect x="543" y="428.9" class="st1" width="9.7" height="2.2"/>
<rect x="576.7" y="428.9" class="st1" width="9.7" height="2.2"/>
<rect x="610.4" y="428.9" class="st1" width="9.7" height="2.2"/>
<rect x="424.7" y="388.1" class="st1" width="7.6" height="2.2"/>
<rect x="424.7" y="333.2" class="st1" width="7.6" height="2.2"/>
<rect x="424.7" y="305.7" class="st1" width="7.6" height="2.2"/>
<rect x="425.1" y="360.7" class="st1" width="7.6" height="2.2"/>
<rect x="443.2" y="361.7" class="st1" width="178.4" height="1"/>
<rect x="443.2" y="334.1" class="st1" width="178.4" height="1"/>
<rect x="443.6" y="306.3" class="st1" width="178.4" height="1"/>
<rect x="443.2" y="388.5" class="st1" width="178.4" height="1"/>
<path class="st3" d="M445.4,413.5v-24.3l15.2-23.5l10.3,7.9l21.1-32.8l12.4,8.8l17.3-30.3l14.1,11.5l21.1-40.1l22.8,44.9l18.4-22.5
	l21.7-6.2v106.7L445.4,413.5z"/>
<path class="st1" d="M621.9,298.1H616l-16.6,0.1h0.2l-17.8,23.3l-0.1,0.1h-0.1l-44.6,0.1l0.3-0.2l-18.8,31.2L500,383.4l-0.3,0.4
	l-0.3-0.4l-24.1-33.2h0.5l-22,34.3c-2.6,4.1-4.7,7.3-6.1,9.5c-0.7,1.1-1.2,1.9-1.6,2.5s-0.6,0.8-0.6,0.8s0.2-0.3,0.5-0.9
	s0.9-1.4,1.6-2.5l6-9.6l21.8-34.5l0.2-0.4l0.3,0.3c7.2,9.9,15.4,21.1,24.2,33.2h-0.6l18.4-30.6l18.8-31.2l0.1-0.2h44.8l-0.2,0.1
	l18-23.1v-0.1h0.1L616,298h5.5L621.9,298.1z"/>
<path class="st1" d="M482.9,357.8c0,0.9-0.7,1.7-1.7,1.8c-0.9,0-1.7-0.7-1.8-1.7c0-0.9,0.7-1.7,1.7-1.8h0
	C482.1,356.1,482.9,356.9,482.9,357.8C482.9,357.8,482.9,357.8,482.9,357.8L482.9,357.8z"/>
<path class="st1" d="M534.3,328.6c0,0.9-0.7,1.7-1.7,1.8c-0.9,0-1.7-0.7-1.8-1.7c0-0.9,0.7-1.7,1.6-1.8h0.1
	C533.5,326.9,534.3,327.7,534.3,328.6L534.3,328.6z"/>
<path class="st1" d="M574.3,321.4c0,0.9-0.7,1.7-1.7,1.8c-0.9,0-1.7-0.7-1.8-1.7c0-0.9,0.7-1.7,1.6-1.8h0.1
	C573.5,319.7,574.3,320.5,574.3,321.4L574.3,321.4z"/>
<ellipse class="st0" cx="452.9" cy="458.1" rx="11.1" ry="10.6"/>
<rect x="480.4" y="450.9" class="st0" width="130" height="4"/>
<rect x="480.4" y="460.9" class="st0" width="54" height="4"/>
<path class="st7" d="M571.8,92.6h139.5c3.8,0,6.8,3,6.8,6.8v113.4c0,3.8-3,6.8-6.8,6.8H571.8c-3.8,0-6.8-3-6.8-6.8V99.4
	C565,95.6,568.1,92.6,571.8,92.6z"/>
<rect x="591.8" y="143.4" class="st3" width="8.3" height="62.3"/>
<rect x="629.3" y="138.4" class="st3" width="8.3" height="67.4"/>
<rect x="668.2" y="129.8" class="st3" width="8.3" height="75.9"/>
<rect x="649.9" y="175.4" class="st3" width="8.3" height="30.4"/>
<g class="st5">
	<rect x="649.9" y="175.4" width="8.3" height="30.4"/>
</g>
<rect x="601.4" y="136.7" class="st3" width="8.3" height="69"/>
<g class="st6">
	<rect x="601.4" y="136.7" width="8.3" height="69"/>
</g>
<rect x="639.6" y="122.3" class="st3" width="8.3" height="83.5"/>
<g class="st6">
	<rect x="639.6" y="122.3" width="8.3" height="83.5"/>
</g>
<rect x="689.5" y="122.3" class="st3" width="8.3" height="83.5"/>
<g class="st5">
	<rect x="689.5" y="122.3" width="8.3" height="83.5"/>
</g>
<rect x="678.7" y="105.8" class="st3" width="8.3" height="100"/>
<g class="st6">
	<rect x="678.7" y="105.8" width="8.3" height="100"/>
</g>
<rect x="611.5" y="162" class="st3" width="8.3" height="43.8"/>
<g class="st5">
	<rect x="611.5" y="162" width="8.3" height="43.8"/>
</g>
<rect x="576.4" y="210.1" class="st1" width="139.9" height="1"/>
<rect x="574.1" y="194.7" class="st1" width="5" height="1.7"/>
<rect x="574.1" y="172.5" class="st1" width="5" height="1.7"/>
<rect x="574.1" y="130.7" class="st1" width="5" height="1.7"/>
<rect x="574.1" y="109.8" class="st1" width="5" height="1.7"/>
<rect x="574.4" y="151.6" class="st1" width="5" height="1.7"/>
<path class="st3" d="M393.1,82.2h148.2c2.5,0,4.5,2,4.5,4.4v35.2c0,2.5-2,4.4-4.5,4.4H393.1c-2.5,0-4.5-2-4.5-4.4V86.7
	C388.7,84.2,390.7,82.2,393.1,82.2z"/>
<path class="st0" d="M421.8,111.6c-3.3,4.1-9.3,4.8-13.5,1.5c-4.1-3.3-4.8-9.3-1.5-13.5c3.3-4.1,9.3-4.8,13.5-1.5l0,0
	C424.4,101.5,425.1,107.5,421.8,111.6z"/>
<path class="st3" d="M419.7,102.4c-1.5,2-3.3,3.8-5.1,5.5l-1.3,1.2l-0.3,0.2l-0.2-0.2c-1.4-1.3-2.7-2.8-3.9-4.3
	c1.6,1.1,3,2.4,4.3,3.8h-0.5l1.2-1.2C415.8,105.5,417.7,103.8,419.7,102.4z"/>
<path class="st0" d="M615.4,124.8h-50.1c-0.6,0-1-0.4-1-1s0.4-1,1-1h50.1c0.6,0,1,0.4,1,1S616,124.8,615.4,124.8z"/>
<path class="st3" d="M680.5,257.9c-8.6-9.4-20.7,5.7-26.2,12c-4.5,5.2-24.5,27.8-24.5,27.8l-29.3-26.2l-14.7,17.4
	c0,0,35.1,40.7,44.4,44.2c13.4,5.1,32.2-29.3,45.5-41.6S685.9,263.7,680.5,257.9"/>
<path class="st1" d="M748.2,368.4c4.7,21,9.4,21.2,2.2,122.2c-0.6,7.9,3.5,38,2.4,72.9c-0.8,26.8-3.6,36.5-3.6,36.5h-21.8
	c0,0-10.6-92.5-12.6-110.8s-6-84.4-6-84.4h-3.7c0,0-3.3,12.8-13.4,82.5c0,0,3.3,42.5-9.1,109.3h-23.9c0,0-5.3-95.5-5.4-110.5
	s7.4-101.4,9.6-116.7s10.3-23.5,10.3-23.5l64.5-1.5C737.8,344.4,745.7,357,748.2,368.4"/>
<path class="st8" d="M660.6,596.6c0,0,0.7,13.1-1.5,15.3c-3.1,3.1-23,10.4-29.2,12.7c-3.2,1.1-5.3,2.9-6.1,5.2
	c-0.5,1.6,0.3,3.3,1.9,3.9c0.3,0.1,0.7,0.2,1,0.2H681c0,0,1.9-0.8,2.2-4.2c0.2-2.9-2.6-11.3-2.6-11.3c-0.5-1.9,0.7-21.6,0.7-21.6
	L660.6,596.6z"/>
<polygon class="st9" points="660.6,596.6 681,601.6 681.3,596.6 660.6,596.6 "/>
<path class="st3" d="M682,623.2c0,0-0.3,2.7-4.4,2.7h-33.8c0,0-7.3-1.7-2.9-5.4c0,0-7.9,1.2-13.1,4.4c-3.1,1.9-5.8,2.5-5.5,8.9
	l0.1,1.4h60.8C683.3,635.1,685.3,627.3,682,623.2"/>
<path class="st1" d="M622.4,635.1l0.2,3.2h43.9l6.4-3.2l0.2,3.2h8.4c1,0,1.8-0.8,1.9-1.8c0-0.1,0-0.1,0-0.2l-0.1-1.2L622.4,635.1z"
	/>
<path class="st10" d="M658.1,611.5c0,0-1.3,9,11.7,16.3"/>
<path class="st8" d="M728.4,600.1c0,0,0.7,13.1-1.5,15.3c-3.1,3.1-23,10.4-29.2,12.7c-3.2,1.1-5.3,2.9-6.1,5.2
	c-0.5,1.6,0.3,3.4,1.9,3.9c0.3,0.1,0.6,0.2,1,0.2h54.3c0,0,1.9-0.8,2.2-4.2c0.2-2.9-2.6-11.3-2.6-11.3c-0.5-1.9,0.7-21.6,0.7-21.6
	L728.4,600.1z"/>
<polygon class="st9" points="728.4,600.1 748.8,605.2 749.1,600.1 728.4,600.1 "/>
<path class="st3" d="M749.9,626.7c0,0-0.3,2.7-4.4,2.7h-33.8c0,0-7.2-1.7-2.9-5.4c0,0-7.9,1.2-13.1,4.4c-3.1,1.9-5.8,2.5-5.5,8.9
	l0.1,1.4h60.8C751.1,638.6,753.1,630.8,749.9,626.7"/>
<path class="st1" d="M690.2,638.6l0.2,3.2h43.9l6.4-3.2l0.2,3.2h8.4c1,0,1.9-0.8,1.9-1.8c0-0.1,0-0.1,0-0.2l-0.1-1.2L690.2,638.6z"
	/>
<path class="st10" d="M725.9,615c0,0-1.3,9,11.7,16.3"/>
<path class="st1" d="M733.5,273.9c-9.2,4.5-19.5,6.1-29.6,4.7c-0.6-0.1-1.2-0.2-1.8-0.3c-12.1-2.2-26.2-2.1-28.5-21.6
	s14-29.5,15.4-38.4c0.3-2.3,0.3-4.5-0.1-6.8c-0.8-6-2.9-11.2,1.7-16.6c8.8-10.5,17.8-10.1,17.8-10.1s7.8-5.8,17.3,1.2
	c10.1,7.5,13.2,17.8,11.9,28.6c-0.9,6.6-1.3,13.3-1.1,19.9c0.2,3.5,1.1,7.2,4,15C743.4,257.4,741.2,270,733.5,273.9"/>
<path class="st11" d="M703.9,278.6c-0.6-0.1-1.2-0.2-1.8-0.3c-12.1-2.2-26.2-2.1-28.5-21.6s14-29.5,15.4-38.4
	c0.3-2.3,0.3-4.5-0.1-6.8c13,1.9,30.2,9.1,36.3,20.3c0,0-3.2,4-0.3,10.9c3.3,7.8,10,7.1,7.4,18.8
	C731.1,266.9,717.7,270.8,703.9,278.6"/>
<path class="st8" d="M695.8,235.4c0,0,1.7,6.7-0.7,11.5s-5.2,6.4-5.2,6.4s5,9.3,17.8,9.1s16.8-9.8,16.8-9.8s-3.7-0.8-5.2-5.5
	s-0.5-13.5-0.5-13.5L695.8,235.4L695.8,235.4z"/>
<path class="st12" d="M671.8,259.1c0,0,1.3,9.8,1.6,21.6c0.4,14.8-7.2,63.9-7.3,63c0,0,9,5.9,34.1,7.3c15,0.9,30-2.2,43.5-8.8
	c0,0,1.5-38.5,4.5-56.4c2.7-15.9,5-23.3,5-23.3L721.6,251l-14.5,10.7l-14.4-10.9L671.8,259.1L671.8,259.1z"/>
<path class="st9" d="M696.4,241.3c0,0-1,9.6,7.5,9.6s14.5-10.3,14.5-10.3L696.4,241.3L696.4,241.3z"/>
<path class="st8" d="M688.7,210.2c0,0,1.4,17,2.2,21.4s6.4,15.1,13.5,16s16.2-7.4,19-11.8s4.9-16.9,5.5-21.7s-1.2-22.7-17.3-24.7
	S689.9,200.6,688.7,210.2"/>
<path class="st3" d="M686.6,252.1c-2,7.2-3.4,14.5-4,21.9c-2.2,27,0.7,74.4,0.6,97.2s-0.7,39.6-0.7,39.6s-24.6-0.7-25.8-14.2
	s8.3-40.9,9.4-53c0.6-6,4.8-86.4,4.8-88.2C680,252.9,680.2,253.4,686.6,252.1"/>
<path class="st9" d="M714.3,210.8c0,0,7.4,2.8,10.9,6.3c1.5,1.4,2.4,3.3,2.4,5.4l1.6-7.2C729.2,215.4,724.6,209.3,714.3,210.8"/>
<path class="st1" d="M689.4,218.1c-0.4-4.6,0.6-9.1,2.9-13.1c2.3-3.8,6-6.4,10.3-7.3l5.8-12.8c0,0-13.9-2.5-20.9,7.6
	C675.3,209.9,689.4,218.1,689.4,218.1"/>
<path class="st1" d="M703.3,201.1c5.1,14.2,22.4,8.3,25.6,15.4c0,0,6.8-10.2-1.1-22.6s-19.5-9.1-19.5-9.1S700,191.8,703.3,201.1"/>
<path class="st13" d="M682.9,347.7c0,0,6.3,3.4,22.5,3.4s31-7.1,31-7.1l-0.4,7.8c0,0-12.2,6.3-30.1,6.3s-23.4-3.6-23.4-3.6
	L682.9,347.7L682.9,347.7z"/>
<path class="st3" d="M727.6,252.6c0,0,2,5.7,1.9,22c-0.1,18.2-0.7,136.3-0.7,136.3s21.7-4.7,25.2-13s-9.7-44.9-10.2-55.7
	c-0.6-11.7,14.1-66.4,14.4-78.4C758.1,262.8,727.6,252.6,727.6,252.6"/>
<path class="st13" d="M693.6,249.7l10.7,9.9l-9.2,7C695.1,266.6,687.2,252.9,693.6,249.7"/>
<path class="st13" d="M720.9,250.2l-11.1,9.6l8.5,7.5C718.2,267.3,726.5,252.9,720.9,250.2"/>
<path class="st14" d="M707.1,261.7c0,0-1.7,76-1.7,89.4"/>
<polygon class="st8" points="598.9,273.5 587.5,263.7 578.1,273.5 587.7,286.7 598.9,273.5 "/>
<path class="st8" d="M588.5,259.8c-0.3-1.3-5.6-14.6-7.6-17.9s-6.2-2.3-5.9,0.3s2.6,9.5,2.6,9.5s-10.8-8.4-11.9-9.1
	c-2.8-2-3.8-3.4-6.4-3.3c-1.1,0.1-2,0.8-2.4,1.9c-1-0.3-2.1,0.2-2.6,1.1c-1,1.6,1,3.3,1,3.3s-1-0.3-2.4,1.2
	c-1.7,1.9,0.6,3.9,0.6,3.9c-1.3,0.5-2.4,1.5-3,2.8c-0.5,1.3,0.8,2.3,8.7,8.2c1.5,1.1,7.3,6.8,9.2,8.4c8.4,7.3,11.4,6.6,11.4,6.6
	S590.5,268.1,588.5,259.8"/>
<path class="st15" d="M557,241.1l15.8,11.6 M555.4,245.6l14.6,10.9 M553.6,250.7l12.9,9.4 M576.8,254.1c-0.9,3.3,0.2,6.8,2.8,9
	 M573.5,252.4l-8,9.8"/>
<path class="st10" d="M670.8,256c0,0-5.2,4.8-4.7,32.9"/>
<g class="st5">
	<path d="M665.6,289c-0.5-28.1,4.7-33.1,4.9-33.3l0.7,0.7c0,0-5,5.2-4.6,32.6L665.6,289z"/>
</g>
<polygon class="st16" points="651.7,289.2 655.2,287 655,289.4 651.7,289.2 "/>
<path class="st16" d="M696.8,345.5h-33.6c-1.3,0-2.4-1-2.6-2.3l-6.5-54.3c-0.1-1,0.6-2,1.7-2.1c0.1,0,0.2,0,0.2,0h33.6
	c1.3,0,2.4,1,2.6,2.3l6.5,54.3c0.1,1-0.6,2-1.7,2.1C696.9,345.5,696.8,345.5,696.8,345.5"/>
<path class="st17" d="M693.8,345.5H659c-1.3,0-2.4-1-2.6-2.3l-5.8-52.1c-0.1-1,0.6-2,1.7-2.1c0.1,0,0.1,0,0.2,0h34.8
	c1.3,0,2.4,1,2.6,2.3l5.8,52.1c0.1,1-0.6,2-1.7,2.1C694,345.5,693.9,345.5,693.8,345.5"/>
<path class="st18" d="M677.7,317.2c0-2.5-2-4.5-4.5-4.5c-2.5,0-4.5,2-4.5,4.5c0,2.5,2,4.5,4.5,4.5S677.7,319.7,677.7,317.2
	C677.7,317.2,677.7,317.2,677.7,317.2z"/>
<path class="st16" d="M656.2,293.4c0,0.8-0.6,1.4-1.4,1.4s-1.4-0.6-1.4-1.4c0-0.8,0.6-1.4,1.4-1.4l0,0
	C655.6,292,656.2,292.6,656.2,293.4"/>
<path class="st8" d="M703.7,345.7c-1.9,0.3-3.8,0.1-5.6-0.6c-2.3-1.1-2.4-2.4-4.5-3c-1.9-0.5-5.6,0.2-7,0c-1.5-0.1-2.6-1.3-2.5-2.8
	c0-0.1,0-0.1,0-0.2c-1-0.6-1.6-1.8-1.3-3c-0.7,0-1.9-1-0.9-2.9c0.2-0.5-0.6-0.3-0.7-1.7c-0.1-2,3.7-3.8,3.7-3.8
	c-2.2,0.4-3.2-1.6-2.7-2.5s5.3-4,6-4s4.2,0,5.6,0.7s5,4.1,5,4.1l10.8,7.8C709.5,333.8,709.5,343,703.7,345.7"/>
<path class="st15" d="M692.2,337.9c0,0-5.4-0.2-8,1.2 M691.5,334c0,0-6.3-0.4-8.6,2 M690.9,329.9c0,0-7.2,0.4-9.1,3.7 M685,327.7
	c0,0,3-1.9,3.2-2c0.9,0,1.9,0,2.8,0.2"/>
<path class="st8" d="M709.5,333.8l9.7,2.9l-6.3,13.9l-8.9-5.1C704,345.5,701.4,335.9,709.5,333.8"/>
<path class="st3" d="M752.9,263c15.2,0.1,13.6,16.6,13.8,23.5s2.6,69.4-11,76.5s-43-11-43-11l4.7-16.7l20,1.9c0,0,1.4-38.1,2.4-49
	S743,262.9,752.9,263"/>
<polygon class="st9" points="714.7,335.4 712.9,350.6 717.1,336.1 714.7,335.4 "/>
<path class="st10" d="M758.1,263.8c0,0-9,0-11.7,7s-6.6,67-6.6,67 M717.3,335.2l30.4,3.8 M712.6,351.9c0,0,18.7,12.4,36.3,12.7"/>
<g class="st5">
	<path d="M749,365.1L749,365.1c-17.6-0.3-36.4-12.6-36.6-12.7c-0.2-0.2-0.3-0.5-0.1-0.7c0.2-0.2,0.5-0.3,0.7-0.1
		c0.2,0.1,18.7,12.3,36,12.6c0.3,0,0.5,0.2,0.5,0.5C749.5,364.9,749.3,365.1,749,365.1C749,365.1,749,365.1,749,365.1z M747.8,339.5
		L747.8,339.5l-30.5-3.8c-0.3,0-0.5-0.3-0.4-0.5c0,0,0,0,0,0c0-0.3,0.3-0.5,0.6-0.4l21.9,2.7c0.4-5.4,4.1-60,6.6-66.8
		c2.7-7.2,12-7.3,12.2-7.3l0,0c0.3,0,0.5,0.2,0.5,0.5c0,0,0,0,0,0c0,0.3-0.2,0.5-0.5,0.5c0,0,0,0,0,0l0,0c-0.1,0-8.7,0.1-11.2,6.6
		s-6.3,62-6.6,66.6l7.5,0.9c0.3,0,0.5,0.3,0.5,0.5C748.3,339.3,748.1,339.5,747.8,339.5L747.8,339.5z"/>
</g>
<path class="st7" d="M103.3,250.8h165c2.5,0,4.5,2,4.5,4.4v39.9c0,2.5-2,4.5-4.5,4.5h-165c-2.5,0-4.4-2-4.4-4.5v-39.9
	C98.8,252.8,100.8,250.8,103.3,250.8z"/>
<path class="st0" d="M135.5,283.2c-3.7,4.6-10.3,5.3-14.9,1.6c-4.6-3.7-5.3-10.3-1.6-14.9c3.7-4.6,10.3-5.3,14.9-1.6c0,0,0,0,0,0
	l0,0C138.4,272,139.1,278.7,135.5,283.2L135.5,283.2z"/>
<path class="st1" d="M133.2,273c-1.7,2.2-3.7,4.2-5.8,6.1l-1.4,1.4l-0.2,0.2l-0.2-0.2c-1.6-1.5-3-3.1-4.3-4.8
	c1.7,1.3,3.3,2.7,4.8,4.3h-0.5l1.4-1.4C128.9,276.6,130.9,274.7,133.2,273z"/>
<path class="st1" d="M246.9,271.1H144.4c-0.3,0-0.5-0.2-0.5-0.5s0.2-0.5,0.5-0.5h102.5c0.3,0,0.5,0.2,0.5,0.5
	S247.2,271.1,246.9,271.1z"/>
<path class="st1" d="M218.1,280.3h-73.6c-0.3,0-0.5-0.2-0.5-0.5s0.2-0.5,0.5-0.5h73.6c0.3,0,0.5,0.2,0.5,0.5
	S218.3,280.3,218.1,280.3z"/>
<line class="st19" x1="434.1" y1="99.7" x2="536.6" y2="99.7"/>
<line class="st19" x1="434.1" y1="108.9" x2="507.8" y2="108.9"/>
<polygon class="st1" points="619.8,419.9 435.4,419.9 435.4,286.7 436.4,286.7 436.4,418.9 619.8,418.9 "/>
</svg>
