<?xml version="1.0" encoding="utf-8"?>
<!-- Generator: Adobe Illustrator 25.1.0, SVG Export Plug-In . SVG Version: 6.00 Build 0)  -->
<svg version="1.1" id="a8f596b6-00ff-40b1-bae1-f37ecceb7811"
	 xmlns="http://www.w3.org/2000/svg" xmlns:xlink="http://www.w3.org/1999/xlink" x="0px" y="0px" viewBox="0 0 865.8 682.9"
	 style="enable-background:new 0 0 865.8 682.9;" xml:space="preserve">
<style type="text/css">
	.st0{fill:#F9B499;}
	.st1{fill:#2F2E41;}
	.st2{fill:#CCCCCC;}
	.st3{fill:#F1F2F2;}
	.st4{fill:#FFFFFF;}
	.st5{opacity:0.2;enable-background:new    ;}
	.st6{fill:#4E46E5;}
	.st7{fill:#F7A48B;}
</style>
<path class="st0" d="M562.1,598.5c0,0,3,23.3-2.2,26.4l-15.1,11l10.6,3l21.9-7.9c0,0,1.1-28.3-2.7-35.5L562.1,598.5z"/>
<path class="st0" d="M620.7,598.4c0,0,4.2,26.1,2.7,32.1l24.2,8.3l6-4.9c-4.1-2.4-7.9-5.2-11.3-8.4c-2.4-2.3-3.9-5.4-4.4-8.7
	l-3.1-20.2L620.7,598.4z"/>
<path class="st1" d="M679.7,582.9l19.2,5l65.8-273.2c0.8-3.4-1-6.9-4.3-8.1l-18.8-6.9c-2.3-0.8-4.9,0.3-5.7,2.6
	c-0.1,0.2-0.1,0.4-0.2,0.7L679.7,582.9z"/>
<path class="st2" d="M727.1,318.7l34.5,8.5l-1.8,7.6l-34.2-8.4L704,412.5c-0.4,1.7-2.1,2.7-3.8,2.3c0,0-0.1,0-0.1,0l0,0
	c-1.5-0.5-2.5-2-2.2-3.6l18.9-96.9c0.6-2.9,3.3-4.8,6.2-4.4l0,0c3,0.5,5,3.3,4.5,6.3c0,0.1,0,0.1,0,0.2L727.1,318.7z"/>
<path class="st2" d="M675.5,640.1L675.5,640.1c2,1,4.5,0.2,5.5-1.8c0.1-0.2,0.1-0.3,0.2-0.5l17.6-50l-19.2-5l-6.5,53.2
	C673,637.7,673.9,639.4,675.5,640.1z"/>
<path class="st1" d="M677.9,640.5l-1.8,6.6c-0.3,1.1-1.4,1.7-2.5,1.5l0,0c-1.1-0.2-1.8-1.3-1.6-2.5c0,0,0-0.1,0-0.1l1.8-7.2
	C674.9,640,676.4,640.6,677.9,640.5z"/>
<path class="st0" d="M677.5,286.8l70,2.9c0,0,9.3-1,13.1,5.5l5.7,8.7c0.9,1.4,0.9,3.3-0.2,4.6l0,0c-1.2,1.5-3.2,1.9-4.9,1.1
	l-12.5-6.3c0,0-5.5-0.5-2.5,4.5c0.9,0.9,1.9,1.7,3,2.3c0.7,0.3,0.9,1.1,0.6,1.8c-0.2,0.3-0.4,0.5-0.8,0.6c-3.6,1.2-10.1,1.1-16-9.8
	l-55.5,3L677.5,286.8z"/>
<path class="st1" d="M554.7,347.4c0,0-16.9,0.5-20.1-19.3c0,0,0-8.4-1.8-13.5c-0.9-2.5-1.3-5.1-1.2-7.7c0.3-4.6,2-10.9,8.1-13.6
	c0,0,11-7.1,9.5-23.6s4.2-36.2,9-46c0,0,1.1-1.9,0.6-7.2c-0.5-4.1,0.3-8.2,2.4-11.8c2.5-4.2,7.1-8.5,15.3-9.1c0,0,29.7-5.9,38,7.8
	c0.6,1,1.3,2,2,2.9c3.1,4.1,11.1,17,5.8,36.3c-0.5,1.9,0,4,1.3,5.5c4.3,4.8,13,16.7,10.1,31.3c0,0,23.3,37.1,10.9,53.4
	c0,0-7.7,8.2-8,14.5c0,0-2.5,14.5-23.9,9.4L554.7,347.4z"/>
<path class="st1" d="M557.6,225c0,0,7.9,4.3,21.6-10.4c0,0,2.2,8.9,16.9,11c0,0,0.3,26.7,11.8,33.9c0,0-1.3,24.2,3.8,38.9l1,58.5
	c0,0,20.4,5.4,23.9-9.4c0.9-5.6,3.7-10.7,8-14.5c0,0,13.6-12.7-10.9-53.4c0,0,4.7-13.1-10.1-31.3c0,0-3.2-2.1-0.5-8.9
	c0,0,4.2-18-6.6-32.9c0,0-4.1-10.1-15.7-11c0,0-32.6-4.4-38.7,8.1c0,0-4.2,4.9-3.2,15.5C558.9,221.1,558.4,223.1,557.6,225z"/>
<path class="st2" d="M125.9,84.3h343.9c14.9,0,27.1,12.1,27.1,27.1v508.4c0,13.4-10.9,24.3-24.3,24.3l0,0H123.2
	c-13.4,0-24.3-10.9-24.3-24.3l0,0V111.4C98.8,96.4,111,84.3,125.9,84.3L125.9,84.3z"/>
<path class="st3" d="M141.6,111.1h312.8c9.8,0,17.8,8,17.8,17.8l0,0v475.3c0,8.4-6.8,15.2-15.2,15.2c0,0,0,0,0,0H139
	c-8.4,0-15.2-6.8-15.2-15.2l0,0V128.9C123.8,119.1,131.8,111.1,141.6,111.1L141.6,111.1z"/>
<circle class="st2" cx="181.7" cy="215" r="27.8"/>
<polygon class="st4" points="167.7,205.9 179.1,216.7 196,193.5 199.9,199.1 180.2,222.8 163.5,209.7 "/>
<circle class="st2" cx="181.7" cy="292.7" r="27.8"/>
<polygon class="st4" points="167.7,283.6 179.1,294.4 196,271.2 199.9,276.8 180.2,300.5 163.5,287.4 "/>
<circle class="st2" cx="181.7" cy="370.4" r="27.8"/>
<polygon class="st4" points="167.7,361.3 179.1,372 196,348.9 199.9,354.5 180.2,378.1 163.5,365.1 "/>
<circle class="st2" cx="181.7" cy="448" r="27.8"/>
<polygon class="st4" points="167.7,439 179.1,449.7 196,426.5 199.9,432.1 180.2,455.8 163.5,442.8 "/>
<circle class="st2" cx="181.7" cy="518.8" r="27.8"/>
<polygon class="st4" points="167.7,516.6 179.1,527.4 196,504.2 199.9,509.8 180.2,533.5 163.5,520.4 "/>
<path class="st2" d="M240.2,188.7h177.4c1.9,0,3.5,1.6,3.5,3.5v0c0,1.9-1.6,3.5-3.5,3.5H240.2c-1.9,0-3.5-1.6-3.5-3.5v0
	C236.7,190.3,238.2,188.7,240.2,188.7z"/>
<path class="st2" d="M240.2,203.8h150.3c1.9,0,3.5,1.6,3.5,3.5v0c0,1.9-1.6,3.5-3.5,3.5H240.2c-1.9,0-3.5-1.6-3.5-3.5v0
	C236.7,205.3,238.2,203.8,240.2,203.8z"/>
<path class="st2" d="M240.2,220.8h104.2c1.9,0,3.5,1.6,3.5,3.5v0c0,1.9-1.6,3.5-3.5,3.5H240.2c-1.9,0-3.5-1.6-3.5-3.5v0
	C236.7,222.4,238.2,220.8,240.2,220.8z"/>
<path class="st2" d="M240.2,266.2h147.7c1.9,0,3.5,1.6,3.5,3.5v0c0,1.9-1.6,3.5-3.5,3.5H240.2c-1.9,0-3.5-1.6-3.5-3.5v0
	C236.7,267.8,238.2,266.2,240.2,266.2z"/>
<path class="st2" d="M240.2,281.3h139.6c1.9,0,3.5,1.6,3.5,3.5v0c0,1.9-1.6,3.5-3.5,3.5H240.2c-1.9,0-3.5-1.6-3.5-3.5v0
	C236.7,282.9,238.2,281.3,240.2,281.3z"/>
<path class="st2" d="M240.2,298.4h175.7c1.9,0,3.5,1.6,3.5,3.5v0c0,1.9-1.6,3.5-3.5,3.5H240.2c-1.9,0-3.5-1.6-3.5-3.5v0
	C236.7,300,238.2,298.4,240.2,298.4z"/>
<path class="st2" d="M240.2,343.9h138.6c1.9,0,3.5,1.6,3.5,3.5v0c0,1.9-1.6,3.5-3.5,3.5H240.2c-1.9,0-3.5-1.6-3.5-3.5v0
	C236.7,345.5,238.2,343.9,240.2,343.9z"/>
<path class="st2" d="M240.2,359h179.2c1.9,0,3.5,1.6,3.5,3.5v0c0,1.9-1.6,3.5-3.5,3.5H240.2c-1.9,0-3.5-1.6-3.5-3.5v0
	C236.7,360.5,238.2,359,240.2,359z"/>
<path class="st2" d="M240.2,376.1h172.9c1.9,0,3.5,1.6,3.5,3.5v0c0,1.9-1.6,3.5-3.5,3.5H240.2c-1.9,0-3.5-1.6-3.5-3.5v0
	C236.7,377.6,238.2,376.1,240.2,376.1z"/>
<path class="st2" d="M239.3,421.6h152.6c1.9,0,3.5,1.6,3.5,3.5v0c0,1.9-1.6,3.5-3.5,3.5H239.3c-1.9,0-3.5-1.6-3.5-3.5v0
	C235.8,423.1,237.4,421.6,239.3,421.6z"/>
<path class="st2" d="M239.3,436.6H429c1.9,0,3.5,1.6,3.5,3.5v0c0,1.9-1.6,3.5-3.5,3.5H239.3c-1.9,0-3.5-1.6-3.5-3.5v0
	C235.8,438.2,237.4,436.6,239.3,436.6z"/>
<path class="st2" d="M239.3,453.7h167.3c1.9,0,3.5,1.6,3.5,3.5v0c0,1.9-1.6,3.5-3.5,3.5H239.3c-1.9,0-3.5-1.6-3.5-3.5v0
	C235.8,455.3,237.4,453.7,239.3,453.7z"/>
<path class="st2" d="M239.3,499.2h187.4c1.9,0,3.5,1.6,3.5,3.5v0c0,1.9-1.6,3.5-3.5,3.5H239.3c-1.9,0-3.5-1.6-3.5-3.5v0
	C235.8,500.8,237.4,499.2,239.3,499.2z"/>
<path class="st2" d="M239.3,514.3h152.6c1.9,0,3.5,1.6,3.5,3.5v0c0,1.9-1.6,3.5-3.5,3.5H239.3c-1.9,0-3.5-1.6-3.5-3.5v0
	C235.8,515.9,237.4,514.3,239.3,514.3z"/>
<path class="st2" d="M239.3,531.4h105c1.9,0,3.5,1.6,3.5,3.5v0c0,1.9-1.6,3.5-3.5,3.5h-105c-1.9,0-3.5-1.6-3.5-3.5v0
	C235.8,533,237.4,531.4,239.3,531.4z"/>
<path class="st2" d="M435.5,123.7v6h-272v-6c0-16.7,13.5-30.2,30.2-30.2h211.5C421.9,93.4,435.5,107,435.5,123.7z"/>
<path class="st2" d="M353.8,88.6c0,1.6-0.1,3.3-0.2,4.9H245.4c-0.1-1.6-0.2-3.2-0.2-4.9c0-30,24.3-54.4,54.3-54.4
	C329.5,34.2,353.8,58.6,353.8,88.6C353.8,88.6,353.8,88.6,353.8,88.6z"/>
<circle class="st5" cx="298.6" cy="70.5" r="8.1"/>
<path class="st0" d="M497.1,169.1l-0.2-14.6l-5-0.8c-5-1-2.8-4.5-2.8-4.5s3.6-4.6,15.4,0c0.9,0.4,1.9,0.7,2.8,1
	c2.4,0.8,8.7,3.7,7.9,13.4c0,0-1.5,10.2,0.8,13.4l17,48.6l-16.1,13.8l-0.9-4.1c0,0-10.5-48.6-13.5-58.1c0,0-6-3.9-5.6-10.9"/>
<path class="st6" d="M552.7,295.1c-6.8-6.2-24.8-35.9-31.9-47.7c-1.3-2.2-3-4.1-5.1-5.6c-1.8-1.2-3.2-3.7,2.3-8.2
	c0,0,15.1-14.4,18.3-8.5c0,0,6.6,17.2,14.7,22.5c0,0,19.5,14.7,25.3,16.5"/>
<path class="st6" d="M554.7,368.2c0,0-3-4.2-3-13.5c0-5.5-0.3-11.1-1.1-16.6c-1.8-12.3-3.3-34.1,4.5-48.4c0.6-1.1,1.1-2.2,1.7-3.3
	c3.1-6.8,14.8-29.5,27.4-20.2c0,0,36.8,8.1,46.7,13l50.3,5.6c0,0,1.8,18-4.6,23.9c0,0-3.7,1.8-8.3-1.2l-40.5,11.3
	c0,0-10.2,20.7-10.1,36.5c0.1,3.8-0.1,7.5-0.6,11.3c-0.8,5.3-2,11.7-3.7,13.1C613.3,379.6,578,390.3,554.7,368.2z"/>
<path class="st0" d="M607.9,259.4c0,0-10.7-4.6-11.8-33.9c0,0-13.4-0.9-16.9-11c0,0-6,7.4-11.6,9.1c0,0-3.9,37.5,18.1,40.3
	l-1.7,10.1c-0.2,1.3-0.6,2.5-1.1,3.8c-2.2,5.3-8.1,21.4-4.1,31.1c0,0,20.5-7.9,25.8-20.9c0.4-1,0.7-2,0.8-3.1
	C606.2,280.7,608.2,267.3,607.9,259.4z"/>
<path class="st1" d="M554.7,368.2c0,0-20.2,24.2-17.2,45.1c0,0,7.9,137.4,19.3,184.3c0,0,6.4,9.8,21.9,0c0,0-5.3-172,1.5-164.8
	c0,0,3.8-4.9,5.3,14c0,0,28,145.9,30.2,153.5c0,0,15.9,7.9,22.7-4.9l-13.6-166.8c0,0,0-16.5-3.8-25.2l-7.7-23.8
	C613.3,379.6,579.3,390.1,554.7,368.2z"/>
<path class="st6" d="M537.6,640.8c-0.6,1.9-0.1,4.4,7.1,4.7c0,0,8.4,1.5,14.5-1.4c0,0,8.1-5.6,11.3-3.1v4h6.8c0,0,4.2-12.8-0.1-17.6
	c-5.5,4.2-12.1,6.9-19,7.5c0,0-9.1,2-8.4-2.9l-10.2,6.2C538.8,638.8,538,639.7,537.6,640.8z"/>
<path class="st6" d="M625,644.7h5.9c0,0-2-4.5,2-4.3c1.2,0.1,2.4,0.6,3.3,1.4c3,2.6,6.7,4,10.7,4c0,0,15.9,2.2,17.4-4.2
	c0,0,2.3-3.4-15-10.6c0,0,4.1,5.3-4.5,4c0,0-13.1-1.5-20.4-7.2c-0.3-0.3-0.8-0.2-1.1,0.1c0,0,0,0-0.1,0.1
	C622,630,619.6,635.6,625,644.7z"/>
<path class="st7" d="M585.8,264l-0.4,2.5c0,0,7.6-0.1,12-2.5C597.4,264,588.3,265.6,585.8,264z"/>
</svg>
