<?xml version="1.0" encoding="utf-8"?>
<!-- Generator: Adobe Illustrator 25.1.0, SVG Export Plug-In . SVG Version: 6.00 Build 0)  -->
<svg version="1.1" id="Layer_1" xmlns="http://www.w3.org/2000/svg" xmlns:xlink="http://www.w3.org/1999/xlink" x="0px" y="0px"
	 viewBox="0 0 2475 1650" style="enable-background:new 0 0 2475 1650;" xml:space="preserve">
<style type="text/css">
	.st0{fill:#FFFFFF;}
	.st1{fill:url(#SVGID_1_);}
	.st2{fill:#BDD0FB;}
	.st3{fill:url(#SVGID_2_);}
	.st4{fill:#91B3FA;}
	.st5{fill:url(#SVGID_3_);}
	.st6{fill:url(#SVGID_4_);}
	.st7{fill:url(#SVGID_5_);}
	.st8{fill:url(#SVGID_6_);}
	.st9{opacity:0.7;fill:#FFFFFF;enable-background:new    ;}
	.st10{fill:url(#SVGID_7_);}
	.st11{fill:url(#SVGID_8_);}
	.st12{fill:url(#SVGID_9_);}
	.st13{fill:#7D97F4;}
	.st14{fill:url(#SVGID_10_);}
	.st15{fill:url(#SVGID_11_);}
	.st16{fill:url(#SVGID_12_);}
	.st17{fill:url(#SVGID_13_);}
	.st18{fill:url(#SVGID_14_);}
	.st19{fill:url(#SVGID_15_);}
	.st20{fill:url(#SVGID_16_);}
	.st21{fill:url(#SVGID_17_);}
	.st22{fill:url(#SVGID_18_);}
	.st23{fill:url(#SVGID_19_);}
	.st24{fill:url(#SVGID_20_);}
	.st25{fill:url(#SVGID_21_);}
	.st26{fill:url(#SVGID_22_);}
	.st27{fill:url(#SVGID_23_);}
	.st28{fill:url(#SVGID_24_);}
	.st29{fill:url(#SVGID_25_);}
	.st30{fill:url(#SVGID_26_);}
	.st31{fill:url(#SVGID_27_);}
	.st32{fill:url(#SVGID_28_);}
	.st33{fill:url(#SVGID_29_);}
	.st34{fill:url(#SVGID_30_);}
	.st35{fill:url(#SVGID_31_);}
	.st36{fill:url(#SVGID_32_);}
	.st37{fill:url(#SVGID_33_);}
	.st38{fill:url(#SVGID_34_);}
	.st39{fill:url(#SVGID_35_);}
	.st40{fill:url(#SVGID_36_);}
	.st41{fill:url(#SVGID_37_);}
	.st42{fill:url(#SVGID_38_);}
	.st43{fill:url(#SVGID_39_);}
	.st44{fill:url(#SVGID_40_);}
	.st45{fill:url(#SVGID_41_);}
	.st46{fill:url(#SVGID_42_);}
	.st47{fill:url(#SVGID_43_);}
	.st48{fill:url(#SVGID_44_);}
	.st49{fill:url(#SVGID_45_);}
	.st50{fill:url(#SVGID_46_);}
	.st51{fill:url(#SVGID_47_);}
	.st52{fill:url(#SVGID_48_);}
	.st53{fill:url(#SVGID_49_);}
	.st54{fill:url(#SVGID_50_);}
	.st55{fill:url(#SVGID_51_);}
	.st56{fill:url(#SVGID_52_);}
	.st57{fill:url(#SVGID_53_);}
	.st58{fill:url(#SVGID_54_);}
	.st59{fill:url(#SVGID_55_);}
	.st60{fill:url(#SVGID_56_);}
	.st61{fill:url(#SVGID_57_);}
	.st62{fill:url(#SVGID_58_);}
	.st63{fill:url(#SVGID_59_);}
	.st64{fill:url(#SVGID_60_);}
	.st65{fill:url(#SVGID_61_);}
	.st66{fill:url(#SVGID_62_);}
	.st67{fill:url(#SVGID_63_);}
	.st68{fill:url(#SVGID_64_);}
	.st69{fill:url(#SVGID_65_);}
	.st70{fill:url(#SVGID_66_);}
	.st71{fill:url(#SVGID_67_);}
	.st72{fill:url(#SVGID_68_);}
	.st73{fill:url(#SVGID_69_);}
	.st74{fill:url(#SVGID_70_);}
	.st75{fill:url(#SVGID_71_);}
	.st76{fill:url(#SVGID_72_);}
	.st77{fill:url(#SVGID_73_);}
	.st78{fill:url(#SVGID_74_);}
	.st79{fill:url(#SVGID_75_);}
	.st80{fill:url(#SVGID_76_);}
	.st81{fill:url(#SVGID_77_);}
	.st82{fill:url(#SVGID_78_);}
	.st83{fill:none;}
</style>
<g id="Background">
	<rect class="st0" width="2475" height="1650"/>
</g>
<g id="Illustration">
	<g>
		
			<linearGradient id="SVGID_1_" gradientUnits="userSpaceOnUse" x1="209.4373" y1="-82.0674" x2="2412.5383" y2="1517.8036" gradientTransform="matrix(0.9992 -3.950000e-02 -3.800000e-02 -0.9617 -78.0266 1743.7843)">
			<stop  offset="0" style="stop-color:#DAE3FE"/>
			<stop  offset="1" style="stop-color:#E9EFFD"/>
		</linearGradient>
		<path class="st1" d="M2274.9,725.1c-58.8-81.8-178.1-122.2-186.1-247.9c-3.1-47.6,28.6-87.2,11.9-133.4
			c-112.6-309.5-577.8-76-779.7-1.6c-84.1,31-184.8,65.7-276.5,65.3c-105.6-0.5-205.7-50.9-310.5-57c-32.3-1.9-62.2,2-90,10.9
			c-104.1,33.4-192.8,147-223,270.5c-24.5,100.1,15.6,196.4-25.1,295c-43.4,105.2-134.1,180.6-153,300.8
			c-22.6,144.3,90.3,264.5,206.6,263.8c74-0.4,210.5-18.7,271.3-70.6c74.1-63.2,149-70.2,238.2-71.4c169.8-2.3,341,32.4,509.5,55.3
			c144.4,19.6,287.3,51.4,432.8,50.4c106.9-0.7,197.6-2.7,250.4-130.8C2214.9,1171.3,2398.1,896.7,2274.9,725.1z"/>
		<g>
			<path class="st2" d="M2000.2,1482.9c80,15.4,316.3,25,403.5-367.2c2.5-11.1-11.4-18.3-19-9.9c-35.8,39.6-99.6,107-153.8,127.7
				c-167.8,64.2-228.6,167.6-248.6,215.9C1976.3,1463.8,1985,1480,2000.2,1482.9z"/>
			
				<linearGradient id="SVGID_2_" gradientUnits="userSpaceOnUse" x1="1988.0305" y1="305.9149" x2="2337.5999" y2="305.9149" gradientTransform="matrix(1 0 0 -1 0 1650)">
				<stop  offset="0" style="stop-color:#DAE3FE"/>
				<stop  offset="1" style="stop-color:#E9EFFD"/>
			</linearGradient>
			<path class="st3" d="M1992.5,1472.9c-1.9,0-3.7-1.3-4.3-3.2c-0.7-2.4,0.7-4.9,3.1-5.6c116.8-34,202.5-99.3,253.9-148.1
				c55.6-52.9,83.9-98.2,84.2-98.6c1.3-2.1,4.1-2.8,6.2-1.4c2.1,1.3,2.8,4.1,1.4,6.2c-0.3,0.5-29.2,46.7-85.6,100.4
				c-52.1,49.5-139,115.8-257.6,150.2C1993.3,1472.8,1992.9,1472.9,1992.5,1472.9z"/>
		</g>
		<g>
			<path class="st4" d="M2182.8,814.6c9.1,73.2,54.6,524.8-185.5,668.8c-7.3,4.4-16.6-0.5-17.2-8.9c-3.9-53.8-6.3-224.8,92.4-426.7
				c71.3-145.6,97.4-211.3,105.6-233.7C2179,811.7,2182.5,812,2182.8,814.6z"/>
			<path class="st2" d="M1980.1,1478.9c-0.7,0-1.4-0.2-2.1-0.5c-2.2-1.2-3-3.9-1.8-6.1c121.1-222.6,171.9-486.2,172-499.2
				c-0.3-2.1,1-4.2,3.1-4.9c2.4-0.7,4.9,0.6,5.6,2.9c2.9,9.4-52.3,283.8-172.9,505.5C1983.2,1478.1,1981.7,1478.9,1980.1,1478.9z"/>
		</g>
		<g>
			<g>
				<path class="st2" d="M558.8,1068.1c0,0,75.1-121.6,37.7-187.8C559,814,463.1,730.1,562.8,550.7c58.3-105,82.3-151.9,92.2-172.6
					c3.8-8.1,14.3-10.3,21.1-4.4c47.9,41.6,198.2,185.6,165,326.4C801.6,866.8,558.8,1068.1,558.8,1068.1z"/>
				
					<linearGradient id="SVGID_3_" gradientUnits="userSpaceOnUse" x1="584.5311" y1="909.5983" x2="720.9935" y2="909.5983" gradientTransform="matrix(1 0 0 -1 0 1650)">
					<stop  offset="0" style="stop-color:#DAE3FE"/>
					<stop  offset="1" style="stop-color:#E9EFFD"/>
				</linearGradient>
				<path class="st5" d="M688.9,447.2c0,0,0.8,2.3,2.1,6.6c1.3,4.3,3.2,10.7,5.3,18.9c2.1,8.2,4.5,18.1,6.9,29.6
					c1.2,5.8,2.5,11.9,3.7,18.4c0.6,3.2,1.2,6.6,1.8,10c0.5,3.4,1.1,6.9,1.7,10.5s1.2,7.2,1.7,10.9c0.5,3.7,1,7.5,1.5,11.4
					c0.5,3.9,1,7.8,1.5,11.8c0.4,4,0.8,8.1,1.3,12.2c0.4,4.1,0.9,8.3,1.3,12.5c0.3,4.2,0.7,8.5,1,12.9c0.3,4.3,0.7,8.7,0.9,13.2
					c0.2,4.5,0.4,8.9,0.6,13.5c0.2,4.5,0.4,9.1,0.5,13.7c0.1,4.6,0.1,9.2,0.2,13.9c0,4.7,0.1,9.4,0.1,14.1
					c-0.1,4.7-0.2,9.5-0.4,14.2c-0.1,4.8-0.2,9.5-0.4,14.3c-0.3,4.8-0.6,9.6-0.9,14.4s-0.6,9.6-0.9,14.5l-0.1,1.8l-0.1,1l-0.1,0.9
					l-0.4,3.6l-0.7,7.2c-2.2,19.5-5.7,38.7-10.2,57.4c-4.5,18.6-10.2,36.7-16.4,53.8c-6.2,17.2-13.2,33.3-20.3,48.4
					c-7.1,15.1-14.6,29-21.8,41.6c-7.2,12.6-14.4,23.8-21,33.7c-6.6,9.8-12.6,18.2-17.7,24.9c-5.1,6.8-9.3,11.9-12.2,15.5
					c-1.5,1.8-2.6,3.1-3.4,4c-0.8,0.9-1.2,1.4-1.2,1.4c-1.8,2-4.8,2.2-6.8,0.4c-1.9-1.7-2.2-4.6-0.6-6.6l0.1-0.1c0,0,0.3-0.4,1-1.3
					c0.7-0.9,1.7-2.2,3-4c2.7-3.5,6.5-8.8,11.2-15.7c4.7-6.8,10.3-15.2,16.4-25.1c6.1-9.8,12.6-21.2,19.4-33.7
					c6.8-12.5,13.7-26.3,20.4-41.1c6.8-14.8,13.2-30.8,19.1-47.5c5.9-16.7,11.2-34.3,15.5-52.3c4.4-18.1,7.8-36.6,9.9-55.3l0.7-7.2
					l0.4-3.6l0.2-1.7l0.1-1.8c0.3-4.7,0.7-9.5,1-14.2c0.3-4.7,0.7-9.4,1-14.1c0.2-4.7,0.3-9.4,0.5-14.1c0.2-4.7,0.3-9.3,0.5-14
					c0-4.6,0.1-9.3,0.1-13.8c0-4.6,0.1-9.2,0.1-13.7c0-4.5-0.2-9-0.2-13.5c-0.1-4.5-0.2-8.9-0.3-13.3c-0.1-4.4-0.4-8.7-0.6-13
					c-0.2-4.3-0.4-8.5-0.6-12.7c-0.2-4.2-0.6-8.3-0.8-12.4c-0.3-4.1-0.6-8.1-0.9-12.1c-0.4-4-0.8-7.9-1.1-11.7
					c-0.3-3.8-0.7-7.6-1-11.3c-0.4-3.7-0.8-7.3-1.3-10.9c-0.4-3.5-0.8-7-1.2-10.4c-0.5-3.4-0.9-6.7-1.4-9.9
					c-0.8-6.5-1.8-12.6-2.6-18.3c-1.8-11.5-3.6-21.5-5.2-29.7c-1.6-8.2-3-14.6-4-19c-1-4.3-1.6-6.6-1.6-6.6c-0.4-1.5,0.5-3,2-3.3
					C687,445.1,688.5,445.9,688.9,447.2L688.9,447.2z"/>
			</g>
			<g>
				<path class="st4" d="M593,1276.5c9.3,7.1-70.9-150.2-61.3-369.7c4.5-103.5,29.8-229-17.4-289c-39.3-49.9-206.2-57.4-261-58.5
					c-6.9-0.1-10.8,7.8-6.5,13.1c21,26.5,65.1,87.8,68.9,141.3c5.1,70.5,59.9,125.9,114.4,149s83.8,40.6,93,137.1
					C532.2,1096.2,566.7,1256.2,593,1276.5z"/>
				<path class="st2" d="M321.9,602.6c0,0,1.6,0.3,4.6,1.1c3,0.8,7.3,2,12.7,3.8c5.4,1.8,12,4.1,19.3,7.2
					c7.4,3.1,15.6,6.8,24.2,11.5c8.6,4.7,17.8,10.2,27,16.7c9.2,6.5,18.6,14,27.4,22.7c8.8,8.7,17.2,18.5,24.5,29.3
					c7.3,10.8,13.6,22.6,18.4,35l1.8,4.7c0.6,1.5,1.2,3.1,1.6,4.7c1,3.2,2,6.3,2.9,9.5c1.7,6.2,3.3,12.5,4.9,18.6
					c1.6,6.2,3.2,12.3,4.7,18.4c1.5,6.1,2.9,12.1,4.3,18c2.8,11.8,5.4,23.3,7.7,34.2c2.3,10.9,4.4,21.2,6.2,30.8
					c0.9,4.8,1.7,9.4,2.5,13.7c0.7,4.4,1.4,8.5,2.1,12.4c1.3,7.8,2.3,14.6,3.1,20.3c0.8,5.6,1.4,10.1,1.7,13.1
					c0.3,3,0.5,4.7,0.5,4.7c0.1,1-0.6,2-1.7,2.1c-1,0.1-1.9-0.6-2.1-1.5l0,0c0,0-0.3-1.6-0.8-4.5c-0.6-3-1.5-7.3-2.5-12.9
					c-2.2-11.1-5.7-26.9-9.9-45.8c-2.2-9.4-4.6-19.7-7.1-30.5c-2.6-10.8-5.5-22.2-8.3-33.9c-3-11.7-6.2-23.8-9.4-36.2
					c-1.7-6.2-3.3-12.4-5-18.6c-0.9-3-1.8-6-2.7-9c-0.4-1.5-0.9-3-1.5-4.5l-1.6-4.4c-9-23.6-23.6-44.8-40.2-61.8
					c-8.3-8.5-17-16.1-25.8-22.7c-8.8-6.6-17.5-12.3-25.8-17.1c-8.3-4.8-16.1-8.9-23.2-12.3c-7.1-3.4-13.4-6-18.6-8
					c-5.2-2-9.4-3.5-12.3-4.5c-2.9-1-4.4-1.4-4.4-1.4c-0.8-0.2-1.3-1.1-1-1.9C320.4,602.8,321.2,602.4,321.9,602.6L321.9,602.6z"/>
			</g>
			<g>
				<path class="st2" d="M587.8,1272.5c6.7,3.1-40.2-68.5-46.9-133.3c-6.7-64.8-27.3-175.1-86.9-238.5s-121.3-66.2-195.5-1.8
					c-61.8,53.7-100.7,81.2-124,87.2c-5.8,1.5-8.4,8.2-5.3,13.3c16.6,27.1,62.8,88.8,134.4,80.5c91.3-10.6,199.2-76.1,235.6-28.2
					c36.5,47.9,33.6,75.9,35.9,99.4C537.4,1174.7,543.9,1252.2,587.8,1272.5z"/>
				
					<linearGradient id="SVGID_4_" gradientUnits="userSpaceOnUse" x1="288.3034" y1="651.737" x2="528.4204" y2="651.737" gradientTransform="matrix(1 0 0 -1 0 1650)">
					<stop  offset="0" style="stop-color:#DAE3FE"/>
					<stop  offset="1" style="stop-color:#E9EFFD"/>
				</linearGradient>
				<path class="st6" d="M288.8,977.3c0,0,0.9-1,2.6-2.7c1.7-1.8,4.3-4.3,7.6-7.3c6.8-6.1,16.8-14.5,30.2-22.9
					c6.7-4.2,14.2-8.3,22.6-12c8.4-3.6,17.6-6.7,27.7-8.4c2.5-0.5,5.1-0.7,7.6-1c1.3-0.1,2.6-0.1,3.9-0.2c1.3-0.1,2.6-0.1,3.9,0
					c1.3,0,2.6,0.1,4,0.1l4,0.4c1.3,0.1,2.7,0.3,4,0.6c1.4,0.3,2.6,0.4,4.1,0.8c9.7,2.2,20.4,5.7,30,10c9.7,4.6,18.8,10.5,26.9,17.2
					c1.9,1.8,3.9,3.5,5.8,5.3c0.9,0.9,2,1.7,2.8,2.7l2.6,2.9c1.7,1.9,3.5,3.8,5.1,5.7c1.5,2,3.1,4,4.6,6c0.8,1,1.5,2,2.2,3
					c0.7,1,1.3,2.1,2,3.1c1.3,2,2.6,4.1,4,6.1c2.5,4.1,4.6,8.2,6.8,12.1c1.9,4.1,3.8,8.1,5.6,11.9c1.6,3.9,3.1,7.7,4.6,11.4
					c0.8,1.8,1.4,3.6,2,5.4c0.6,1.8,1.2,3.5,1.7,5.2c1.1,3.4,2.3,6.6,3.1,9.6c0.8,3.1,1.6,5.9,2.4,8.6c0.8,2.6,1.4,5.1,1.9,7.3
					c2,8.9,3.1,13.9,3.1,13.9c0.2,0.9-0.4,1.8-1.3,2c-0.9,0.2-1.7-0.3-2-1.1l0-0.1c0,0-1.5-4.9-4.1-13.5c-1.2-4.3-3.2-9.4-5.2-15.3
					c-0.9-3-2.2-6-3.5-9.3c-1.3-3.2-2.5-6.7-4.1-10.2c-1.6-3.5-3.1-7.2-4.9-10.9c-1.9-3.6-3.9-7.4-5.9-11.3
					c-2.3-3.7-4.5-7.6-6.9-11.4c-1.3-1.9-2.6-3.8-3.9-5.7c-0.7-1-1.3-1.9-2-2.9c-0.7-0.9-1.5-1.8-2.2-2.7c-1.5-1.8-3-3.7-4.5-5.5
					c-1.6-1.8-3.3-3.5-4.9-5.2l-2.5-2.6c-0.8-0.9-1.8-1.6-2.7-2.4c-1.8-1.6-3.6-3.2-5.5-4.8c-7.7-6-16.2-11.3-25.1-15.5
					c-9.2-4-18.2-7-28.4-9.2c-4.4-0.9-9.2-1.7-13.9-1.6c-1.2-0.1-2.3,0-3.5,0c-1.2,0-2.3,0.1-3.5,0.2c-2.3,0.3-4.6,0.4-6.9,0.8
					c-9.1,1.3-17.8,3.9-25.8,7.1c-8,3.1-15.4,6.8-22,10.5c-6.7,3.7-12.6,7.4-17.8,10.9c-5.2,3.4-9.6,6.7-13.1,9.3
					c-3.6,2.7-6.3,4.9-8.2,6.4c-1.8,1.5-2.8,2.3-2.8,2.3l-0.1,0c-0.7,0.6-1.8,0.5-2.5-0.2C288.1,979,288.2,978,288.8,977.3z"/>
			</g>
		</g>
		<g>
			<g>
				<g>
					<path class="st2" d="M1445.7,592.2l3-2.4c0.1-0.1,0.2-0.2,0.5-0.4c0.9-0.7,2.7-2,5.1-4c0.7-0.5,1.6-0.5,2.2,0.2
						c0.6,0.7,0.5,1.6-0.2,2.2c-1,0.9-1.9,1.6-2.7,2.2c0.4,0.3,0.7,0.8,0.6,1.3c-0.1,0.8-0.8,1.5-1.6,1.5c-1.9-0.1-3-0.2-3-0.2
						L1445.7,592.2z M1461.2,592c0-0.1-0.1-0.3-0.1-0.4c0-0.8,0.7-1.5,1.6-1.5c3.3,0,6.7,0,10.1,0c0.8,0,1.6,0.7,1.6,1.5
						c0,0.8-0.7,1.6-1.5,1.6c-3.4,0.1-6.8,0.1-10.2,0C1461.9,593.1,1461.4,592.6,1461.2,592z M1461.1,580c-0.1-0.5,0-1.1,0.4-1.5
						c2.4-2.4,4.6-4.9,6.6-7.5c0.5-0.7,1.5-0.8,2.2-0.2c0.7,0.5,0.8,1.5,0.2,2.2c-2.1,2.6-4.4,5.2-6.8,7.7c-0.6,0.6-1.6,0.6-2.2,0
						C1461.3,580.5,1461.2,580.3,1461.1,580z M1473.7,564.2c-0.1-0.4-0.1-0.8,0.2-1.2c1.8-2.9,3.3-5.9,4.5-8.8
						c0.3-0.8,1.2-1.2,2-0.8c0.8,0.3,1.2,1.2,0.8,2c-1.3,3.1-2.9,6.2-4.7,9.2c-0.4,0.7-1.4,1-2.1,0.5
						C1474,564.9,1473.8,564.6,1473.7,564.2z M1481.4,591.5c0-0.1,0-0.2-0.1-0.3c-0.1-0.8,0.6-1.6,1.4-1.6c3.3-0.2,6.7-0.5,10-0.8
						c0.8-0.1,1.6,0.5,1.7,1.4c0.1,0.8-0.5,1.6-1.4,1.7c-3.3,0.3-6.8,0.6-10.1,0.8C1482.2,592.7,1481.6,592.2,1481.4,591.5z
						 M1481.3,545.6c-0.1-0.2-0.1-0.5,0-0.7c0.5-2.3,0.8-4.6,0.9-6.9c0.1-1,0.1-2,0.2-3c0.1-0.8,0.8-1.5,1.7-1.4
						c0.8,0.1,1.5,0.8,1.4,1.7c-0.1,0.9-0.1,1.9-0.2,2.8c-0.1,2.4-0.4,4.9-0.9,7.4c-0.2,0.8-1,1.4-1.8,1.2
						C1481.9,546.6,1481.4,546.1,1481.3,545.6z M1473.6,507.9l-0.8-3c2.1-0.7,3.6-2.1,5.1-4.7c0.4-0.7,1.4-1,2.1-0.6
						c0.7,0.4,1,1.4,0.6,2.1c-1.2,2-2.4,3.5-3.9,4.6c-0.1,0.6-0.6,1.2-1.3,1.3L1473.6,507.9z M1484,525.6c-0.1-0.2-0.1-0.5,0-0.8
						c0.9-3.7,2.2-6.9,3.8-9.8c0.4-0.7,1.4-1,2.1-0.6c0.7,0.4,1,1.4,0.6,2.1c-1.5,2.6-2.6,5.6-3.5,9c-0.2,0.8-1.1,1.3-1.9,1.1
						C1484.6,526.5,1484.1,526.1,1484,525.6z M1501.5,589.5c0-0.1,0-0.1,0-0.2c-0.1-0.8,0.5-1.6,1.3-1.7c3.3-0.5,6.7-1,9.9-1.5
						c0.8-0.2,1.6,0.4,1.8,1.2s-0.4,1.6-1.2,1.8c-3.3,0.6-6.7,1.1-10.1,1.6C1502.5,590.8,1501.7,590.3,1501.5,589.5z M1483.7,505
						c0-0.1,0-0.1,0-0.2c-0.1-0.9,0.5-1.6,1.3-1.7c3.9-0.5,7.3-1,10.1-1.3c0.8-0.1,1.6,0.5,1.7,1.4c0.1,0.9-0.5,1.6-1.4,1.7
						c-2.8,0.3-6.1,0.7-10,1.3C1484.6,506.2,1483.9,505.7,1483.7,505z M1481.9,492.1c-0.1-0.3-0.1-0.7,0.1-1
						c1.2-2.8,2.5-5.9,4.3-9.3c0.4-0.8,1.3-1.1,2.1-0.7c0.8,0.4,1.1,1.3,0.7,2.1c-1.7,3.3-3,6.3-4.2,9.1c-0.3,0.8-1.2,1.2-2,0.8
						C1482.3,492.9,1482,492.5,1481.9,492.1z M1494.1,508.5c-0.2-0.6,0-1.2,0.5-1.6c3-2.3,5.8-3.5,7.5-4.1c0.5-0.2,1-0.4,1.3-0.5
						c0.7-0.5,1.8-0.4,2.2,0.4c0.5,0.7,0.4,1.6-0.3,2.1c-0.1,0.1-0.3,0.2-0.5,0.3c-0.4,0.2-0.9,0.4-1.6,0.7
						c-1.7,0.7-4.2,1.7-6.8,3.7c-0.7,0.5-1.6,0.4-2.2-0.3C1494.2,508.9,1494.2,508.7,1494.1,508.5z M1521.4,586
						C1521.4,586,1521.4,586,1521.4,586c-0.2-0.9,0.3-1.7,1.2-1.9c2.9-0.7,5.8-1.4,8.6-2.2l1.1-0.3c0.8-0.2,1.7,0.2,1.9,1.1v0
						c0.2,0.8-0.3,1.7-1.1,1.9l-1.1,0.3c-2.8,0.8-5.8,1.5-8.8,2.2C1522.5,587.3,1521.7,586.8,1521.4,586z M1491.2,474.2
						c-0.1-0.4-0.1-0.9,0.2-1.3c1.8-2.8,3.9-5.5,6.1-8.2c0.5-0.7,1.5-0.8,2.2-0.2s0.8,1.5,0.2,2.2c-2.2,2.6-4.1,5.3-5.9,8
						c-0.5,0.7-1.4,0.9-2.1,0.4C1491.5,474.9,1491.3,474.5,1491.2,474.2z M1504,458.6c-0.1-0.5,0-1.1,0.4-1.5c0.5-0.5,1-1,1.6-1.6
						c1.9-1.9,4-3.7,6.1-5.3c0.7-0.5,1.6-0.4,2.2,0.3c0.5,0.7,0.4,1.6-0.3,2.2c-2,1.6-4,3.3-5.8,5.1c-0.5,0.5-1,1-1.5,1.5
						c-0.6,0.6-1.6,0.6-2.2,0C1504.2,459.1,1504.1,458.9,1504,458.6z M1540.9,580.5c-0.2-0.8,0.2-1.6,1-1.9c3.2-1.1,6.4-2.3,9.4-3.5
						c0.8-0.3,1.7,0,2,0.8c0.3,0.8-0.1,1.7-0.8,2c-3.1,1.3-6.3,2.5-9.6,3.6C1542.1,581.9,1541.2,581.4,1540.9,580.5
						C1540.9,580.6,1540.9,580.6,1540.9,580.5z M1519.9,446.2c-0.2-0.7,0.1-1.4,0.7-1.8c3-1.7,6.1-3.1,9.4-4.4
						c0.8-0.3,1.7,0.1,2,0.9c0.3,0.8-0.1,1.7-0.9,2c-3.1,1.2-6.1,2.6-8.9,4.2c-0.7,0.4-1.7,0.1-2.1-0.6
						C1520,446.5,1519.9,446.4,1519.9,446.2z M1559.6,572.8c-0.2-0.7,0.1-1.5,0.8-1.8c3-1.5,6-3.1,8.8-4.8c0.7-0.4,1.7-0.2,2.1,0.5
						c0.4,0.7,0.2,1.7-0.5,2.1c-2.9,1.7-5.9,3.3-9,4.9c-0.8,0.4-1.7,0.1-2.1-0.7C1559.7,573,1559.6,572.9,1559.6,572.8z
						 M1538.7,439.1C1538.7,439.1,1538.7,439.1,1538.7,439.1c-0.2-0.9,0.3-1.7,1.2-1.9c3.3-0.7,6.8-1.2,10.2-1.5
						c0.8-0.1,1.6,0.6,1.7,1.4c0.1,0.9-0.6,1.6-1.4,1.7c-3.3,0.2-6.6,0.7-9.8,1.4C1539.8,440.4,1538.9,439.9,1538.7,439.1z
						 M1576.9,562.5c-0.2-0.6,0.1-1.3,0.6-1.7c2.7-2,5.3-4,7.8-6.2c0.6-0.6,1.6-0.5,2.2,0.2c0.6,0.6,0.5,1.6-0.2,2.2
						c-2.5,2.2-5.2,4.3-8,6.4c-0.7,0.5-1.7,0.3-2.2-0.3C1577.1,562.8,1577,562.7,1576.9,562.5z M1558.8,437.6c0-0.2-0.1-0.3-0.1-0.5
						c0.1-0.9,0.8-1.5,1.6-1.5c2.3,0.1,8.6,0.8,10.6,1.8l0,0l3.9,2c0.8,0.4,1.1,1.3,0.6,2.1c-0.4,0.8-1.3,1-2.1,0.6l-4-2.1
						c-0.7-0.3-4.1-1.1-9.2-1.4C1559.6,438.7,1559,438.2,1558.8,437.6z M1592.1,549.2c-0.1-0.5,0-1,0.4-1.5c2.3-2.4,4.4-5,6.4-7.6
						c0.5-0.7,1.5-0.8,2.2-0.3s0.8,1.5,0.3,2.2c-2,2.7-4.2,5.4-6.6,7.9c-0.6,0.6-1.6,0.7-2.2,0.1
						C1592.3,549.7,1592.2,549.5,1592.1,549.2z M1604.2,533c-0.1-0.4-0.1-0.8,0.2-1.2c1.7-2.8,3.2-5.8,4.6-8.8
						c0.3-0.8,1.3-1.1,2-0.8s1.1,1.3,0.8,2c-1.4,3.1-3,6.2-4.7,9.1c-0.4,0.7-1.4,1-2.1,0.5C1604.5,533.7,1604.3,533.4,1604.2,533z
						 M1581.6,446c-0.1-0.4-0.1-0.8,0.1-1.1c0.4-0.8,1.3-1,2.1-0.6l8.9,4.7c0.8,0.4,1.1,1.3,0.6,2.1c-0.4,0.8-1.3,1-2.1,0.6
						l-8.9-4.7C1582,446.7,1581.7,446.4,1581.6,446z M1612.4,514.7c-0.1-0.3-0.1-0.6,0-0.9c1-3.1,1.9-6.3,2.7-9.6
						c0.2-0.8,1-1.4,1.8-1.2c0.8,0.2,1.3,1,1.2,1.9c-0.8,3.4-1.7,6.7-2.7,9.9c-0.3,0.8-1.1,1.2-1.9,1
						C1612.9,515.5,1612.6,515.1,1612.4,514.7z M1599.5,455.4c-0.1-0.4-0.1-0.8,0.1-1.1c0.4-0.8,1.3-1,2.1-0.6l8.9,4.7
						c0.8,0.4,1,1.3,0.6,2.1c-0.4,0.8-1.3,1-2.1,0.6l-8.9-4.7C1599.8,456.2,1599.6,455.8,1599.5,455.4z M1616.9,495
						c-0.1-0.2-0.1-0.4,0-0.6c0.4-3.2,0.7-6.5,0.9-9.9c0.1-0.9,0.8-1.5,1.6-1.5c0.8,0,1.5,0.8,1.5,1.6c-0.2,3.5-0.5,6.9-0.9,10.2
						c-0.1,0.9-0.9,1.4-1.7,1.3C1617.6,496,1617.1,495.6,1616.9,495z M1618,474.8c0-0.1-0.1-0.2-0.1-0.4c-0.1-3-0.2-6-0.4-9.1
						c-0.3-0.5-0.4-1.1-0.1-1.6c0.4-0.8,1.3-1,2.1-0.6l1,0.5l0.1,0.9c0.3,3.4,0.4,6.7,0.5,9.9c0,0.9-0.7,1.5-1.5,1.6
						C1618.8,476,1618.2,475.5,1618,474.8z"/>
				</g>
				
					<linearGradient id="SVGID_5_" gradientUnits="userSpaceOnUse" x1="1289.2222" y1="3414.8389" x2="1302.0696" y2="3541.4778" gradientTransform="matrix(0.8155 0.5787 0.5787 -0.8155 -1522.3367 2595.6003)">
					<stop  offset="0" style="stop-color:#FE7062"/>
					<stop  offset="1" style="stop-color:#FF928E"/>
				</linearGradient>
				<path class="st7" d="M1588.8,451.4c0,0-44.3-6.7-52.7,25.3c-8.4,32-9,66.3-22.4,74.2c0,0,87.5-3.6,88.2-90.6L1588.8,451.4z"/>
				
					<linearGradient id="SVGID_6_" gradientUnits="userSpaceOnUse" x1="1179.6848" y1="3487.5149" x2="1228.3217" y2="3586.624" gradientTransform="matrix(0.8155 0.5787 0.5787 -0.8155 -1522.3367 2595.6003)">
					<stop  offset="0" style="stop-color:#FE7062"/>
					<stop  offset="1" style="stop-color:#FF928E"/>
				</linearGradient>
				<path class="st8" d="M1597.9,357.5c0,0-38.4-21.4-51-13.4c-11.9,7.6-63.2,93-68.2,101.3c-0.2,0.4-0.1,0.8,0.2,1.1l0,0
					c2.9,2.1,6.7,2.6,10.1,1.5c16.5-5.5,65.7-22.4,78.9-32.3C1583.9,403.9,1597.9,357.5,1597.9,357.5z"/>
				<path class="st9" d="M1502,418.3c-0.1-0.3,0-0.5,0.1-0.8c0.3-0.5,29.2-46.8,42.4-66.2c2.3-3.5,6.5-5.2,10.6-4.5
					c7.9,1.4,19.7,4.1,30.7,8.8c0.5,0.2,0.8,0.8,0.5,1.3c-0.2,0.5-0.8,0.8-1.3,0.5c-11.5-4.8-23.9-7.5-30.3-8.6
					c-3.3-0.6-6.7,0.8-8.6,3.6c-13.2,19.4-42,65.6-42.3,66.1c-0.3,0.5-0.9,0.6-1.4,0.3C1502.2,418.8,1502.1,418.5,1502,418.3z"/>
				
					<linearGradient id="SVGID_7_" gradientUnits="userSpaceOnUse" x1="1433.8787" y1="3482.8938" x2="1358.171" y2="3610.9084" gradientTransform="matrix(0.8155 0.5787 0.5787 -0.8155 -1522.3367 2595.6003)">
					<stop  offset="0" style="stop-color:#FE7062"/>
					<stop  offset="1" style="stop-color:#FF928E"/>
				</linearGradient>
				<path class="st10" d="M1681.2,416.6c0,0,32.9,29.2,29.5,43.7c-3.3,13.8-66.9,90.4-73.2,97.8c-0.3,0.3-0.8,0.4-1.1,0.1l0,0
					c-2.9-2.1-4.7-5.4-4.8-9c-0.2-17.4-0.5-69.4,4.4-85.1C1642.1,445.1,1681.2,416.6,1681.2,416.6z"/>
				<path class="st9" d="M1654.5,526.5c-0.1-0.3,0-0.6,0.2-0.9c0.3-0.4,34.5-42.9,48.4-61.8c2-2.7,2.2-6.4,0.6-9.3
					c-3.2-5.6-9.8-16.5-18.2-25.8c-0.4-0.4-0.3-1,0.1-1.4c0.4-0.4,1.1-0.3,1.4,0.1c8.4,9.4,15.2,20.4,18.4,26.1
					c2.1,3.6,1.8,8.1-0.7,11.5c-14,18.9-48.2,61.4-48.5,61.8c-0.3,0.4-1,0.5-1.4,0.2C1654.6,526.9,1654.5,526.7,1654.5,526.5z"/>
				
					<linearGradient id="SVGID_8_" gradientUnits="userSpaceOnUse" x1="40.8024" y1="2297.2395" x2="97.4188" y2="1727.0364" gradientTransform="matrix(0.2032 0.9791 0.9791 -0.2032 -536.1548 764.1449)">
					<stop  offset="0" style="stop-color:#09005D"/>
					<stop  offset="1" style="stop-color:#1A0F91"/>
				</linearGradient>
				<path class="st11" d="M1683.9,237.4c-17.2,12.7-34.5,29.2-49.7,50.6c-47.3,66.2-70.6,123-76.8,139.4c-1.1,3-0.5,6.3,1.6,8.7
					c16.2,18.9,35.8,33.1,58.8,42.5c4.3,1.8,9.3,0.9,12.8-2.1c15.4-13.2,59.4-53.2,104.3-116.9c15-21.2,24.8-42.9,31.2-63.2
					C1739.8,263.8,1704.4,246.2,1683.9,237.4z"/>
				
					<linearGradient id="SVGID_9_" gradientUnits="userSpaceOnUse" x1="1338.4436" y1="3842.0588" x2="1235.6638" y2="3693.3955" gradientTransform="matrix(0.8155 0.5787 0.5787 -0.8155 -1522.3367 2595.6003)">
					<stop  offset="0" style="stop-color:#FE7062"/>
					<stop  offset="1" style="stop-color:#FF928E"/>
				</linearGradient>
				<path class="st12" d="M1766.1,296.3c14.1-44.8,11.2-83,9.6-95.7c-0.3-2.5-2.7-4.2-5.1-3.6c-12.5,2.7-49.2,12.6-86.8,40.4
					C1704.4,246.2,1739.8,263.8,1766.1,296.3z"/>
				<g>
					<path class="st13" d="M1721,343c-12.2,17.2-37,20.5-55.5,7.4c-18.4-13.1-23.5-37.6-11.3-54.8c12.2-17.2,37-20.5,55.5-7.4
						C1728.1,301.3,1733.2,325.8,1721,343z"/>
					
						<linearGradient id="SVGID_10_" gradientUnits="userSpaceOnUse" x1="1268.9757" y1="3715.2026" x2="1334.2466" y2="3715.2026" gradientTransform="matrix(0.8155 0.5787 0.5787 -0.8155 -1522.3367 2595.6003)">
						<stop  offset="0" style="stop-color:#09005D"/>
						<stop  offset="1" style="stop-color:#1A0F91"/>
					</linearGradient>
					<path class="st14" d="M1715.7,338c-9.7,13.7-29.5,16.3-44.2,5.9s-18.7-30-9-43.7c9.7-13.7,29.5-16.3,44.2-5.9
						C1721.4,304.7,1725.4,324.3,1715.7,338z"/>
					<path class="st2" d="M1673.8,301.3c-0.1-0.4,0-0.8,0.4-1.1c8.6-6.6,20.9-6.6,30.1-0.1c2.3,1.6,4.3,3.6,6,5.9
						c0.3,0.5,0.2,1.1-0.2,1.4c-0.4,0.3-1.1,0.2-1.4-0.2c-1.5-2.1-3.4-3.9-5.5-5.4c-8.5-6-19.9-6-27.7,0.1c-0.4,0.3-1.1,0.3-1.4-0.2
						C1673.8,301.5,1673.8,301.4,1673.8,301.3z"/>
				</g>
				<g>
					<path class="st13" d="M1665.3,397.5c-8.1,11.4-24.5,13.5-36.7,4.9c-12.2-8.6-15.5-24.9-7.5-36.2c8.1-11.4,24.5-13.5,36.7-4.9
						C1670,369.9,1673.3,386.1,1665.3,397.5z"/>
					
						<linearGradient id="SVGID_11_" gradientUnits="userSpaceOnUse" x1="1279.663" y1="3638.1707" x2="1322.7831" y2="3638.1707" gradientTransform="matrix(0.8155 0.5787 0.5787 -0.8155 -1522.3367 2595.6003)">
						<stop  offset="0" style="stop-color:#09005D"/>
						<stop  offset="1" style="stop-color:#1A0F91"/>
					</linearGradient>
					<path class="st15" d="M1661.8,394.2c-6.4,9-19.5,10.8-29.2,3.9s-12.4-19.8-6-28.9s19.5-10.8,29.2-3.9
						C1665.6,372.2,1668.2,385.1,1661.8,394.2z"/>
					<path class="st2" d="M1633.7,370c-0.1-0.4,0-0.8,0.4-1.1c5.8-4.5,14.1-4.5,20.3-0.1c1.6,1.1,2.9,2.4,4,4
						c0.3,0.4,0.2,1.1-0.2,1.4c-0.4,0.3-1.1,0.2-1.4-0.2c-1-1.3-2.2-2.5-3.6-3.5c-5.5-3.9-12.8-3.9-17.9,0c-0.4,0.3-1.1,0.3-1.4-0.2
						C1633.8,370.2,1633.8,370.1,1633.7,370z"/>
				</g>
			</g>
			<g>
				<path class="st4" d="M2161.5,562.8l1.6,10c0.1,0.8-0.4,1.6-1.2,1.8s-1.5-0.4-1.6-1.3l0,0l-1.5-9.9l0-0.1
					c-0.1-0.8,0.4-1.6,1.2-1.8C2160.6,561.4,2161.3,562,2161.5,562.8L2161.5,562.8z"/>
				<path class="st4" d="M2164.4,582.8l1.2,10c0.1,0.8-0.5,1.6-1.2,1.7c-0.8,0.1-1.5-0.5-1.6-1.3v0l-1.2-10v0
					c-0.1-0.8,0.5-1.6,1.2-1.7C2163.6,581.4,2164.3,582,2164.4,582.8L2164.4,582.8z"/>
				<path class="st4" d="M2166.6,603l0.9,10.1c0.1,0.8-0.5,1.6-1.3,1.7s-1.5-0.5-1.6-1.4v0l-0.9-10v0c-0.1-0.8,0.5-1.6,1.3-1.7
					C2165.8,601.5,2166.5,602.1,2166.6,603L2166.6,603z"/>
				<path class="st4" d="M2168.2,623.1l0.6,10.1c0.1,0.8-0.5,1.6-1.3,1.6s-1.5-0.6-1.5-1.4v0l-0.6-10.1v0c-0.1-0.8,0.5-1.6,1.3-1.6
					C2167.5,621.6,2168.1,622.3,2168.2,623.1L2168.2,623.1z"/>
				<path class="st4" d="M2169.4,643.3l0.4,10.1c0,0.8-0.6,1.6-1.4,1.6c-0.8,0-1.4-0.6-1.5-1.5v0l-0.4-10.1v0c0-0.8,0.6-1.6,1.4-1.6
					C2168.7,641.8,2169.3,642.5,2169.4,643.3L2169.4,643.3z"/>
				<path class="st4" d="M2170,663.6l0.1,10.1c0,0.8-0.6,1.5-1.4,1.6c-0.8,0-1.4-0.7-1.4-1.5v0l-0.2-10.1v0c0-0.8,0.6-1.5,1.4-1.6
					C2169.4,662,2170,662.7,2170,663.6L2170,663.6z"/>
				<path class="st4" d="M2170.2,683.8l-0.1,10.1c0,0.8-0.6,1.5-1.4,1.5s-1.4-0.7-1.4-1.5v0l0.1-10.1v0c0-0.8,0.6-1.5,1.4-1.5
					C2169.6,682.3,2170.2,683,2170.2,683.8L2170.2,683.8z"/>
				<path class="st4" d="M2169.9,704l-0.3,10.1c0,0.8-0.7,1.5-1.5,1.5c-0.8,0-1.4-0.7-1.4-1.6v0l0.3-10.1v0c0-0.8,0.7-1.5,1.5-1.5
					C2169.3,702.5,2169.9,703.2,2169.9,704L2169.9,704z"/>
				<path class="st4" d="M2169.1,724.3l-0.6,10.1c-0.1,0.8-0.7,1.5-1.5,1.4s-1.4-0.8-1.3-1.6v0l0.6-10.1v0c0.1-0.8,0.7-1.5,1.5-1.4
					C2168.6,722.7,2169.2,723.4,2169.1,724.3L2169.1,724.3z"/>
				<path class="st4" d="M2167.8,744.5l-0.9,10.1c-0.1,0.8-0.8,1.5-1.5,1.4c-0.8-0.1-1.4-0.8-1.3-1.7v0l0.9-10v0
					c0.1-0.8,0.8-1.5,1.5-1.4C2167.3,742.9,2167.9,743.6,2167.8,744.5z"/>
				<path class="st4" d="M2166,764.6l-1.1,10c-0.1,0.8-0.8,1.4-1.6,1.3c-0.8-0.1-1.3-0.9-1.2-1.7v0l1.1-10v0
					c0.1-0.8,0.8-1.4,1.6-1.3C2165.5,763,2166.1,763.8,2166,764.6L2166,764.6z"/>
				<path class="st4" d="M2163.6,784.7l-1.4,10c-0.1,0.8-0.8,1.4-1.6,1.3c-0.8-0.1-1.3-0.9-1.2-1.7v0l1.4-10v0
					c0.1-0.8,0.8-1.4,1.6-1.3C2163.2,783.1,2163.7,783.9,2163.6,784.7L2163.6,784.7z"/>
				<path class="st4" d="M2160.6,804.7l-1.7,10c-0.1,0.8-0.9,1.4-1.6,1.2c-0.8-0.2-1.3-1-1.1-1.8v0l1.7-9.9v0
					c0.1-0.8,0.9-1.4,1.6-1.2C2160.3,803.1,2160.8,803.9,2160.6,804.7L2160.6,804.7z"/>
				<path class="st4" d="M2157.1,824.6l-2,9.9c-0.2,0.8-0.9,1.3-1.7,1.2c-0.8-0.2-1.2-1-1.1-1.8l0,0l2-9.8l0,0
					c0.2-0.8,0.9-1.3,1.7-1.2C2156.8,823,2157.2,823.8,2157.1,824.6L2157.1,824.6z"/>
				<path class="st4" d="M2152.9,844.4l-2.3,9.8c-0.2,0.8-0.9,1.3-1.7,1.1c-0.8-0.2-1.2-1-1-1.8l0,0l2.3-9.8l0,0
					c0.2-0.8,1-1.3,1.7-1.1C2152.6,842.7,2153.1,843.5,2152.9,844.4L2152.9,844.4z"/>
				<path class="st4" d="M2148.1,864l-2.6,9.7c-0.2,0.8-1,1.3-1.7,1s-1.2-1.1-0.9-1.9l0,0l2.6-9.7l0,0c0.2-0.8,1-1.3,1.7-1
					C2147.9,862.3,2148.3,863.1,2148.1,864L2148.1,864z"/>
				<path class="st4" d="M2142.6,883.3l-3,9.6c-0.2,0.8-1,1.2-1.8,1c-0.7-0.3-1.1-1.1-0.9-1.9l0,0l3-9.5l0,0c0.2-0.8,1-1.2,1.8-1
					C2142.5,881.7,2142.9,882.5,2142.6,883.3L2142.6,883.3z"/>
				<path class="st4" d="M2136.5,902.5l-3.4,9.5c-0.3,0.8-1.1,1.2-1.8,0.9s-1.1-1.2-0.8-2l0,0l3.3-9.4l0,0c0.3-0.8,1.1-1.2,1.8-0.9
					C2136.4,900.8,2136.8,901.7,2136.5,902.5L2136.5,902.5z"/>
				<path class="st4" d="M2129.6,921.3l-3.7,9.3c-0.3,0.8-1.1,1.1-1.8,0.8c-0.7-0.3-1-1.2-0.7-2l0,0l3.7-9.2l0,0
					c0.3-0.8,1.1-1.1,1.8-0.8C2129.6,919.7,2129.9,920.6,2129.6,921.3L2129.6,921.3z"/>
				<path class="st4" d="M2122,939.8l-4.1,9.1c-0.3,0.8-1.2,1.1-1.9,0.7c-0.7-0.4-1-1.3-0.6-2l0,0l4.1-9.1l0,0
					c0.3-0.8,1.2-1.1,1.9-0.7C2122,938.2,2122.3,939.1,2122,939.8L2122,939.8z"/>
				<path class="st4" d="M2113.6,958l-4.5,8.9c-0.4,0.7-1.2,1-1.9,0.6c-0.7-0.4-0.9-1.3-0.6-2l0,0l4.4-8.8l0,0
					c0.4-0.7,1.2-1,1.9-0.6C2113.8,956.3,2114,957.3,2113.6,958L2113.6,958z"/>
				<path class="st4" d="M2104.5,975.7l-4.9,8.7c-0.4,0.7-1.2,0.9-1.9,0.5s-0.9-1.3-0.5-2.1l0,0l4.8-8.6l0,0
					c0.4-0.7,1.2-0.9,1.9-0.5C2104.7,974.1,2104.9,975,2104.5,975.7L2104.5,975.7z"/>
				<path class="st4" d="M2094.6,992.9l-5.2,8.4c-0.4,0.7-1.3,0.9-1.9,0.4c-0.6-0.5-0.8-1.4-0.4-2.1l0,0l5.2-8.3l0,0
					c0.4-0.7,1.3-0.9,1.9-0.4C2094.9,991.3,2095,992.2,2094.6,992.9L2094.6,992.9z"/>
				<path class="st4" d="M2083.9,1009.6l-5.6,8.1c-0.5,0.7-1.3,0.8-1.9,0.3c-0.6-0.5-0.7-1.4-0.3-2.1l0,0l5.6-8l0,0
					c0.5-0.7,1.3-0.8,1.9-0.3C2084.3,1008,2084.4,1008.9,2083.9,1009.6L2083.9,1009.6z"/>
				<path class="st4" d="M2072.5,1025.7l-6,7.8c-0.5,0.6-1.4,0.7-1.9,0.2c-0.6-0.5-0.7-1.5-0.2-2.1l0,0l6-7.7l0,0
					c0.5-0.6,1.4-0.7,1.9-0.2S2073,1025,2072.5,1025.7L2072.5,1025.7z"/>
				<path class="st4" d="M2060.3,1041.1l-6.4,7.4c-0.5,0.6-1.4,0.6-1.9,0.1s-0.6-1.5-0.1-2.1l0,0l6.3-7.4l0,0
					c0.5-0.6,1.4-0.6,1.9-0.1C2060.8,1039.5,2060.8,1040.5,2060.3,1041.1L2060.3,1041.1z"/>
				<path class="st4" d="M2047.4,1055.8l-6.7,7.1c-0.6,0.6-1.4,0.6-1.9,0c-0.5-0.6-0.5-1.5,0-2.1l0,0l6.7-7l0,0
					c0.6-0.6,1.4-0.6,1.9,0C2047.9,1054.2,2047.9,1055.2,2047.4,1055.8L2047.4,1055.8z"/>
				<path class="st4" d="M2033.8,1069.7l-7.1,6.7c-0.6,0.5-1.4,0.5-1.9-0.1s-0.4-1.6,0.1-2.1l0,0l7-6.6l0,0c0.6-0.5,1.4-0.5,1.9,0.1
					C2034.4,1068.2,2034.3,1069.2,2033.8,1069.7L2033.8,1069.7z"/>
				<path class="st4" d="M2019.5,1082.9l-7.4,6.3c-0.6,0.5-1.5,0.4-1.9-0.2c-0.5-0.7-0.4-1.6,0.2-2.1l0,0l7.3-6.2l0,0
					c0.6-0.5,1.5-0.4,1.9,0.2C2020.2,1081.4,2020.1,1082.3,2019.5,1082.9L2019.5,1082.9z"/>
				<path class="st4" d="M2004.6,1095.2l-7.7,5.8c-0.6,0.5-1.5,0.3-1.9-0.4c-0.4-0.7-0.3-1.6,0.3-2.1l0,0l7.6-5.8l0,0
					c0.6-0.5,1.5-0.3,1.9,0.4C2005.4,1093.8,2005.2,1094.7,2004.6,1095.2L2004.6,1095.2z"/>
				<path class="st4" d="M1989.2,1106.7l-7.9,5.4c-0.6,0.4-1.5,0.2-1.9-0.5c-0.4-0.7-0.2-1.6,0.4-2.1l0,0l7.9-5.4l0,0
					c0.6-0.4,1.5-0.2,1.9,0.5C1990,1105.3,1989.8,1106.2,1989.2,1106.7L1989.2,1106.7z"/>
				<path class="st4" d="M1973.2,1117.3l-8.2,5c-0.7,0.4-1.5,0.2-1.9-0.6c-0.4-0.7-0.1-1.6,0.5-2l0,0l8.1-5l0,0
					c0.7-0.4,1.5-0.2,1.9,0.6C1974.1,1116,1973.9,1116.9,1973.2,1117.3L1973.2,1117.3z"/>
				<path class="st4" d="M1956.8,1127.1l-8.3,4.6c-0.7,0.4-1.5,0.1-1.8-0.7s-0.1-1.6,0.6-2l0,0l8.3-4.6l0,0c0.7-0.4,1.5-0.1,1.8,0.7
					C1957.8,1125.8,1957.5,1126.7,1956.8,1127.1L1956.8,1127.1z"/>
				<path class="st4" d="M1940,1136l-8.5,4.2c-0.7,0.3-1.5,0-1.8-0.7c-0.3-0.8,0-1.6,0.7-2l0,0l8.5-4.1l0,0c0.7-0.3,1.5,0,1.8,0.7
					C1941,1134.8,1940.7,1135.7,1940,1136L1940,1136z"/>
				<path class="st4" d="M1922.9,1144.2l-8.7,3.8c-0.7,0.3-1.5-0.1-1.8-0.8s0.1-1.6,0.8-1.9l0,0l8.6-3.7l0,0
					c0.7-0.3,1.5,0.1,1.8,0.8C1923.9,1143,1923.6,1143.8,1922.9,1144.2L1922.9,1144.2z"/>
				<path class="st4" d="M1905.4,1151.5l-8.8,3.4c-0.7,0.3-1.5-0.1-1.7-0.9s0.1-1.6,0.8-1.9l0,0l8.8-3.3l0,0
					c0.7-0.3,1.5,0.1,1.7,0.9C1906.5,1150.3,1906.1,1151.2,1905.4,1151.5L1905.4,1151.5z"/>
				<path class="st4" d="M1887.7,1158l-8.9,3c-0.7,0.2-1.5-0.2-1.7-1s0.2-1.6,0.9-1.8l0,0l8.9-3l0,0c0.7-0.2,1.5,0.2,1.7,1
					C1888.8,1156.9,1888.4,1157.8,1887.7,1158L1887.7,1158z"/>
				<path class="st4" d="M1869.7,1163.8l-9,2.6c-0.7,0.2-1.5-0.3-1.7-1c-0.2-0.8,0.2-1.6,1-1.8l0,0l9-2.6l0,0c0.7-0.2,1.5,0.3,1.7,1
					C1870.9,1162.8,1870.5,1163.6,1869.7,1163.8L1869.7,1163.8z"/>
				<path class="st4" d="M1851.6,1168.8l-9.1,2.3c-0.7,0.2-1.5-0.3-1.6-1.1c-0.2-0.8,0.3-1.6,1-1.8l0,0l9.1-2.3l0,0
					c0.7-0.2,1.5,0.3,1.6,1.1C1852.8,1167.8,1852.3,1168.6,1851.6,1168.8L1851.6,1168.8z"/>
				<path class="st4" d="M1833.3,1173.2l-9.2,1.9c-0.7,0.2-1.4-0.4-1.6-1.2s0.3-1.6,1.1-1.7h0l9.1-1.9h0c0.7-0.2,1.4,0.4,1.6,1.2
					C1834.6,1172.3,1834.1,1173,1833.3,1173.2L1833.3,1173.2z"/>
				<path class="st4" d="M1814.9,1176.9l-9.2,1.6c-0.7,0.1-1.4-0.4-1.6-1.2c-0.1-0.8,0.4-1.6,1.1-1.7h0l9.2-1.6h0
					c0.7-0.1,1.4,0.4,1.6,1.2C1816.2,1176,1815.7,1176.8,1814.9,1176.9L1814.9,1176.9z"/>
				<path class="st4" d="M1796.5,1180l-9.3,1.3c-0.7,0.1-1.4-0.5-1.5-1.3s0.4-1.5,1.2-1.6h0l9.2-1.3h0c0.7-0.1,1.4,0.5,1.5,1.3
					S1797.2,1179.9,1796.5,1180L1796.5,1180z"/>
				<path class="st4" d="M1777.9,1182.5l-9.3,1c-0.7,0.1-1.4-0.5-1.5-1.3c-0.1-0.8,0.5-1.5,1.2-1.6h0l9.3-1h0
					c0.7-0.1,1.4,0.5,1.5,1.3C1779.2,1181.7,1778.6,1182.4,1777.9,1182.5L1777.9,1182.5z"/>
				<path class="st4" d="M1759.3,1184.4l-9.3,0.8c-0.7,0.1-1.4-0.5-1.4-1.3c-0.1-0.8,0.5-1.5,1.2-1.6h0l9.3-0.8h0
					c0.7-0.1,1.4,0.5,1.4,1.3C1760.6,1183.7,1760,1184.4,1759.3,1184.4L1759.3,1184.4z"/>
				<path class="st4" d="M1740.6,1185.8l-9.3,0.5c-0.7,0-1.4-0.6-1.4-1.4c0-0.8,0.5-1.5,1.3-1.5h0l9.3-0.5h0c0.7,0,1.4,0.6,1.4,1.4
					C1741.9,1185.1,1741.4,1185.8,1740.6,1185.8L1740.6,1185.8z"/>
				<path class="st4" d="M1721.9,1186.8l-9.3,0.3c-0.7,0-1.4-0.6-1.4-1.4c0-0.8,0.6-1.5,1.3-1.5h0l9.3-0.3h0c0.7,0,1.4,0.6,1.4,1.4
					C1723.3,1186.1,1722.7,1186.8,1721.9,1186.8L1721.9,1186.8z"/>
				<path class="st4" d="M1703.2,1187.2l-9.3,0.1c-0.7,0-1.3-0.6-1.3-1.4c0-0.8,0.6-1.5,1.3-1.5h0l9.3-0.1h0c0.7,0,1.3,0.6,1.3,1.4
					C1704.6,1186.6,1704,1187.2,1703.2,1187.2L1703.2,1187.2z"/>
				<path class="st4" d="M1684.6,1187.3l-9.3-0.1c-0.7,0-1.3-0.7-1.3-1.5c0-0.8,0.6-1.4,1.4-1.4l9.3,0.1c0.7,0,1.3,0.7,1.3,1.5
					C1685.9,1186.6,1685.3,1187.3,1684.6,1187.3L1684.6,1187.3z"/>
				<path class="st4" d="M1665.9,1187l-9.3-0.2c-0.7,0-1.3-0.7-1.3-1.5c0-0.8,0.6-1.4,1.4-1.4l9.3,0.2c0.7,0,1.3,0.7,1.3,1.5
					C1667.2,1186.4,1666.6,1187.1,1665.9,1187L1665.9,1187z"/>
				<path class="st4" d="M1647.2,1186.6l-9.3-0.3c-0.7,0-1.3-0.7-1.3-1.5c0-0.8,0.7-1.4,1.4-1.4l9.3,0.3c0.7,0,1.3,0.7,1.3,1.5
					C1648.5,1185.9,1647.9,1186.6,1647.2,1186.6L1647.2,1186.6z"/>
				<path class="st4" d="M1628.5,1185.8l-9.3-0.5c-0.7,0-1.3-0.7-1.3-1.5c0-0.8,0.7-1.4,1.4-1.4l9.3,0.5c0.7,0,1.3,0.7,1.3,1.5
					C1629.9,1185.2,1629.2,1185.8,1628.5,1185.8L1628.5,1185.8z"/>
				<path class="st4" d="M1609.8,1184.8l-9.3-0.6c-0.7-0.1-1.3-0.7-1.3-1.5s0.7-1.4,1.4-1.4l9.3,0.6c0.7,0,1.3,0.7,1.3,1.5
					C1611.2,1184.2,1610.6,1184.9,1609.8,1184.8L1609.8,1184.8z"/>
				<path class="st4" d="M1591.2,1183.6l-9.3-0.7c-0.7-0.1-1.3-0.8-1.2-1.5c0.1-0.8,0.7-1.4,1.4-1.3l9.3,0.7
					c0.7,0.1,1.3,0.7,1.2,1.5C1592.6,1183,1591.9,1183.6,1591.2,1183.6L1591.2,1183.6z"/>
				<path class="st4" d="M1572.5,1182.1l-9.3-0.8c-0.7-0.1-1.3-0.8-1.2-1.6s0.7-1.4,1.4-1.3l9.3,0.8c0.7,0.1,1.3,0.8,1.2,1.6
					C1573.9,1181.6,1573.3,1182.2,1572.5,1182.1L1572.5,1182.1z"/>
				<path class="st4" d="M1553.9,1180.4l-9.3-0.9c-0.7-0.1-1.3-0.8-1.2-1.6c0.1-0.8,0.7-1.4,1.4-1.3l9.3,0.9
					c0.7,0.1,1.3,0.8,1.2,1.6C1555.3,1179.9,1554.7,1180.5,1553.9,1180.4L1553.9,1180.4z"/>
				<path class="st4" d="M1535.3,1178.5l-9.3-1c-0.7-0.1-1.3-0.8-1.2-1.6c0.1-0.8,0.7-1.4,1.5-1.3l9.3,1c0.7,0.1,1.3,0.8,1.2,1.6
					C1536.7,1178,1536.1,1178.6,1535.3,1178.5L1535.3,1178.5z"/>
				<path class="st4" d="M1516.8,1176.4l-9.3-1.1c-0.7-0.1-1.2-0.8-1.2-1.6c0.1-0.8,0.8-1.3,1.5-1.3l9.3,1.1
					c0.7,0.1,1.3,0.8,1.2,1.6C1518.1,1175.9,1517.5,1176.5,1516.8,1176.4L1516.8,1176.4z"/>
				<path class="st4" d="M1498.2,1174.1l-9.3-1.2c-0.7-0.1-1.2-0.8-1.2-1.6c0.1-0.8,0.8-1.3,1.5-1.2l9.3,1.2
					c0.7,0.1,1.2,0.8,1.2,1.6C1499.6,1173.6,1498.9,1174.2,1498.2,1174.1L1498.2,1174.1z"/>
				<path class="st4" d="M1479.7,1171.5l-9.3-1.3c-0.7-0.1-1.2-0.8-1.1-1.6c0.1-0.8,0.8-1.3,1.5-1.2l9.2,1.3
					c0.7,0.1,1.2,0.8,1.2,1.6C1481.1,1171.1,1480.4,1171.6,1479.7,1171.5L1479.7,1171.5z"/>
				<path class="st4" d="M1461.1,1168.8l-9.2-1.4c-0.7-0.1-1.2-0.8-1.1-1.6s0.8-1.3,1.5-1.2l9.2,1.4c0.7,0.1,1.2,0.8,1.1,1.6
					C1462.5,1168.4,1461.9,1168.9,1461.1,1168.8L1461.1,1168.8z"/>
				<path class="st4" d="M1442.6,1165.9l-9.2-1.5c-0.7-0.1-1.2-0.8-1.1-1.6s0.8-1.3,1.5-1.2l9.2,1.5c0.7,0.1,1.2,0.8,1.1,1.6
					C1444,1165.5,1443.3,1166,1442.6,1165.9L1442.6,1165.9z"/>
				<path class="st4" d="M1424.1,1162.8l-9.2-1.6c-0.7-0.1-1.2-0.9-1.1-1.6c0.1-0.8,0.8-1.3,1.5-1.2l9.2,1.6
					c0.7,0.1,1.2,0.8,1.1,1.6C1425.5,1162.4,1424.9,1163,1424.1,1162.8L1424.1,1162.8z"/>
				<path class="st4" d="M1405.7,1159.6l-9.2-1.7c-0.7-0.1-1.2-0.9-1.1-1.6c0.1-0.8,0.8-1.3,1.5-1.2l9.2,1.7
					c0.7,0.1,1.2,0.9,1.1,1.6C1407.1,1159.2,1406.4,1159.7,1405.7,1159.6L1405.7,1159.6z"/>
				<path class="st4" d="M1387.3,1156.2l-9.2-1.8c-0.7-0.1-1.2-0.9-1.1-1.7c0.1-0.8,0.8-1.3,1.5-1.2l9.2,1.8
					c0.7,0.1,1.2,0.9,1.1,1.6C1388.7,1155.8,1388,1156.3,1387.3,1156.2L1387.3,1156.2z"/>
				<path class="st4" d="M1368.9,1152.7l-9.2-1.8c-0.7-0.1-1.2-0.9-1.1-1.7s0.8-1.3,1.5-1.1l9.2,1.8c0.7,0.1,1.2,0.9,1.1,1.7
					C1370.3,1152.3,1369.6,1152.8,1368.9,1152.7L1368.9,1152.7z"/>
				<path class="st4" d="M1350.5,1149l-9.2-1.9c-0.7-0.2-1.2-0.9-1-1.7s0.8-1.3,1.5-1.1l9.2,1.9c0.7,0.1,1.2,0.9,1.1,1.7
					C1351.9,1148.6,1351.2,1149.1,1350.5,1149L1350.5,1149z"/>
				<path class="st4" d="M1332.2,1145.2l-9.2-2c-0.7-0.2-1.2-0.9-1-1.7c0.1-0.8,0.8-1.3,1.5-1.1l9.2,2c0.7,0.2,1.2,0.9,1,1.7
					C1333.6,1144.8,1332.9,1145.3,1332.2,1145.2L1332.2,1145.2z"/>
				<path class="st4" d="M1313.8,1141.2l-9.2-2c-0.7-0.2-1.2-0.9-1-1.7s0.8-1.3,1.6-1.1l9.1,2c0.7,0.2,1.2,0.9,1,1.7
					C1315.2,1140.8,1314.6,1141.3,1313.8,1141.2L1313.8,1141.2z"/>
				<path class="st4" d="M1295.6,1137.1l-9.1-2.1c-0.7-0.2-1.2-0.9-1-1.7s0.8-1.2,1.6-1.1l9.1,2.1c0.7,0.2,1.2,0.9,1,1.7
					C1296.9,1136.8,1296.3,1137.3,1295.6,1137.1L1295.6,1137.1z"/>
				<path class="st4" d="M1277.3,1132.9l-9.1-2.1c-0.7-0.2-1.2-0.9-1-1.7s0.8-1.2,1.6-1.1l9.1,2.1c0.7,0.2,1.2,0.9,1,1.7
					C1278.7,1132.6,1278,1133.1,1277.3,1132.9L1277.3,1132.9z"/>
				<path class="st4" d="M1259,1128.6l-9.1-2.2c-0.7-0.2-1.1-0.9-1-1.7c0.2-0.8,0.8-1.2,1.6-1.1l9.1,2.2c0.7,0.2,1.2,0.9,1,1.7
					C1260.4,1128.3,1259.7,1128.8,1259,1128.6L1259,1128.6z"/>
				<path class="st4" d="M1240.8,1124.2l-9.1-2.2c-0.7-0.2-1.1-0.9-1-1.7c0.2-0.8,0.9-1.2,1.6-1.1l9.1,2.2c0.7,0.2,1.1,0.9,1,1.7
					C1242.2,1123.9,1241.5,1124.3,1240.8,1124.2L1240.8,1124.2z"/>
				<path class="st4" d="M1222.6,1119.7l-9.1-2.3c-0.7-0.2-1.1-0.9-1-1.7c0.2-0.8,0.9-1.2,1.6-1.1l9.1,2.3c0.7,0.2,1.1,0.9,1,1.7
					C1224,1119.4,1223.3,1119.8,1222.6,1119.7L1222.6,1119.7z"/>
				<path class="st4" d="M1204.4,1115.1l-9.1-2.3c-0.7-0.2-1.1-0.9-1-1.7s0.9-1.2,1.6-1l9.1,2.3c0.7,0.2,1.1,0.9,1,1.7
					C1205.8,1114.8,1205.1,1115.2,1204.4,1115.1L1204.4,1115.1z"/>
				<path class="st4" d="M1186.2,1110.4l-9.1-2.4c-0.7-0.2-1.1-0.9-0.9-1.7s0.9-1.2,1.6-1l9.1,2.4c0.7,0.2,1.1,0.9,1,1.7
					S1186.9,1110.6,1186.2,1110.4L1186.2,1110.4z"/>
				<path class="st4" d="M1168.1,1105.6l-9.1-2.4c-0.7-0.2-1.1-0.9-0.9-1.7s0.9-1.2,1.6-1l9.1,2.4c0.7,0.2,1.1,0.9,0.9,1.7
					C1169.5,1105.3,1168.8,1105.8,1168.1,1105.6L1168.1,1105.6z"/>
				<path class="st4" d="M1149.9,1100.8l-9.1-2.4c-0.7-0.2-1.1-0.9-0.9-1.7s0.9-1.2,1.6-1l9.1,2.4c0.7,0.2,1.1,0.9,0.9,1.7
					S1150.6,1100.9,1149.9,1100.8L1149.9,1100.8z"/>
				<path class="st4" d="M1131.8,1095.9l-9.1-2.5c-0.7-0.2-1.1-0.9-0.9-1.7c0.2-0.8,0.9-1.2,1.6-1l9.1,2.5c0.7,0.2,1.1,0.9,0.9,1.7
					C1133.2,1095.6,1132.5,1096.1,1131.8,1095.9L1131.8,1095.9z"/>
				<path class="st4" d="M1113.7,1090.9l-9.1-2.5c-0.7-0.2-1.1-0.9-0.9-1.7c0.2-0.8,0.9-1.2,1.6-1l9.1,2.5c0.7,0.2,1.1,0.9,0.9,1.7
					C1115.1,1090.7,1114.4,1091.1,1113.7,1090.9L1113.7,1090.9z"/>
				<path class="st4" d="M1095.6,1085.9l-9-2.5c-0.7-0.2-1.1-0.9-0.9-1.7c0.2-0.7,0.9-1.2,1.6-1l9,2.5c0.7,0.2,1.1,0.9,0.9,1.7
					C1097,1085.7,1096.3,1086.1,1095.6,1085.9L1095.6,1085.9z"/>
				<path class="st4" d="M1077.5,1080.8l-9-2.6c-0.7-0.2-1.1-1-0.9-1.7c0.2-0.7,0.9-1.2,1.6-1l9,2.6c0.7,0.2,1.1,1,0.9,1.7
					C1078.9,1080.5,1078.2,1081,1077.5,1080.8L1077.5,1080.8z"/>
				<path class="st4" d="M1059.5,1075.6l-9-2.6c-0.7-0.2-1.1-1-0.9-1.7s0.9-1.2,1.6-1l9,2.6c0.7,0.2,1.1,1,0.9,1.7
					S1060.2,1075.8,1059.5,1075.6L1059.5,1075.6z"/>
				<path class="st4" d="M1041.5,1070.3l-9-2.7c-0.7-0.2-1.1-1-0.9-1.7c0.2-0.7,0.9-1.2,1.6-1l9,2.7c0.7,0.2,1.1,1,0.9,1.7
					C1042.8,1070,1042.1,1070.5,1041.5,1070.3L1041.5,1070.3z"/>
				<path class="st4" d="M1023.4,1064.9l-9-2.7c-0.7-0.2-1.1-1-0.9-1.7s0.9-1.2,1.6-1l9,2.7c0.7,0.2,1.1,1,0.9,1.7
					C1024.8,1064.7,1024.1,1065.1,1023.4,1064.9L1023.4,1064.9z"/>
				<path class="st4" d="M1005.4,1059.6l-9-2.7c-0.7-0.2-1.1-1-0.9-1.7c0.2-0.7,0.9-1.2,1.6-1l9,2.7c0.7,0.2,1.1,1,0.9,1.7
					C1006.8,1059.3,1006.1,1059.8,1005.4,1059.6L1005.4,1059.6z"/>
				<path class="st4" d="M987.4,1054.2l-9-2.7c-0.7-0.2-1.1-1-0.9-1.7c0.2-0.7,0.9-1.2,1.6-1l9,2.7c0.7,0.2,1.1,1,0.9,1.7
					C988.8,1054,988.1,1054.4,987.4,1054.2L987.4,1054.2z"/>
				<path class="st4" d="M969.4,1048.9l-9-2.6c-0.7-0.2-1.1-0.9-0.9-1.7s0.9-1.2,1.6-1l9,2.6c0.7,0.2,1.1,0.9,0.9,1.7
					C970.8,1048.7,970.1,1049.1,969.4,1048.9L969.4,1048.9z"/>
				<path class="st4" d="M951.3,1043.8l-9-2.6c-0.7-0.2-1.1-0.9-0.9-1.7c0.2-0.7,0.9-1.2,1.5-1l9,2.6c0.7,0.2,1.1,0.9,0.9,1.7
					C952.7,1043.5,952,1043.9,951.3,1043.8L951.3,1043.8z"/>
				<path class="st4" d="M933.3,1038.7l-9-2.5c-0.7-0.2-1.1-0.9-0.9-1.7c0.2-0.7,0.9-1.2,1.5-1l9.1,2.5c0.7,0.2,1.1,0.9,0.9,1.7
					C934.6,1038.4,934,1038.8,933.3,1038.7L933.3,1038.7z"/>
				<path class="st4" d="M915.2,1033.7l-9.1-2.4c-0.7-0.2-1.1-0.9-0.9-1.7s0.8-1.2,1.5-1l9.1,2.4c0.7,0.2,1.1,0.9,0.9,1.7
					C916.5,1033.5,915.8,1033.9,915.2,1033.7L915.2,1033.7z"/>
				<path class="st4" d="M897,1029l-9.1-2.3c-0.7-0.2-1.1-0.9-1-1.6s0.8-1.2,1.5-1l9.1,2.3c0.7,0.2,1.1,0.9,1,1.7
					C898.4,1028.7,897.7,1029.1,897,1029L897,1029z"/>
				<path class="st4" d="M878.9,1024.4l-9.1-2.2c-0.7-0.2-1.1-0.9-1-1.6s0.8-1.2,1.5-1l9.1,2.2c0.7,0.2,1.1,0.9,1,1.6
					C880.2,1024.1,879.5,1024.6,878.9,1024.4L878.9,1024.4z"/>
				<path class="st4" d="M860.6,1020.1l-9.1-2c-0.7-0.2-1.1-0.9-1-1.6s0.8-1.2,1.5-1.1l9.2,2c0.7,0.2,1.1,0.9,1,1.6
					S861.3,1020.3,860.6,1020.1L860.6,1020.1z"/>
				<path class="st4" d="M842.4,1016.1l-9.2-1.9h0c-0.7-0.1-1.1-0.9-1-1.6s0.8-1.2,1.5-1.1l9.2,1.9c0.7,0.1,1.1,0.9,1,1.6
					S843.1,1016.2,842.4,1016.1L842.4,1016.1L842.4,1016.1z"/>
				<path class="st4" d="M824,1012.4l-9.2-1.8c-0.7-0.1-1.1-0.8-1-1.6s0.8-1.2,1.5-1.1l9.2,1.8c0.7,0.1,1.1,0.8,1,1.6
					C825.4,1012,824.7,1012.5,824,1012.4L824,1012.4z"/>
				<path class="st4" d="M805.7,1008.8l-9.2-1.8c-0.7-0.1-1.1-0.8-1-1.6s0.8-1.2,1.5-1.1l9.2,1.8c0.7,0.1,1.1,0.8,1,1.6
					C807,1008.4,806.3,1008.9,805.7,1008.8L805.7,1008.8z"/>
				<path class="st4" d="M787.3,1005.3l-9.2-1.7h0c-0.7-0.1-1.1-0.8-1-1.6c0.1-0.7,0.8-1.2,1.5-1.1l9.2,1.7c0.7,0.1,1.2,0.8,1,1.6
					S788,1005.4,787.3,1005.3L787.3,1005.3z"/>
				<path class="st4" d="M768.9,1002l-9.2-1.5h0c-0.7-0.1-1.2-0.8-1.1-1.5s0.7-1.2,1.4-1.1l9.2,1.5c0.7,0.1,1.2,0.8,1.1,1.5
					S769.6,1002.2,768.9,1002L768.9,1002L768.9,1002z"/>
				<path class="st4" d="M750.4,999.2l-9.2-1.2h0c-0.7-0.1-1.2-0.8-1.1-1.5c0.1-0.7,0.7-1.3,1.4-1.2l9.3,1.2
					c0.7,0.1,1.2,0.8,1.1,1.5C751.7,998.8,751.1,999.3,750.4,999.2L750.4,999.2L750.4,999.2z"/>
				<path class="st4" d="M731.9,997l-9.3-0.8h0c-0.7-0.1-1.2-0.7-1.1-1.5c0.1-0.7,0.7-1.3,1.3-1.2l9.3,0.8c0.7,0.1,1.2,0.7,1.1,1.5
					C733.2,996.5,732.6,997,731.9,997L731.9,997L731.9,997z"/>
				<path class="st4" d="M713.3,995.5l-9.3-0.3h0c-0.7,0-1.2-0.7-1.2-1.4c0-0.8,0.6-1.3,1.3-1.3l9.4,0.4c0.7,0,1.2,0.7,1.2,1.4
					C714.6,995,714,995.6,713.3,995.5L713.3,995.5L713.3,995.5z"/>
				<path class="st4" d="M694.7,995.1l-9.3,0.2h0c-0.7,0-1.3-0.6-1.3-1.3c0-0.8,0.5-1.4,1.2-1.4l9.4-0.2c0.7,0,1.3,0.6,1.3,1.3
					S695.5,995.1,694.7,995.1L694.7,995.1L694.7,995.1z"/>
				<path class="st4" d="M676.2,995.9l-9.2,0.9l0,0c-0.7,0.1-1.3-0.5-1.4-1.2c-0.1-0.7,0.4-1.4,1.1-1.5l9.3-1
					c0.7-0.1,1.3,0.5,1.4,1.2C677.4,995.2,676.9,995.8,676.2,995.9L676.2,995.9L676.2,995.9z"/>
				<path class="st4" d="M657.7,998.2l-9.1,1.8l-0.1,0c-0.7,0.1-1.3-0.4-1.4-1.1c-0.1-0.7,0.3-1.4,1-1.6l9.2-1.8
					c0.7-0.1,1.3,0.4,1.4,1.1C658.9,997.3,658.4,998,657.7,998.2L657.7,998.2L657.7,998.2z"/>
				<path class="st4" d="M639.5,1002.2l-8.9,2.7l-0.1,0c-0.7,0.2-1.3-0.2-1.5-0.9c-0.2-0.7,0.2-1.5,0.9-1.7l9-2.8
					c0.7-0.2,1.3,0.2,1.5,0.9C640.6,1001.2,640.2,1002,639.5,1002.2L639.5,1002.2L639.5,1002.2z"/>
				<path class="st4" d="M621.8,1008.1l-8.6,3.7l-0.1,0c-0.6,0.3-1.4-0.1-1.6-0.8s0-1.5,0.7-1.7l8.7-3.8c0.6-0.3,1.4,0.1,1.6,0.8
					S622.5,1007.8,621.8,1008.1L621.8,1008.1L621.8,1008.1z"/>
				<path class="st4" d="M604.8,1016.1l-8.2,4.8l-0.1,0c-0.6,0.3-1.3,0.1-1.7-0.5c-0.3-0.7-0.1-1.5,0.5-1.8l8.3-4.8
					c0.6-0.3,1.3-0.1,1.7,0.5C605.7,1014.9,605.5,1015.7,604.8,1016.1L604.8,1016.1L604.8,1016.1z"/>
				<path class="st4" d="M588.8,1026.1c-2.5,1.9-5.1,3.8-7.6,5.8c-0.5,0.4-1.3,0.3-1.7-0.2c-0.4-0.6-0.3-1.4,0.2-1.9
					c2.5-2.1,5.1-3.9,7.7-5.9c0.6-0.4,1.3-0.3,1.7,0.3C589.5,1024.8,589.4,1025.6,588.8,1026.1L588.8,1026.1z"/>
				<path class="st4" d="M574.1,1038.2l-6.7,6.9l-0.1,0.1c-0.5,0.5-1.3,0.5-1.7,0s-0.5-1.4,0-1.9l6.8-7.1c0.5-0.5,1.3-0.5,1.7,0
					S574.7,1037.7,574.1,1038.2L574.1,1038.2z"/>
				<path class="st4" d="M561.2,1052.6l-5.8,7.8l0,0.1c-0.4,0.6-1.2,0.7-1.7,0.2c-0.5-0.5-0.6-1.3-0.2-1.9l5.9-8
					c0.4-0.6,1.2-0.7,1.7-0.2S561.6,1051.9,561.2,1052.6L561.2,1052.6z"/>
				<path class="st4" d="M550.1,1068.6l-4.8,8.6l0,0.1c-0.3,0.6-1.1,0.8-1.7,0.4s-0.8-1.2-0.4-1.8l4.9-8.7c0.3-0.6,1.1-0.8,1.7-0.4
					S550.5,1067.9,550.1,1068.6L550.1,1068.6L550.1,1068.6z"/>
				<path class="st4" d="M541.1,1086.1l-3.7,9.2l0,0.1c-0.3,0.7-1,1-1.6,0.7c-0.6-0.3-0.9-1.1-0.6-1.8l3.8-9.4c0.3-0.7,1-1,1.6-0.7
					C541.1,1084.6,541.4,1085.3,541.1,1086.1L541.1,1086.1L541.1,1086.1z"/>
				<path class="st4" d="M534.3,1104.7l-2.4,9.7l0,0.1c-0.2,0.7-0.8,1.1-1.5,0.9c-0.7-0.2-1-0.9-0.9-1.6l2.5-9.9
					c0.2-0.7,0.8-1.1,1.5-0.9c0.7,0.2,1,0.9,0.9,1.6L534.3,1104.7z"/>
				<path class="st4" d="M530.2,1124.2l-0.9,9.9l0,0.1c-0.1,0.7-0.7,1.3-1.3,1.2c-0.7-0.1-1.2-0.7-1.1-1.4l0.9-10.2
					c0.1-0.7,0.7-1.3,1.3-1.2c0.7,0.1,1.2,0.7,1.1,1.4L530.2,1124.2z"/>
				<path class="st4" d="M529.3,1144.2l0.3,5l0.5,5l0,0.1c0.1,0.7-0.4,1.4-1.1,1.5s-1.3-0.4-1.4-1.2l-0.5-5.1
					c-0.1-1.7-0.2-3.4-0.4-5.1c0-0.7,0.5-1.4,1.1-1.4C528.7,1142.8,529.3,1143.3,529.3,1144.2L529.3,1144.2L529.3,1144.2z"/>
				<path class="st4" d="M531.9,1163.9l2.4,9.6l0,0.1c0.2,0.7-0.2,1.4-0.8,1.6c-0.7,0.2-1.3-0.2-1.5-0.9l-2.5-9.9
					c-0.2-0.7,0.2-1.4,0.8-1.6c0.7-0.2,1.3,0.2,1.5,0.9l0,0L531.9,1163.9z"/>
				<path class="st4" d="M537.6,1182.8c1.3,3,2.7,5.9,4.3,8.8c0.4,0.6,0.2,1.4-0.4,1.8c-0.6,0.4-1.3,0.2-1.7-0.4
					c-1.7-2.9-3.2-5.9-4.5-9.1c-0.3-0.7,0-1.4,0.6-1.8C536.6,1181.9,537.3,1182.2,537.6,1182.8L537.6,1182.8z"/>
				<path class="st4" d="M547.4,1199.5c2,2.4,4.3,4.7,6.7,6.8c0.5,0.5,0.6,1.3,0.2,1.8c-0.4,0.6-1.2,0.7-1.7,0.2
					c-2.5-2.2-4.8-4.5-6.9-7.1c-0.5-0.5-0.4-1.4,0.1-1.9C546.2,1198.9,546.9,1199,547.4,1199.5L547.4,1199.5z"/>
				<path class="st4" d="M561.5,1212.1l8.1,4.8l0.1,0.1c0.6,0.3,0.8,1.2,0.5,1.8c-0.3,0.6-1.1,0.9-1.7,0.5l-8.3-5
					c-0.6-0.3-0.8-1.2-0.5-1.8s1.1-0.9,1.7-0.5l0,0L561.5,1212.1z"/>
				<path class="st4" d="M578,1220.9l8.7,3.4l0.1,0c0.6,0.2,1,1,0.7,1.7c-0.2,0.7-0.9,1-1.5,0.8l-8.9-3.4c-0.6-0.2-1-1-0.7-1.7
					C576.6,1221,577.3,1220.7,578,1220.9L578,1220.9z"/>
				<path class="st4" d="M595.7,1227l9.1,2.1l0.1,0c0.7,0.2,1.1,0.8,0.9,1.6c-0.1,0.7-0.8,1.2-1.4,1l-9.2-2.1
					c-0.7-0.2-1.1-0.8-0.9-1.6C594.3,1227.3,594.9,1226.9,595.7,1227L595.7,1227L595.7,1227z"/>
				<path class="st4" d="M613.9,1230.6l9.2,0.8l0.1,0c0.7,0.1,1.2,0.7,1.1,1.4c0,0.7-0.6,1.3-1.3,1.2l-9.4-0.8
					c-0.7-0.1-1.2-0.7-1.1-1.4c0-0.7,0.6-1.3,1.3-1.2l0,0H613.9z"/>
				<path class="st4" d="M632.3,1231.3l2.7-0.2h0c0.7-0.1,1.2,0.5,1.3,1.2c0,0.7-0.5,1.3-1.1,1.4l-2.7,0.2c-0.7,0.1-1.2-0.5-1.3-1.2
					C631.1,1232,631.6,1231.3,632.3,1231.3L632.3,1231.3L632.3,1231.3z"/>
			</g>
		</g>
		<g>
			<g>
				
					<linearGradient id="SVGID_12_" gradientUnits="userSpaceOnUse" x1="6154.3145" y1="250.4321" x2="5850.5293" y2="-80.001" gradientTransform="matrix(1 9.500000e-03 9.500000e-03 -1 -4996.7031 1589.7552)">
					<stop  offset="0" style="stop-color:#09005D"/>
					<stop  offset="1" style="stop-color:#1A0F91"/>
				</linearGradient>
				<path class="st16" d="M1063.7,1421.5c0,0-3.3,17.8-5,35.4c-0.7,6.9,4.6,12.9,11.5,13.3c23.5,1.2,73.7,3.6,91.7,2.9
					c2.7-0.1,4.5-2.8,3.5-5.4l0,0c-0.8-2.1-2.4-3.8-4.5-4.8l-82.6-38.9L1063.7,1421.5z"/>
				
					<linearGradient id="SVGID_13_" gradientUnits="userSpaceOnUse" x1="6055.7188" y1="225.8923" x2="6082.6929" y2="225.8923" gradientTransform="matrix(1 9.500000e-03 9.500000e-03 -1 -4996.7031 1589.7552)">
					<stop  offset="0" style="stop-color:#FF928E"/>
					<stop  offset="1" style="stop-color:#FEB3B1"/>
				</linearGradient>
				<path class="st17" d="M1061.3,1411l2.3,21.3c0,0,14.5,6.9,24.5-0.6l-5.8-23.8L1061.3,1411z"/>
				
					<linearGradient id="SVGID_14_" gradientUnits="userSpaceOnUse" x1="6178.2656" y1="624.1307" x2="5919.7554" y2="273.7538" gradientTransform="matrix(1 9.500000e-03 9.500000e-03 -1 -4996.7031 1589.7552)">
					<stop  offset="0" style="stop-color:#09005D"/>
					<stop  offset="1" style="stop-color:#1A0F91"/>
				</linearGradient>
				<path class="st18" d="M1067,1010.5c-1.1,5.5-8.5,277.6,19.4,399.8c0.5,2-0.6,4-2.5,4.8c-4.5,1.8-13.2,4.3-23.7,4.6
					c-3.2,0.1-6.1-2.1-7-5.2c-8-28.4-46.5-170.5-50.4-305.9c-4.4-151.3,0-5.2,0-5.2l4.3-93.5L1067,1010.5z"/>
				
					<linearGradient id="SVGID_15_" gradientUnits="userSpaceOnUse" x1="6086.1675" y1="313.0945" x2="5782.3696" y2="-17.3531" gradientTransform="matrix(1 9.500000e-03 9.500000e-03 -1 -4996.7031 1589.7552)">
					<stop  offset="0" style="stop-color:#09005D"/>
					<stop  offset="1" style="stop-color:#1A0F91"/>
				</linearGradient>
				<path class="st19" d="M968.2,1429.9c0,0-5.1,8.9-10.2,32.8c-0.9,4.3,2.1,8.5,6.4,8.9c7.8,0.8,19.7,1.9,29.2,2
					c4.4,0,7.9-3.8,7.4-8.2c-1-8.7-4.1-23.1-14.2-34.3L968.2,1429.9z"/>
				
					<linearGradient id="SVGID_16_" gradientUnits="userSpaceOnUse" x1="5958.4658" y1="227.2808" x2="5981.7632" y2="227.2808" gradientTransform="matrix(1 9.500000e-03 9.500000e-03 -1 -4996.7031 1589.7552)">
					<stop  offset="0" style="stop-color:#FF928E"/>
					<stop  offset="1" style="stop-color:#FEB3B1"/>
				</linearGradient>
				<path class="st20" d="M964.1,1402.4l5.6,32.3c0,0,5.8,4.4,17.4,1.4l-2.5-34.7L964.1,1402.4z"/>
				
					<linearGradient id="SVGID_17_" gradientUnits="userSpaceOnUse" x1="6132.1831" y1="658.1301" x2="5873.6763" y2="307.757" gradientTransform="matrix(1 9.500000e-03 9.500000e-03 -1 -4996.7031 1589.7552)">
					<stop  offset="0" style="stop-color:#09005D"/>
					<stop  offset="1" style="stop-color:#1A0F91"/>
				</linearGradient>
				<path class="st21" d="M951.8,1017.7c-25.2,143.3,1.8,354.8,11.1,396.3c0.6,2.5,2.6,4.5,5.2,4.9c4.3,0.8,11.5,1.4,18.6-0.6
					c2.4-0.7,4.2-2.9,4.3-5.4c1.6-33.4,1.2-238.6,24.2-319.5c1.2-4.1,3.7-7.7,7.2-10.1l43.3-30.2l3.8-49.4L951.8,1017.7z"/>
				<g>
					
						<linearGradient id="SVGID_18_" gradientUnits="userSpaceOnUse" x1="5856.8945" y1="912.3189" x2="5697.1572" y2="297.3326" gradientTransform="matrix(-1 0 0 -1 6889.6606 1650)">
						<stop  offset="0" style="stop-color:#4042E2"/>
						<stop  offset="1" style="stop-color:#4F52FF"/>
					</linearGradient>
					<path class="st22" d="M1105.9,747.2c-71.3-1.9-150.1,17.3-150.1,17.3c-22.4,123.8-6.3,266.9-6.3,266.9
						c55,15,117.5-7.7,117.5-7.7c9.7-51.7,53.8-197.2,53.8-197.2c34.9-4,63.7-13.8,87.4-26.8c-17.8-21.1-26.1-47.7-29.6-63.5
						C1153.5,743.8,1127.9,747.8,1105.9,747.2z"/>
					
						<linearGradient id="SVGID_19_" gradientUnits="userSpaceOnUse" x1="6166.7881" y1="929.8842" x2="6304.6519" y2="929.8842" gradientTransform="matrix(1 9.500000e-03 9.500000e-03 -1 -4996.7031 1589.7552)">
						<stop  offset="0" style="stop-color:#FF928E"/>
						<stop  offset="1" style="stop-color:#FEB3B1"/>
					</linearGradient>
					<path class="st23" d="M1317.5,644.2c-6.9-8.5-15.8-4.6-15.8-4.6c-10.9,44.2-66.3,79.6-122.9,96.6c3.5,15.8,11.8,42.4,29.6,63.5
						C1302.6,747.9,1317.5,644.2,1317.5,644.2z"/>
				</g>
				<g>
					
						<linearGradient id="SVGID_20_" gradientUnits="userSpaceOnUse" x1="3492.7886" y1="953.9172" x2="3585.2964" y2="743.4408" gradientTransform="matrix(-1 -9.500000e-03 9.500000e-03 -1 4770.0229 1683.4717)">
						<stop  offset="0" style="stop-color:#FF928E"/>
						<stop  offset="1" style="stop-color:#FEB3B1"/>
					</linearGradient>
					<path class="st24" d="M1315.8,646.3c0.7,2.3-7.8,5.8-12.7-3.8c-0.1-4.6-2.7-24.2,0-27.8c14.7-19.7,43.1-44.2,43.1-44.2
						c4.7,4.7,0.8,9.3,0.8,9.3l-13.8,14.1c2.8,5.2,6.2,9.6,7.8,15.8c1.2,4.7,0.4,9.8-2,14.1c-2.4,4.3-5.8,9.9-8.9,14.2
						C1324.1,646.4,1315.8,646.3,1315.8,646.3z"/>
					
						<linearGradient id="SVGID_21_" gradientUnits="userSpaceOnUse" x1="6303.9956" y1="1023.0792" x2="6342.5962" y2="1082.4271" gradientTransform="matrix(1 9.500000e-03 9.500000e-03 -1 -4996.7031 1589.7552)">
						<stop  offset="0" style="stop-color:#FF928E"/>
						<stop  offset="1" style="stop-color:#FEB3B1"/>
					</linearGradient>
					<path class="st25" d="M1327.1,603.1l-12.6,10.4l-4,10.5l11,12.4c0,0,3.9-20.8,6.8-25.3C1331.1,606.6,1329.7,604.4,1327.1,603.1
						z"/>
				</g>
				
					<linearGradient id="SVGID_22_" gradientUnits="userSpaceOnUse" x1="5980.5781" y1="880.1933" x2="5820.8413" y2="265.2076" gradientTransform="matrix(-1 0 0 -1 6889.6606 1650)">
					<stop  offset="0" style="stop-color:#4042E2"/>
					<stop  offset="1" style="stop-color:#4F52FF"/>
				</linearGradient>
				<path class="st26" d="M982.5,833.8l-26.7-69.3c0,0-67,44.6-78.5,101.9c12.6,1,35.4,4.5,57.7,16.1
					C940.2,855.4,982.5,833.8,982.5,833.8z"/>
				
					<linearGradient id="SVGID_23_" gradientUnits="userSpaceOnUse" x1="5865.1108" y1="734.6248" x2="6039.5747" y2="734.6248" gradientTransform="matrix(1 9.500000e-03 9.500000e-03 -1 -4996.7031 1589.7552)">
					<stop  offset="0" style="stop-color:#FF928E"/>
					<stop  offset="1" style="stop-color:#FEB3B1"/>
				</linearGradient>
				<path class="st27" d="M1040.1,899.3c0,0-75.2,41.5-100,5.2c-5.2-7.5-6.3-15-5-22.1c-22.3-11.5-45.2-15-57.7-16.1
					c-3.5,17.3-1.9,35.7,8.1,54.3c43.4,81.2,164.4-2.9,164.4-2.9L1040.1,899.3z"/>
				
					<linearGradient id="SVGID_24_" gradientUnits="userSpaceOnUse" x1="1059.6616" y1="966.7677" x2="1025.6616" y2="839.7681" gradientTransform="matrix(1 0 0 -1 0 1650)">
					<stop  offset="0" style="stop-color:#FF928E"/>
					<stop  offset="1" style="stop-color:#FEB3B1"/>
				</linearGradient>
				<path class="st28" d="M1034.3,688.6L1011,754c-0.4,1.1,0,2.3,1,2.9c6.2,3.5,28.3,13.6,55.3-3.2c2.8-1.8,4.7-4.6,5.2-7.9
					l7.9-56.7L1034.3,688.6z"/>
				<g>
					
						<linearGradient id="SVGID_25_" gradientUnits="userSpaceOnUse" x1="2482.3853" y1="-3814.6648" x2="2407.3855" y2="-3731.6648" gradientTransform="matrix(0.7523 -0.6588 -0.6588 -0.7523 1653.0601 14.6083)">
						<stop  offset="0" style="stop-color:#FF928E"/>
						<stop  offset="1" style="stop-color:#FEB3B1"/>
					</linearGradient>
					<path class="st29" d="M1084.2,628.4c0,0,24.5,47.1,21.1,66c-3.4,18.9-34.2,17.2-61,1.6l-18.3-50.8L1084.2,628.4z"/>
					
						<linearGradient id="SVGID_26_" gradientUnits="userSpaceOnUse" x1="-881.6854" y1="12.0147" x2="-860.1236" y2="-110.9671" gradientTransform="matrix(0.7523 -0.6588 -0.6588 -0.7523 1653.0601 14.6083)">
						<stop  offset="0" style="stop-color:#09005D"/>
						<stop  offset="1" style="stop-color:#1A0F91"/>
					</linearGradient>
					<path class="st30" d="M1045.7,671.2c1.1-0.5,1.5-1.8,0.9-2.8c-2-3.1-5.7-9.3-6.8-14.8c0,0-4.4-2.9,11.5-6.6
						c15.9-3.7,39.6-9.3,44.7-22.8c5-13.1-7.4-46.4-28-20.2c-0.8,1-2.3,1-3.1,0c-3.3-4.4-12-13.5-24.2-8.1
						c-11.4,5-12.8,13.3-12.7,17.5c0,1.2-1.1,2.2-2.3,2c-5.8-1.2-19.5-2.2-26.1,11.9c-5.4,11.6-2,18.3,1.1,21.5
						c1,1.1,0.5,2.8-0.9,3.2c-3.8,1.1-8.7,4.3-8.3,13.2c0.6,12.3,14.3,11.3,18.2,10.8c0.6-0.1,1.3,0.1,1.7,0.6
						c3.3,3.7,18.2,19.6,34.5,21.6c1.4,0.2,2.5-1.2,2.1-2.6l-6.9-20.6c-0.3-1,0.2-2,1.1-2.4L1045.7,671.2z"/>
					
						<linearGradient id="SVGID_27_" gradientUnits="userSpaceOnUse" x1="2472.8582" y1="-3823.2715" x2="2397.8582" y2="-3740.2715" gradientTransform="matrix(0.7523 -0.6588 -0.6588 -0.7523 1653.0601 14.6083)">
						<stop  offset="0" style="stop-color:#FF928E"/>
						<stop  offset="1" style="stop-color:#FEB3B1"/>
					</linearGradient>
					<path class="st31" d="M1048.5,674.1c0,0-17.6-12.3-19-2.1c-1.4,10.2,15.8,15,24.4,11.2L1048.5,674.1z"/>
				</g>
				<g>
					<g>
						
							<linearGradient id="SVGID_28_" gradientUnits="userSpaceOnUse" x1="5802.2905" y1="849.9997" x2="5898.5586" y2="448.882" gradientTransform="matrix(1 0 0 -1 -4705.6621 1650)">
							<stop  offset="0" style="stop-color:#09005D"/>
							<stop  offset="1" style="stop-color:#1A0F91"/>
						</linearGradient>
						<path class="st32" d="M1024.7,964.9l40.9-143c0.5-1.6,1.8-2.8,3.5-3c7.4-0.9,28.9-3.3,53.7-5.4c29.9-2.5,64.6-4.6,85.3-2.8
							c2.9,0.2,4.7,3.4,3.4,6c-11.8,23.9-60.3,120.9-84.6,152.8c-0.8,1-2.1,1.7-3.4,1.7l-95-0.9
							C1025.9,970.2,1024,967.6,1024.7,964.9z"/>
						
							<linearGradient id="SVGID_29_" gradientUnits="userSpaceOnUse" x1="5736.3252" y1="743.8807" x2="5790.8623" y2="743.8807" gradientTransform="matrix(1 0 0 -1 -4705.6621 1650)">
							<stop  offset="0" style="stop-color:#FF928E"/>
							<stop  offset="1" style="stop-color:#FEB3B1"/>
						</linearGradient>
						<path class="st33" d="M1034.6,930.4c0,0-5.7-23.5-3.4-31.8c2.3-8.3,6.8-19,21.6-16.6c14.9,2.4,32.4,8.6,32.4,8.6
							s-0.9,10.8-12.2,7.3l7,5.4c0,0-1,8.7-10.5,4l6.5,7.2c0,0-4.1,7.1-11.1,2.6C1057.9,912.5,1054.5,933.2,1034.6,930.4z"/>
					</g>
					<path class="st13" d="M1120.2,856.2c0,6.6,5.4,12,12,12s12-5.4,12-12s-5.4-12-12-12S1120.2,849.6,1120.2,856.2z"/>
					<path class="st13" d="M1069.8,864l-2.2-0.6l8.3-28.3c1.3-4.4,4.9-7.8,9.3-8.7c26.4-5.5,98.1-6.7,98.9-6.7l0,2.2
						c-0.7,0-72.3,1.2-98.4,6.6c-3.6,0.8-6.6,3.5-7.7,7.1L1069.8,864z"/>
				</g>
			</g>
			<g>
				<path class="st13" d="M585.8,1264.2c-4.4,6.5-21.7,152.7-24.4,206.7c-0.2,3.7,2.7,6.7,6.4,6.7l0,0c3.2,0,5.8-2.3,6.3-5.4
					l31.7-203.3L585.8,1264.2z"/>
				<path class="st13" d="M725.2,1264.2c4.4,6.5,21.7,152.7,24.4,206.7c0.2,3.7-2.7,6.7-6.4,6.7l0,0c-3.2,0-5.8-2.3-6.3-5.4
					l-31.7-203.3L725.2,1264.2z"/>
				<path class="st13" d="M559.5,1252.8l0,1.6c-0.1,11.5,9.8,20.9,22.2,21.1l146.6,2.5c12.2,0.2,22.4-8.6,23-19.9l0.1-1.5
					c0.6-11.8-9.4-21.7-22.1-21.9l-146.7-2.6C570,1231.9,559.6,1241.2,559.5,1252.8z"/>
			</g>
			<g>
				<g>
					
						<linearGradient id="SVGID_30_" gradientUnits="userSpaceOnUse" x1="825.68" y1="184.84" x2="932.0101" y2="184.84" gradientTransform="matrix(1 0 0 -1 0 1650)">
						<stop  offset="0" style="stop-color:#4042E2"/>
						<stop  offset="1" style="stop-color:#4F52FF"/>
					</linearGradient>
					<path class="st34" d="M868.4,1465.6c-26.1,0-37.6-2.2-42.8-4.3c1,4.3,4.8,7.7,9.6,7.7h92.2c3.1,0,5.1-3,4.3-5.7
						C921.3,1464.2,899,1465.6,868.4,1465.6z"/>
					
						<linearGradient id="SVGID_31_" gradientUnits="userSpaceOnUse" x1="907.608" y1="389.2971" x2="878.5554" y2="188.5695" gradientTransform="matrix(1 0 0 -1 0 1650)">
						<stop  offset="0" style="stop-color:#09005D"/>
						<stop  offset="1" style="stop-color:#1A0F91"/>
					</linearGradient>
					<path class="st35" d="M931.9,1463.3c-0.2-0.5-0.4-1.1-0.8-1.6c-7-9-21.1-23.1-40.3-22.8c-28.1,0.4-37.9,3.4-59.8,0.2l-5.2,17.1
						c-0.5,1.7-0.5,3.5-0.2,5.1c5.2,2,16.7,4.3,42.8,4.3C899,1465.6,921.3,1464.2,931.9,1463.3z"/>
				</g>
				
					<linearGradient id="SVGID_32_" gradientUnits="userSpaceOnUse" x1="830.99" y1="216.8754" x2="859.7599" y2="216.8754" gradientTransform="matrix(1 0 0 -1 0 1650)">
					<stop  offset="0" style="stop-color:#FF928E"/>
					<stop  offset="1" style="stop-color:#FEB3B1"/>
				</linearGradient>
				<path class="st36" d="M837.3,1420.7l-6.3,21.5c0,0,14,6.4,26.3,1.3l2.4-18.7L837.3,1420.7z"/>
				<g>
					
						<linearGradient id="SVGID_33_" gradientUnits="userSpaceOnUse" x1="992.45" y1="205.9066" x2="1078.2996" y2="205.9066" gradientTransform="matrix(1 0 0 -1 0 1650)">
						<stop  offset="0" style="stop-color:#4042E2"/>
						<stop  offset="1" style="stop-color:#4F52FF"/>
					</linearGradient>
					<path class="st37" d="M1028.4,1452.1c-20.3,16.3-30.7,21.8-36,23.5c3.5,2.7,8.5,2.9,12.3-0.1l71.9-57.8
						c2.4-1.9,2.1-5.5-0.2-7.1C1068.8,1417.8,1052.3,1432.9,1028.4,1452.1z"/>
					
						<linearGradient id="SVGID_34_" gradientUnits="userSpaceOnUse" x1="1051.5114" y1="368.47" x2="1022.4587" y2="167.7419" gradientTransform="matrix(1 0 0 -1 0 1650)">
						<stop  offset="0" style="stop-color:#09005D"/>
						<stop  offset="1" style="stop-color:#1A0F91"/>
					</linearGradient>
					<path class="st38" d="M1076.5,1410.6c-0.5-0.3-1-0.6-1.6-0.7c-11.1-2.6-30.8-4.7-45.6,7.6c-21.7,17.9-27.4,26.4-46.5,37.6
						l6.6,16.5c0.7,1.7,1.8,3,3.1,4.1c5.3-1.7,15.7-7.1,36-23.5C1052.3,1432.9,1068.8,1417.8,1076.5,1410.6z"/>
				</g>
				
					<linearGradient id="SVGID_35_" gradientUnits="userSpaceOnUse" x1="852.9796" y1="500.8719" x2="744.9793" y2="283.8711" gradientTransform="matrix(1 0 0 -1 0 1650)">
					<stop  offset="0" style="stop-color:#09005D"/>
					<stop  offset="1" style="stop-color:#1A0F91"/>
				</linearGradient>
				<path class="st39" d="M702,1175.5c0,0,156.1,12.7,188.1,27.8c32,15.1-26.1,226.3-26.1,226.3s-8.7,4.2-28.1-1.8
					c0,0,19.9-155.9,5.1-189.7l-169-27.6L702,1175.5z"/>
				
					<linearGradient id="SVGID_36_" gradientUnits="userSpaceOnUse" x1="967.26" y1="214.4599" x2="1001.61" y2="214.4599" gradientTransform="matrix(1 0 0 -1 0 1650)">
					<stop  offset="0" style="stop-color:#FF928E"/>
					<stop  offset="1" style="stop-color:#FEB3B1"/>
				</linearGradient>
				<path class="st40" d="M967.3,1425.3c1.5,1.3,15.5,29.7,15.5,29.7s15.7-3.4,18.8-13.3l-14.1-25.6L967.3,1425.3z"/>
				
					<linearGradient id="SVGID_37_" gradientUnits="userSpaceOnUse" x1="949.0605" y1="585.7691" x2="896.0605" y2="502.7691" gradientTransform="matrix(1 0 0 -1 0 1650)">
					<stop  offset="0" style="stop-color:#09005D"/>
					<stop  offset="1" style="stop-color:#1A0F91"/>
				</linearGradient>
				<path class="st41" d="M608,1174.2c0,0-5.1,12.2-4.9,28.5c0.3,22.5,18.4,40.7,40.8,41.9l184.5,8.4c3.9,0.2,7.2,2.9,8.2,6.7
					c4.3,16.8,25.5,68.3,129.1,171c2.8,2.7,7,3.2,10.3,1.1l14.8-9.3c1.5-1,2-3,1.1-4.6l-107.4-183.4c-5.6-9.3-14.7-16-25.3-18.7
					L702,1175.5L608,1174.2z"/>
				
					<linearGradient id="SVGID_38_" gradientUnits="userSpaceOnUse" x1="819.5877" y1="761.1452" x2="745.5876" y2="668.145" gradientTransform="matrix(1 0 0 -1 0 1650)">
					<stop  offset="0" style="stop-color:#FF928E"/>
					<stop  offset="1" style="stop-color:#FEB3B1"/>
				</linearGradient>
				<path class="st42" d="M789.8,887.7c0,0-19.8,34.9-39.9,51.9l41.7,23.2c0,0,9.4-37,30.8-47.8L789.8,887.7z"/>
				
					<linearGradient id="SVGID_39_" gradientUnits="userSpaceOnUse" x1="706.4318" y1="601.4236" x2="892.9395" y2="295.2397" gradientTransform="matrix(1 0 0 -1 0 1650)">
					<stop  offset="0" style="stop-color:#FE7062"/>
					<stop  offset="1" style="stop-color:#FF928E"/>
				</linearGradient>
				<path class="st43" d="M604.6,1175.5c0,0,49.8,12.1,97.3,0c0,0,66.5-89.4,92.3-113.8c0,0,41,64.8,132.4,74l5.1-11.4
					c0,0-72.7-33.5-95.1-85.1c-22.4-51.5-31.4-73.5-51.8-86.9c-12.7-8.4-20.3-14.1-24.2-17.2c-2.2-1.7-5.1-1.9-7.5-0.5
					C731.5,947.8,629.8,1017.5,604.6,1175.5z"/>
				
					<linearGradient id="SVGID_40_" gradientUnits="userSpaceOnUse" x1="930.6838" y1="1561.3314" x2="866.6836" y2="1161.3318" gradientTransform="matrix(1 0 0 -1 0 1650)">
					<stop  offset="0" style="stop-color:#E1473D"/>
					<stop  offset="1" style="stop-color:#E9605A"/>
				</linearGradient>
				<path class="st44" d="M791.5,1062.3c-1.5,0-3-0.7-4-2c-16-20.9-25-43.9-25.3-44.9c-1-2.6,0.3-5.5,2.9-6.5s5.5,0.3,6.5,2.9
					c0.1,0.2,8.8,22.7,23.9,42.4c1.7,2.2,1.3,5.3-0.9,7C793.7,1062,792.6,1062.3,791.5,1062.3z"/>
				
					<linearGradient id="SVGID_41_" gradientUnits="userSpaceOnUse" x1="921.14" y1="532.3961" x2="1000.4899" y2="532.3961" gradientTransform="matrix(1 0 0 -1 0 1650)">
					<stop  offset="0" style="stop-color:#FF928E"/>
					<stop  offset="1" style="stop-color:#FEB3B1"/>
				</linearGradient>
				<path class="st45" d="M921.1,1118.4l10.3-2.7l31.2-7.2c3.8-0.9,7.7-0.2,11,1.8l26.8,16.9l-74.2-0.1L921.1,1118.4z"/>
				<g>
					
						<linearGradient id="SVGID_42_" gradientUnits="userSpaceOnUse" x1="2420.6389" y1="1015.3519" x2="2490.6387" y2="864.3521" gradientTransform="matrix(0.9914 -0.1306 -0.1306 -0.9914 -1889.1356 1523.6167)">
						<stop  offset="0" style="stop-color:#FF928E"/>
						<stop  offset="1" style="stop-color:#FEB3B1"/>
					</linearGradient>
					<path class="st46" d="M821.2,835.3c0,0,19.2,31.9,22.5,49.6c3.3,17.7,8.7,28.7-11.4,35c-20.1,6.3-38.8-1.7-50.5-18.1
						c0,0-18.3-25.3-16.5-37C767.2,853.1,821.2,835.3,821.2,835.3z"/>
					
						<linearGradient id="SVGID_43_" gradientUnits="userSpaceOnUse" x1="2720.4622" y1="349.7621" x2="2797.4529" y2="250.6366" gradientTransform="matrix(0.9914 -0.1306 -0.1306 -0.9914 -1889.1356 1523.6167)">
						<stop  offset="0" style="stop-color:#09005D"/>
						<stop  offset="1" style="stop-color:#1A0F91"/>
					</linearGradient>
					<path class="st47" d="M787.2,888l2.6-0.3c0,0-13.6-20.5-4.7-25.7c8.9-5.1,45.2-17.6,51.5-31.9c6.1-13.8-3-29.3-14-32.6
						c-0.7-0.2-1.4,0.2-1.7,0.9l-0.6,1.7c-0.4,1.2-2.1,1.2-2.6,0.1l0,0c-0.5-1.1-2.1-1.2-2.5,0c-1.9,4.3-7.8,11.6-25.2,17.2
						c-24.8,8-40.2,20.5-38.3,38.1c0.1,1.1-1,1.9-2,1.4c-2-0.9-5.1-1-8.7,2.9c-6.2,6.8-1.3,21.6,15.6,32.1c0.8,0.5,1,1.6,0.2,2.2
						c-2.5,2.2-6.1,7,5.3,11.3c11.7,4.4,18.1,2.9,20.5,2c0.6-0.3,1-0.9,0.9-1.6l-3-15.4c-0.2-0.8,0.4-1.6,1.2-1.7L787.2,888z"/>
					
						<linearGradient id="SVGID_44_" gradientUnits="userSpaceOnUse" x1="2393.5349" y1="1002.7874" x2="2463.5349" y2="851.7874" gradientTransform="matrix(0.9914 -0.1306 -0.1306 -0.9914 -1889.1356 1523.6167)">
						<stop  offset="0" style="stop-color:#FF928E"/>
						<stop  offset="1" style="stop-color:#FEB3B1"/>
					</linearGradient>
					<path class="st48" d="M788.2,891.2c0,0-8.5-20.9-17.4-13.5c-8.9,7.3,8.2,23.6,16.1,23.4L788.2,891.2z"/>
				</g>
			</g>
			<g>
				<g>
					
						<linearGradient id="SVGID_45_" gradientUnits="userSpaceOnUse" x1="8160.7129" y1="13317.8057" x2="7948.5269" y2="13112.6631" gradientTransform="matrix(-1.388 -6.860000e-02 6.850000e-02 -1.3855 -5666.1514 1979.3313)">
						<stop  offset="0" style="stop-color:#09005D"/>
						<stop  offset="1" style="stop-color:#1A0F91"/>
					</linearGradient>
					<path class="st49" d="M892.5,1141.7c0.1,0,0.2,0,0.4,0l158.4-0.2c3.9,0,7.1-3.2,7.1-7.1c0-3.9-3.2-7.1-7.1-7.1l-158.4,0.2
						c-3.9,0-7.1,3.2-7.1,7.1C885.8,1138.4,888.8,1141.5,892.5,1141.7z"/>
				</g>
				<g>
					
						<linearGradient id="SVGID_46_" gradientUnits="userSpaceOnUse" x1="5459.4077" y1="12621.0293" x2="5247.231" y2="12415.8955" gradientTransform="matrix(0.6475 -1.2297 1.2274 0.6463 5716.498 -8183.1875)">
						<stop  offset="0" style="stop-color:#09005D"/>
						<stop  offset="1" style="stop-color:#1A0F91"/>
					</linearGradient>
					<path class="st50" d="M1112.6,986.6c-0.1,0.1-0.1,0.2-0.2,0.3l-66.7,143.7c-1.7,3.6-0.1,7.8,3.4,9.4c3.6,1.7,7.8,0.1,9.4-3.5
						l66.7-143.7c1.7-3.5,0.1-7.8-3.4-9.4C1118.4,981.9,1114.4,983.3,1112.6,986.6z"/>
				</g>
			</g>
			<g>
				<g>
					<rect x="1510.7" y="1286.1" class="st13" width="16.7" height="180.8"/>
					<path class="st13" d="M1592.3,1470.4h-146.4l0,0c0-6,4.9-10.9,10.9-10.9h124.7C1587.4,1459.5,1592.3,1464.4,1592.3,1470.4
						L1592.3,1470.4z"/>
					<path class="st13" d="M1614,1279.8c0,9.9-8.1,18-18,18h-148.2c-9.9,0-18-8.1-18-18v-16.3c0-9.9,8.1-18,18-18H1596
						c9.9,0,18,8.1,18,18V1279.8z"/>
				</g>
				<g>
					
						<linearGradient id="SVGID_47_" gradientUnits="userSpaceOnUse" x1="1472.7031" y1="368.0728" x2="1184.7036" y2="238.073" gradientTransform="matrix(1 0 0 -1 0 1650)">
						<stop  offset="0" style="stop-color:#FF928E"/>
						<stop  offset="1" style="stop-color:#FEB3B1"/>
					</linearGradient>
					<path class="st51" d="M1395.6,1165.6c0,0-24.8,3.8-52.8,22.5c-4.4,2.9-6.8,8.1-6.2,13.3c3.3,26.5,17.1,112.2,62.4,196
						c2.4,4.4,3.1,9.6,2,14.5l-7.9,36.7l-14.6,13.7h37.6l25.1-67.8l-10.7-3.4c-8.3-2.6-14-10.3-14.2-19l-1.3-72.7
						c1.1-32.4-19.9-54.8-19.9-54.8l60.1-2.9L1395.6,1165.6z"/>
					
						<linearGradient id="SVGID_48_" gradientUnits="userSpaceOnUse" x1="1409.3444" y1="258.6371" x2="1391.8594" y2="-9.4672" gradientTransform="matrix(1 0 0 -1 0 1650)">
						<stop  offset="0" style="stop-color:#09005D"/>
						<stop  offset="1" style="stop-color:#1A0F91"/>
					</linearGradient>
					<path class="st52" d="M1364,1468.8c-3.4,4.5,36.9,10.4,57.3,0.6c0,0,28.2-49.1,28.2-74.4c0,0-2.2-5.2-18.8-4
						c0,0-9.5,58.2-19.5,64.7c-10,6.5-28,0.7-28,0.7S1369.1,1462.2,1364,1468.8z"/>
					
						<linearGradient id="SVGID_49_" gradientUnits="userSpaceOnUse" x1="1125.3339" y1="626.7466" x2="1197.3339" y2="508.7467" gradientTransform="matrix(1 0 0 -1 0 1650)">
						<stop  offset="0" style="stop-color:#FF928E"/>
						<stop  offset="1" style="stop-color:#FEB3B1"/>
					</linearGradient>
					<path class="st53" d="M1447.9,1245.6c-0.3-0.6-64.7-7.7-64.7-7.7s2.1,19.6-4.5,46.5c-6.6,26.9-101.1,143.7-101.1,143.7
						l9.9,31.4c-30.7,10.7-60.8,12.4-90.5,5.4l61.4-36.9c0,0,57.5-195.9,92.7-230.9l64.5-22.3L1447.9,1245.6z"/>
					
						<linearGradient id="SVGID_50_" gradientUnits="userSpaceOnUse" x1="1351.8" y1="458.845" x2="1632.8394" y2="458.845" gradientTransform="matrix(1 0 0 -1 0 1650)">
						<stop  offset="0" style="stop-color:#09005D"/>
						<stop  offset="1" style="stop-color:#1A0F91"/>
					</linearGradient>
					<path class="st54" d="M1592.3,1131.6c0,0,37.1,55.2,40.1,80.3c3,25.2-10.2,35.4-49.1,37.1c-38.9,1.7-142.8,1.7-142.8,1.7
						l-88.7-75.8c0,0,64.6-23.1,81.4-29.6C1450.1,1138.8,1592.3,1131.6,1592.3,1131.6z"/>
					
						<linearGradient id="SVGID_51_" gradientUnits="userSpaceOnUse" x1="1240.6141" y1="269.6412" x2="1223.129" y2="1.5366" gradientTransform="matrix(1 0 0 -1 0 1650)">
						<stop  offset="0" style="stop-color:#09005D"/>
						<stop  offset="1" style="stop-color:#1A0F91"/>
					</linearGradient>
					<path class="st55" d="M1283.7,1448.9c0,0,10.7,10.3,3.5,21.8c0,0-84.5,15-107.5,8.2c0,0,4.8-10.9,30.6-23.3l-1.9,1.5
						c-2.4,1.8-1,5.7,2,5.5C1227.5,1461.8,1262.7,1458.6,1283.7,1448.9z"/>
				</g>
				<g>
					
						<linearGradient id="SVGID_52_" gradientUnits="userSpaceOnUse" x1="1549.7764" y1="928.226" x2="1508.395" y2="710.8271" gradientTransform="matrix(1 0 0 -1 0 1650)">
						<stop  offset="0" style="stop-color:#09005D"/>
						<stop  offset="1" style="stop-color:#1A0F91"/>
					</linearGradient>
					<path class="st56" d="M1431.6,781.7c75.8-12.9,111.5,49,108.9,62c-0.3,1.7,1.3,3.2,3,2.7c8.7-2.3,27.9-5.3,39.9,9.6
						c10.5,13.2,2.7,25.6-3.8,32.5c-1.6,1.7-0.2,4.3,2,4c16-2,50.8-2.5,56.5,30.1c5.3,30.4-15.8,39-28.4,41.4
						c-2.1,0.4-2.6,3.2-0.8,4.4c6.3,4,13.5,12.2,10.6,28.4c-4.6,25.4-54.3,23.3-60.2,23c-0.4,0-0.7-0.1-1-0.3l-79.7-45.4
						c-0.6-0.3-1.1-1-1.2-1.7l-16.1-92.9c-0.1-0.8,0.1-1.5,0.6-2.1l-51.9-73.3C1391.2,801.2,1430.7,781.8,1431.6,781.7z"/>
					
						<linearGradient id="SVGID_53_" gradientUnits="userSpaceOnUse" x1="1475.5803" y1="691.5421" x2="1608.8762" y2="401.4281" gradientTransform="matrix(1 0 0 -1 0 1650)">
						<stop  offset="0" style="stop-color:#FE7062"/>
						<stop  offset="1" style="stop-color:#FF928E"/>
					</linearGradient>
					<path class="st57" d="M1491.9,1124.3c0,0-43.2-41.1-64.5-68.4c-11.5-14.7-15.1-34.1-9.8-52c9.7-32.7,27-66.6,28.5-71.9
						c2.4-8.1,50.8-7.8,50.8-7.8s95.3,61.9,132.8,166.7l-42.1,13.1c0,0-24.9-41.8-49.5-68.3c0,0,42.6,56.2,44.1,79.2L1491.9,1124.3z
						"/>
					
						<linearGradient id="SVGID_54_" gradientUnits="userSpaceOnUse" x1="1443.1488" y1="789.5148" x2="1490.149" y2="688.5145" gradientTransform="matrix(1 0 0 -1 0 1650)">
						<stop  offset="0" style="stop-color:#FF928E"/>
						<stop  offset="1" style="stop-color:#FEB3B1"/>
					</linearGradient>
					<path class="st58" d="M1440.4,886.9c0.5,1.7,13.2,43.6,14.1,44.5s27.7,2.3,40.3-6.3l-31.2-61.1L1440.4,886.9z"/>
					<g>
						
							<linearGradient id="SVGID_55_" gradientUnits="userSpaceOnUse" x1="-357.89" y1="-3877.2688" x2="-373.89" y2="-3759.2683" gradientTransform="matrix(0.6042 -0.7968 -0.7968 -0.6042 -703.6429 -1342.5266)">
							<stop  offset="0" style="stop-color:#FF928E"/>
							<stop  offset="1" style="stop-color:#FEB3B1"/>
						</linearGradient>
						<path class="st59" d="M1389.7,833c0,0-6.1,24,10.8,56.3s36,32.3,46.5,21.9s23.4-27.9,20.3-59.1
							C1464.2,820.9,1398.5,802.5,1389.7,833z"/>
						
							<linearGradient id="SVGID_56_" gradientUnits="userSpaceOnUse" x1="-431.3731" y1="-2919.6926" x2="-472.7549" y2="-3137.094" gradientTransform="matrix(0.6042 -0.7968 -0.7968 -0.6042 -703.6429 -1342.5266)">
							<stop  offset="0" style="stop-color:#09005D"/>
							<stop  offset="1" style="stop-color:#1A0F91"/>
						</linearGradient>
						<path class="st60" d="M1443.9,853.8c0,0-28.1-42.9-54.3-9.1l-0.5,12.3c0,0-30.8-3.7-25.4-31.9c5.4-28.2,32-45.9,66.3-33.7
							c34.3,12.2,53.9,24.8,56.1,49.3c2.2,24.6-17.3,19.2-17.3,19.2s-6.4-17.3-15.4-19.1c-9.1-1.8-6.7,11.7-6.7,11.7L1443.9,853.8z"
							/>
						
							<linearGradient id="SVGID_57_" gradientUnits="userSpaceOnUse" x1="-327.4741" y1="-3873.1475" x2="-343.4741" y2="-3755.1475" gradientTransform="matrix(0.6042 -0.7968 -0.7968 -0.6042 -703.6429 -1342.5266)">
							<stop  offset="0" style="stop-color:#FF928E"/>
							<stop  offset="1" style="stop-color:#FEB3B1"/>
						</linearGradient>
						<path class="st61" d="M1454.1,860.3c0,0-14.6-22,0.4-25.2c14.9-3.3,12.6,21.4,11,30.5L1454.1,860.3z"/>
					</g>
					
						<linearGradient id="SVGID_58_" gradientUnits="userSpaceOnUse" x1="1459.9192" y1="828.915" x2="1477.9191" y2="740.9153" gradientTransform="matrix(1 0 0 -1 0 1650)">
						<stop  offset="0" style="stop-color:#FF928E"/>
						<stop  offset="1" style="stop-color:#FEB3B1"/>
					</linearGradient>
					<path class="st62" d="M1403.9,1127.4l31.7-30.6l43.9,18.6c0,0,43.7,6.8,68.7,0s25-6.8,25-6.8l56.5-17.6l8.9,25.1
						c2.2,6.4,0,13.4-5.5,17.4c-4.9,3.5-10.6,7.3-14.3,8.9c-7.4,3.3-183.5-2.2-183.5-2.2L1403.9,1127.4z"/>
				</g>
				<g>
					
						<linearGradient id="SVGID_59_" gradientUnits="userSpaceOnUse" x1="1500.8551" y1="408.7742" x2="1352.512" y2="368.1172" gradientTransform="matrix(0.9988 -4.940000e-02 -4.940000e-02 -0.9988 76.436 1575.2971)">
						<stop  offset="0" style="stop-color:#09005D"/>
						<stop  offset="1" style="stop-color:#1A0F91"/>
					</linearGradient>
					<path class="st63" d="M1524.1,1141.8c-0.1,0-0.3,0-0.4,0l-184.1-0.2c-4.6,0-8.2-3.7-8.2-8.2c0-4.6,3.7-8.3,8.2-8.2l184.1,0.2
						c4.6,0,8.2,3.7,8.2,8.2C1531.9,1138,1528.4,1141.6,1524.1,1141.8z"/>
					
						<linearGradient id="SVGID_60_" gradientUnits="userSpaceOnUse" x1="1354.5204" y1="652.9632" x2="1249.264" y2="541.7138" gradientTransform="matrix(1 0 0 -1 0 1650)">
						<stop  offset="0" style="stop-color:#09005D"/>
						<stop  offset="1" style="stop-color:#1A0F91"/>
					</linearGradient>
					<path class="st64" d="M1174,974.6h153.3c11.3,0,21.6,6.5,26.4,16.8l70.9,150.3h-190.6c-7.3,0-13.8-4.4-16.5-11.2l-55-139.1
						C1159.4,983.3,1165.4,974.6,1174,974.6z"/>
					<path class="st13" d="M1282,1051.7c3.3,10.3,0.9,20.3-5.5,22.4s-14.2-4.7-17.5-15c-3.3-10.3-0.9-20.3,5.5-22.4
						C1270.9,1034.7,1278.7,1041.4,1282,1051.7z"/>
				</g>
			</g>
			<g>
				<g>
					
						<linearGradient id="SVGID_61_" gradientUnits="userSpaceOnUse" x1="-9083.2607" y1="8.0705" x2="-9081.7061" y2="-156.6784" gradientTransform="matrix(-1 0 0 -1 -7399.2798 1650)">
						<stop  offset="0" style="stop-color:#09005D"/>
						<stop  offset="1" style="stop-color:#1A0F91"/>
					</linearGradient>
					<path class="st65" d="M1734,1447.6c0,0,1.9,10.7,2.7,23.5c0.3,5.4-3.7,10.1-9.1,10.7c-18.8,1.8-61.7,5.2-89.1,1.2
						c-3.8-0.6-5.4-5.3-2.5-7.9c11.3-10.5,38.6-31,83.5-35.5L1734,1447.6z"/>
					
						<linearGradient id="SVGID_62_" gradientUnits="userSpaceOnUse" x1="-9122.9688" y1="192.0541" x2="-9131.5176" y2="258.8856" gradientTransform="matrix(-1 0 0 -1 -7399.2798 1650)">
						<stop  offset="0" style="stop-color:#FF928E"/>
						<stop  offset="1" style="stop-color:#FEB3B1"/>
					</linearGradient>
					<path class="st66" d="M1743.3,1423.4l-9.5,23.3c-1.3,3.2-4.6,5.2-8,4.8c-2.3-0.2-5.1-0.7-7.8-1.5c-5.4-1.6-8.4-7.3-6.8-12.7
						l7.2-24.1L1743.3,1423.4z"/>
					
						<linearGradient id="SVGID_63_" gradientUnits="userSpaceOnUse" x1="-9305.8467" y1="5.972" x2="-9304.293" y2="-158.7755" gradientTransform="matrix(-1 0 0 -1 -7399.2798 1650)">
						<stop  offset="0" style="stop-color:#09005D"/>
						<stop  offset="1" style="stop-color:#1A0F91"/>
					</linearGradient>
					<path class="st67" d="M1906.2,1466.2c0,0-19.1,16-26.5,36.4c-2,5.6,2.3,11.6,8.3,11.6h39.3c5.8,0,10.2-5.2,9.2-10.8
						C1933.9,1489.3,1926.7,1466.3,1906.2,1466.2z"/>
					
						<linearGradient id="SVGID_64_" gradientUnits="userSpaceOnUse" x1="-9309.8115" y1="169.1478" x2="-9318.1416" y2="234.2735" gradientTransform="matrix(-1 0 0 -1 -7399.2798 1650)">
						<stop  offset="0" style="stop-color:#FF928E"/>
						<stop  offset="1" style="stop-color:#FEB3B1"/>
					</linearGradient>
					<path class="st68" d="M1929.9,1445.4c0,0-3.8,17.1-6.8,28.3c-0.5,2.1-2.7,3.2-4.7,2.5c-5.9-2.1-10.8-3.1-14.3-2.6
						c-1.6,0.2-3-1.1-3.1-2.8l-0.4-28.3L1929.9,1445.4z"/>
					
						<linearGradient id="SVGID_65_" gradientUnits="userSpaceOnUse" x1="-9368.0029" y1="416.6102" x2="-9111.6201" y2="416.6102" gradientTransform="matrix(-1 0 0 -1 -7399.2798 1650)">
						<stop  offset="0" style="stop-color:#09005D"/>
						<stop  offset="1" style="stop-color:#1A0F91"/>
					</linearGradient>
					<path class="st69" d="M1828.4,1061.6l-116.1,354c0,0,22.3,14.6,32.9,14l137.8-284.5c0,0,24.1,175.3,12.4,301.2l39.5,3
						c0,0,64.2-321.7,15.6-431.8L1828.4,1061.6z"/>
					
						<linearGradient id="SVGID_66_" gradientUnits="userSpaceOnUse" x1="1874.7649" y1="522.8614" x2="1731.7645" y2="411.861" gradientTransform="matrix(1 0 0 -1 0 1650)">
						<stop  offset="0" style="stop-color:#020039"/>
						<stop  offset="1" style="stop-color:#090056"/>
					</linearGradient>
					<path class="st70" d="M1882.3,1142c0.1,0,0.1,0,0.1,0c0.6-0.1,1.1-0.6,1-1.3l-4.5-35.8c-0.1-0.6-0.6-1-1.3-1
						c-0.6,0.1-1.1,0.6-1,1.3l4.5,35.8C1881.3,1141.6,1881.8,1142,1882.3,1142z"/>
				</g>
				
					<linearGradient id="SVGID_67_" gradientUnits="userSpaceOnUse" x1="-9161.3799" y1="847.7145" x2="-9321.4658" y2="372.1217" gradientTransform="matrix(-1 0 0 -1 -7399.2798 1650)">
					<stop  offset="0" style="stop-color:#4042E2"/>
					<stop  offset="1" style="stop-color:#4F52FF"/>
				</linearGradient>
				<path class="st71" d="M1806.6,750.1c0,0,94,8.3,80.7,75.3c0,0,52,97.8,76.3,213c0.8,3.8-1.7,7.4-5.5,8.1l-156.6,26.8
					c-4.3,0.7-8.5-1.9-9.6-6.2l-37.4-144.6l-14.6,67.2l-46.3-12.1l39-197.5C1732.7,780.1,1738.1,751.3,1806.6,750.1z"/>
				<path class="st13" d="M1753.8,916c0.1,0,0.2,0,0.2,0c0.6-0.1,1-0.8,0.9-1.4l-13.1-59.9c-0.1-0.6-0.8-1-1.4-0.9
					c-0.6,0.1-1,0.8-0.9,1.4l13.1,59.9C1752.7,915.7,1753.2,916,1753.8,916z"/>
				
					<linearGradient id="SVGID_68_" gradientUnits="userSpaceOnUse" x1="-9246.8398" y1="596.89" x2="-9130.0898" y2="596.89" gradientTransform="matrix(-1 0 0 -1 -7399.2798 1650)">
					<stop  offset="0" style="stop-color:#FF928E"/>
					<stop  offset="1" style="stop-color:#FEB3B1"/>
				</linearGradient>
				<path class="st72" d="M1763.2,1094.4c4.9-2.7,10.7-3.5,16.2-2.1l10.9,2.7c2.3,0.6,4.6-1,4.9-3.4l11.3-100.3
					c14.1,6.7,34.4,5.9,41.1,5.4l-25.9,118.3h-90.8L1763.2,1094.4z"/>
				
					<linearGradient id="SVGID_69_" gradientUnits="userSpaceOnUse" x1="-9139.2598" y1="743.2324" x2="-8921.2295" y2="743.2324" gradientTransform="matrix(-1 0 0 -1 -7399.2798 1650)">
					<stop  offset="0" style="stop-color:#FF928E"/>
					<stop  offset="1" style="stop-color:#FEB3B1"/>
				</linearGradient>
				<path class="st73" d="M1521.9,876.7l2.7-9.1c1.6-5.2,5.5-9.5,10.6-11.5l49.6-20c0,0,0.8-6.4-10.5-10.7
					c-11.2-4.3-8.6-16.9-8.6-16.9s15.3,7,37.8,18.1c12.8,6.3,20.1,17.6,23.9,26L1740,989.8l-13.2,9.1c-17.4,11.9-41.2,6.1-51.1-12.5
					l-60.9-116.8C1584.1,878.6,1553.2,880.4,1521.9,876.7z"/>
				<g>
					
						<linearGradient id="SVGID_70_" gradientUnits="userSpaceOnUse" x1="-9217.7539" y1="865.523" x2="-9141.876" y2="943.3716" gradientTransform="matrix(-1 0 0 -1 -7399.2798 1650)">
						<stop  offset="0" style="stop-color:#FF928E"/>
						<stop  offset="1" style="stop-color:#FEB3B1"/>
					</linearGradient>
					<path class="st74" d="M1776.2,686.1l28.9,80.9c0,0-25.6,20-44.3,13.2l-14.6-46.4C1746.2,733.9,1757.4,677.2,1776.2,686.1z"/>
					<g>
						
							<linearGradient id="SVGID_71_" gradientUnits="userSpaceOnUse" x1="2095.8467" y1="1044.0601" x2="1443.8468" y2="912.0596" gradientTransform="matrix(1 0 0 -1 0 1650)">
							<stop  offset="0" style="stop-color:#FF928E"/>
							<stop  offset="1" style="stop-color:#FEB3B1"/>
						</linearGradient>
						<path class="st75" d="M1730.3,629.5c-0.8,1.1-24.3,86.5-24.3,86.5l49.1,12.4l34.4-77.7
							C1789.4,650.8,1743.2,611.2,1730.3,629.5z"/>
						
							<linearGradient id="SVGID_72_" gradientUnits="userSpaceOnUse" x1="-7337.1665" y1="932.5726" x2="-7215.7168" y2="932.5726" gradientTransform="matrix(-0.8174 -0.576 0.576 -0.8174 -4743.5181 -2751.1919)">
							<stop  offset="0" style="stop-color:#09005D"/>
							<stop  offset="1" style="stop-color:#1A0F91"/>
						</linearGradient>
						<path class="st76" d="M1770.9,662.6l-14.9,42.3c-0.2,0.5-0.4,1-0.8,1.5c-2,2.9-9.7,12.3-18.8,3.8c-8.3-7.7-16-14.5-23.1-15.8
							c-3.2-0.6-6.3,1.4-7.1,4.5c-2.1,7.8-6.6,25.3-8.2,41.2c-0.3,3.2,1.9,6.1,5.1,6.7c9.6,1.8,29.9,5.1,46.9,3.9
							c2.3-0.2,4.3-1.5,5.3-3.6c4.7-10.2,19-41.2,24.3-49.2c5-7.5,17.2-7.3,22.4-6.9c1.7,0.2,3.3-0.4,4.6-1.5c4.5-3.9,13-14,1-26
							c-2.5-2.5-2.5-6.6,0.1-9c5.2-4.9,10.7-13.5,2.1-24.2c-8.8-10.9-20.3-9.1-27.4-6.5c-2.9,1-6-0.2-7.5-2.8
							c-0.9-1.5-2.4-2.6-5.1-2.4c-3.6,0.3-6.7-2.7-6.6-6.3c0.1-7-2.4-15.8-14.5-19.5c-21.4-6.7-34.8,14.1-36.1,29.5
							c-1.3,15.5,22.3,21.3,36.2,20.3c10.6-0.8,18.4,9.7,21.6,14.7C1771.3,658.9,1771.6,660.8,1770.9,662.6z"/>
						
							<linearGradient id="SVGID_73_" gradientUnits="userSpaceOnUse" x1="-7408.4478" y1="858.4899" x2="-7326.895" y2="942.1608" gradientTransform="matrix(-0.8174 -0.576 0.576 -0.8174 -4743.5181 -2751.1919)">
							<stop  offset="0" style="stop-color:#FF928E"/>
							<stop  offset="1" style="stop-color:#FEB3B1"/>
						</linearGradient>
						<path class="st77" d="M1773.9,713.2c0,0,3.4-26.8,14.6-28.1s22,7.8,10.9,22.9C1785.7,726.7,1773.9,713.2,1773.9,713.2z"/>
					</g>
				</g>
				<path class="st13" d="M1838.4,998.2c6.4,0,11-0.5,11.5-0.5l0.8-0.1l34.2-159.6c0.1-0.6-0.3-1.2-0.9-1.4
					c-0.6-0.1-1.2,0.3-1.4,0.9l-33.9,158c-5.1,0.5-32.3,2.2-46.7-7.9l29.7-138.7l-6.2-11.7c-0.3-0.6-1-0.8-1.6-0.5
					c-0.6,0.3-0.8,1-0.5,1.6l5.8,10.9l-29.8,139.3l0.6,0.5C1810.6,996.7,1827.3,998.2,1838.4,998.2z"/>
			</g>
			<g>
				<path class="st13" d="M812,1484.8c-0.8,0-1.6-0.2-2.3-0.5c-3-1.4-4.4-5.2-3.1-8.6l125.1-317.4c1.3-3.3,4.8-4.8,7.8-3.4
					c3,1.4,4.4,5.2,3.1,8.6l-125.1,317.4C816.6,1483.4,814.4,1484.8,812,1484.8z"/>
				<path class="st13" d="M953,1484.8c-2.3,0-4.5-1.5-5.5-3.9l-125.1-317.4c-1.3-3.3,0.1-7.1,3.1-8.6s6.5,0.1,7.8,3.4l125.1,317.4
					c1.3,3.3-0.1,7.1-3.1,8.6C954.6,1484.7,953.8,1484.8,953,1484.8z"/>
				<path class="st13" d="M1661.1,1484.8c-0.8,0-1.6-0.2-2.3-0.5c-3-1.4-4.4-5.2-3.1-8.6l125.1-317.4c1.3-3.3,4.8-4.8,7.8-3.4
					c3,1.4,4.4,5.2,3.1,8.6l-125.1,317.4C1665.6,1483.4,1663.4,1484.8,1661.1,1484.8z"/>
				<path class="st13" d="M1802.1,1484.8c-2.3,0-4.5-1.5-5.5-3.9l-125.1-317.4c-1.3-3.3,0.1-7.1,3.1-8.6s6.5,0.1,7.8,3.4
					l125.1,317.4c1.3,3.3-0.1,7.1-3.1,8.6C1803.7,1484.7,1802.8,1484.8,1802.1,1484.8z"/>
			</g>
			<g>
				<path class="st2" d="M1643,1135.9h181.2v-18.7H1643C1646.8,1117.2,1646.8,1135.9,1643,1135.9z"/>
				
					<linearGradient id="SVGID_74_" gradientUnits="userSpaceOnUse" x1="-5311.4131" y1="420.2664" x2="-5312.1895" y2="466.867" gradientTransform="matrix(-1 0 0 -1 -3573.2798 1650)">
					<stop  offset="0" style="stop-color:#4042E2"/>
					<stop  offset="1" style="stop-color:#4F52FF"/>
				</linearGradient>
				<path class="st78" d="M1823.2,1135.9c0.6,0,1-0.4,1-1v-16.7c0-0.6-0.4-1-1-1h-184.7c-0.6,0-1-0.4-1-1v-2.2c0-0.6,0.4-1,1-1
					h196.1c4.3,0,7.8,3.5,7.8,7.8v11.9c0,4.1-3.3,7.4-7.4,7.4h-196.6c-0.6,0-1-0.4-1-1v-2.2c0-0.6,0.4-1,1-1H1823.2z"/>
			</g>
			<path class="st13" d="M1850.4,1148.5c0.6-2.1-0.2-4.2-2.3-5.9s-5.1-2.6-8.3-2.6H754.2c-4.2,0-8.1,1.4-10.4,3.8
				c-2.3,2.4-2.6,5.3-0.8,7.8l11.8,16.9c2.7,3.9,8.5,6.3,15,6.3h1062.8c6,0,11.1-2.8,12.2-6.7L1850.4,1148.5z"/>
		</g>
		<g>
			<g>
				<path class="st13" d="M2189.5,1384.3c-2.8,0-5.5-1.6-6.7-4.2l-7.2-14.8c-7.7-1.1-15.1-3.2-22.3-6.2l-13.9,9
					c-2.7,1.7-6.2,1.6-8.7-0.4l-18.6-14.6c-2.5-2-3.5-5.3-2.5-8.4l5.4-15.6c-4.6-6.2-8.5-13-11.4-20.2l-16.1-3.5
					c-3.1-0.7-5.5-3.2-5.9-6.4l-2.8-23.4c-0.4-3.2,1.3-6.2,4.2-7.6l14.8-7.2c1.1-7.7,3.2-15.2,6.2-22.3l-9-13.8
					c-1.7-2.7-1.6-6.2,0.4-8.7l14.6-18.6c2-2.5,5.3-3.5,8.4-2.5l15.6,5.4c6.2-4.7,13-8.5,20.2-11.4l3.5-16.1
					c0.7-3.1,3.3-5.5,6.4-5.9l23.4-2.8c3.2-0.4,6.2,1.3,7.6,4.1l7.2,14.8c7.7,1.1,15.1,3.2,22.3,6.2l13.9-9c2.7-1.7,6.2-1.6,8.7,0.4
					l18.6,14.6c2.5,2,3.5,5.3,2.5,8.3l-5.4,15.6c4.6,6.2,8.5,13,11.4,20.2l16.1,3.5c3.1,0.7,5.5,3.2,5.9,6.4l2.8,23.4
					c0.4,3.2-1.3,6.2-4.2,7.6l-14.8,7.2c-1.1,7.7-3.2,15.2-6.2,22.3l9,13.8c1.7,2.7,1.6,6.2-0.4,8.7l-14.6,18.6
					c-2,2.5-5.3,3.5-8.3,2.5l-15.6-5.4c-6.2,4.7-13,8.5-20.2,11.4l-3.5,16.1c-0.7,3.1-3.3,5.5-6.4,5.9l-23.4,2.8
					C2190.1,1384.3,2189.8,1384.3,2189.5,1384.3z M2152.2,1345.7l2.9,1.4c7.9,3.7,16.3,6,24.9,7l3.2,0.3l8.7,17.9l17.4-2.1l4.2-19.4
					l3-1.1c8.1-3,15.7-7.3,22.5-12.7l2.5-2l18.8,6.5l10.8-13.8l-10.8-16.7l1.4-2.9c3.7-7.9,6-16.3,7-24.9l0.4-3.2l17.9-8.7
					l-2.1-17.4l-19.4-4.2l-1.1-3c-3-8.2-7.3-15.7-12.7-22.5l-2-2.5l6.5-18.8l-13.8-10.8l-16.7,10.8l-2.9-1.4c-7.9-3.7-16.3-6-24.9-7
					l-3.2-0.3l-8.7-17.9l-17.4,2.1l-4.2,19.4l-3.1,1.1c-8.1,3-15.7,7.3-22.5,12.7l-2.5,2l-18.8-6.5l-10.8,13.8l10.8,16.7l-1.4,2.9
					c-3.7,7.9-6,16.3-7,24.9l-0.4,3.2l-17.9,8.7l2.1,17.4l19.4,4.2l1.1,3.1c3,8.2,7.3,15.7,12.7,22.5l2,2.5l-6.5,18.8l13.8,10.8
					L2152.2,1345.7z M2133,1358.1L2133,1358.1L2133,1358.1z M2120.8,1348.5L2120.8,1348.5L2120.8,1348.5z M2119.3,1343.8
					L2119.3,1343.8C2119.4,1343.8,2119.3,1343.8,2119.3,1343.8z M2119.3,1204.6L2119.3,1204.6
					C2119.3,1204.6,2119.3,1204.6,2119.3,1204.6z M2188.4,1336.7c-14,0-27.4-4.6-38.6-13.4c-13.2-10.3-21.6-25.2-23.6-41.9
					c-4.2-34.4,20.4-65.8,54.8-69.9c16.6-2,33.1,2.6,46.3,12.9c13.2,10.3,21.6,25.2,23.6,41.9c0.5,4.4,0.6,8.9,0.2,13.4
					c-0.3,3.2-3.1,5.6-6.4,5.3c-3.2-0.3-5.6-3.2-5.3-6.4c0.3-3.6,0.3-7.3-0.2-10.9c-1.6-13.5-8.5-25.6-19.2-34.1
					s-24.1-12.1-37.6-10.5c-27.9,3.4-47.9,28.9-44.6,56.8c1.6,13.5,8.5,25.6,19.2,34s24.1,12.1,37.6,10.5
					c9.2-1.1,17.9-4.7,25.2-10.3c2.6-2,6.2-1.5,8.2,1c2,2.6,1.5,6.3-1,8.2c-8.9,6.9-19.6,11.3-30.9,12.7
					C2193.5,1336.5,2190.9,1336.7,2188.4,1336.7z"/>
				<path class="st13" d="M2188.9,1301c-3.7,0-7.4-0.8-10.9-2.3c-6.6-2.9-11.6-8.2-14.2-14.9c-2.6-6.7-2.4-14,0.5-20.5
					s8.2-11.6,14.9-14.2c6.7-2.6,14-2.4,20.5,0.5s11.6,8.2,14.2,14.9l0,0c5.3,13.8-1.6,29.4-15.4,34.7
					C2195.4,1300.4,2192.2,1301,2188.9,1301z M2188.9,1259.1c-1.8,0-3.7,0.3-5.4,1c-3.8,1.4-6.7,4.3-8.4,7.9
					c-1.6,3.7-1.7,7.8-0.3,11.5c1.4,3.8,4.3,6.7,7.9,8.4s7.8,1.7,11.5,0.3c7.8-3,11.6-11.7,8.6-19.5l0,0c-1.4-3.8-4.3-6.7-7.9-8.4
					C2193.1,1259.5,2191,1259.1,2188.9,1259.1z"/>
			</g>
			<g>
				<path class="st13" d="M2021.1,1231.8c-0.6,0-1.3-0.1-1.9-0.3l-10.6-4.1c-2.1-0.8-3.4-2.8-3.3-5l0.3-7.1c-2.6-2-5-4.3-7.1-6.8
					l-7.1,0.6c-2.2,0.2-4.3-1.1-5.2-3.1l-4.6-10.4c-0.9-2-0.4-4.4,1.2-5.9l5.2-4.8c-0.4-3.3-0.5-6.6-0.2-9.9l-5.4-4.6
					c-1.7-1.4-2.3-3.8-1.5-5.8l4.1-10.6c0.8-2.1,2.9-3.4,5-3.3l7.1,0.3c2-2.6,4.3-5,6.8-7.1l-0.6-7.1c-0.2-2.2,1.1-4.3,3.1-5.2
					l10.4-4.6c2-0.9,4.4-0.4,5.9,1.2l4.8,5.2c3.3-0.4,6.6-0.5,9.9-0.2l4.6-5.4c1.4-1.7,3.8-2.3,5.8-1.5l10.6,4.1
					c2.1,0.8,3.4,2.8,3.3,5l-0.3,7.1c2.6,2,5,4.3,7.1,6.8l7.1-0.6c2.2-0.2,4.3,1.1,5.2,3.1l4.6,10.4c0.9,2,0.4,4.4-1.2,5.9l-5.2,4.8
					c0.4,3.3,0.5,6.6,0.2,9.9l5.4,4.6c1.7,1.4,2.3,3.8,1.5,5.8l-4.1,10.6c-0.8,2.1-2.8,3.4-5,3.3l-7.1-0.3c-2,2.6-4.3,5-6.8,7.1
					l0.6,7.1c0.2,2.2-1,4.3-3.1,5.2l-10.4,4.6c-2,0.9-4.4,0.4-5.9-1.2l-4.8-5.2c-3.3,0.4-6.6,0.5-9.9,0.2l-4.6,5.4
					C2024,1231.1,2022.6,1231.8,2021.1,1231.8z M2018.3,1224.2C2018.3,1224.2,2018.3,1224.2,2018.3,1224.2L2018.3,1224.2z
					 M2050.8,1223.5L2050.8,1223.5C2050.8,1223.5,2050.8,1223.5,2050.8,1223.5z M2046.7,1222.6
					C2046.7,1222.6,2046.7,1222.6,2046.7,1222.6L2046.7,1222.6z M2014.2,1220l5.8,2.2l6-7.1l2.4,0.3c4,0.6,8,0.5,11.9-0.3l2.4-0.4
					l6.3,6.8l5.6-2.5l-0.8-9.3l1.9-1.5c3.2-2.4,6-5.3,8.2-8.6l1.4-2l9.3,0.3l2.2-5.8l-7.1-6l0.3-2.4c0.6-4,0.5-8-0.3-11.9l-0.4-2.4
					l6.8-6.3l-2.5-5.7l-9.3,0.8l-1.5-1.9c-2.4-3.2-5.3-6-8.6-8.2l-2-1.4l0.4-9.3l-5.8-2.2l-6,7.1l-2.4-0.3c-4-0.6-8-0.5-11.9,0.3
					l-2.4,0.4l-6.3-6.8l-5.7,2.5l0.8,9.3l-1.9,1.5c-3.2,2.4-6,5.3-8.2,8.6l-1.4,2l-9.3-0.3l-2.2,5.8l7.1,6l-0.3,2.4
					c-0.6,4-0.5,8,0.3,11.9l0.4,2.4l-6.8,6.3l2.5,5.7l9.3-0.8l1.5,1.9c2.4,3.2,5.3,6,8.6,8.2l2,1.4L2014.2,1220z M2054.9,1221.7
					L2054.9,1221.7L2054.9,1221.7z M1988.8,1196L1988.8,1196C1988.8,1196.1,1988.8,1196,1988.8,1196z M1989.7,1191.9L1989.7,1191.9
					C1989.7,1191.9,1989.7,1191.9,1989.7,1191.9z M2077.9,1189.9C2077.9,1189.9,2077.9,1189.9,2077.9,1189.9L2077.9,1189.9z
					 M2077.4,1165.6C2077.4,1165.6,2077.4,1165.7,2077.4,1165.6L2077.4,1165.6z M2076.4,1157.4L2076.4,1157.4
					C2076.4,1157.4,2076.4,1157.4,2076.4,1157.4z M2072.8,1155.3C2072.8,1155.3,2072.8,1155.3,2072.8,1155.3L2072.8,1155.3z
					 M2076.1,1153L2076.1,1153L2076.1,1153z M2010,1139.5L2010,1139.5C2010,1139.5,2010,1139.5,2010,1139.5z M2055.2,1138.5
					C2055.2,1138.5,2055.2,1138.5,2055.2,1138.5L2055.2,1138.5z M2044.7,1134.4L2044.7,1134.4L2044.7,1134.4z M2016.3,1134.1
					C2016.3,1134.1,2016.3,1134.1,2016.3,1134.1L2016.3,1134.1z M2033.3,1210.5c-3.9,0-7.8-0.7-11.5-2.2c-7.9-3.1-14.2-9-17.6-16.8
					c-3.4-7.8-3.6-16.4-0.6-24.3c3.1-7.9,9-14.2,16.8-17.6c16-7.1,34.8,0.2,41.9,16.3c0.9,2.1,1.6,4.2,2.1,6.4
					c0.5,2.4-1.1,4.7-3.4,5.2c-2.4,0.5-4.7-1.1-5.2-3.4c-0.3-1.6-0.8-3.2-1.5-4.7c-5.1-11.6-18.7-16.9-30.3-11.8
					c-5.6,2.5-9.9,7-12.2,12.7s-2.1,12,0.4,17.6c2.5,5.6,7,9.9,12.7,12.2s12,2.1,17.6-0.4c3.8-1.7,7.1-4.4,9.5-7.7
					c1.4-2,4.2-2.5,6.1-1.1c2,1.4,2.5,4.2,1.1,6.1c-3.3,4.7-7.9,8.4-13.1,10.7C2042,1209.6,2037.7,1210.5,2033.3,1210.5z"/>
			</g>
		</g>
		<g>
			<g>
				<path class="st4" d="M332.6,1218.2l18.6,155c1.2,9.7,10.8,17.2,22.6,17.5l283.1,8.3c11.8,0.3,22-6.5,24.1-16.1
					c7.3-34.6,22.1-115.3,13.4-168c-1.5-8.9-10-15.8-20.8-16.8c-113.3-10.4-221.1-12.2-320.7-1.1
					C340.3,1198.4,331.3,1207.7,332.6,1218.2z"/>
				<path class="st2" d="M350.5,1226.2l17.2,142.8c1.1,8.9,10,15.8,20.8,16.1l260.8,7.6c10.8,0.3,20.3-6,22.2-14.8
					c6.7-31.9,20.3-106.2,12.4-154.7c-1.3-8.2-9.2-14.6-19.1-15.5c-104.3-9.6-203.6-11.2-295.4-1
					C357.6,1208,349.4,1216.6,350.5,1226.2z"/>
				
					<linearGradient id="SVGID_75_" gradientUnits="userSpaceOnUse" x1="384.0783" y1="355.8353" x2="670.4424" y2="355.8353" gradientTransform="matrix(1 0 0 -1 0 1650)">
					<stop  offset="0" style="stop-color:#DAE3FE"/>
					<stop  offset="1" style="stop-color:#E9EFFD"/>
				</linearGradient>
				<path class="st79" d="M660.4,1310.8c-0.6,0-1.2-0.1-1.8-0.2c-86.6-15.7-262.5-12.6-264.2-12.6c-5.6,0.2-10.1-4.3-10.2-9.9
					s4.3-10.2,9.9-10.2c7.3-0.1,179.7-3.1,268.2,12.9c5.5,1,9.1,6.2,8.1,11.7C669.4,1307.3,665.2,1310.8,660.4,1310.8z"/>
				
					<linearGradient id="SVGID_76_" gradientUnits="userSpaceOnUse" x1="384.0667" y1="291.4883" x2="596.0836" y2="291.4883" gradientTransform="matrix(1 0 0 -1 0 1650)">
					<stop  offset="0" style="stop-color:#DAE3FE"/>
					<stop  offset="1" style="stop-color:#E9EFFD"/>
				</linearGradient>
				<path class="st80" d="M586,1375.1c-0.8,0-1.6-0.1-2.5-0.3c-61.8-15.5-187.9-12.5-189.2-12.5c-5.5,0.2-10.2-4.2-10.3-9.8
					s4.2-10.2,9.8-10.3c5.3-0.1,130.1-3.1,194.6,13.1c5.4,1.3,8.7,6.8,7.3,12.2C594.6,1372.1,590.5,1375.1,586,1375.1z"/>
				
					<linearGradient id="SVGID_77_" gradientUnits="userSpaceOnUse" x1="384.0783" y1="321.1182" x2="670.4424" y2="321.1182" gradientTransform="matrix(1 0 0 -1 0 1650)">
					<stop  offset="0" style="stop-color:#DAE3FE"/>
					<stop  offset="1" style="stop-color:#E9EFFD"/>
				</linearGradient>
				<path class="st81" d="M660.4,1345.5c-0.6,0-1.2-0.1-1.8-0.2c-86.6-15.7-262.5-12.6-264.2-12.6c-0.1,0-0.1,0-0.2,0
					c-5.5,0-10-4.4-10.1-9.9c-0.1-5.6,4.3-10.2,9.9-10.2c7.3-0.1,179.7-3.1,268.2,12.9c5.5,1,9.1,6.2,8.1,11.7
					C669.4,1342.1,665.2,1345.5,660.4,1345.5z"/>
			</g>
			<g>
				<path class="st4" d="M218.1,1058.8l20.7,209c1.3,13.1,12,23.1,25.1,23.6l314.5,11.2c13.1,0.5,24.5-8.8,26.7-21.7
					c8.1-46.7,24.5-155.5,14.9-226.5c-1.6-11.9-11.1-21.3-23.1-22.7c-125.9-14-245.6-16.4-356.3-1.5
					C226.7,1032.1,216.7,1044.8,218.1,1058.8z"/>
				
					<linearGradient id="SVGID_78_" gradientUnits="userSpaceOnUse" x1="237.891" y1="485.9378" x2="611.0115" y2="485.9378" gradientTransform="matrix(1 0 0 -1 0 1650)">
					<stop  offset="0" style="stop-color:#DAE3FE"/>
					<stop  offset="1" style="stop-color:#E9EFFD"/>
				</linearGradient>
				<path class="st82" d="M238,1069.6l19.1,192.5c1.2,12,11.1,21.3,23.1,21.7l289.7,10.3c12,0.4,22.6-8.1,24.6-20
					c7.5-43,22.6-143.2,13.7-208.6c-1.5-11-10.2-19.6-21.3-20.9c-115.9-12.9-226.3-15.1-328.2-1.3
					C245.9,1045.1,236.7,1056.7,238,1069.6z"/>
				<path class="st0" d="M297.3,1173.3c-7.8,0-14.2-6.1-14.5-13.9c-0.3-8,5.9-14.8,13.9-15.1l199.5-8.4c8-0.4,14.8,5.9,15.1,13.9
					c0.3,8-5.9,14.8-13.9,15.1l-199.5,8.4C297.7,1173.3,297.5,1173.3,297.3,1173.3z"/>
				<path class="st0" d="M300,1117.3c-9.2,0-16.8-6.1-17.2-13.9c-0.4-8,7-14.8,16.5-15.1l236.7-8.4c9.5-0.4,17.6,5.9,18,13.9
					c0.4,8-7,14.8-16.5,15.1l-236.7,8.4C300.5,1117.3,300.3,1117.3,300,1117.3z"/>
				<path class="st0" d="M299.8,1219.1c-7.9,0-14.4-6.3-14.5-14.2c-0.2-8,6.2-14.7,14.2-14.9l88.5-1.9c8.1-0.3,14.7,6.2,14.9,14.2
					c0.2,8-6.2,14.7-14.2,14.9l-88.6,1.9C300,1219.1,299.9,1219.1,299.8,1219.1z"/>
				<path class="st83" d="M472.6,1202c-7.5,0-13.9-5.8-14.5-13.4c-0.6-8,5.4-15,13.4-15.6c8.7-0.7,213-16.5,257.9-10.5
					c8,1.1,13.5,8.4,12.5,16.3c-1.1,8-8.4,13.6-16.3,12.5c-34.7-4.7-193.5,6.2-251.8,10.7C473.4,1202,473,1202,472.6,1202z"/>
			</g>
		</g>
		<g>
			<path class="st4" d="M840.3,711.8c-26,0-54.3-2-73-5.8c-14.1-2.9-21.5-6.5-22.7-10.9c-3.9-15.5-16.7-131.6,4.4-149.8
				c0.3-0.2,0.6-0.3,0.9-0.3c17.5,0.6,171,6.4,180.4,18.8c10.2,13.4-17.8,126.8-27.4,139.4C898.5,709,871.1,711.8,840.3,711.8z
				 M750.5,547.7c-18.2,17.4-7.8,128.5-3.2,146.7c0.4,1.5,3.1,5.4,20.6,8.9c41.5,8.5,126.1,7.3,133-1.9c4.5-6,13.6-36.1,20.6-68.7
				c7.8-36.1,10.5-62.6,6.8-67.5C921.7,556.8,818.6,550.1,750.5,547.7z"/>
			<path class="st4" d="M785.8,680.6h-12.3c-1.5,0-2.7-1.2-2.7-2.7V641c0-1.5,1.2-2.7,2.7-2.7h12.3c1.5,0,2.7,1.2,2.7,2.7v36.9
				C788.6,679.4,787.4,680.6,785.8,680.6z M776.3,675.2h6.8v-31.4h-6.8V675.2z"/>
			<path class="st4" d="M810.1,680.6h-16.8c-1.5,0-2.7-1.2-2.7-2.7V617c0-1.5,1.2-2.7,2.7-2.7h16.8c1.5,0,2.7,1.2,2.7,2.7v60.8
				C812.9,679.4,811.7,680.6,810.1,680.6z M796,675.2h11.4v-55.4H796V675.2z"/>
			<path class="st4" d="M841.9,680.6h-23.4c-1.5,0-2.7-1.2-2.7-2.7v-73.7c0-1.5,1.2-2.7,2.7-2.7h23.4c1.5,0,2.7,1.2,2.7,2.7v73.7
				C844.6,679.4,843.4,680.6,841.9,680.6z M821.2,675.2h17.9v-68.2h-17.9V675.2z"/>
			<path class="st4" d="M884.2,680.6h-28c-1.5,0-2.7-1.2-2.7-2.7v-89.2c0-1.5,1.2-2.7,2.7-2.7h28c1.5,0,2.7,1.2,2.7,2.7v89.2
				C886.9,679.4,885.7,680.6,884.2,680.6z M858.9,675.2h22.5v-83.7h-22.5V675.2z"/>
		</g>
		<g>
			<g>
				<g>
					<g>
						<path class="st13" d="M2047.9,566.4l-9.4,149.8h56.1V570.6c0-4.2-2.7-7.9-6.6-9.2c-7.4-2.5-20.1-5.7-32.5-3.5
							C2051.3,558.6,2048.2,562.2,2047.9,566.4z"/>
					</g>
					<g>
						<path class="st4" d="M1977.6,565.7l6.2,150.4h53.2l4-152c0.1-4.2-2.6-8-6.6-9.2c-17.3-5.2-34.5-5.7-51.4,2
							C1979.6,558.5,1977.4,561.9,1977.6,565.7z"/>
						<g>
							<path class="st2" d="M1991.8,667.9l0.4,5.2c0.1,1.6,1.5,2.8,3.1,2.7l27.9-1.6c1.5-0.1,2.6-1.2,2.8-2.7l0.3-3.6
								c0.1-1.7-1.2-3.1-2.9-3.1h-28.5C1993.1,664.8,1991.7,666.2,1991.8,667.9z"/>
							<path class="st2" d="M1993,680.5v1.9c0,1.5,1.2,2.7,2.7,2.6l26.7-1.1c1.4-0.1,2.5-1.2,2.5-2.6v-2c0-1.5-1.2-2.7-2.7-2.6
								l-26.7,1.2C1994.1,677.9,1993,679.1,1993,680.5z"/>
							<path class="st2" d="M2029.6,566.3c-1.1-1.2-2.5-1.8-4-1.7l-32.5,1.5c-2.9,0.1-5.2,2.8-5.2,6.1l1.7,74.7
								c0.1,3.1,2.3,5.6,5.1,5.8l28.7,1.8c1.4,0.1,2.9-0.5,3.9-1.5c1.1-1.1,1.7-2.6,1.8-4.2l2.2-78
								C2031.2,569.1,2030.6,567.5,2029.6,566.3z"/>
						</g>
					</g>
					<g>
						<path class="st4" d="M2055.1,673.6l0.4,5.2c0.1,1.6,1.3,2.8,2.6,2.7l23.8-1.6c1.2-0.1,2.2-1.2,2.3-2.7l0.2-3.6
							c0.1-1.7-1-3.1-2.5-3.1h-24.3C2056.1,670.5,2055,671.9,2055.1,673.6z"/>
						<path class="st4" d="M2056.1,686.1v1.9c0,1.5,1.1,2.7,2.3,2.6l22.8-1.1c1.2-0.1,2.1-1.2,2.1-2.6v-2c0-1.5-1.1-2.7-2.3-2.6
							l-22.8,1.2C2057,683.6,2056.1,684.7,2056.1,686.1z"/>
						<path class="st4" d="M2081.5,570.1l-18.5-2.1c-2-0.2-4,0.4-5.6,1.7s-2.4,3.2-2.5,5.2l-2.2,72c-0.1,2,0.7,3.9,2.1,5.3
							c1.4,1.4,3.3,2.2,5.3,2.1l17.6-0.5c3.8-0.1,6.9-3.1,7-6.9l3.1-69.3C2088.1,573.8,2085.3,570.5,2081.5,570.1z"/>
					</g>
				</g>
				<g>
					<g>
						<path class="st13" d="M2169.9,566.4l-9.4,149.8h56.1V570.6c0-4.2-2.7-7.9-6.6-9.2c-7.4-2.5-20.1-5.7-32.5-3.5
							C2173.4,558.6,2170.2,562.2,2169.9,566.4z"/>
					</g>
					<g>
						<path class="st4" d="M2099.7,565.7l6.2,150.4h53.2l4-152c0.1-4.2-2.6-8-6.6-9.2c-17.3-5.2-34.5-5.7-51.4,2
							C2101.7,558.5,2099.5,561.9,2099.7,565.7z"/>
						<g>
							<path class="st2" d="M2113.9,667.9l0.4,5.2c0.1,1.6,1.5,2.8,3.1,2.7l27.9-1.6c1.5-0.1,2.6-1.2,2.8-2.7l0.3-3.6
								c0.1-1.7-1.2-3.1-2.9-3.1h-28.5C2115.1,664.8,2113.8,666.2,2113.9,667.9z"/>
							<path class="st2" d="M2115.1,680.5v1.9c0,1.5,1.2,2.7,2.7,2.6l26.7-1.1c1.4-0.1,2.5-1.2,2.5-2.6v-2c0-1.5-1.2-2.7-2.7-2.6
								l-26.7,1.2C2116.2,677.9,2115.1,679.1,2115.1,680.5z"/>
							<path class="st2" d="M2151.6,566.3c-1.1-1.2-2.5-1.8-4-1.7l-32.5,1.5c-2.9,0.1-5.2,2.8-5.2,6.1l1.7,74.7
								c0.1,3.1,2.3,5.6,5.1,5.8l28.7,1.8c1.4,0.1,2.9-0.5,3.9-1.5c1.1-1.1,1.7-2.6,1.8-4.2l2.2-78
								C2153.2,569.1,2152.7,567.5,2151.6,566.3z"/>
						</g>
					</g>
					<g>
						<path class="st4" d="M2177.2,673.6l0.4,5.2c0.1,1.6,1.3,2.8,2.6,2.7l23.8-1.6c1.2-0.1,2.2-1.2,2.3-2.7l0.2-3.6
							c0.1-1.7-1-3.1-2.5-3.1h-24.3C2178.2,670.5,2177.1,671.9,2177.2,673.6z"/>
						<path class="st4" d="M2178.2,686.1v1.9c0,1.5,1.1,2.7,2.3,2.6l22.8-1.1c1.2-0.1,2.1-1.2,2.1-2.6v-2c0-1.5-1.1-2.7-2.3-2.6
							l-22.8,1.2C2179.1,683.6,2178.2,684.7,2178.2,686.1z"/>
						<path class="st4" d="M2203.6,570.1l-18.5-2.1c-2-0.2-4,0.4-5.6,1.7s-2.4,3.2-2.5,5.2l-2.2,72c-0.1,2,0.7,3.9,2.1,5.3
							c1.4,1.4,3.3,2.2,5.3,2.1l17.6-0.5c3.8-0.1,6.9-3.1,7-6.9l3.1-69.3C2210.2,573.8,2207.4,570.5,2203.6,570.1z"/>
					</g>
				</g>
			</g>
			<path class="st13" d="M2264,716c0-4.4-3.6-8-8-8H1943c-4.4,0-8,3.6-8,8v6.5c0,4.4,3.6,8,8,8h313.1c4.4,0,8-3.6,8-8V716z"/>
		</g>
		<path class="st4" d="M1978.8,907.9c-3.6,0-7.1-1.4-9.7-3.9c-2.8-2.7-4.4-6.4-4.4-10.3v-85.3c0-2.5,2-4.5,4.5-4.5
			c2.5,0,4.5,2,4.5,4.5v85.3c0,1.5,0.6,2.8,1.6,3.8s2.4,1.5,3.9,1.4l101-6c2.8-0.2,4.9-2.5,4.9-5.2V804c0-1.5-0.6-2.9-1.7-3.9
			c-1.1-1-2.5-1.5-4-1.3l-84.1,8.3c-2.7,0.3-3.9,2.2-4.2,3c-0.4,0.8-1.1,3,0.5,5.2l32.1,44.2c1,1.4,2.5,2.1,4.2,2.2
			c1.7,0.1,3.2-0.8,4.2-2.1l35.3-47c1.5-2,4.3-2.4,6.3-0.9c2,1.5,2.4,4.3,0.9,6.3l-35.3,47.1c-2.7,3.6-6.8,5.7-11.3,5.7
			c0,0-0.1,0-0.1,0c-4.6,0-8.7-2.2-11.3-5.8l-32.1-44.2c-3-4.2-3.6-9.4-1.4-14.1c2.1-4.7,6.4-7.8,11.5-8.3l84.1-8.3
			c4-0.4,7.9,0.9,10.9,3.6s4.7,6.5,4.7,10.5v83.7c0,7.5-5.9,13.7-13.3,14.1l-101.1,6C1979.4,907.9,1979.1,907.9,1978.8,907.9z"/>
	</g>
</g>
</svg>
