<?xml version="1.0" encoding="utf-8"?>
<!-- Generator: Adobe Illustrator 25.1.0, SVG Export Plug-In . SVG Version: 6.00 Build 0)  -->
<svg version="1.0" id="Layer_1" xmlns:x="&ns_extend;" xmlns:i="&ns_ai;" xmlns:graph="&ns_graphs;"
	 xmlns="http://www.w3.org/2000/svg" xmlns:xlink="http://www.w3.org/1999/xlink" xmlns:a="http://ns.adobe.com/AdobeSVGViewerExtensions/3.0/"
	 x="0px" y="0px" viewBox="0 0 1920 1080" enable-background="new 0 0 1920 1080" xml:space="preserve">
<g>
	<defs>
		<rect id="SVGID_7_" x="825.573" y="414.174" width="283.661" height="283.661"/>
	</defs>
	<clipPath id="SVGID_1_">
		<use xlink:href="#SVGID_7_"  overflow="visible"/>
	</clipPath>
	<g clip-path="url(#SVGID_1_)">
		<g>
			<defs>
				<path id="SVGID_9_" d="M967.406,414.174c-78.333,0-141.833,63.5-141.833,141.828c0,78.333,63.5,141.833,141.833,141.833
					s141.828-63.5,141.828-141.833C1109.234,477.674,1045.74,414.174,967.406,414.174"/>
			</defs>
			<clipPath id="SVGID_2_">
				<use xlink:href="#SVGID_9_"  overflow="visible"/>
			</clipPath>
			<g clip-path="url(#SVGID_2_)">
				<path d="M825.573,414.174h283.661v283.661H825.573V414.174z"/>
			</g>
		</g>
	</g>
</g>
<g>
	<defs>
		<rect id="SVGID_11_" x="811.766" y="383.164" width="297.333" height="82.016"/>
	</defs>
	<clipPath id="SVGID_3_">
		<use xlink:href="#SVGID_11_"  overflow="visible"/>
	</clipPath>
	<g clip-path="url(#SVGID_3_)">
		<path d="M1095.292,415.023c-0.406-3.401-0.771-6.849-1.464-10.208c-0.312-1.526-0.724-3.026-1.307-4.469
			c-0.552-1.365-1.198-3.193-2.766-3.651c-1.661-0.484-2.974,0.818-4.172,1.755c-1.286,1.005-2.552,2.031-3.797,3.083
			c-2.453,2.057-4.833,4.198-7.141,6.422c-5.286,5.078-10.146,10.568-14.609,16.385c-0.5,0.651-0.099,1.708,0.547,2.083
			c0.656,0.385,1.312,0.198,1.802-0.25c0.26,0.255,0.604,0.411,1.021,0.391c1.891-0.104,3.792-0.052,5.672,0.161
			c-0.047,1.203-0.094,2.401-0.141,3.599c-0.042,1.203,1.312,1.833,2.286,1.318c1.667-0.885,3.948,0.333,4.516,2.042
			c0.396,1.198-0.255,2.547-0.526,3.698c-0.339,1.479-0.411,3,0.448,4.318c0.568,0.87,1.62,0.964,2.385,0.312
			c1.443-1.229,3.802-0.688,5.016,0.594c1.635,1.719,1.552,4.385,0.792,6.474c-0.562,1.552,1.495,2.391,2.542,1.484
			C1096.495,441.779,1096.755,427.299,1095.292,415.023z M1085.245,405.987c0.042,1.349,0.083,2.698,0.109,4.047
			c-0.052-0.021-0.109-0.031-0.167-0.042c0.005-0.479-0.161-0.917-0.573-1.24c-0.099-0.073-0.219-0.141-0.344-0.193
			c-0.141-0.391-0.307-0.776-0.495-1.151C1084.266,406.935,1084.755,406.461,1085.245,405.987z M1082.391,417.201
			c-0.396-0.026-0.797,0.099-1.089,0.375c0.005-0.068,0.016-0.141,0.026-0.214c0.234-0.062,0.453-0.182,0.625-0.38
			c0.146-0.172,0.286-0.349,0.422-0.531C1082.38,416.701,1082.385,416.951,1082.391,417.201z M1085.432,415.216
			c0.005,0.5-0.005,0.995-0.005,1.495c0,0-0.005,0-0.01,0c0-0.203-0.005-0.411-0.01-0.62c-0.026-1.042-0.073-2.083-0.177-3.12
			c0.021-0.005,0.042-0.016,0.062-0.021c0.036-0.016,0.068-0.031,0.109-0.047C1085.406,413.674,1085.427,414.445,1085.432,415.216z
			 M1077.964,423.232c-0.495-2.214-0.62-4.458-0.375-6.682c0.229,0.557,0.417,1.13,0.562,1.714
			C1077.995,419.914,1077.938,421.57,1077.964,423.232z M1072.901,419.57C1072.922,419.544,1072.932,419.549,1072.901,419.57z
			 M1072.083,419.784C1072.057,419.779,1072.057,419.773,1072.083,419.784z M1088.984,421.221c0.021,1.807-0.026,3.646-0.245,5.448
			c-0.078-1.062-0.198-2.12-0.354-3.177c0.005-0.083,0.021-0.172,0.026-0.255c0.161-2.151,0.068-4.349,0.068-6.5
			c0-0.214-0.01-0.427-0.01-0.641c0.135,0.505,0.266,1.01,0.391,1.516C1088.922,418.81,1088.969,420.018,1088.984,421.221z
			 M1079.021,412.867c-0.115-0.172-0.234-0.339-0.354-0.505c0.203-0.198,0.401-0.391,0.604-0.583
			C1079.177,412.138,1079.099,412.503,1079.021,412.867z M1074.448,417.893c-0.229-0.266-0.474-0.51-0.755-0.708
			c0.286-0.281,0.573-0.557,0.859-0.833C1074.5,416.862,1074.464,417.378,1074.448,417.893z M1072.115,425.023
			c-0.062-0.234-0.188-0.469-0.354-0.656c0.276,0.068,0.547,0.141,0.818,0.229C1072.411,424.732,1072.255,424.872,1072.115,425.023z
			 M1085.479,440.737c-0.057-0.057-0.104-0.125-0.161-0.182c0.052-0.042,0.104-0.083,0.161-0.13
			C1085.474,440.529,1085.479,440.633,1085.479,440.737z M1081.542,438.258c0.057,0.094,0.125,0.177,0.198,0.255
			c-0.161-0.036-0.318-0.068-0.479-0.094C1081.354,438.367,1081.448,438.315,1081.542,438.258z M1087.193,444.253
			c0.214,0.078,0.448,0.109,0.677,0.083c-0.172,0.255-0.354,0.5-0.536,0.75C1087.297,444.805,1087.25,444.529,1087.193,444.253z
			 M1088.901,399.758c-0.026-0.021-0.052-0.062-0.078-0.141c0.016,0.047,0.047,0.094,0.078,0.135
			c0.021-0.021,0.036-0.036,0.052-0.057c0.198-0.276,0.083,0.146-0.042,0.068c0.026,0.042,0.057,0.078,0.068,0.125
			c0.089,0.339,0.359,0.693,0.505,1.021c0.578,1.297,0.964,2.682,1.276,4.062c0.672,2.995,1,6.078,1.38,9.12
			c0.333,2.688,0.62,5.417,0.76,8.151c-0.255-1.63-0.594-3.245-0.99-4.844c-0.198-3.719-0.646-7.432-1.255-11.083
			c-0.219-1.307-0.349-2.755-0.766-4.016c-0.37-1.146-1.562-1.422-2.505-1.005c-0.099-0.062-0.203-0.115-0.312-0.156
			c0.13-0.104,0.26-0.219,0.391-0.323C1087.854,400.508,1088.573,400.148,1088.901,399.758z M863.328,390.138
			c-10.062-3.188-20.521-5.422-31.036-6.375c-4.089-0.37-8.281-0.599-12.37-0.078c-0.13,0.021-0.255,0.047-0.375,0.089
			c-0.344,0.068-0.656,0.26-0.875,0.583c0,0.005-0.005,0.01-0.005,0.016c-0.036,0.052-0.073,0.109-0.104,0.177
			c-0.031,0.057-0.057,0.125-0.078,0.193c-0.01,0.021-0.021,0.042-0.026,0.062c-3.333,11.401-5.312,23.193-5.885,35.057
			c-0.281,5.865-0.219,11.75,0.193,17.604c0.333,4.76,0.818,9.401,2.359,13.938c1.495,4.406,3.578,9.385,7.182,12.49
			c1.479,1.271,3.635-0.88,2.151-2.156c-2.958-2.547-4.719-6.51-6.036-10.109c-0.714-1.948-1.312-3.943-1.724-5.979
			c-0.479-2.333-0.63-4.734-0.812-7.109c-0.88-11.323-0.474-22.771,1.271-33.995c0.943-6.057,2.281-12.047,3.958-17.938
			c3.099-0.281,6.245-0.167,9.339,0.057c4.641,0.333,9.26,0.995,13.833,1.849c10.661,1.995,21.276,4.99,31.188,9.448
			c5.198,2.339,10.312,5.094,14.818,8.625c0.646,0.505,1.521,0.63,2.151,0c0.521-0.531,0.646-1.651,0-2.156
			C883.88,397.727,873.615,393.398,863.328,390.138z M848.682,415.841c-3.875-4.156-8.188-7.901-12.677-11.375
			c-2.021-1.562-4.094-3.073-6.24-4.458c-1.208-0.781-2.344,0.422-2.224,1.536c-0.12,0.161-0.214,0.359-0.266,0.604
			c-2.807,13.453-5.568,28.062,0.885,40.938c1.557,3.109,3.661,5.953,6.245,8.276c0.688,0.625,1.911,0.609,2.385-0.307
			c0.562-1.094,0.589-2.156,0.411-3.349c-0.12-0.812-0.495-1.812-0.089-2.594c1.01-1.938,4.021-1.135,5.63-0.755
			c0.958,0.224,1.917-0.453,1.922-1.474c0.016-2.089-0.87-4.078-0.797-6.161c0.021-0.625,0.156-1.396,0.646-1.833
			c0.302-0.276,0.969-0.531,1.312-0.214c1.031,0.948,3.094,0.036,2.536-1.484c-0.469-1.286,0.344-2.573,1.526-3.146
			c1.656-0.797,3.672-0.302,5.339,0.198c0.594,0.177,1.078,0.005,1.406-0.328c0.443-0.323,0.693-0.859,0.464-1.547
			C855.479,423.581,852.078,419.477,848.682,415.841z M834.083,444.596c-0.021-0.031-0.047-0.057-0.068-0.089
			c-0.026-0.042-0.057-0.083-0.083-0.125c0.083-0.021,0.161-0.047,0.245-0.073C834.141,444.404,834.109,444.497,834.083,444.596z
			 M832.688,423.185c-0.349-0.052-0.714,0.005-1.021,0.156c-0.047-0.896-0.094-1.792-0.141-2.688
			C831.922,421.492,832.307,422.336,832.688,423.185z M834.068,411.966c-0.01-0.016-0.016-0.031-0.021-0.047
			c0.026-0.026,0.062-0.052,0.094-0.078C834.115,411.878,834.094,411.924,834.068,411.966z M836.917,438.195
			c0.214,0.042,0.438,0.031,0.651-0.047c0.167,0.208,0.339,0.417,0.516,0.625c-0.411,0.047-0.823,0.089-1.229,0.135
			C836.88,438.669,836.896,438.435,836.917,438.195z M847.349,423.784c-0.714-0.609-1.427-1.224-2.125-1.849
			c-0.047-0.276-0.167-0.542-0.396-0.766c-0.224-0.229-0.568-0.391-0.917-0.438c-0.026-0.026-0.057-0.052-0.083-0.078
			c0.115-0.141,0.198-0.286,0.25-0.438c0.693,0.823,1.396,1.641,2.073,2.484c0.328,0.406,0.901,0.505,1.406,0.391
			c0.156,0.151,0.312,0.297,0.464,0.453c0.031,0.031,0.073,0.068,0.115,0.109C847.87,423.68,847.609,423.727,847.349,423.784z
			 M835.943,411.174c0,0.073,0.01,0.141,0.021,0.208c-0.396-0.193-0.859-0.219-1.297,0.005c0.307-0.349,0.396-0.781,0.328-1.193
			C835.312,410.518,835.625,410.852,835.943,411.174z M833,408.956c-0.047-0.276-0.078-0.557-0.099-0.839
			c0.25,0.245,0.5,0.479,0.745,0.719C833.443,408.82,833.224,408.862,833,408.956z M829.177,408.018
			c0.104,0.474,0.208,0.953,0.318,1.427c-0.276,0.135-0.51,0.333-0.703,0.578C828.917,409.357,829.042,408.685,829.177,408.018z
			 M828.104,414.06c0,0.057,0.005,0.115,0.005,0.172c-0.021,0.062-0.042,0.125-0.068,0.188
			C828.062,414.299,828.083,414.18,828.104,414.06z M841.422,440.742c0.016,0.089,0.031,0.177,0.042,0.266
			c-0.062-0.01-0.13-0.016-0.198-0.026C841.328,440.909,841.38,440.831,841.422,440.742z M841.068,435.039
			c-0.005,0-0.005-0.005-0.005-0.005c0.005,0,0.005,0,0.005,0V435.039z M851.276,426.617c0.297-0.203,0.526-0.495,0.609-0.839
			c0.078-0.344,0.094-0.667,0.083-0.984c0.396,0.609,0.771,1.234,1.109,1.875C852.474,426.602,851.87,426.581,851.276,426.617z
			 M1106.599,404.44c-1-6.635-2.458-13.193-4.339-19.635c-0.005-0.016-0.016-0.026-0.021-0.042
			c-0.026-0.083-0.057-0.161-0.094-0.234c-0.021-0.042-0.042-0.078-0.062-0.115c-0.021-0.031-0.036-0.057-0.057-0.083
			c-0.219-0.302-0.516-0.484-0.844-0.557c-0.125-0.036-0.255-0.068-0.391-0.089c-3.547-0.453-7.172-0.318-10.729-0.057
			c-4.88,0.365-9.75,1.062-14.562,1.969c-10.974,2.062-21.833,5.224-32.026,9.839c-5.38,2.438-10.536,5.344-15.198,8.995
			c-0.646,0.505-0.531,1.62,0,2.156c0.641,0.641,1.5,0.505,2.151,0c8.219-6.443,18.276-10.526,28.151-13.625
			c9.745-3.062,19.87-5.266,30.057-6.167c3.625-0.318,7.328-0.521,10.969-0.182c3.057,10.719,4.917,21.755,5.484,32.896
			c0.281,5.62,0.25,11.26-0.104,16.88c-0.297,4.667-0.693,9.229-2.151,13.688c-1.344,4.109-3.224,8.776-6.573,11.661
			c-1.484,1.276,0.672,3.427,2.151,2.156c3.214-2.771,5.146-7.042,6.62-10.938c1.651-4.349,2.359-8.719,2.75-13.339
			C1108.781,427.893,1108.349,416.076,1106.599,404.44z M1048.927,402.185c-0.38-0.089-0.844-0.083-1.172,0.151
			c-1.292,0.911-2.583,1.823-3.875,2.734c-0.328,0.234-0.589,0.51-0.698,0.911c-0.099,0.365-0.052,0.854,0.156,1.177
			c0.208,0.323,0.521,0.609,0.906,0.698c0.38,0.089,0.839,0.083,1.172-0.151c1.292-0.911,2.578-1.823,3.87-2.734
			c0.333-0.234,0.589-0.51,0.698-0.911c0.099-0.365,0.057-0.854-0.151-1.177C1049.625,402.56,1049.312,402.273,1048.927,402.185z
			 M1088.901,399.753c0,0,0,0,0,0.005c0,0,0.005,0.005,0.01,0.005C1088.906,399.758,1088.906,399.758,1088.901,399.753z"/>
	</g>
</g>
<g>
	<g transform="translate(353.356188, 607.968426)">
		<g>
			<path fill="#FFFFFF" d="M615.884-2.883l-16.417,30.75h-2.292l-23.271-55.354h14l11.938,32.208l15.792-32.208h0.479L632.03,4.471
				l11.938-31.958h13.75l-23.146,55.354h-2.292L615.884-2.883z"/>
		</g>
	</g>
</g>
<g>
	<g transform="translate(316.653477, 528.172374)">
		<g>
			<path fill="#FFFFFF" d="M571.15-11.357l-1.708-3.812l-0.771,3.812l-2.5,12.625h-4.083l5.604-27.042h0.438l7.417,14.604
				l2.208,4.896l2.208-4.896l7.292-14.604h0.396l5.812,27.042h-4.042l-2.708-12.625l-0.812-3.812l-1.479,3.812l-6.542,12.625h-0.229
				L571.15-11.357z"/>
		</g>
	</g>
</g>
<g>
	<g transform="translate(421.604241, 528.321798)">
		<g>
			<path fill="#FFFFFF" d="M606.134-11.307l-1.708-3.812l-0.771,3.812l-2.5,12.625h-4.083l5.604-27.042h0.438l7.417,14.604
				l2.208,4.896l2.208-4.896l7.292-14.604h0.396l5.812,27.042h-4.042l-2.708-12.625l-0.812-3.812l-1.479,3.812l-6.542,12.625h-0.229
				L606.134-11.307z"/>
		</g>
	</g>
</g>
</svg>
