<?xml version="1.0" encoding="utf-8"?>
<!-- Generator: Adobe Illustrator 25.1.0, SVG Export Plug-In . SVG Version: 6.00 Build 0)  -->
<svg version="1.1"
	 id="svg28623" xmlns:cc="http://creativecommons.org/ns#" xmlns:dc="http://purl.org/dc/elements/1.1/" xmlns:rdf="http://www.w3.org/1999/02/22-rdf-syntax-ns#" xmlns:svg="http://www.w3.org/2000/svg"
	 xmlns="http://www.w3.org/2000/svg" xmlns:xlink="http://www.w3.org/1999/xlink" x="0px" y="0px" viewBox="0 0 1024 768"
	 style="enable-background:new 0 0 1024 768;" xml:space="preserve">
<style type="text/css">
	.st0{clip-path:url(#SVGID_3_);}
	.st1{fill:#4F46E5;}
	.st2{fill:#4F46E5;stroke:#000000;stroke-width:0.75;stroke-miterlimit:10;}
</style>
<g id="logo-center" transform="translate(0 0)">
	<g>
		<defs>
			<polygon id="SVGID_1_" points="42.2,-155.5 43.2,-155.5 42.2,-154.5 			"/>
		</defs>
		<defs>
			<polygon id="SVGID_2_" points="40.2,-157.4 39.2,-157.4 40.2,-158.4 			"/>
		</defs>
		<clipPath id="SVGID_3_">
			<use xlink:href="#SVGID_1_"  style="overflow:visible;"/>
		</clipPath>
		<clipPath id="SVGID_4_" class="st0">
			<use xlink:href="#SVGID_2_"  style="overflow:visible;"/>
		</clipPath>
	</g>
	<g id="slogan" transform="translate(0 0)">
	</g>
	<g id="title" transform="translate(0 0)">
		<path id="path28632" class="st1" d="M281.2,227.7h-16c-1.8,0-3.4,1.4-3.4,3.4v105c0,1.8,1.6,3.4,3.4,3.4h16c1.9,0,3.4-1.6,3.4-3.4
			v-105C284.6,229.2,283.1,227.7,281.2,227.7z"/>
		<path id="path28634" class="st1" d="M452.7,227.7h-16c-1.9,0-3.6,1.4-3.6,3.4v88.1c-12.6,0-25.8-20.1-38.4-39.4
			c-16.8-25.5-34.2-52-61.2-52H314c-1.8,0-3.4,1.4-3.4,3.4v105c0,1.8,1.6,3.4,3.4,3.4h16c1.9,0,3.4-1.6,3.4-3.4V248
			c15.9,0,30.1,21.9,43.9,42.8c15.6,23.9,31.8,48.7,55.7,48.7h19.6c1.8,0,3.4-1.6,3.4-3.4v-105C456.1,229.2,454.5,227.7,452.7,227.7
			L452.7,227.7z"/>
		<path id="path28636" class="st1" d="M612,227.7H482.8c-1.8,0-3.4,1.4-3.4,3.4v15.8c0,1.9,1.6,3.4,3.4,3.4H612
			c1.9,0,3.6-1.4,3.6-3.4v-15.8C615.6,229.2,614,227.7,612,227.7z M612,316.9H502.2v-22h87c1.9,0,3.4-1.6,3.4-3.5v-15.6
			c0-1.9-1.5-3.5-3.4-3.5H482.8c-1.8,0-3.4,1.6-3.4,3.5v60.3c0,1.8,1.6,3.4,3.4,3.4H612c1.9,0,3.6-1.6,3.6-3.4v-15.8
			C615.6,318.3,614,316.9,612,316.9z"/>
		<path id="path28638" class="st1" d="M758.9,227.7H628.5c-1.8,0-3.4,1.4-3.4,3.4v15.8c0,1.9,1.6,3.4,3.4,3.4h53.8v85.8
			c0,1.8,1.5,3.4,3.4,3.4h16c1.9,0,3.4-1.6,3.4-3.4v-85.8h53.8c1.8,0,3.4-1.4,3.4-3.4v-15.8C762.3,229.2,760.7,227.7,758.9,227.7z"
			/>
	</g>
</g>
<g>
	<g>
		<path class="st2" d="M151.4,530.1v-30.5h4.3v30.5H151.4z M159.6,517.6l-3.3-12.6H155v-5.4h3.1l3.3,13.1h0.2l0.4,4.9H159.6z
			 M160.8,517.6l0.6-4.9h0.3l3.3-13.1h3.1v5.4h-1.2l-3.3,12.6H160.8z M167.4,530.1v-30.5h4.3v30.5H167.4z"/>
		<path class="st2" d="M184,530.5c-2.4,0-4.2-0.6-5.5-1.7c-1.3-1.1-2-2.8-2-4.9c0-2.4,0.9-4.3,2.7-5.5c1.8-1.3,4.3-1.9,7.6-1.9
			c1.4,0,2.6,0.1,3.6,0.2c1.1,0.2,2,0.4,2.8,0.7l-0.9,3.1c-1-0.2-1.9-0.3-2.8-0.4c-0.9,0-1.9-0.1-2.8-0.1c-4,0-5.9,1.2-5.9,3.6
			c0,1,0.3,1.8,1,2.3c0.7,0.5,1.6,0.8,2.9,0.8c1.4,0,2.6-0.2,3.6-0.7c1-0.5,1.7-1.1,2.1-1.9c0.5-0.8,0.7-1.5,0.7-2.3v-2.5l1.3,5.8
			h-1.8l0.7-0.7c0,1.3-0.3,2.4-0.9,3.3c-0.6,0.9-1.5,1.5-2.6,2C186.8,530.3,185.5,530.5,184,530.5z M192,530.3l-0.3-6.7l-0.6-1.9
			v-5.9c0-1.5-0.5-2.6-1.6-3.3c-1.1-0.7-2.7-1.1-4.8-1.1l-5.5-0.2l0.4-4l4.6,0.1c3.8,0.1,6.6,0.9,8.4,2.4s2.7,3.9,2.7,6.9v9.5
			l3.9,0.5v3.7L192,530.3z"/>
		<path class="st2" d="M202,530.1v-4h15.2v4H202z M202.8,511.3v-4h7.6l0.4,4H202.8z M207,530.1v-22.8h3.7l0.9,6.5v16.2H207z
			 M211.6,520.3l-1.3-7.1h1.8c0.3-4.2,2.3-6.3,6.3-6.3c2.3,0,4.1,0.7,5.1,2c1.1,1.3,1.6,3.5,1.6,6.5h-4.5c0-1.7-0.2-2.9-0.7-3.6
			s-1.3-1.1-2.4-1.1c-1.9,0-3.4,0.8-4.3,2.5C212.1,514.9,211.6,517.3,211.6,520.3z"/>
		<path class="st2" d="M229.5,530.1v-32.2h4.6v32.2H229.5z M232.7,521.5v-4.1h2.6c1.9,0,3.4-0.3,4.7-1c1.2-0.7,2.2-1.7,2.9-3.2
			c0.7-1.5,1.2-3.4,1.5-5.9h4.7c-0.6,4.7-2,8.3-4,10.6c-2.1,2.3-5,3.5-8.7,3.5H232.7z M244.9,530.1l-6.5-11.1l4.3-1.8l7.8,12.8
			H244.9z"/>
		<path class="st2" d="M266.7,530.5c-3.9,0-6.9-1-9-3.1c-2.1-2-3.2-5-3.2-8.8c0-3.7,0.9-6.6,2.7-8.7c1.8-2.1,4.3-3.1,7.6-3.1
			c3.1,0,5.5,0.9,7.1,2.8c1.7,1.9,2.5,4.6,2.5,8.1c0,1,0,2-0.1,2.9h-16v-3.5h12c0-2-0.5-3.6-1.5-4.7c-1-1.1-2.3-1.6-4-1.6
			c-1.9,0-3.4,0.7-4.5,2c-1.1,1.3-1.6,3.2-1.6,5.6c0,2.6,0.7,4.6,2.2,6c1.5,1.4,3.6,2.1,6.3,2.1c0.9,0,1.9-0.1,2.8-0.2
			c0.9-0.1,1.8-0.3,2.8-0.4l0.6,4c-1.3,0.3-2.6,0.4-3.7,0.5C268.5,530.5,267.5,530.5,266.7,530.5z"/>
		<path class="st2" d="M279.1,511.3v-4h20.6v4H279.1z M284.8,519.4v-18.9h4.6v18.9H284.8z M294.6,530.5c-3.5,0-5.9-0.7-7.5-2.1
			c-1.5-1.4-2.3-3.7-2.3-6.9v-3.9h4.6v3.7c0,1.8,0.4,3.1,1.3,3.9s2.3,1.2,4.4,1.2c0.7,0,1.5,0,2.3-0.1c0.8-0.1,1.7-0.2,2.8-0.3
			l0.5,4c-1,0.2-2,0.3-2.9,0.4C296.7,530.5,295.7,530.5,294.6,530.5z"/>
		<path class="st2" d="M306.8,530.1v-4h9.1v4H306.8z M308.1,511.3v-4H320v4H308.1z M317.6,503.7c-0.9,0-1.6-0.3-2.2-0.9
			s-0.9-1.4-0.9-2.2c0-0.9,0.3-1.6,0.9-2.3c0.6-0.6,1.4-0.9,2.2-0.9c0.9,0,1.6,0.3,2.3,0.9c0.6,0.6,0.9,1.4,0.9,2.3
			c0,0.9-0.3,1.6-0.9,2.2C319.2,503.4,318.5,503.7,317.6,503.7z M315.5,530.1v-21.5h4.6v21.5H315.5z M319.6,530.1v-4h7.4v4H319.6z"
			/>
		<path class="st2" d="M332.8,530.1v-22.8h4.1l0.4,4.8v18H332.8z M346.8,530.1v-14.8c0-1.4-0.4-2.4-1.1-3.2c-0.7-0.7-1.7-1.1-3-1.1
			c-3.6,0-5.4,2.1-5.4,6.3l-1.3-5.8h1.8c0.1-1.5,0.7-2.7,1.7-3.4s2.4-1.1,4.3-1.1c2.4,0,4.3,0.7,5.6,2.2c1.3,1.5,2,3.5,2,6.2v14.8
			H346.8z"/>
		<path class="st2" d="M366.1,530.5c-3,0-5.2-1-6.8-2.9c-1.5-2-2.3-4.8-2.3-8.7c0-4,0.8-6.9,2.3-9c1.5-2,3.8-3.1,6.8-3.1
			c1.8,0,3.2,0.4,4.3,1.2c1.1,0.8,1.7,1.9,1.9,3.4h1.8l-1.5,6.5c0-2.3-0.5-4.1-1.4-5.3c-0.9-1.2-2.3-1.8-4.1-1.8
			c-1.8,0-3.2,0.7-4.2,2.1s-1.4,3.4-1.4,6.1c0,2.5,0.5,4.5,1.4,5.8c0.9,1.3,2.3,2,4.2,2c1.8,0,3.1-0.6,4.1-1.8
			c0.9-1.2,1.4-3,1.4-5.3l1.5,6.5h-2c-0.1,1.4-0.7,2.5-1.8,3.4C369.2,530.1,367.8,530.5,366.1,530.5z M358.8,540.4l-0.2-4.2l7.3-0.2
			c2.3-0.1,4-0.7,5-1.9c1-1.2,1.6-3,1.6-5.3v-16.6l0.4-4.8h4.1v20.8c0,4.1-0.9,7-2.8,9s-4.8,3-8.8,3.1L358.8,540.4z"/>
		<path class="st2" d="M419.4,530.5c-7.5,0-11.3-5.2-11.3-15.5c0-10.6,3.8-15.9,11.3-15.9c7.5,0,11.3,5.3,11.3,15.9
			C430.6,525.4,426.9,530.5,419.4,530.5z M419.4,526.6c4.4,0,6.7-3.8,6.7-11.5c0-8-2.2-11.9-6.7-11.9c-4.4,0-6.7,4-6.7,11.9
			C412.7,522.7,414.9,526.6,419.4,526.6z"/>
		<path class="st2" d="M435.9,530.1v-22.8h4.1l0.4,4.8v18H435.9z M449.9,530.1v-14.8c0-1.4-0.4-2.4-1.1-3.2c-0.7-0.7-1.7-1.1-3-1.1
			c-3.6,0-5.4,2.1-5.4,6.3l-1.3-5.8h1.8c0.1-1.5,0.7-2.7,1.7-3.4s2.4-1.1,4.3-1.1c2.4,0,4.3,0.7,5.6,2.2c1.3,1.5,2,3.5,2,6.2v14.8
			H449.9z"/>
		<path class="st2" d="M460.2,501.9v-4h7.1v4H460.2z M474.3,530.5c-2.6,0-4.5-0.7-5.7-2.1c-1.2-1.4-1.8-3.7-1.8-6.9v-23.6h4.6v23.4
			c0,1.2,0.1,2.2,0.3,2.9c0.2,0.8,0.7,1.3,1.3,1.7c0.7,0.4,1.7,0.5,3,0.5c1.2,0,2.7-0.3,4.6-0.8l0.5,4c-1.2,0.3-2.3,0.5-3.3,0.7
			C476.7,530.5,475.6,530.5,474.3,530.5z"/>
		<path class="st2" d="M487.3,530.1v-4h9.1v4H487.3z M488.6,511.3v-4h11.9v4H488.6z M498.1,503.7c-0.9,0-1.6-0.3-2.2-0.9
			s-0.9-1.4-0.9-2.2c0-0.9,0.3-1.6,0.9-2.3c0.6-0.6,1.4-0.9,2.2-0.9c0.9,0,1.6,0.3,2.3,0.9c0.6,0.6,0.9,1.4,0.9,2.3
			c0,0.9-0.3,1.6-0.9,2.2C499.7,503.4,499,503.7,498.1,503.7z M495.9,530.1v-21.5h4.6v21.5H495.9z M500.1,530.1v-4h7.4v4H500.1z"/>
		<path class="st2" d="M513.2,530.1v-22.8h4.1l0.4,4.8v18H513.2z M527.2,530.1v-14.8c0-1.4-0.4-2.4-1.1-3.2c-0.7-0.7-1.7-1.1-3-1.1
			c-3.6,0-5.4,2.1-5.4,6.3l-1.3-5.8h1.8c0.1-1.5,0.7-2.7,1.7-3.4s2.4-1.1,4.3-1.1c2.4,0,4.3,0.7,5.6,2.2c1.3,1.5,2,3.5,2,6.2v14.8
			H527.2z"/>
		<path class="st2" d="M550.3,530.5c-3.9,0-6.9-1-9-3.1c-2.1-2-3.2-5-3.2-8.8c0-3.7,0.9-6.6,2.7-8.7c1.8-2.1,4.3-3.1,7.6-3.1
			c3.1,0,5.5,0.9,7.1,2.8c1.7,1.9,2.5,4.6,2.5,8.1c0,1,0,2-0.1,2.9h-16v-3.5h12c0-2-0.5-3.6-1.5-4.7c-1-1.1-2.3-1.6-4-1.6
			c-1.9,0-3.4,0.7-4.5,2c-1.1,1.3-1.6,3.2-1.6,5.6c0,2.6,0.7,4.6,2.2,6c1.5,1.4,3.6,2.1,6.3,2.1c0.9,0,1.9-0.1,2.8-0.2
			c0.9-0.1,1.8-0.3,2.8-0.4l0.6,4c-1.3,0.3-2.6,0.4-3.7,0.5C552.1,530.5,551.1,530.5,550.3,530.5z"/>
		<path class="st2" d="M602,530.5c-3.9,0-6.9-1-9-3.1c-2.1-2-3.2-5-3.2-8.8c0-3.7,1-6.6,3-8.7s4.9-3.1,8.6-3.1
			c2.2,0,4.1,0.4,5.7,1.2c1.6,0.8,2.7,2,3.4,3.5l-3.5,2.6c-0.6-1-1.5-1.9-2.5-2.4c-1-0.6-2.1-0.9-3.3-0.9c-2.1,0-3.8,0.6-5,1.9
			c-1.2,1.3-1.8,3.1-1.8,5.5c0,2.6,0.7,4.6,2.1,5.9c1.4,1.4,3.4,2.1,6,2.1c1.1,0,2.1,0,3.2-0.2c1.1-0.1,2.1-0.2,3.1-0.4l0.5,4
			c-1.2,0.3-2.4,0.4-3.6,0.5C604.4,530.5,603.2,530.5,602,530.5z"/>
		<path class="st2" d="M623.4,530.5c-2.4,0-4.2-0.7-5.6-2.1c-1.3-1.4-2-3.4-2-6v-15h4.6v15c0,1.3,0.4,2.3,1.1,3
			c0.7,0.7,1.8,1.1,3.1,1.1c1.7,0,2.9-0.5,3.8-1.6c0.8-1.1,1.3-2.8,1.3-5.3l1.2,6.1h-1.5c-0.4,1.5-1.1,2.7-2.1,3.6
			C626.2,530.1,624.9,530.5,623.4,530.5z M629.7,523.7v-16.3h4.6v15L629.7,523.7z M630.1,530.3l-0.4-5.5v-4h4.6v5.1l3.1,0.5v3.7
			L630.1,530.3z"/>
		<path class="st2" d="M667.3,530.1v-30.5h4.5v30.5H667.3z M671.5,518.5v-4.1h6.3c1.7,0,3-0.5,4-1.4c1-0.9,1.4-2.2,1.4-3.8
			c0-1.8-0.5-3.2-1.4-4.1c-1-1-2.3-1.5-4-1.5h-6.2l-0.5-4.1h6.7c3.2,0,5.6,0.8,7.3,2.4c1.7,1.6,2.6,3.9,2.6,6.8
			c0,3.1-0.9,5.4-2.6,7.1c-1.7,1.7-4.2,2.5-7.3,2.5H671.5z M683.7,530.1l-6.8-14.4h4.7l7.3,14.4H683.7z"/>
		<path class="st2" d="M704.9,530.5c-3.9,0-6.9-1-9-3.1c-2.1-2-3.2-5-3.2-8.8c0-3.7,0.9-6.6,2.7-8.7c1.8-2.1,4.3-3.1,7.6-3.1
			c3.1,0,5.5,0.9,7.1,2.8c1.7,1.9,2.5,4.6,2.5,8.1c0,1,0,2-0.1,2.9h-16v-3.5h12c0-2-0.5-3.6-1.5-4.7c-1-1.1-2.3-1.6-4-1.6
			c-1.9,0-3.4,0.7-4.5,2c-1.1,1.3-1.6,3.2-1.6,5.6c0,2.6,0.7,4.6,2.2,6c1.5,1.4,3.6,2.1,6.3,2.1c0.9,0,1.9-0.1,2.8-0.2
			c0.9-0.1,1.8-0.3,2.8-0.4l0.6,4c-1.3,0.3-2.6,0.4-3.7,0.5C706.8,530.5,705.8,530.5,704.9,530.5z"/>
		<path class="st2" d="M719.4,511.4v-4h18.3v4H719.4z M722.5,528.7l-3.1-2.6l15.2-17.2l3.1,2.5L722.5,528.7z M719.4,530.1v-4h18.7v4
			H719.4z"/>
		<path class="st2" d="M752.3,530.5c-2.4,0-4.2-0.7-5.6-2.1c-1.3-1.4-2-3.4-2-6v-15h4.6v15c0,1.3,0.4,2.3,1.1,3
			c0.7,0.7,1.8,1.1,3.1,1.1c1.7,0,2.9-0.5,3.8-1.6c0.8-1.1,1.3-2.8,1.3-5.3l1.2,6.1h-1.5c-0.4,1.5-1.1,2.7-2.1,3.6
			C755.1,530.1,753.8,530.5,752.3,530.5z M758.6,523.7v-16.3h4.6v15L758.6,523.7z M759,530.3l-0.4-5.5v-4h4.6v5.1l3.1,0.5v3.7
			L759,530.3z"/>
		<path class="st2" d="M769.5,501.9v-4h7.1v4H769.5z M783.7,530.5c-2.6,0-4.5-0.7-5.7-2.1c-1.2-1.4-1.8-3.7-1.8-6.9v-23.6h4.6v23.4
			c0,1.2,0.1,2.2,0.3,2.9c0.2,0.8,0.7,1.3,1.3,1.7c0.7,0.4,1.7,0.5,3,0.5c1.2,0,2.7-0.3,4.6-0.8l0.5,4c-1.2,0.3-2.3,0.5-3.3,0.7
			C786.1,530.5,784.9,530.5,783.7,530.5z"/>
		<path class="st2" d="M794.7,511.3v-4h20.6v4H794.7z M800.4,519.4v-18.9h4.6v18.9H800.4z M810.2,530.5c-3.5,0-5.9-0.7-7.5-2.1
			c-1.5-1.4-2.3-3.7-2.3-6.9v-3.9h4.6v3.7c0,1.8,0.4,3.1,1.3,3.9s2.3,1.2,4.4,1.2c0.7,0,1.5,0,2.3-0.1c0.8-0.1,1.7-0.2,2.8-0.3
			l0.5,4c-1,0.2-2,0.3-2.9,0.4C812.3,530.5,811.3,530.5,810.2,530.5z"/>
		<path class="st2" d="M828.5,530.5c-2.4,0-4.2-0.6-5.5-1.7c-1.3-1.1-2-2.8-2-4.9c0-2.4,0.9-4.3,2.7-5.5c1.8-1.3,4.3-1.9,7.6-1.9
			c1.4,0,2.6,0.1,3.6,0.2c1.1,0.2,2,0.4,2.8,0.7l-0.9,3.1c-1-0.2-1.9-0.3-2.8-0.4c-0.9,0-1.9-0.1-2.8-0.1c-4,0-5.9,1.2-5.9,3.6
			c0,1,0.3,1.8,1,2.3c0.7,0.5,1.6,0.8,2.9,0.8c1.4,0,2.6-0.2,3.6-0.7c1-0.5,1.7-1.1,2.1-1.9c0.5-0.8,0.7-1.5,0.7-2.3v-2.5l1.3,5.8
			h-1.8l0.7-0.7c0,1.3-0.3,2.4-0.9,3.3c-0.6,0.9-1.5,1.5-2.6,2C831.3,530.3,830,530.5,828.5,530.5z M836.6,530.3l-0.3-6.7l-0.6-1.9
			v-5.9c0-1.5-0.5-2.6-1.6-3.3c-1.1-0.7-2.7-1.1-4.8-1.1l-5.5-0.2l0.4-4l4.6,0.1c3.8,0.1,6.6,0.9,8.4,2.4s2.7,3.9,2.7,6.9v9.5
			l3.9,0.5v3.7L836.6,530.3z"/>
		<path class="st2" d="M846.3,511.3v-4h20.6v4H846.3z M852,519.4v-18.9h4.6v18.9H852z M861.8,530.5c-3.5,0-5.9-0.7-7.5-2.1
			c-1.5-1.4-2.3-3.7-2.3-6.9v-3.9h4.6v3.7c0,1.8,0.4,3.1,1.3,3.9s2.3,1.2,4.4,1.2c0.7,0,1.5,0,2.3-0.1c0.8-0.1,1.7-0.2,2.8-0.3
			l0.5,4c-1,0.2-2,0.3-2.9,0.4C863.9,530.5,862.9,530.5,861.8,530.5z"/>
		<path class="st2" d="M885.4,530.5c-3.9,0-6.9-1-9-3.1c-2.1-2-3.2-5-3.2-8.8c0-3.7,0.9-6.6,2.7-8.7c1.8-2.1,4.3-3.1,7.6-3.1
			c3.1,0,5.5,0.9,7.1,2.8c1.7,1.9,2.5,4.6,2.5,8.1c0,1,0,2-0.1,2.9h-16v-3.5h12c0-2-0.5-3.6-1.5-4.7c-1-1.1-2.3-1.6-4-1.6
			c-1.9,0-3.4,0.7-4.5,2c-1.1,1.3-1.6,3.2-1.6,5.6c0,2.6,0.7,4.6,2.2,6c1.5,1.4,3.6,2.1,6.3,2.1c0.9,0,1.9-0.1,2.8-0.2
			c0.9-0.1,1.8-0.3,2.8-0.4l0.6,4c-1.3,0.3-2.6,0.4-3.7,0.5C887.3,530.5,886.3,530.5,885.4,530.5z"/>
	</g>
</g>
</svg>
