<svg id="Layer_1" data-name="Layer 1" xmlns="http://www.w3.org/2000/svg" xmlns:xlink="http://www.w3.org/1999/xlink" viewBox="0 0 505.39 305.39"><defs><style>.cls-1{fill:none;}.cls-2{clip-path:url(#clip-path);}.cls-3{clip-path:url(#clip-path-2);}.cls-4{clip-path:url(#clip-path-3);}.cls-5{clip-path:url(#clip-path-4);}.cls-6{clip-path:url(#clip-path-5);}.cls-7{fill:#4f46e5;}.cls-8{fill:#fff;}</style><clipPath id="clip-path" transform="translate(-707.81 -338.01)"><rect id="SVGID" class="cls-1" x="937.71" y="367.91" width="275.48" height="275.48"/></clipPath><clipPath id="clip-path-2" transform="translate(-707.81 -338.01)"><path id="SVGID-2" data-name="SVGID" class="cls-1" d="M1075.45,367.91a137.75,137.75,0,1,0,137.74,137.75,137.74,137.74,0,0,0-137.74-137.75"/></clipPath><clipPath id="clip-path-3" transform="translate(-707.81 -338.01)"><rect id="SVGID-3" data-name="SVGID" class="cls-1" x="924.19" y="337.8" width="288.94" height="79"/></clipPath><clipPath id="clip-path-4" transform="translate(-707.81 -338.01)"><rect id="SVGID-4" data-name="SVGID" class="cls-1" x="787.79" y="626.42" width="1.33" height="1.33"/></clipPath><clipPath id="clip-path-5" transform="translate(-707.81 -338.01)"><rect id="SVGID-5" data-name="SVGID" class="cls-1" x="793.87" y="596.88" width="42" height="147" transform="translate(-234.92 563.74) rotate(-33.64)"/></clipPath></defs><g class="cls-2"><g class="cls-3"><path d="M937.71,367.91h275.48V643.4H937.71Z" transform="translate(-707.81 -338.01)"/></g></g><g class="cls-4"><path d="M1199.56,368.48c-.39-3.27-.75-6.59-1.42-9.83a24.79,24.79,0,0,0-1.27-4.31c-.54-1.31-1.17-3.07-2.69-3.51s-2.88.79-4,1.7-2.47,2-3.68,3q-3.57,3-6.94,6.19a142.44,142.44,0,0,0-14.18,15.78,1.47,1.47,0,0,0,.53,2,1.42,1.42,0,0,0,1.75-.25,1.28,1.28,0,0,0,1,.38,33.8,33.8,0,0,1,5.51.16c0,1.16-.09,2.31-.14,3.46a1.49,1.49,0,0,0,2.22,1.27,3.36,3.36,0,0,1,4.39,2c.38,1.15-.25,2.45-.51,3.57a5.14,5.14,0,0,0,.43,4.15,1.51,1.51,0,0,0,2.32.3c1.39-1.18,3.69-.66,4.87.57,1.59,1.66,1.5,4.23.76,6.24-.54,1.5,1.46,2.3,2.47,1.43C1200.73,394.26,1201,380.31,1199.56,368.48Zm-9.76-8.7c0,1.3.09,2.6.11,3.9l-.17,0a1.4,1.4,0,0,0-.55-1.19,1.35,1.35,0,0,0-.33-.19q-.21-.56-.48-1.11Zm-2.76,10.8a1.48,1.48,0,0,0-1.07.36l0-.2a1.15,1.15,0,0,0,.6-.37,5.17,5.17,0,0,0,.42-.51Zm2.94-1.91c0,.48,0,1,0,1.44h0c0-.2,0-.4,0-.59,0-1-.07-2-.17-3l.06,0,.1,0C1190,367.19,1190,367.93,1190,368.67Zm-7.25,7.72a19.4,19.4,0,0,1-.36-6.44,12.28,12.28,0,0,1,.55,1.65A42.53,42.53,0,0,0,1182.73,376.39Zm-4.91-3.53Zm-.79.21Zm16.4,1.39a38.22,38.22,0,0,1-.23,5.24c-.07-1-.19-2-.35-3.05l0-.25c.16-2.07.07-4.19.06-6.26,0-.21,0-.42,0-.62.13.49.26,1,.38,1.46Q1193.42,372.72,1193.43,374.46Zm-9.67-8c-.11-.17-.23-.33-.34-.49l.58-.56Zm-4.44,4.84a3.91,3.91,0,0,0-.73-.68l.83-.81C1179.38,370.26,1179.34,370.76,1179.32,371.25Zm-2.26,6.87a1.68,1.68,0,0,0-.35-.64c.27.07.53.14.8.23A3,3,0,0,0,1177.06,378.12Zm13,15.14-.15-.18.15-.13Zm-3.82-2.4a1.18,1.18,0,0,0,.19.25l-.46-.09Zm5.48,5.78a1.5,1.5,0,0,0,.66.08l-.52.72A7.45,7.45,0,0,0,1191.69,396.64Zm1.66-42.86a.3.3,0,0,1-.07-.13.56.56,0,0,0,.07.13l.06-.06c.18-.26.07.14-.05.07a.24.24,0,0,1,.07.12,8.14,8.14,0,0,0,.49,1,21.42,21.42,0,0,1,1.24,3.91c.65,2.89,1,5.86,1.34,8.79.32,2.59.6,5.22.74,7.85-.25-1.57-.58-3.13-1-4.67a97.3,97.3,0,0,0-1.22-10.67,28.11,28.11,0,0,0-.74-3.87,1.74,1.74,0,0,0-2.44-1,1.68,1.68,0,0,0-.3-.15l.38-.31A8.71,8.71,0,0,0,1193.35,353.78Zm-219-9.26a143.41,143.41,0,0,0-30.13-6.15,56.73,56.73,0,0,0-12-.07,2.22,2.22,0,0,0-.37.09,1.33,1.33,0,0,0-.85.56h0l-.09.17a1.08,1.08,0,0,0-.08.19.11.11,0,0,0,0,.06,143.28,143.28,0,0,0-5.53,50.72,52.63,52.63,0,0,0,2.29,13.43c1.46,4.24,3.47,9,7,12,1.43,1.22,3.52-.85,2.08-2.08-2.87-2.45-4.58-6.27-5.86-9.74a39.55,39.55,0,0,1-1.67-5.76,54.05,54.05,0,0,1-.79-6.84,140.23,140.23,0,0,1,1.24-32.75,142.13,142.13,0,0,1,3.83-17.28,56.05,56.05,0,0,1,9.07.06A118.94,118.94,0,0,1,955.86,343a134.84,134.84,0,0,1,30.28,9.1,70,70,0,0,1,14.39,8.3,1.52,1.52,0,0,0,2.08,0,1.46,1.46,0,0,0,0-2.07C994.31,351.82,984.34,347.66,974.35,344.52Zm-14.22,24.76a101.6,101.6,0,0,0-12.31-11c-2-1.51-4-3-6.05-4.3a1.45,1.45,0,0,0-2.17,1.49,1.49,1.49,0,0,0-.25.57c-2.73,13-5.41,27,.86,39.44a27.14,27.14,0,0,0,6.06,8,1.5,1.5,0,0,0,2.32-.3A4.91,4.91,0,0,0,949,400c-.11-.78-.47-1.75-.08-2.5,1-1.87,3.9-1.1,5.46-.73a1.49,1.49,0,0,0,1.87-1.42c0-2-.84-3.93-.77-5.93a2.51,2.51,0,0,1,.62-1.77c.3-.27.95-.51,1.28-.2,1,.91,3,0,2.46-1.44a2.51,2.51,0,0,1,1.48-3c1.61-.77,3.57-.29,5.18.2a1.32,1.32,0,0,0,1.37-.32,1.23,1.23,0,0,0,.45-1.49C966.73,376.73,963.43,372.78,960.13,369.28ZM946,397l-.07-.08-.08-.12.24-.08C946,396.79,946,396.88,946,397Zm-1.36-20.63a1.76,1.76,0,0,0-1,.16c-.05-.86-.09-1.73-.14-2.59C943.86,374.72,944.23,375.53,944.6,376.34Zm1.34-10.8s0,0,0,0l.1-.08A.42.42,0,0,0,945.94,365.54Zm2.77,25.27a1.23,1.23,0,0,0,.63-.05l.5.6-1.19.13Zm10.12-13.89c-.69-.59-1.38-1.18-2.05-1.77a1.4,1.4,0,0,0-.39-.75,1.68,1.68,0,0,0-.89-.42l-.08-.07a1.22,1.22,0,0,0,.24-.43c.67.8,1.36,1.59,2,2.4a1.38,1.38,0,0,0,1.37.38l.45.43.11.11C959.34,376.83,959.09,376.87,958.83,376.92Zm-11.07-12.14a1.5,1.5,0,0,0,0,.2,1.4,1.4,0,0,0-1.26,0,1.34,1.34,0,0,0,.32-1.15Zm-2.85-2.14a7.46,7.46,0,0,1-.1-.81c.24.24.49.46.72.7A1.26,1.26,0,0,0,944.91,362.64Zm-3.72-.9c.11.46.21.92.32,1.37a2,2,0,0,0-.69.56C940.94,363,941.06,362.38,941.19,361.74Zm-1,5.82c0,.05,0,.11,0,.16s0,.12-.07.19Zm12.93,25.7a2,2,0,0,1,0,.26l-.19,0A1.14,1.14,0,0,0,953.08,393.26Zm-.35-5.49h0Zm9.92-8.12a1.35,1.35,0,0,0,.59-.81,3.39,3.39,0,0,0,.08-.94c.38.58.75,1.19,1.08,1.8A10.27,10.27,0,0,0,962.65,379.65Zm247.89-21.36a143.83,143.83,0,0,0-4.22-18.91s0,0,0,0a1.6,1.6,0,0,0-.1-.23l-.06-.11-.06-.08a1.28,1.28,0,0,0-.81-.53,2.34,2.34,0,0,0-.38-.09,52.58,52.58,0,0,0-10.42-.06,129.74,129.74,0,0,0-14.14,1.9,137.41,137.41,0,0,0-31.09,9.48,72.12,72.12,0,0,0-14.76,8.66,1.47,1.47,0,0,0,0,2.07,1.52,1.52,0,0,0,2.09,0c8-6.2,17.74-10.13,27.33-13.12a139.81,139.81,0,0,1,29.18-5.93,59.2,59.2,0,0,1,10.65-.18,140.62,140.62,0,0,1,5.33,31.68,144.77,144.77,0,0,1-.1,16.27,52.47,52.47,0,0,1-2.09,13.18c-1.3,4-3.13,8.45-6.38,11.23-1.44,1.23.65,3.3,2.08,2.08,3.13-2.67,5-6.78,6.44-10.53a46.78,46.78,0,0,0,2.67-12.85A144.51,144.51,0,0,0,1210.54,358.29Zm-56-2.18a1.44,1.44,0,0,0-1.13.16l-3.76,2.63a1.5,1.5,0,0,0-.68.88,1.53,1.53,0,0,0,.14,1.13,1.5,1.5,0,0,0,.89.67,1.47,1.47,0,0,0,1.14-.14l3.76-2.64a1.6,1.6,0,0,0,.67-.88,1.44,1.44,0,0,0-.15-1.13A1.5,1.5,0,0,0,1154.54,356.11Zm38.81-2.33h0S1193.36,353.78,1193.35,353.78Z" transform="translate(-707.81 -338.01)"/></g><g class="cls-5"><g class="cls-6"><g class="cls-6"><path d="M788.13,626.73c0,.19,0,.38,0,.57A.43.43,0,0,0,788.13,626.73Z" transform="translate(-707.81 -338.01)"/></g></g></g><path class="cls-7" d="M736.62,503.45l-5.4-12.19-2.45,12.19-8,40.16h-13l17.79-86.06H727L750.66,504l7,15.58,7-15.58,23.19-46.48h1.29l18.5,86.06H794.81l-8.67-40.16-2.56-12.19-4.69,12.19L758,543.61h-.69Z" transform="translate(-707.81 -338.01)"/><path class="cls-7" d="M842.23,544.78a27.11,27.11,0,0,1-13.42-3.44,25.85,25.85,0,0,1-9.83-9.83,29.35,29.35,0,0,1-3.69-14.94,32.15,32.15,0,0,1,3.21-14.75,23.45,23.45,0,0,1,9.21-9.83,27.15,27.15,0,0,1,14.06-3.52,23.38,23.38,0,0,1,8.77,1.64,25,25,0,0,1,6.92,4,12.85,12.85,0,0,1,3.75,4.75l.23-9H873.5v53.75H861.56l-.25-9.48a18,18,0,0,1-7.25,7.44A22.29,22.29,0,0,1,842.23,544.78Zm2.1-10.54a15.15,15.15,0,0,0,11.25-4.63q4.56-4.62,4.56-12.1v-.84a19.05,19.05,0,0,0-2.1-9,15.61,15.61,0,0,0-5.75-6.18,14.88,14.88,0,0,0-8-2.23q-7.49,0-11.58,4.85t-4.11,12.58q0,7.86,4.05,12.71T844.33,534.24Z" transform="translate(-707.81 -338.01)"/><path class="cls-7" d="M890.11,489.86h12.65V500.4a18.34,18.34,0,0,1,6.08-8.66,15.33,15.33,0,0,1,9.63-3.27,13.34,13.34,0,0,1,5.14.68l-1.75,12.77c-.7-.46-2.24-.7-4.58-.7a15.89,15.89,0,0,0-10,3.52q-4.5,3.5-4.5,11.23v27.64H890.11Z" transform="translate(-707.81 -338.01)"/><path class="cls-8" d="M1007.6,503.23l-15.92,29.86h-2.23l-22.6-53.75h13.58L992,510.61l15.35-31.27h.46l15.46,31,11.6-31h13.34l-22.48,53.75h-2.23Z" transform="translate(-707.81 -338.01)"/><path class="cls-8" d="M1082.31,534.25q-9.61,0-16-3.79a23.53,23.53,0,0,1-9.5-10.19,32.1,32.1,0,0,1-3-14,30.47,30.47,0,0,1,3.56-15,24.56,24.56,0,0,1,9.9-9.87,29.36,29.36,0,0,1,14.31-3.46q12.39,0,18.41,6.85t6,19.25a62.23,62.23,0,0,1-.36,6.57H1067q1.29,7.14,5.1,10.31t10.6,3.15a38,38,0,0,0,9.25-.94,30.48,30.48,0,0,0,6.67-2.56l3.88,9a30.46,30.46,0,0,1-8,3.29A46.48,46.48,0,0,1,1082.31,534.25Zm11.35-32.43c.09-4.84-1-8.24-3.16-10.23s-5.3-3-9.36-3q-12.3,0-14.18,13.23Z" transform="translate(-707.81 -338.01)"/><path class="cls-8" d="M1151,534.25a22,22,0,0,1-11.77-3.21,18.31,18.31,0,0,1-7.21-7.43l-.23,9.48h-12.16V447h12.39v33.13l-.58,9.14q2-4.68,7.79-8a24.9,24.9,0,0,1,12.59-3.33,26.36,26.36,0,0,1,13.87,3.56,23.61,23.61,0,0,1,9.08,10,32.91,32.91,0,0,1,3.17,14.81,29,29,0,0,1-3.69,14.88,25.6,25.6,0,0,1-9.83,9.71A27.33,27.33,0,0,1,1151,534.25Zm-2.1-10.54q7.61,0,11.71-4.85t4.1-12.59q0-7.84-4-12.7t-11.77-4.86a15.15,15.15,0,0,0-11.25,4.63q-4.56,4.62-4.56,12.1v.83a18.54,18.54,0,0,0,2.16,9,16.39,16.39,0,0,0,5.73,6.21A14.74,14.74,0,0,0,1148.94,523.71Z" transform="translate(-707.81 -338.01)"/><path d="M745.88,578.94h-3.06l-2.25-3.62-.62-1.23-1.44,1.56v3.29H736V561.19h2.48v9.73l0,1.9,4.22-5h3.21l-4.16,4.65Z" transform="translate(-707.81 -338.01)"/><path d="M753.21,579.19a6.38,6.38,0,0,1-3.32-.79,4.75,4.75,0,0,1-1.95-2.1,6.6,6.6,0,0,1-.63-2.88,6.34,6.34,0,0,1,.73-3.1,5.13,5.13,0,0,1,2-2,6.17,6.17,0,0,1,3-.71,4.73,4.73,0,0,1,3.79,1.42,5.81,5.81,0,0,1,1.25,4,12.34,12.34,0,0,1-.08,1.34h-8a3.57,3.57,0,0,0,1,2.14,3.33,3.33,0,0,0,2.19.65,7.85,7.85,0,0,0,1.92-.19,6.41,6.41,0,0,0,1.37-.54l.79,1.85a5.65,5.65,0,0,1-1.64.69A9.59,9.59,0,0,1,753.21,579.19Zm2.33-6.68a2.68,2.68,0,0,0-.67-2.11,2.71,2.71,0,0,0-1.91-.62c-1.69,0-2.66.91-2.92,2.73Z" transform="translate(-707.81 -338.01)"/><path d="M761.78,570h-2v-2.13h2v-4.52l2.62-.58v5.1H767V570H764.4v9h-2.62Z" transform="translate(-707.81 -338.01)"/><path d="M769.29,567.86H772v11.08h-2.68Zm1.33-2.08a1.77,1.77,0,0,1-1.27-.5,1.72,1.72,0,0,1-.5-1.25,1.57,1.57,0,0,1,.5-1.17,1.79,1.79,0,0,1,1.27-.48,1.71,1.71,0,0,1,1.23.48,1.57,1.57,0,0,1,.5,1.17,1.72,1.72,0,0,1-.5,1.25A1.64,1.64,0,0,1,770.62,565.78Z" transform="translate(-707.81 -338.01)"/><path d="M775.6,567.86h2.56l0,2a3.78,3.78,0,0,1,1.44-1.64,4,4,0,0,1,2.33-.67,4.23,4.23,0,0,1,2.62.71,3.42,3.42,0,0,1,1.23,2,13.63,13.63,0,0,1,.34,3.33v5.33h-2.63v-5.27a8.22,8.22,0,0,0-.41-3,1.64,1.64,0,0,0-1.67-.94,2.87,2.87,0,0,0-1.48.46,3.52,3.52,0,0,0-1.25,1.29,3.83,3.83,0,0,0-.5,2v5.5h-2.6Z" transform="translate(-707.81 -338.01)"/><path d="M794.87,584.74a9.27,9.27,0,0,1-2.44-.34,7.9,7.9,0,0,1-1.68-.62l.56-2.42a6.3,6.3,0,0,0,3.48,1,4.09,4.09,0,0,0,2.44-.71,3.18,3.18,0,0,0,1-2.73v-2a4.14,4.14,0,0,1-1.65,1.58,5,5,0,0,1-2.5.62,5.32,5.32,0,0,1-2.67-.7,5.25,5.25,0,0,1-1.91-2,6.62,6.62,0,0,1-.69-3.1,6.44,6.44,0,0,1,.67-3,4.84,4.84,0,0,1,1.89-2,5.51,5.51,0,0,1,2.88-.73,4.68,4.68,0,0,1,1.79.35,5,5,0,0,1,1.44.84,2.54,2.54,0,0,1,.79,1l.06-1.85h2.46v11a6,6,0,0,1-1.46,4.33A5.92,5.92,0,0,1,794.87,584.74Zm-.06-7.75a3.14,3.14,0,0,0,2.31-.94,3.41,3.41,0,0,0,1-2.52v-.17a3.86,3.86,0,0,0-.44-1.85,3.17,3.17,0,0,0-1.19-1.27,3.06,3.06,0,0,0-1.64-.46,3,3,0,0,0-2.4,1,3.92,3.92,0,0,0-.83,2.58,4,4,0,0,0,.83,2.63A3,3,0,0,0,794.81,577Z" transform="translate(-707.81 -338.01)"/><path d="M816.71,561.17l8.54,17.77h-3.1l-1.53-3.48h-8.14L811,578.94h-3l8.5-17.77Zm-1.21,7.57L813.58,573h6l-1.91-4.27-1-2.44h-.06Z" transform="translate(-707.81 -338.01)"/><path d="M832,584.74a9.27,9.27,0,0,1-2.44-.34,7.9,7.9,0,0,1-1.68-.62l.56-2.42a6.3,6.3,0,0,0,3.48,1,4.09,4.09,0,0,0,2.44-.71,3.18,3.18,0,0,0,1-2.73v-2a4.14,4.14,0,0,1-1.65,1.58,5,5,0,0,1-2.5.62,5.32,5.32,0,0,1-2.67-.7,5.25,5.25,0,0,1-1.91-2,6.62,6.62,0,0,1-.69-3.1,6.44,6.44,0,0,1,.67-3,4.84,4.84,0,0,1,1.89-2,5.51,5.51,0,0,1,2.88-.73,4.68,4.68,0,0,1,1.79.35,5,5,0,0,1,1.44.84,2.54,2.54,0,0,1,.79,1l.06-1.85h2.46v11a6,6,0,0,1-1.46,4.33A5.92,5.92,0,0,1,832,584.74Zm-.06-7.75a3.14,3.14,0,0,0,2.31-.94,3.41,3.41,0,0,0,1-2.52v-.17a3.86,3.86,0,0,0-.44-1.85,3.15,3.15,0,0,0-1.18-1.27,3.09,3.09,0,0,0-1.65-.46,3,3,0,0,0-2.4,1,3.92,3.92,0,0,0-.83,2.58,4,4,0,0,0,.83,2.63A3,3,0,0,0,831.91,577Z" transform="translate(-707.81 -338.01)"/><path d="M846.48,579.19a6.34,6.34,0,0,1-3.31-.79,4.77,4.77,0,0,1-2-2.1,6.6,6.6,0,0,1-.63-2.88,6.34,6.34,0,0,1,.73-3.1,5.13,5.13,0,0,1,2-2,6.17,6.17,0,0,1,3-.71A4.73,4.73,0,0,1,850.1,569a5.76,5.76,0,0,1,1.25,4,12.34,12.34,0,0,1-.08,1.34h-8a3.57,3.57,0,0,0,1,2.14,3.33,3.33,0,0,0,2.19.65,7.85,7.85,0,0,0,1.92-.19,6.21,6.21,0,0,0,1.37-.54l.79,1.85a5.65,5.65,0,0,1-1.64.69A9.59,9.59,0,0,1,846.48,579.19Zm2.33-6.68a2.71,2.71,0,0,0-.66-2.11,2.75,2.75,0,0,0-1.92-.62c-1.68,0-2.66.91-2.92,2.73Z" transform="translate(-707.81 -338.01)"/><path d="M854.07,567.86h2.56l0,2a3.85,3.85,0,0,1,1.44-1.64,4.06,4.06,0,0,1,2.33-.67,4.26,4.26,0,0,1,2.63.71,3.47,3.47,0,0,1,1.23,2,13.7,13.7,0,0,1,.33,3.33v5.33H862v-5.27a8,8,0,0,0-.42-3,1.63,1.63,0,0,0-1.67-.94,2.87,2.87,0,0,0-1.48.46,3.6,3.6,0,0,0-1.25,1.29,3.83,3.83,0,0,0-.5,2v5.5h-2.6Z" transform="translate(-707.81 -338.01)"/><path d="M873.12,579.19a6.31,6.31,0,0,1-3-.7,5.47,5.47,0,0,1-2.09-2.07,6.78,6.78,0,0,1-.06-6.16,4.83,4.83,0,0,1,2-2,6.16,6.16,0,0,1,3-.71,6.47,6.47,0,0,1,2.19.33,4.23,4.23,0,0,1,1.48.81l-1.17,2.09a3.19,3.19,0,0,0-2.29-1,2.92,2.92,0,0,0-2.35.94,3.62,3.62,0,0,0-.82,2.5,4.22,4.22,0,0,0,.84,2.79,2.89,2.89,0,0,0,2.33,1,5.1,5.1,0,0,0,1.46-.21,4.23,4.23,0,0,0,1.1-.5l.94,1.83a5.22,5.22,0,0,1-1.48.73A6.5,6.5,0,0,1,873.12,579.19Z" transform="translate(-707.81 -338.01)"/><path d="M882.39,579.28l-4.59-11.42h2.94l2.38,7,.54,1.73.52-1.73,2.48-7h2.85L882.7,585H880Z" transform="translate(-707.81 -338.01)"/></svg>