<svg id="Layer_1" data-name="Layer 1" xmlns="http://www.w3.org/2000/svg" xmlns:xlink="http://www.w3.org/1999/xlink" viewBox="0 0 527.28 317.78"><defs><style>.cls-1{fill:none;}.cls-2{clip-path:url(#clip-path);}.cls-3{clip-path:url(#clip-path-2);}.cls-4{clip-path:url(#clip-path-3);}.cls-5{fill:#fff;}.cls-6{fill:#4f46e5;}</style><clipPath id="clip-path" transform="translate(-696.86 -381.72)"><rect id="SVGID" class="cls-1" x="937.48" y="412.84" width="286.66" height="286.67"/></clipPath><clipPath id="clip-path-2" transform="translate(-696.86 -381.72)"><path id="SVGID-2" data-name="SVGID" class="cls-1" d="M1080.81,412.84a143.33,143.33,0,1,0,143.33,143.33,143.33,143.33,0,0,0-143.33-143.33"/></clipPath><clipPath id="clip-path-3" transform="translate(-696.86 -381.72)"><rect id="SVGID-3" data-name="SVGID" class="cls-1" x="924" y="381.5" width="300" height="83"/></clipPath></defs><g class="cls-2"><g class="cls-3"><path d="M937.48,412.84h286.66V699.5H937.48Z" transform="translate(-696.86 -381.72)"/></g></g><g class="cls-4"><path d="M1210.21,413.74c-.41-3.45-.78-6.93-1.48-10.33a25.82,25.82,0,0,0-1.33-4.53c-.55-1.38-1.21-3.23-2.79-3.69s-3,.83-4.22,1.78-2.58,2-3.84,3.12q-3.72,3.12-7.22,6.5a148.12,148.12,0,0,0-14.77,16.58,1.55,1.55,0,0,0,.55,2.11,1.48,1.48,0,0,0,1.83-.26,1.33,1.33,0,0,0,1,.4,34.36,34.36,0,0,1,5.74.17l-.14,3.64a1.55,1.55,0,0,0,2.31,1.33c1.69-.9,4,.33,4.57,2.07.4,1.21-.26,2.57-.54,3.74a5.5,5.5,0,0,0,.46,4.37,1.55,1.55,0,0,0,2.41.31c1.46-1.24,3.84-.69,5.07.6,1.66,1.74,1.57,4.45.8,6.56-.57,1.56,1.51,2.42,2.57,1.5C1211.43,440.82,1211.69,426.16,1210.21,413.74Zm-10.16-9.15c0,1.37.08,2.74.11,4.1l-.17,0a1.48,1.48,0,0,0-.58-1.25,1.45,1.45,0,0,0-.34-.2,12.17,12.17,0,0,0-.51-1.17Zm-2.88,11.35a1.46,1.46,0,0,0-1.11.39l0-.22a1.31,1.31,0,0,0,.63-.39c.15-.17.29-.35.43-.54C1197.15,415.44,1197.16,415.69,1197.17,415.94Zm3.07-2c0,.51,0,1,0,1.52h0c0-.21,0-.42,0-.63,0-1.05-.07-2.11-.17-3.16l0,0,.11,0C1200.21,412.38,1200.23,413.15,1200.24,413.93Zm-7.55,8.11a20.25,20.25,0,0,1-.38-6.76,11.76,11.76,0,0,1,.56,1.74A44.33,44.33,0,0,0,1192.69,422Zm-5.12-3.7Zm-.83.22Zm17.09,1.45a42.5,42.5,0,0,1-.25,5.52c-.08-1.08-.2-2.15-.36-3.22l0-.26c.17-2.17.07-4.4.07-6.58,0-.21,0-.43,0-.64l.39,1.53C1203.77,417.58,1203.81,418.79,1203.83,420Zm-10.08-8.45c-.11-.18-.23-.34-.36-.52l.61-.58C1193.92,410.82,1193.84,411.19,1193.75,411.56Zm-4.62,5.08a4.7,4.7,0,0,0-.76-.72l.87-.84C1189.19,415.6,1189.15,416.12,1189.13,416.64Zm-2.36,7.22a1.59,1.59,0,0,0-.36-.66,7.84,7.84,0,0,1,.83.23C1187.07,423.57,1186.92,423.71,1186.77,423.86Zm13.52,15.9-.17-.18.17-.13C1200.28,439.55,1200.29,439.66,1200.29,439.76Zm-4-2.51a1.79,1.79,0,0,0,.2.26l-.48-.1Zm5.72,6.07a1.56,1.56,0,0,0,.68.09l-.54.75C1202.12,443.88,1202.08,443.6,1202,443.32Zm1.72-45a.29.29,0,0,1-.07-.14.35.35,0,0,0,.08.13l0,0c.19-.28.08.15,0,.06a.66.66,0,0,1,.08.13,7.15,7.15,0,0,0,.51,1,21.76,21.76,0,0,1,1.28,4.11,92.58,92.58,0,0,1,1.4,9.23c.34,2.72.63,5.48.77,8.24-.25-1.65-.6-3.28-1-4.9a100.3,100.3,0,0,0-1.27-11.22,28,28,0,0,0-.77-4.06,1.8,1.8,0,0,0-2.54-1,2,2,0,0,0-.32-.17c.14-.1.27-.21.4-.32A9.7,9.7,0,0,0,1203.74,398.29Zm-228.09-9.74a148.75,148.75,0,0,0-31.38-6.44,57.5,57.5,0,0,0-12.51-.08,2.57,2.57,0,0,0-.38.08,1.39,1.39,0,0,0-.88.6,0,0,0,0,1,0,0l-.1.18a.93.93,0,0,0-.08.2s0,0,0,.06a153,153,0,0,0-5.95,35.48,149.05,149.05,0,0,0,.19,17.81,55.08,55.08,0,0,0,2.39,14.1c1.51,4.46,3.61,9.5,7.26,12.65,1.49,1.28,3.67-.89,2.17-2.19-3-2.58-4.77-6.59-6.1-10.23a43.48,43.48,0,0,1-1.75-6,60.1,60.1,0,0,1-.82-7.2A149,149,0,0,1,929,403.13,152.22,152.22,0,0,1,933,385a59.5,59.5,0,0,1,9.44.06,124.32,124.32,0,0,1,14,1.87,139.08,139.08,0,0,1,31.54,9.57,72.16,72.16,0,0,1,15,8.72,1.58,1.58,0,0,0,2.17,0,1.55,1.55,0,0,0,0-2.18C996.44,396.23,986.06,391.86,975.65,388.55Zm-14.8,26A106.92,106.92,0,0,0,948,403.05c-2-1.58-4.14-3.1-6.31-4.51a1.51,1.51,0,0,0-2.25,1.56,1.55,1.55,0,0,0-.27.61c-2.84,13.62-5.63,28.4.9,41.43a28.29,28.29,0,0,0,6.31,8.37,1.55,1.55,0,0,0,2.41-.3,5.29,5.29,0,0,0,.42-3.39c-.12-.82-.5-1.84-.09-2.63,1-2,4.06-1.15,5.69-.77a1.56,1.56,0,0,0,1.95-1.49c0-2.11-.89-4.13-.81-6.23a2.67,2.67,0,0,1,.65-1.86c.31-.27,1-.53,1.33-.21,1,1,3.13,0,2.56-1.5a2.65,2.65,0,0,1,1.55-3.19c1.67-.81,3.71-.3,5.4.2a1.31,1.31,0,0,0,1.42-.34,1.29,1.29,0,0,0,.46-1.56C967.72,422.4,964.29,418.25,960.85,414.57Zm-14.76,29.1-.07-.09-.09-.13.25-.07A1.4,1.4,0,0,0,946.09,443.67ZM944.67,422a1.74,1.74,0,0,0-1,.16c0-.91-.09-1.81-.14-2.73C943.9,420.29,944.29,421.14,944.67,422Zm1.4-11.36a.05.05,0,0,1,0,0l.09-.08ZM949,437.19a1.24,1.24,0,0,0,.66-.05c.17.22.34.43.52.63l-1.25.14C948.91,437.67,948.93,437.43,949,437.19Zm10.55-14.58c-.73-.62-1.44-1.24-2.15-1.87a1.37,1.37,0,0,0-.4-.78,1.73,1.73,0,0,0-.93-.45l-.08-.07a1.26,1.26,0,0,0,.25-.45c.7.84,1.41,1.67,2.1,2.52a1.4,1.4,0,0,0,1.42.39l.47.46.12.11A5.14,5.14,0,0,0,959.5,422.61ZM948,409.85a1.38,1.38,0,0,0,0,.2.81.81,0,1,1-1-1.2C947.33,409.18,947.64,409.52,948,409.85Zm-3-2.25a7.89,7.89,0,0,1-.1-.85l.75.73A1.31,1.31,0,0,0,945,407.6Zm-3.87-1,.33,1.45a2,2,0,0,0-.72.58ZM940,412.76c0,.06,0,.12,0,.18a1.46,1.46,0,0,0-.07.19Zm13.46,27,0,.26-.2,0A1.2,1.2,0,0,0,953.5,439.77Zm-.36-5.77h0Zm10.33-8.53a1.42,1.42,0,0,0,.61-.85,3.39,3.39,0,0,0,.09-1c.4.62.78,1.25,1.12,1.9A10.1,10.1,0,0,0,963.47,425.47ZM1221.64,403a151.49,151.49,0,0,0-4.39-19.87s0,0,0-.05a.92.92,0,0,0-.09-.23l-.07-.12a.42.42,0,0,0-.06-.08,1.31,1.31,0,0,0-.85-.56,1.7,1.7,0,0,0-.39-.09,54.63,54.63,0,0,0-10.85-.06,132.44,132.44,0,0,0-14.72,2,142.37,142.37,0,0,0-32.39,10,74.29,74.29,0,0,0-15.36,9.1,1.55,1.55,0,0,0,0,2.18,1.57,1.57,0,0,0,2.17,0c8.31-6.52,18.48-10.65,28.46-13.79a145.45,145.45,0,0,1,30.39-6.24,61.43,61.43,0,0,1,11.1-.18,149,149,0,0,1,5.44,50.37,55,55,0,0,1-2.18,13.86c-1.35,4.15-3.26,8.88-6.64,11.79-1.51,1.3.67,3.47,2.17,2.19,3.25-2.81,5.2-7.13,6.7-11.07a49,49,0,0,0,2.78-13.5A152.56,152.56,0,0,0,1221.64,403Zm-58.32-2.28a1.48,1.48,0,0,0-1.18.15l-3.92,2.77a1.62,1.62,0,0,0-.7.92,1.59,1.59,0,0,0,.15,1.19,1.56,1.56,0,0,0,.92.71,1.52,1.52,0,0,0,1.18-.15l3.92-2.77a1.63,1.63,0,0,0,.7-.93,1.53,1.53,0,0,0-1.07-1.89Zm40.43-2.47a0,0,0,0,1,0,0h0Z" transform="translate(-696.86 -381.72)"/></g><path class="cls-5" d="M1010.2,553.65l-16.56,31.06h-2.33l-23.5-55.93h14.12L994,561.32l16-32.54h.5l16.09,32.29,12.06-32.29h13.9l-23.4,55.93h-2.33Z" transform="translate(-696.86 -381.72)"/><path class="cls-5" d="M1088,585.92c-6.66,0-12.24-1.32-16.7-4a24.43,24.43,0,0,1-9.88-10.58,33.41,33.41,0,0,1-3.17-14.56,31.8,31.8,0,0,1,3.71-15.61,25.72,25.72,0,0,1,10.31-10.29,30.51,30.51,0,0,1,14.88-3.6q12.92,0,19.19,7.12t6.27,20a65,65,0,0,1-.38,6.84H1072q1.37,7.44,5.32,10.73t11,3.29a38.83,38.83,0,0,0,9.62-1,31.15,31.15,0,0,0,7-2.69l4,9.4a31.16,31.16,0,0,1-8.31,3.39A47.71,47.71,0,0,1,1088,585.92Zm11.82-33.75q.12-7.53-3.3-10.64t-9.75-3.13q-12.79,0-14.75,13.77Z" transform="translate(-696.86 -381.72)"/><path class="cls-5" d="M1159.47,585.92a23,23,0,0,1-12.25-3.33,18.73,18.73,0,0,1-7.48-7.75l-.25,9.87h-12.67V495.15h12.92v34.48l-.63,9.5q2.09-4.85,8.11-8.33a25.77,25.77,0,0,1,13.1-3.48,27.26,27.26,0,0,1,14.44,3.73,24.31,24.31,0,0,1,9.43,10.35,34.19,34.19,0,0,1,3.3,15.42,30.28,30.28,0,0,1-3.84,15.48,26.67,26.67,0,0,1-10.23,10.1A28.4,28.4,0,0,1,1159.47,585.92Zm-2.19-11c5.27,0,9.34-1.67,12.19-5s4.27-7.74,4.27-13.1-1.41-9.86-4.21-13.23-6.89-5.06-12.25-5.06a15.83,15.83,0,0,0-11.71,4.81q-4.75,4.81-4.75,12.62v.86a19.29,19.29,0,0,0,2.25,9.37,17,17,0,0,0,6,6.46A15.31,15.31,0,0,0,1157.28,575Z" transform="translate(-696.86 -381.72)"/><path class="cls-6" d="M728.23,553.87l-5.61-12.68-2.56,12.68-8.29,41.8H698.25l18.52-89.57h1.46l24.62,48.38,7.32,16.21,7.29-16.21L781.6,506.1h1.34l19.25,89.57h-13.4l-9-41.8-2.69-12.68-4.87,12.68-21.69,41.8h-.73Z" transform="translate(-696.86 -381.72)"/><path class="cls-6" d="M838.13,596.87a28.06,28.06,0,0,1-14-3.58,27.13,27.13,0,0,1-10.25-10.23,30.61,30.61,0,0,1-3.83-15.54,33.35,33.35,0,0,1,3.35-15.35A24.5,24.5,0,0,1,823,541.94a28.22,28.22,0,0,1,14.62-3.67,24.41,24.41,0,0,1,9.15,1.71,25.43,25.43,0,0,1,7.18,4.21,13.4,13.4,0,0,1,3.9,4.93l.25-9.39h12.54v55.94H858.24l-.25-9.88a18.69,18.69,0,0,1-7.57,7.75A23.19,23.19,0,0,1,838.13,596.87Zm2.19-11A15.8,15.8,0,0,0,852,581.1c3.17-3.2,4.77-7.4,4.77-12.6v-.85a19.73,19.73,0,0,0-2.21-9.4,16.3,16.3,0,0,0-6-6.46,15.54,15.54,0,0,0-8.27-2.31q-7.8,0-12.06,5.06T824,567.65q0,8.16,4.2,13.22T840.32,585.92Z" transform="translate(-696.86 -381.72)"/><path class="cls-6" d="M888,539.73h13.15v11a19.1,19.1,0,0,1,6.33-9,15.84,15.84,0,0,1,10-3.42,13.64,13.64,0,0,1,5.37.73L921,552.29c-.74-.48-2.32-.73-4.75-.73a16.62,16.62,0,0,0-10.44,3.67q-4.68,3.64-4.68,11.69v28.75H888Z" transform="translate(-696.86 -381.72)"/><path d="M703.05,635.37l-1.15-2.6-.54,2.6L699.65,644h-2.79l3.83-18.46h.3l5.08,10,1.5,3.35,1.5-3.35,5-10h.27l4,18.46h-2.77l-1.86-8.63-.54-2.6-1,2.6L707.65,644h-.16Z" transform="translate(-696.86 -381.72)"/><path d="M725.7,644.25a6,6,0,0,1-2.88-.73,5.58,5.58,0,0,1-2.1-2.13,6.25,6.25,0,0,1-.79-3.2,6.86,6.86,0,0,1,.68-3.15,5,5,0,0,1,2-2.12,6,6,0,0,1,3-.75,5.11,5.11,0,0,1,1.88.35,5.72,5.72,0,0,1,1.48.87,2.83,2.83,0,0,1,.81,1l0-1.93h2.58V644h-2.56l0-2a3.78,3.78,0,0,1-1.56,1.6A4.77,4.77,0,0,1,725.7,644.25Zm.45-2.25a3.25,3.25,0,0,0,2.42-1,3.58,3.58,0,0,0,1-2.61v-.16a4.12,4.12,0,0,0-.46-1.94,3.23,3.23,0,0,0-1.23-1.33,3.15,3.15,0,0,0-1.71-.48,3,3,0,0,0-2.47,1,4.05,4.05,0,0,0-.88,2.71,4.22,4.22,0,0,0,.85,2.73A3.08,3.08,0,0,0,726.15,642Z" transform="translate(-696.86 -381.72)"/><path d="M736,632.46h2.71v2.27a4.08,4.08,0,0,1,1.31-1.86,3.27,3.27,0,0,1,2.06-.7,3,3,0,0,1,1.1.14l-.37,2.75a1.9,1.9,0,0,0-1-.17,3.46,3.46,0,0,0-2.17.78,2.85,2.85,0,0,0-.95,2.39V644H736Z" transform="translate(-696.86 -381.72)"/><path d="M755.49,644h-3.18L750,640.23l-.66-1.27-1.5,1.62V644H745.2V625.54h2.59v10.13l-.07,2,4.42-5.16h3.33l-4.35,4.83Z" transform="translate(-696.86 -381.72)"/><path d="M763.1,644.25a6.69,6.69,0,0,1-3.44-.81,5.12,5.12,0,0,1-2-2.19,7,7,0,0,1-.65-3,6.41,6.41,0,0,1,.78-3.21,5.16,5.16,0,0,1,2.12-2.12,6.19,6.19,0,0,1,3.06-.75,5,5,0,0,1,4,1.47,6,6,0,0,1,1.29,4.13,13.76,13.76,0,0,1-.08,1.4h-8.29a3.65,3.65,0,0,0,1.1,2.22,3.45,3.45,0,0,0,2.27.67,8.28,8.28,0,0,0,2-.19,5.76,5.76,0,0,0,1.44-.56l.83,1.94a6.87,6.87,0,0,1-1.71.71A10.36,10.36,0,0,1,763.1,644.25Zm2.44-7a2.76,2.76,0,0,0-.67-2.19,3,3,0,0,0-2-.64c-1.75,0-2.77.95-3,2.83Z" transform="translate(-696.86 -381.72)"/><path d="M772,634.69h-2v-2.23h2v-4.69l2.72-.6v5.29h2.67v2.23h-2.67V644H772Z" transform="translate(-696.86 -381.72)"/><path d="M779.83,632.46h2.81V644h-2.81Zm1.37-2.15a1.78,1.78,0,0,1-1.83-1.83,1.6,1.6,0,0,1,.52-1.21,1.88,1.88,0,0,1,1.31-.5,1.77,1.77,0,0,1,1.27.5,1.6,1.6,0,0,1,.55,1.21,1.85,1.85,0,0,1-.52,1.31A1.73,1.73,0,0,1,781.2,630.31Z" transform="translate(-696.86 -381.72)"/><path d="M786.42,632.46h2.65l0,2.12a4,4,0,0,1,1.5-1.73,4.2,4.2,0,0,1,2.42-.68,4.37,4.37,0,0,1,2.73.75A3.54,3.54,0,0,1,797,635a14.82,14.82,0,0,1,.33,3.46V644h-2.71v-5.48a8,8,0,0,0-.44-3.15,1.7,1.7,0,0,0-1.75-1,3.07,3.07,0,0,0-1.54.48,3.7,3.7,0,0,0-1.29,1.34,4.11,4.11,0,0,0-.5,2.06V644h-2.71Z" transform="translate(-696.86 -381.72)"/><path d="M806.47,650a9.49,9.49,0,0,1-2.54-.35,8.25,8.25,0,0,1-1.77-.65l.6-2.5a6.6,6.6,0,0,0,3.63,1.06,4.2,4.2,0,0,0,2.52-.73c.69-.47,1-1.41,1.06-2.83V642a4.18,4.18,0,0,1-1.71,1.64,5.28,5.28,0,0,1-2.6.65,5.51,5.51,0,0,1-2.77-.73,5.23,5.23,0,0,1-2-2.13,6.77,6.77,0,0,1-.73-3.22,6.89,6.89,0,0,1,.69-3.13,5,5,0,0,1,2-2.12,5.86,5.86,0,0,1,3-.75,5.14,5.14,0,0,1,1.9.35,5.72,5.72,0,0,1,1.48.87,2.7,2.7,0,0,1,.83,1l0-1.93h2.57v11.46a6.34,6.34,0,0,1-1.5,4.52A6.19,6.19,0,0,1,806.47,650Zm-.06-8.06a3.27,3.27,0,0,0,2.41-1,3.54,3.54,0,0,0,1-2.61v-.18a4.06,4.06,0,0,0-.45-1.92,3.36,3.36,0,0,0-1.23-1.33,3.2,3.2,0,0,0-1.71-.48,3.05,3.05,0,0,0-2.48,1,4.07,4.07,0,0,0-.88,2.69,4.13,4.13,0,0,0,.86,2.73A3.08,3.08,0,0,0,806.41,642Z" transform="translate(-696.86 -381.72)"/><path d="M829.18,625.5l8.9,18.5h-3.23l-1.58-3.63h-8.48L823.2,644h-3.12l8.83-18.5Zm-1.25,7.87-2,4.48h6.23l-2-4.46-1.08-2.54H829Z" transform="translate(-696.86 -381.72)"/><path d="M845.08,650a9.44,9.44,0,0,1-2.54-.35,8.17,8.17,0,0,1-1.78-.65l.61-2.5a6.59,6.59,0,0,0,3.62,1.06,4.2,4.2,0,0,0,2.52-.73c.7-.47,1-1.41,1.07-2.83V642a4.18,4.18,0,0,1-1.71,1.64,5.32,5.32,0,0,1-2.61.65,5.54,5.54,0,0,1-2.77-.73,5.37,5.37,0,0,1-2-2.13,7.55,7.55,0,0,1,0-6.35,5,5,0,0,1,2-2.12,5.86,5.86,0,0,1,3-.75,5.17,5.17,0,0,1,1.9.35,5.72,5.72,0,0,1,1.48.87,2.8,2.8,0,0,1,.83,1l0-1.93h2.56v11.46a6.34,6.34,0,0,1-1.5,4.52A6.16,6.16,0,0,1,845.08,650ZM845,642a3.3,3.3,0,0,0,2.42-1,3.58,3.58,0,0,0,1-2.61v-.18a4.06,4.06,0,0,0-.46-1.92,3.23,3.23,0,0,0-1.23-1.33,3.15,3.15,0,0,0-1.71-.48,3,3,0,0,0-2.47,1,4,4,0,0,0-.88,2.69,4.18,4.18,0,0,0,.85,2.73A3.11,3.11,0,0,0,845,642Z" transform="translate(-696.86 -381.72)"/><path d="M860.16,644.25a6.69,6.69,0,0,1-3.44-.81,5.06,5.06,0,0,1-2-2.19,7,7,0,0,1-.65-3,6.52,6.52,0,0,1,.77-3.21,5.18,5.18,0,0,1,2.13-2.12,6.19,6.19,0,0,1,3.06-.75,5,5,0,0,1,4,1.47,6,6,0,0,1,1.29,4.13,13.76,13.76,0,0,1-.08,1.4h-8.29a3.65,3.65,0,0,0,1.1,2.22,3.45,3.45,0,0,0,2.27.67,8.39,8.39,0,0,0,2-.19,5.76,5.76,0,0,0,1.44-.56l.83,1.94a7,7,0,0,1-1.71.71A10.42,10.42,0,0,1,860.16,644.25Zm2.43-7a2.72,2.72,0,0,0-.66-2.19,3,3,0,0,0-2-.64c-1.75,0-2.77.95-3,2.83Z" transform="translate(-696.86 -381.72)"/><path d="M868.08,632.46h2.65l0,2.12a4,4,0,0,1,1.5-1.73,4.2,4.2,0,0,1,2.42-.68,4.37,4.37,0,0,1,2.73.75,3.54,3.54,0,0,1,1.27,2.06,14.82,14.82,0,0,1,.33,3.46V644h-2.71v-5.48a8,8,0,0,0-.44-3.15,1.7,1.7,0,0,0-1.75-1,3.07,3.07,0,0,0-1.54.48,3.78,3.78,0,0,0-1.29,1.34,4.11,4.11,0,0,0-.5,2.06V644h-2.71Z" transform="translate(-696.86 -381.72)"/><path d="M887.9,644.25a6.51,6.51,0,0,1-3.08-.73,5.52,5.52,0,0,1-2.19-2.15,6.46,6.46,0,0,1-.79-3.27,6.37,6.37,0,0,1,.73-3.12,5.23,5.23,0,0,1,2.08-2.09,6.54,6.54,0,0,1,3.13-.72,6.81,6.81,0,0,1,2.29.35,4.64,4.64,0,0,1,1.52.83l-1.21,2.19a3.28,3.28,0,0,0-2.37-1.06,3,3,0,0,0-2.46,1,3.85,3.85,0,0,0-.84,2.6,4.42,4.42,0,0,0,.86,2.92,3,3,0,0,0,2.44,1,4.79,4.79,0,0,0,1.5-.23,3.37,3.37,0,0,0,1.14-.54l1,1.91a5.35,5.35,0,0,1-1.54.78A7.19,7.19,0,0,1,887.9,644.25Z" transform="translate(-696.86 -381.72)"/><path d="M897.54,644.35l-4.77-11.89h3.07l2.45,7.35.57,1.77.54-1.77,2.58-7.35h3l-7.1,17.87H895Z" transform="translate(-696.86 -381.72)"/></svg>